<?xml version="1.0" encoding="UTF-8"?>
<svg version="1.1" xmlns="http://www.w3.org/2000/svg" width="512" height="512">
<path d="M0 0 C1.66959778 -0.00717545 1.66959778 -0.00717545 3.3729248 -0.01449585 C5.72307755 -0.01789393 8.07327762 -0.00869813 10.42333984 0.01220703 C14.01897662 0.03897114 17.61149148 0.01245316 21.20703125 -0.01953125 C23.49219439 -0.01622714 25.77735558 -0.00982089 28.0625 0 C29.13657104 -0.01012115 30.21064209 -0.02024231 31.31726074 -0.03067017 C36.09371928 0.04427026 38.7205963 0.10174176 42.7175293 2.87426758 C44.70608343 5.93298451 45.12489904 7.3612655 45.01953125 10.96484375 C45.00341797 11.94130859 44.98730469 12.91777344 44.97070312 13.92382812 C44.92880859 14.93123047 44.88691406 15.93863281 44.84375 16.9765625 C44.80991211 18.51666992 44.80991211 18.51666992 44.77539062 20.08789062 C44.71662575 22.6147804 44.63452849 25.13866505 44.53125 27.6640625 C45.26085937 27.67824219 45.99046875 27.69242188 46.7421875 27.70703125 C53.66753083 28.02337409 59.98554041 29.07894761 66.65625 30.9140625 C67.37087402 31.10637451 68.08549805 31.29868652 68.82177734 31.49682617 C72.95951908 32.68807949 76.54184014 34.20088385 80.34155273 36.22753906 C86.82051426 39.18844602 92.98774718 39.32437443 99.98014641 39.2250824 C102.17123182 39.19461533 104.36039243 39.1961247 106.551651 39.2052002 C111.19093674 39.21899849 115.82957079 39.19446011 120.46875 39.1640625 C125.87407206 39.12884913 131.27845408 39.10966573 136.68387032 39.13218689 C138.83823773 39.1328031 140.99088295 39.10368355 143.14500427 39.07336426 C144.45058792 39.0768689 145.75617157 39.08037354 147.10131836 39.08398438 C148.24950546 39.07556519 149.39769257 39.067146 150.58067322 39.05847168 C153.53125 39.6640625 153.53125 39.6640625 155.90187073 42.01281738 C157.90734983 45.27603348 158.15936793 46.89535493 157.53125 50.6640625 C156.08496094 53.30737305 156.08496094 53.30737305 153.53125 55.6640625 C150.41955512 56.42160053 147.36270439 56.38541548 144.171875 56.37109375 C143.26749695 56.38621506 142.3631189 56.40133636 141.43133545 56.41691589 C138.54772102 56.45984406 135.66515233 56.46863573 132.78125 56.4765625 C130.82419085 56.49970286 128.86715664 56.52506723 126.91015625 56.55273438 C122.11709485 56.61563728 117.32468781 56.64793256 112.53125 56.6640625 C113.0061084 57.13334671 113.4809668 57.60263092 113.97021484 58.08613586 C114.59621582 58.70780136 115.2222168 59.32946686 115.8671875 59.9699707 C116.4864209 60.58362991 117.1056543 61.19728912 117.74365234 61.82954407 C139.09489859 83.74121678 148.10710808 113.11408101 147.74609375 143.1328125 C147.20801872 162.38319873 140.95950387 179.54037668 132.53125 196.6640625 C135.53802224 200.05146733 138.61924063 203.36148953 141.71875 206.6640625 C142.56373047 207.61796875 143.40871094 208.571875 144.27929688 209.5546875 C149.23464573 214.86324232 149.23464573 214.86324232 155.89697266 217.18359375 C158.14943649 217.12980357 160.40141782 217.01817539 162.64770508 216.84301758 C168.13653616 216.50237638 171.16328883 219.25117504 175.0625 222.68359375 C176.39306123 223.93986911 177.71549067 225.20479274 179.03125 226.4765625 C180.11200806 227.50608032 180.11200806 227.50608032 181.21459961 228.55639648 C188.5538442 235.59193751 195.72546123 242.80097839 202.8671875 250.03637695 C207.33048615 254.54337737 211.83715515 258.89405724 216.65307617 263.02172852 C219.86776118 265.83274971 222.88604353 268.83464602 225.90625 271.8515625 C226.52113281 272.45419922 227.13601563 273.05683594 227.76953125 273.67773438 C228.65318359 274.55848633 228.65318359 274.55848633 229.5546875 275.45703125 C230.07981934 275.9780542 230.60495117 276.49907715 231.14599609 277.03588867 C235.19379102 281.79351017 234.95686981 286.5165086 234.8359375 292.54296875 C234.17144652 299.34974178 229.26038973 303.06802387 224.609375 307.58984375 C222.62892631 309.56656979 220.79121305 311.60446026 218.96875 313.7265625 C207.35823514 327.13142966 207.35823514 327.13142966 199.69921875 327.9765625 C191.64801679 328.29424248 187.94025969 326.56537282 181.75097656 321.29785156 C174.41406763 314.50798175 167.3022779 307.52918203 160.28125 300.4140625 C151.57731953 291.59402777 151.57731953 291.59402777 142.39013672 283.28271484 C139.03306278 280.35949443 135.87811021 277.23526293 132.71875 274.1015625 C132.06455078 273.46798828 131.41035156 272.83441406 130.73632812 272.18164062 C127.1561817 268.63074974 124.0955021 265.55453096 122.53125 260.6640625 C122.6474313 258.75133865 122.78522856 256.83987703 122.9375 254.9296875 C123.07656759 249.57558513 122.00549296 247.26055387 118.375 243.3359375 C116.62356813 241.66351759 114.8410892 240.02309451 113.03125 238.4140625 C112.12503906 237.56199219 111.21882812 236.70992187 110.28515625 235.83203125 C108.05861883 233.74611725 105.8092814 231.69337267 103.53125 229.6640625 C99.27451592 231.30731546 95.40001778 233.36283258 91.46875 235.6640625 C81.15353261 241.6640625 81.15353261 241.6640625 77.53125 241.6640625 C77.54013245 242.93304382 77.54901489 244.20202515 77.5581665 245.50946045 C77.63918857 257.4576746 77.69918486 269.40583315 77.73849869 281.35425949 C77.75938969 287.497357 77.78773545 293.64023307 77.83300781 299.78320312 C77.87641083 305.70948722 77.9003757 311.63555808 77.91075897 317.56198883 C77.91816025 319.82507943 77.9326129 322.08815812 77.95417023 324.35115814 C77.98312985 327.51659026 77.98720903 330.6811368 77.98535156 333.84667969 C77.99973267 334.78607391 78.01411377 335.72546814 78.02893066 336.69332886 C77.98911737 342.94729788 77.98911737 342.94729788 75.88299561 346.24430847 C72.88796361 348.05241592 70.94373756 348.17746208 67.44921875 348.19750977 C66.22114502 348.2133461 64.99307129 348.22918243 63.7277832 348.24549866 C62.39143493 348.24165732 61.05508964 348.23661835 59.71875 348.23046875 C58.34398986 348.23570526 56.96923331 348.24198184 55.59448242 348.24925232 C52.71613636 348.25965158 49.83828482 348.25510221 46.95996094 348.24047852 C43.27403523 348.22328309 39.5896673 348.24679444 35.90391541 348.28196812 C33.06593528 348.30394359 30.22832794 348.30250072 27.39028931 348.2942028 C26.03152761 348.29338348 24.67273849 348.30024357 23.3140564 348.31497383 C21.41386662 348.33241851 19.51345215 348.31455822 17.61328125 348.29516602 C16.53280518 348.29420425 15.4523291 348.29324249 14.33911133 348.29225159 C11.53125 347.6640625 11.53125 347.6640625 9.1852417 345.71087646 C6.89714084 341.49597161 6.95831955 338.01120911 6.98535156 333.28393555 C6.97501389 332.34686264 6.96467621 331.40978973 6.95402527 330.44432068 C6.92458597 327.35463236 6.92309783 324.26559883 6.921875 321.17578125 C6.90689415 319.03057098 6.89016721 316.88537225 6.87176514 314.7401886 C6.82806897 309.0997159 6.80808737 303.45939879 6.79302979 297.81878662 C6.773467 292.06073803 6.731496 286.30285767 6.69140625 280.54492188 C6.61607946 269.25135394 6.56580282 257.95782363 6.53125 246.6640625 C5.396875 246.27734375 4.2625 245.890625 3.09375 245.4921875 C1.57281737 244.96643301 0.05198961 244.44037504 -1.46875 243.9140625 C-2.58443359 243.53507812 -2.58443359 243.53507812 -3.72265625 243.1484375 C-8.8738324 241.35672406 -13.6345096 239.1910518 -18.46875 236.6640625 C-18.45875725 238.62057991 -18.45875725 238.62057991 -18.44856262 240.61662292 C-18.38777312 252.90302057 -18.34278767 265.18938774 -18.31331348 277.4759016 C-18.29765118 283.79267324 -18.27640228 290.10932357 -18.24243164 296.42602539 C-18.20985882 302.52088426 -18.19190124 308.61562638 -18.18411827 314.71056557 C-18.17857107 317.03700918 -18.16773889 319.36344634 -18.15155983 321.68984032 C-18.12981359 324.94595575 -18.12678196 328.20158741 -18.12817383 331.45776367 C-18.117388 332.42161484 -18.10660217 333.385466 -18.0954895 334.37852478 C-18.1181351 339.26765204 -18.19627157 342.73678325 -21.46875 346.6640625 C-24.1470149 348.00319495 -26.23290249 347.81339916 -29.23193359 347.84106445 C-30.44013763 347.85389969 -31.64834167 347.86673492 -32.89315796 347.87995911 C-34.86030258 347.89103951 -34.86030258 347.89103951 -36.8671875 347.90234375 C-37.53334705 347.90641928 -38.19950661 347.9104948 -38.88585281 347.91469383 C-42.41120341 347.93555014 -45.93651512 347.94985417 -49.46191406 347.95922852 C-53.10275539 347.97029737 -56.74298626 348.00470281 -60.38361168 348.04440022 C-63.18375789 348.07054572 -65.98375811 348.07891839 -68.78401566 348.08250999 C-70.77824856 348.08974779 -72.77238174 348.11619456 -74.76644897 348.14289856 C-75.98095734 348.13997299 -77.1954657 348.13704742 -78.44677734 348.1340332 C-80.04989273 348.14283257 -80.04989273 348.14283257 -81.68539429 348.15180969 C-85.2709641 347.52348483 -86.24628594 346.51965552 -88.46875 343.6640625 C-88.97211456 340.62179565 -88.97211456 340.62179565 -88.97668457 336.98388672 C-88.98604451 335.97843968 -88.98604451 335.97843968 -88.99559355 334.95268059 C-89.01154259 332.70767873 -88.99891303 330.46375981 -88.98632812 328.21875 C-88.99174844 326.60890062 -88.99887059 324.9990562 -89.00756836 323.38922119 C-89.02581558 319.01730455 -89.01872852 314.64576516 -89.00605202 310.27384186 C-88.99593155 305.70061723 -89.00531504 301.1274251 -89.01159668 296.55419922 C-89.01887587 288.87396439 -89.00927827 281.19388336 -88.99023438 273.51367188 C-88.96846508 264.63171246 -88.97551626 255.7501203 -88.99754 246.86816978 C-89.01568627 239.24512778 -89.01825611 231.6221964 -89.00778532 223.99913979 C-89.00154612 219.44498295 -89.00072641 214.8909988 -89.01393127 210.33685303 C-89.02547797 206.05544577 -89.01748596 201.77451244 -88.99435425 197.49315643 C-88.98906079 195.92098528 -88.99059184 194.34877432 -88.99940491 192.77661896 C-89.01031976 190.63195192 -88.99664888 188.48880797 -88.97668457 186.34423828 C-88.97517647 185.14372833 -88.97366837 183.94321838 -88.97211456 182.70632935 C-88.36488216 179.03629941 -87.44542121 177.84048394 -84.46875 175.6640625 C-81.73192029 175.3729104 -79.42934961 175.28083832 -76.71875 175.4140625 C-76.02136719 175.43210937 -75.32398438 175.45015625 -74.60546875 175.46875 C-72.89263461 175.51567696 -71.18051176 175.58741645 -69.46875 175.6640625 C-69.73429687 174.87644531 -69.99984375 174.08882812 -70.2734375 173.27734375 C-79.81713887 143.84512602 -76.6247327 112.90409437 -62.68603516 85.44189453 C-59.26514815 78.99356202 -55.15713808 73.25963462 -50.46875 67.6640625 C-49.62441406 66.65601563 -48.78007812 65.64796875 -47.91015625 64.609375 C-39.53726431 54.92697136 -29.62072266 46.97649985 -18.46875 40.6640625 C-17.80875 40.6640625 -17.14875 40.6640625 -16.46875 40.6640625 C-16.49493408 39.62999268 -16.52111816 38.59592285 -16.5480957 37.53051758 C-16.63881423 33.68226891 -16.69607659 29.8341141 -16.7434082 25.98510742 C-16.76850347 24.32153411 -16.80258796 22.65807054 -16.84594727 20.99487305 C-16.9068246 18.59917097 -16.93500769 16.20492999 -16.95703125 13.80859375 C-16.98283768 13.0688179 -17.0086441 12.32904205 -17.03523254 11.56684875 C-17.03718169 7.95222902 -16.54702305 5.79212939 -14.6550293 2.6965332 C-9.87874291 -0.35017465 -5.55820729 -0.05237594 0 0 Z " fill="#010101" transform="translate(277.46875,164.3359375)"/>
<path d="M0 0 C0.67627441 0.20898926 1.35254883 0.41797852 2.04931641 0.63330078 C16.73834836 5.27249114 29.33273 12.99948286 41 23 C41.99 23.7734375 41.99 23.7734375 43 24.5625 C64.58943958 41.97333837 76.4872253 70.31006299 79.75 97.25 C79.85724702 98.83189348 79.93925773 100.41563916 80 102 C80.0515625 102.99257812 80.103125 103.98515625 80.15625 105.0078125 C81.04976431 137.09986824 68.92178483 165.26339513 47.35693359 188.63476562 C28.35288621 208.47981545 0.45316365 220.96994655 -27 222 C-27.96550781 222.03996094 -28.93101563 222.07992187 -29.92578125 222.12109375 C-59.47480464 222.73444344 -85.4782564 212.81850388 -108 194 C-108.66515625 193.48179687 -109.3303125 192.96359375 -110.015625 192.4296875 C-123.64971331 181.40048598 -133.7584426 164.73252868 -139.875 148.5 C-140.14924805 147.7778833 -140.42349609 147.0557666 -140.70605469 146.31176758 C-145.07440933 133.98676698 -146.54050914 121.69608327 -146.4375 108.6875 C-146.43445862 108.01501221 -146.43141724 107.34252441 -146.42828369 106.6496582 C-146.35530197 95.69266957 -145.50489625 85.41931743 -142 75 C-141.78037598 74.34692871 -141.56075195 73.69385742 -141.33447266 73.02099609 C-131.13148181 43.76953402 -110.64488196 19.74209512 -82.75 6.1875 C-57.58651696 -5.57208847 -26.61717789 -8.58724775 0 0 Z " fill="#010101" transform="translate(146,4)"/>
<path d="M0 0 C12.99890803 10.15962202 23.12396189 21.41334516 30.62890625 36.0546875 C31.12390625 37.01632812 31.61890625 37.97796875 32.12890625 38.96875 C38.21484001 51.53910129 39.80815851 64.42722729 39.81640625 78.2421875 C39.82865234 79.30244141 39.84089844 80.36269531 39.85351562 81.45507812 C39.87383286 92.56860536 38.41661054 102.50088903 33.87890625 112.6796875 C33.52183594 113.49945068 33.16476562 114.31921387 32.796875 115.16381836 C22.22742846 138.99479493 4.00853241 157.21365684 -20.22265625 166.87890625 C-21.78113281 167.46091797 -21.78113281 167.46091797 -23.37109375 168.0546875 C-24.62019531 168.52841797 -24.62019531 168.52841797 -25.89453125 169.01171875 C-48.29724674 176.99022971 -73.2819934 174.54684533 -94.69213867 164.8996582 C-118.9526992 153.35522824 -135.26502619 133.51228937 -145.046875 109.015625 C-148.46313769 99.25339554 -149.87570262 90.14155073 -149.74609375 79.8046875 C-149.73521729 78.62028076 -149.72434082 77.43587402 -149.71313477 76.21557617 C-149.43301978 60.75428609 -146.31250947 47.81986783 -139.37109375 34.0546875 C-138.83484375 32.9821875 -138.29859375 31.9096875 -137.74609375 30.8046875 C-125.86043449 8.86193194 -103.97846307 -6.8556352 -80.48046875 -14.203125 C-53.30778878 -21.95787033 -22.90287132 -16.37284542 0 0 Z " fill="#020202" transform="translate(368.37109375,224.9453125)"/>
<path d="M0 0 C1.14491409 -0.00960754 2.28982819 -0.01921509 3.46943665 -0.02911377 C4.712108 -0.03336365 5.95477936 -0.03761353 7.23510742 -0.04199219 C9.14413094 -0.0505423 9.14413094 -0.0505423 11.09172058 -0.05926514 C13.78937356 -0.06872649 16.48691498 -0.07561733 19.18457031 -0.07910156 C22.63464051 -0.08457899 26.08431458 -0.10859039 29.53426075 -0.13707352 C32.83034623 -0.16022687 36.12645201 -0.16215173 39.42260742 -0.16699219 C41.27750542 -0.18551239 41.27750542 -0.18551239 43.1698761 -0.20440674 C44.32424667 -0.20140564 45.47861725 -0.19840454 46.66796875 -0.1953125 C47.68119705 -0.19895813 48.69442535 -0.20260376 49.73835754 -0.20635986 C53.00182066 0.22353969 54.88373621 1.23140932 57.52807617 3.16113281 C59.25069478 6.60637003 58.67601244 10.58001918 58.67524719 14.37216187 C58.67892388 15.33885036 58.68260057 16.30553886 58.68638867 17.30152094 C58.69745741 20.56120804 58.70127472 23.8208633 58.70507812 27.08056641 C58.71134026 29.40931806 58.71798684 31.7380687 58.72499084 34.06681824 C58.74242144 40.40767177 58.75295776 46.74851775 58.76119637 53.08938932 C58.7663411 57.04701717 58.772417 61.00464265 58.7787075 64.96226883 C58.79557869 75.91518804 58.81021462 86.86810516 58.81745625 97.82103539 C58.8193662 100.66389339 58.82128653 103.5067514 58.82324219 106.34960938 C58.82372593 107.05620483 58.82420967 107.76280029 58.82470807 108.49080773 C58.83301275 119.94347989 58.85835722 131.39604775 58.89082287 142.84867434 C58.92386684 154.60088805 58.94190253 166.3530487 58.94510049 178.10530913 C58.94745669 184.70624546 58.95649137 191.30701692 58.98156166 197.90790939 C59.00475428 204.11473599 59.00911115 210.32128813 58.99880028 216.52814674 C58.99830269 218.80985868 59.00468825 221.09158372 59.01835632 223.37325478 C59.03593685 226.48121563 59.02903725 229.58817659 59.01582336 232.69613647 C59.02679261 233.60527562 59.03776186 234.51441476 59.0490635 235.45110357 C58.98640337 241.52876342 58.98640337 241.52876342 56.67308331 244.7205286 C53.80881334 246.64419557 51.8855507 246.67484799 48.44604492 246.69458008 C46.60393433 246.71833458 46.60393433 246.71833458 44.72460938 246.74256897 C43.3882611 246.73872763 42.05191581 246.73368866 40.71557617 246.72753906 C39.34081603 246.73277557 37.96605949 246.73905215 36.59130859 246.74632263 C33.71296253 246.75672189 30.83511099 246.75217252 27.95678711 246.73754883 C24.2708614 246.7203534 20.58649347 246.74386476 16.90074158 246.77903843 C14.06276145 246.80101391 11.22515411 246.79957103 8.38711548 246.79127312 C7.02835378 246.79045379 5.66956466 246.79731389 4.31088257 246.81204414 C2.41069279 246.82948882 0.51027832 246.81162853 -1.38989258 246.79223633 C-2.47036865 246.79127457 -3.55084473 246.79031281 -4.6640625 246.7893219 C-7.47192383 246.16113281 -7.47192383 246.16113281 -9.61566925 244.21773529 C-12.20055318 239.96133494 -12.02829968 236.51856848 -11.9798584 231.62730408 C-11.98921834 230.17955175 -11.98921834 230.17955175 -11.99876738 228.7025519 C-12.01473276 225.46576003 -12.00207895 222.2297175 -11.98950195 218.99291992 C-11.99492144 216.67357442 -12.00204312 214.35423237 -12.01074219 212.03489685 C-12.02899789 205.73338679 -12.02189883 199.43213829 -12.00922585 193.13062358 C-11.99911112 186.54211764 -12.00848717 179.95363436 -12.01477051 173.36512756 C-12.02331744 161.59223828 -12.01007444 149.81945922 -11.98973316 138.04658902 C-11.97185802 127.37043717 -11.97496981 116.69445927 -11.9934082 106.01831055 C-12.01480944 93.62081289 -12.02278526 81.22342615 -12.01095915 68.82591254 C-12.00471533 62.26305403 -12.00391318 55.70031538 -12.0171051 49.13746452 C-12.02863766 42.96913376 -12.02068505 36.80113238 -11.99752808 30.6328373 C-11.99222737 28.36565066 -11.99377788 26.09843643 -12.00257874 23.83126068 C-12.01346361 20.74312223 -11.99985557 17.65604802 -11.9798584 14.56797791 C-11.98878129 13.66477607 -11.99770417 12.76157424 -12.00689745 11.83100265 C-11.93042612 5.76840536 -11.93042612 5.76840536 -9.56517792 2.63570499 C-6.14018337 0.22300139 -4.16912116 0.02816146 0 0 Z " fill="#000000" transform="translate(103.471923828125,265.8388671875)"/>
<path d="M0 0 C-0.03117165 1.79260757 -0.03117165 1.79260757 -0.06297302 3.62142944 C-0.25077801 15.00366653 -0.35642599 26.38424988 -0.38603115 37.76802635 C-0.40376722 43.61799613 -0.44829207 49.46495437 -0.55883789 55.31396484 C-1.67663343 91.8490354 -1.67663343 91.8490354 14.18899536 123.66027832 C16.69649809 126.89983849 18.65197813 130.35199391 20.62109375 133.93359375 C21.89245854 136.10201451 23.16457358 138.26999559 24.4375 140.4375 C25.13341574 141.6267231 25.82921288 142.81601561 26.52490234 144.00537109 C30.19596891 150.27382537 33.90630745 156.51593701 37.66796875 162.73046875 C38.79168083 164.59528717 39.91464984 166.46055095 41.03738403 168.32595825 C42.10525547 170.09234027 43.18414015 171.85166224 44.26342773 173.61108398 C44.90094971 174.67012939 45.53847168 175.7291748 46.1953125 176.8203125 C46.76266113 177.75117676 47.33000977 178.68204102 47.91455078 179.64111328 C49 182 49 182 48 185 C45.34849496 186.1747931 42.80342482 187.15041353 40.0625 188.0625 C39.33998047 188.31837891 38.61746094 188.57425781 37.87304688 188.83789062 C27.90127214 192.26156262 18.58984889 193.32357495 8.0625 193.25 C6.95970703 193.25773438 5.85691406 193.26546875 4.72070312 193.2734375 C-21.32025483 193.21198391 -43.89520395 181.75618958 -62.375 164 C-81.24851364 144.36545758 -89.39129701 119.20456689 -89.37304688 92.37915039 C-89.1100872 79.12122223 -85.77737834 66.94443323 -80 55 C-79.57074219 54.10152344 -79.14148438 53.20304687 -78.69921875 52.27734375 C-66.98902472 29.35175263 -46.52183597 12.27143063 -22.1875 4.125 C-14.78613998 1.82321578 -7.7677217 -0.05370871 0 0 Z " fill="#89C8FD" transform="translate(105,16)"/>
<path d="M0 0 C1.20805298 -0.01260864 2.41610596 -0.02521729 3.6607666 -0.03820801 C4.96187378 -0.03011108 6.26298096 -0.02201416 7.60351562 -0.01367188 C8.95585407 -0.01636772 10.30819063 -0.02025091 11.66052246 -0.02526855 C14.49180597 -0.03115946 17.32258395 -0.0226148 20.15380859 -0.00390625 C23.77903226 0.0188843 27.40307143 0.00575886 31.02825165 -0.01819611 C33.8198943 -0.03266583 36.61125714 -0.02804299 39.40290833 -0.01768494 C41.38820161 -0.01372732 43.37350586 -0.02585354 45.35876465 -0.03820801 C47.17084412 -0.01929504 47.17084412 -0.01929504 49.01953125 0 C50.08224243 0.00318237 51.14495361 0.00636475 52.23986816 0.00964355 C55.68517305 0.64143209 56.84042193 1.82837001 59.00976562 4.51757812 C60.50157485 7.50119658 60.15415401 10.55178698 60.15020752 13.82368469 C60.15317864 14.58549 60.15614976 15.34729532 60.15921092 16.13218564 C60.16791964 18.69856767 60.169408 21.26490317 60.17089844 23.83129883 C60.17552509 25.66582337 60.18054954 27.50034694 60.1859436 29.33486938 C60.19908464 34.32872869 60.20551591 39.32257455 60.20995426 44.31644845 C60.21288233 47.43452591 60.21698663 50.55259967 60.22145844 53.67067528 C60.23513804 63.42088343 60.24480235 73.17108315 60.24866033 82.92130023 C60.25314194 94.18667405 60.27069273 105.45192659 60.29966092 116.71726352 C60.32125962 125.41794946 60.33136364 134.11860123 60.33270144 142.8193137 C60.3337508 148.01906343 60.3396863 153.21869923 60.35752106 158.41842079 C60.37397036 163.30952678 60.37617254 168.2004328 60.36738205 173.09155655 C60.36660998 174.88746487 60.3709767 176.68338381 60.3808403 178.47926521 C60.39351144 180.92992324 60.38770963 183.37986791 60.3772583 185.83052063 C60.38934291 186.89803896 60.38934291 186.89803896 60.40167165 187.98712331 C60.3583691 192.32481967 59.66674485 195.06447091 57.00976562 198.51757812 C54.33150072 199.85671058 52.24561313 199.66691478 49.24658203 199.69458008 C47.43427597 199.71383293 47.43427597 199.71383293 45.58535767 199.73347473 C44.27392792 199.74086166 42.96249817 199.7482486 41.61132812 199.75585938 C40.94516857 199.7599349 40.27900902 199.76401043 39.59266281 199.76820946 C36.06731222 199.78906577 32.5420005 199.8033698 29.01660156 199.81274414 C25.37576023 199.823813 21.73552936 199.85821843 18.09490395 199.89791584 C15.29475773 199.92406134 12.49475751 199.93243402 9.69449997 199.93602562 C7.70026707 199.94326342 5.70613389 199.96971019 3.71206665 199.99641418 C2.49755829 199.99348862 1.28304993 199.99056305 0.03173828 199.98754883 C-1.03700531 199.99341507 -2.1057489 199.99928131 -3.20687866 200.00532532 C-6.82363125 199.37153607 -7.77954495 198.43427575 -9.99023438 195.51757812 C-10.38324208 192.81307015 -10.53126055 190.51518822 -10.49816895 187.81237793 C-10.50440891 187.03182399 -10.51064887 186.25127006 -10.51707792 185.44706297 C-10.53304535 182.8289856 -10.52038943 180.21183444 -10.5078125 177.59375 C-10.51323197 175.71789506 -10.52035363 173.84204438 -10.52905273 171.96620178 C-10.54730989 166.86911932 -10.54020866 161.7723602 -10.52753639 156.67527199 C-10.51742113 151.34531395 -10.52679797 146.01538391 -10.53308105 140.6854248 C-10.54036175 131.73408021 -10.53075865 122.78286754 -10.51171875 113.83154297 C-10.48994924 103.47724888 -10.49700031 93.12326982 -10.51902437 82.76898336 C-10.53716631 73.88480984 -10.53974259 65.00073126 -10.5292697 56.1165452 C-10.52302814 50.80786378 -10.52221735 45.49933052 -10.53541565 40.19065857 C-10.54695595 35.20012577 -10.53898169 30.2099998 -10.51583862 25.21951103 C-10.51054179 23.38610447 -10.5120819 21.55266377 -10.52088928 19.71927071 C-10.53179017 17.21997503 -10.51814833 14.72199004 -10.49816895 12.22277832 C-10.50709183 11.49398704 -10.51601472 10.76519576 -10.525208 10.0143199 C-10.47231147 6.61249839 -10.21355224 4.81193009 -8.13160706 2.06774902 C-5.29455182 0.01396338 -3.48638647 0.01044026 0 0 Z " fill="#000100" transform="translate(9.990234375,312.482421875)"/>
<path d="M0 0 C12.54 0 25.08 0 38 0 C38 70.62 38 141.24 38 214 C25.46 214 12.92 214 0 214 C0 143.38 0 72.76 0 0 Z " fill="#85C3F7" transform="translate(108,282)"/>
<path d="M0 0 C12.99890803 10.15962202 23.12396189 21.41334516 30.62890625 36.0546875 C31.12390625 37.01632812 31.61890625 37.97796875 32.12890625 38.96875 C38.21484001 51.53910129 39.80815851 64.42722729 39.81640625 78.2421875 C39.82865234 79.30244141 39.84089844 80.36269531 39.85351562 81.45507812 C39.87383286 92.56860536 38.41661054 102.50088903 33.87890625 112.6796875 C33.52183594 113.49945068 33.16476562 114.31921387 32.796875 115.16381836 C22.22742846 138.99479493 4.00853241 157.21365684 -20.22265625 166.87890625 C-21.78113281 167.46091797 -21.78113281 167.46091797 -23.37109375 168.0546875 C-24.62019531 168.52841797 -24.62019531 168.52841797 -25.89453125 169.01171875 C-48.29724674 176.99022971 -73.2819934 174.54684533 -94.69213867 164.8996582 C-118.9526992 153.35522824 -135.26502619 133.51228937 -145.046875 109.015625 C-148.46313769 99.25339554 -149.87570262 90.14155073 -149.74609375 79.8046875 C-149.73521729 78.62028076 -149.72434082 77.43587402 -149.71313477 76.21557617 C-149.43301978 60.75428609 -146.31250947 47.81986783 -139.37109375 34.0546875 C-138.83484375 32.9821875 -138.29859375 31.9096875 -137.74609375 30.8046875 C-125.86043449 8.86193194 -103.97846307 -6.8556352 -80.48046875 -14.203125 C-53.30778878 -21.95787033 -22.90287132 -16.37284542 0 0 Z M-119.01708984 24.40332031 C-131.72589464 39.90320413 -137.76656052 57.57536276 -137.62109375 77.4921875 C-137.62882813 78.54728516 -137.6365625 79.60238281 -137.64453125 80.68945312 C-137.62014122 90.59790165 -136.46165464 99.81069792 -132.30859375 108.8671875 C-132.00332764 109.54168945 -131.69806152 110.21619141 -131.38354492 110.91113281 C-121.18330318 132.75965663 -105.236616 147.90030849 -82.7734375 156.8359375 C-61.58934812 164.42426803 -39.17657099 162.59291248 -18.8671875 153.24853516 C-11.63853287 149.71479294 -5.30950227 145.51842731 0.62890625 140.0546875 C1.469375 139.30574219 2.30984375 138.55679688 3.17578125 137.78515625 C17.64183799 124.21774849 27.21740071 104.34436151 27.8671875 84.46484375 C28.27969257 61.06807174 23.89762331 40.73938549 7.62890625 23.0546875 C6.8915625 22.22582031 6.15421875 21.39695312 5.39453125 20.54296875 C-8.76575525 5.4340356 -29.00373128 -4.16378166 -49.72265625 -5.33203125 C-76.691989 -6.18421333 -100.93091905 3.97397546 -119.01708984 24.40332031 Z " fill="#E6E9EB" transform="translate(368.37109375,224.9453125)"/>
<path d="M0 0 C12.21 0 24.42 0 37 0 C37 55.11 37 110.22 37 167 C24.79 167 12.58 167 0 167 C0 111.89 0 56.78 0 0 Z " fill="#6BF4C1" transform="translate(16,329)"/>
<path d="M0 0 C25.91362984 2.8792922 49.79999472 14.03400497 67 34 C80.13665555 50.73171275 86.88180714 67.81807143 89 89 C59.63 89 30.26 89 0 89 C0 59.63 0 30.26 0 0 Z " fill="#FFE076" transform="translate(120,16)"/>
<path d="M0 0 C13.24035136 10.28798847 22.6773772 24.4227267 26.16796875 40.96875 C26.53918542 45.02196139 26.54441901 49.02651329 26.48046875 53.09375 C26.48369141 54.12628906 26.48691406 55.15882813 26.49023438 56.22265625 C26.43051352 64.74645144 24.79836051 71.71713371 21.79296875 79.71875 C21.39335937 80.80671875 20.99375 81.8946875 20.58203125 83.015625 C19.14265218 86.02162107 17.65674554 87.78709886 15.16796875 89.96875 C14.68328125 89.13472656 14.19859375 88.30070312 13.69921875 87.44140625 C6.79096821 75.8435164 0.00382349 67.87140519 -11.83203125 60.96875 C-13.31703125 59.97875 -13.31703125 59.97875 -14.83203125 58.96875 C-13.85684187 57.00095715 -12.87232927 55.04367913 -11.83203125 53.109375 C-7.02697433 44.02481425 -4.98616443 34.49664974 -7.95703125 24.40625 C-11.10654267 16.11497807 -15.98767999 9.29168394 -23.83203125 4.96875 C-33.71683868 0.63993256 -42.07378859 -0.49634654 -52.34765625 2.93359375 C-61.91262574 6.9189977 -67.84235287 13.31690745 -72.20703125 22.59375 C-75.50912574 31.61207528 -74.96234645 41.23378665 -70.9921875 49.9140625 C-69.53647571 52.4921918 -67.70291697 54.68211189 -65.83203125 56.96875 C-67.0676042 60.67546886 -67.98108831 60.85149832 -71.33203125 62.65625 C-81.17030612 68.3823786 -87.17040848 75.15624836 -92.83203125 84.96875 C-93.83033938 86.63643062 -94.82982579 88.30340859 -95.83203125 89.96875 C-99.61860913 86.73249905 -101.29069296 83.1560869 -103.01953125 78.59375 C-103.27927734 77.94664062 -103.53902344 77.29953125 -103.80664062 76.6328125 C-109.331617 62.47059917 -109.04462181 43.37799189 -103.4453125 29.29296875 C-94.36996626 10.59292116 -81.41346889 -2.65567157 -61.83203125 -10.03125 C-60.63126953 -10.50884766 -60.63126953 -10.50884766 -59.40625 -10.99609375 C-39.38126657 -17.75413637 -16.70511178 -11.98159741 0 0 Z " fill="#817481" transform="translate(353.83203125,249.03125)"/>
<path d="M0 0 C11 0 11 0 14.05859375 3.04296875 C14.88731137 4.40333546 15.67895539 5.78679284 16.4375 7.1875 C17.33328249 8.65796648 18.23847453 10.12273656 19.15234375 11.58203125 C19.61108887 12.32146973 20.06983398 13.0609082 20.54248047 13.82275391 C22.8744308 17.30622678 25.62559 20.3344644 28.5 23.375 C29.0045874 23.91535889 29.5091748 24.45571777 30.02905273 25.01245117 C32.24570721 27.33886707 34.3142341 29.2094894 37 31 C37.36914349 32.94838905 37.36914349 32.94838905 37.36076355 35.37857056 C37.36488754 36.29846268 37.36901154 37.2183548 37.3732605 38.16612244 C37.36247467 39.17816238 37.35168884 40.19020233 37.34057617 41.23291016 C37.34123329 42.82805702 37.34123329 42.82805702 37.34190369 44.45542908 C37.33980746 47.98349127 37.31643672 51.51108295 37.29296875 55.0390625 C37.28737577 57.48000834 37.28310427 59.92095755 37.28010559 62.36190796 C37.26863339 68.79656215 37.23914565 75.23101423 37.20599365 81.66558838 C37.17534398 88.22755194 37.16161117 94.78954805 37.14648438 101.3515625 C37.11427829 114.23447823 37.06149087 127.11719072 37 140 C24.79 140 12.58 140 0 140 C0 93.8 0 47.6 0 0 Z " fill="#FEE076" transform="translate(205,356)"/>
<path d="M0 0 C0.96780396 -0.00630432 1.93560791 -0.01260864 2.93273926 -0.019104 C4.490672 -0.01303131 4.490672 -0.01303131 6.08007812 -0.00683594 C7.6887677 -0.00970612 7.6887677 -0.00970612 9.32995605 -0.01263428 C11.59611241 -0.01399452 13.86227661 -0.01030934 16.12841797 -0.00195312 C19.59815973 0.00874845 23.06738373 -0.0018541 26.53710938 -0.01464844 C28.73893344 -0.01332681 30.94075717 -0.01076436 33.14257812 -0.00683594 C34.18119995 -0.0108844 35.21982178 -0.01493286 36.28991699 -0.019104 C37.25772095 -0.01279968 38.2255249 -0.00649536 39.22265625 0 C40.49695496 0.00238678 40.49695496 0.00238678 41.79699707 0.00482178 C44.40226066 0.29071507 45.94184105 0.78759881 48.11132812 2.25878906 C50.11943515 5.21945553 50.37428559 7.69479562 50.41772461 11.22338867 C50.43371201 12.20798569 50.4496994 13.1925827 50.46617126 14.20701599 C50.47153397 15.26437454 50.47689667 16.32173309 50.48242188 17.41113281 C50.49596458 19.04955894 50.49596458 19.04955894 50.50978088 20.72108459 C50.52428182 23.03009297 50.53316972 25.33914241 50.53686523 27.64819336 C50.54877287 31.17990214 50.59797219 34.70987025 50.6484375 38.24121094 C50.6579005 40.48534304 50.66513612 42.72948586 50.66992188 44.97363281 C50.68945419 46.02896713 50.70898651 47.08430145 50.72911072 48.1716156 C50.70152142 52.65541389 50.55348654 55.48936098 48.29321289 59.42260742 C43.4877215 62.19572955 39.10205404 61.97429714 33.64257812 61.92285156 C31.97298035 61.93002701 31.97298035 61.93002701 30.26965332 61.93734741 C27.91950057 61.94074549 25.5693005 61.9315497 23.21923828 61.91064453 C19.6236015 61.88388042 16.03108665 61.9103984 12.43554688 61.94238281 C10.15038374 61.9390787 7.86522255 61.93267245 5.58007812 61.92285156 C4.50600708 61.93297272 3.43193604 61.94309387 2.32531738 61.95352173 C-2.20040108 61.8825153 -5.10616308 61.71035421 -9.07055664 59.42260742 C-11.80621434 54.66211485 -11.54719947 50.37307476 -11.44726562 44.97363281 C-11.44493423 43.880392 -11.44260284 42.78715118 -11.44020081 41.66078186 C-11.43047129 39.35344624 -11.40870277 37.04613423 -11.37573242 34.73901367 C-11.32630119 31.20553263 -11.3142494 27.67344413 -11.30859375 24.13964844 C-11.29450828 21.89679507 -11.27830407 19.6539538 -11.25976562 17.41113281 C-11.25440292 16.35377426 -11.24904022 15.29641571 -11.24351501 14.20701599 C-11.22752762 13.22241898 -11.21154022 12.23782196 -11.19506836 11.22338867 C-11.18442856 10.35910751 -11.17378876 9.49482635 -11.16282654 8.60435486 C-10.85770284 5.99382946 -10.36408378 4.4340728 -8.88867188 2.25878906 C-5.93895929 0.25850594 -3.51525433 0.00658412 0 0 Z " fill="#000000" transform="translate(271.888671875,81.7412109375)"/>
<path d="M0 0 C1.1612439 -0.00478363 2.32248779 -0.00956726 3.5189209 -0.01449585 C5.97340245 -0.01789741 8.42792916 -0.00867734 10.88232422 0.01220703 C14.6426277 0.03896556 18.39994579 0.01246426 22.16015625 -0.01953125 C24.54427743 -0.0162272 26.92839676 -0.00982108 29.3125 0 C30.43861694 -0.01012115 31.56473389 -0.02024231 32.72497559 -0.03067017 C40.30103911 0.08327805 40.30103911 0.08327805 43.86328125 2.50244141 C45.82250308 7.29321231 45.72697871 11.78379379 45.6875 16.9140625 C45.6913269 18.00493164 45.69515381 19.09580078 45.69909668 20.21972656 C45.70181489 22.52279586 45.69446015 24.82589608 45.67773438 27.12890625 C45.65632487 30.65174262 45.67754061 34.17253948 45.703125 37.6953125 C45.70048171 39.93490033 45.69535671 42.17448689 45.6875 44.4140625 C45.69559692 45.46625977 45.70369385 46.51845703 45.71203613 47.60253906 C45.65886045 51.75465913 45.44337091 54.96198249 43.86328125 58.82568359 C39.3566767 61.88617532 34.63050624 61.37592143 29.3125 61.328125 C28.1512561 61.33290863 26.99001221 61.33769226 25.7935791 61.34262085 C23.33909755 61.34602241 20.88457084 61.33680234 18.43017578 61.31591797 C14.6698723 61.28915944 10.91255421 61.31566074 7.15234375 61.34765625 C4.76822257 61.3443522 2.38410324 61.33794608 0 61.328125 C-1.12611694 61.33824615 -2.25223389 61.34836731 -3.41247559 61.35879517 C-10.98853911 61.24484695 -10.98853911 61.24484695 -14.55078125 58.82568359 C-16.51000308 54.03491269 -16.41447871 49.54433121 -16.375 44.4140625 C-16.3788269 43.32319336 -16.38265381 42.23232422 -16.38659668 41.10839844 C-16.38931489 38.80532914 -16.38196015 36.50222892 -16.36523438 34.19921875 C-16.34382487 30.67638238 -16.36504061 27.15558552 -16.390625 23.6328125 C-16.38798171 21.39322467 -16.38285671 19.15363811 -16.375 16.9140625 C-16.38309692 15.86186523 -16.39119385 14.80966797 -16.39953613 13.72558594 C-16.34636045 9.57346587 -16.13087091 6.36614251 -14.55078125 2.50244141 C-10.0441767 -0.55805032 -5.31800624 -0.04779643 0 0 Z " fill="#010102" transform="translate(276.84375,-0.6640625)"/>
<path d="M0 0 C26.73 0 53.46 0 81 0 C81 23.25303832 70.02750633 43.59158401 54 60 C53.34644531 60.680625 52.69289062 61.36125 52.01953125 62.0625 C45.86173349 68.36472372 45.86173349 68.36472372 43 70 C38.98549557 68.66183186 38.53330835 66.97108624 36.4453125 63.33203125 C36.10745224 62.74936996 35.76959198 62.16670868 35.42149353 61.56639099 C34.31437164 59.65307881 33.21983737 57.73286344 32.125 55.8125 C31.3596118 54.48544313 30.59324641 53.1589494 29.82592773 51.83300781 C28.27776558 49.15644954 26.73347121 46.47771936 25.19189453 43.79736328 C22.19183068 38.58942489 19.12960891 33.41865514 16.0625 28.25 C15.02843414 26.50142726 13.99457458 24.7527325 12.9609375 23.00390625 C11.46780074 20.47951363 9.97372162 17.95569422 8.47753906 15.43310547 C7.04572843 13.01896281 5.6164252 10.60335127 4.1875 8.1875 C3.76025635 7.46916992 3.3330127 6.75083984 2.89282227 6.01074219 C0 1.11342073 0 1.11342073 0 0 Z " fill="#FD636E" transform="translate(127,121)"/>
<path d="M0 0 C8.11248308 5.85509648 14.39702444 13.85442884 16.62109375 23.74609375 C16.82734375 25.02484375 17.03359375 26.30359375 17.24609375 27.62109375 C2.32213615 40.40779323 -15.36475456 45.11256696 -34.75390625 43.62109375 C-47.74941854 41.89508094 -60.14587067 36.68009872 -69.75390625 27.62109375 C-68.01226871 15.81666157 -61.27479739 6.37976772 -51.88671875 -0.80859375 C-46.85764951 -4.22189777 -41.61201569 -5.90441612 -35.75390625 -7.37890625 C-34.78710938 -7.65541016 -34.78710938 -7.65541016 -33.80078125 -7.9375 C-21.67409498 -10.55260601 -10.15458975 -6.51518478 0 0 Z " fill="#88C7FB" transform="translate(339.75390625,326.37890625)"/>
<path d="M0 0 C0 28.05 0 56.1 0 85 C-12.21 85 -24.42 85 -37 85 C-37 57.94 -37 30.88 -37 3 C-29.08 2.67 -21.16 2.34 -13 2 C-4 0 -4 0 0 0 Z " fill="#FD636E" transform="translate(339,411)"/>
<path d="M0 0 C0.98729434 -0.01064158 0.98729434 -0.01064158 1.99453402 -0.02149814 C4.19287876 -0.03905501 6.38944978 -0.02098823 8.58776855 -0.00291443 C10.16658838 -0.00805421 11.74540247 -0.01533594 13.32420349 -0.02459717 C17.6073805 -0.04311221 21.88993506 -0.03017225 26.17308617 -0.01050687 C30.65641376 0.00588023 35.13970194 -0.00293335 39.62304688 -0.00802612 C47.15191591 -0.01254702 54.68053649 0.00332244 62.20935059 0.03126526 C70.91239262 0.06331721 79.61498655 0.06330145 88.3180604 0.04605049 C96.69182863 0.03018398 105.06543267 0.03691974 113.43919373 0.0539875 C117.0021146 0.0608582 120.56490386 0.05982537 124.12782288 0.05244255 C128.3239096 0.04477856 132.5194867 0.05690918 136.71548653 0.08429146 C138.25497996 0.09117524 139.79452099 0.09127329 141.33401299 0.08407593 C143.43670335 0.07537864 145.53782185 0.09133842 147.64038086 0.11352539 C148.81654716 0.11633231 149.99271347 0.11913923 151.20452118 0.12203121 C154.9643517 0.73283668 156.63965825 1.96975524 159.32019043 4.62818909 C159.98425293 6.84693909 159.98425293 6.84693909 159.94519043 9.12818909 C159.95808105 9.88100159 159.97097168 10.63381409 159.98425293 11.40943909 C158.98942954 14.73331959 157.18183039 15.74413845 154.32019043 17.62818909 C151.20452118 18.13434696 151.20452118 18.13434696 147.64038086 18.14285278 C146.98218463 18.14979831 146.32398841 18.15674384 145.64584684 18.16389984 C143.4477539 18.18214732 141.25074305 18.17191295 139.0526123 18.16163635 C137.47379246 18.16869598 135.89497938 18.17744119 134.31617737 18.18774414 C130.03310552 18.21024183 125.75040312 18.20729782 121.46729469 18.19842267 C117.89110223 18.19331234 114.31497916 18.20060561 110.73879385 18.20789474 C102.30281094 18.22489456 93.86700891 18.22132664 85.43103027 18.2046051 C76.72794165 18.18767723 68.02535434 18.20352711 59.32232046 18.23582798 C51.84870488 18.26251508 44.37524545 18.26980247 36.90158701 18.2613129 C32.43846414 18.25638186 27.97564303 18.2586089 23.51255798 18.27910042 C19.31641648 18.29744429 15.12099693 18.29151532 10.92489433 18.26690102 C9.38538919 18.26188922 7.84582915 18.26539256 6.30636787 18.27804947 C4.20341437 18.29397099 2.10284112 18.27904371 0 18.25637817 C-1.76424946 18.25549871 -1.76424946 18.25549871 -3.56414032 18.25460148 C-7.63573405 17.43599829 -9.1329966 15.8447415 -11.67980957 12.62818909 C-12.30480957 9.12818909 -12.30480957 9.12818909 -11.67980957 5.62818909 C-8.06298125 1.0602377 -5.77201338 0.0028773 0 0 Z " fill="#000000" transform="translate(352.6798095703125,169.37181091308594)"/>
<path d="M0 0 C0.66621447 -0.00623996 1.33242894 -0.01247993 2.01883173 -0.01890898 C4.25001632 -0.03485723 6.48011113 -0.0222288 8.71130371 -0.00964355 C10.31130104 -0.01506391 11.91129338 -0.02218608 13.51127625 -0.03088379 C17.85633501 -0.04913058 22.20101418 -0.04204413 26.54607964 -0.02936745 C31.09127711 -0.01924676 35.63644189 -0.02863053 40.18164062 -0.03491211 C47.81479737 -0.04219124 55.44779936 -0.03259388 63.08093262 -0.0135498 C71.90836123 0.00821948 80.73542032 0.0011683 89.56283998 -0.02085543 C97.13917344 -0.03900189 104.71539559 -0.04157145 112.29174376 -0.03110075 C116.81795529 -0.02486166 121.34399308 -0.02404156 125.87019348 -0.0372467 C130.12533699 -0.04879368 134.38000365 -0.04080089 138.6350956 -0.01766968 C140.19759135 -0.01237637 141.76012717 -0.01390702 143.32260704 -0.02272034 C145.45414015 -0.0336358 147.58414098 -0.01996365 149.71557617 0 C151.50527958 0.00226215 151.50527958 0.00226215 153.33113861 0.00457001 C156.96153179 0.60834368 158.13725033 1.63136863 160.35778809 4.50793457 C161.28645318 8.25184424 160.86153461 11.57240531 159.04528809 14.94543457 C155.74870791 17.99782362 152.26482513 17.63745628 147.99441528 17.64837646 C147.02193488 17.65283315 147.02193488 17.65283315 146.0298084 17.65737987 C143.85347741 17.66606397 141.67720144 17.66757486 139.50085449 17.66906738 C137.94204084 17.67369572 136.38322831 17.6787204 134.82441711 17.68411255 C130.58679131 17.69723607 126.34918136 17.70368128 122.11153841 17.70812321 C119.46466006 17.71105369 116.81778605 17.71515843 114.17090988 17.71962738 C105.89116486 17.73330148 97.61142975 17.74296886 89.33167422 17.74682927 C79.77048636 17.75131154 70.20944136 17.76886761 60.64829695 17.79782987 C53.25968145 17.81943524 45.87110618 17.82953292 38.48245943 17.83087039 C34.06854855 17.83191914 29.65477197 17.83784183 25.24089432 17.85569 C21.08928331 17.87215119 16.93790785 17.87433577 12.78627586 17.86555099 C11.2628879 17.8647796 9.73948738 17.86913686 8.21613121 17.87900925 C6.13551569 17.89170193 4.05573782 17.88586747 1.97512817 17.87542725 C0.81111292 17.87689381 -0.35290234 17.87836037 -1.55219078 17.87987137 C-4.9949273 17.46547925 -6.87865162 16.56818761 -9.64221191 14.50793457 C-11.20692424 11.37850992 -11.33923149 7.89711234 -10.64221191 4.50793457 C-7.44609372 0.3475592 -5.1332094 0.00648829 0 0 Z " fill="#000000" transform="translate(351.6422119140625,4.4920654296875)"/>
<path d="M0 0 C1.31647522 -0.00571014 2.63295044 -0.01142029 3.98931885 -0.01730347 C5.45179739 -0.01854882 6.91427604 -0.01967392 8.37675476 -0.02069092 C9.91424173 -0.02531935 11.45172755 -0.03034405 12.98921204 -0.03573608 C17.16905558 -0.04885979 21.34888306 -0.055305 25.52874398 -0.05974674 C28.1401181 -0.06267755 30.75148782 -0.06678238 33.36285973 -0.07125092 C41.53314993 -0.08492585 49.7034301 -0.09459249 57.87373096 -0.09845281 C67.30529852 -0.10293351 76.73672116 -0.12048198 86.16824466 -0.1494534 C93.45836284 -0.17106963 100.74844024 -0.18115706 108.03859013 -0.18249393 C112.39272995 -0.18354201 116.74673353 -0.18945048 121.10083961 -0.20731354 C125.19746268 -0.2237932 129.29384708 -0.2259503 133.39049149 -0.21717453 C134.89249625 -0.21640409 136.39451385 -0.2207478 137.89648628 -0.23063278 C139.95047999 -0.24335598 142.00362887 -0.23747443 144.05761719 -0.22705078 C145.20596196 -0.22851734 146.35430674 -0.2299839 147.53744984 -0.2314949 C151.17788309 0.19404929 153.59593896 1.24950382 156.71928406 3.14044189 C158.28399638 6.26986655 158.41630364 9.75126413 157.71928406 13.14044189 C155.50455961 16.02334061 154.32324573 17.03999653 150.69263458 17.64380646 C149.49949898 17.64531456 148.30636337 17.64682266 147.07707214 17.64837646 C146.41085767 17.65461643 145.7446432 17.66085639 145.05824041 17.66728544 C142.82705583 17.68323369 140.59696101 17.67060527 138.36576843 17.65802002 C136.7657711 17.66344037 135.16577877 17.67056255 133.5657959 17.67926025 C129.22073714 17.69750704 124.87605797 17.6904206 120.53099251 17.67774391 C115.98579503 17.66762322 111.44063026 17.677007 106.89543152 17.68328857 C99.26227477 17.6905677 91.62927278 17.68097034 83.99613953 17.66192627 C75.16871091 17.64015698 66.34165182 17.64720817 57.51423216 17.66923189 C49.9378987 17.68737836 42.36167655 17.68994792 34.78532839 17.67947721 C30.25911685 17.67323812 25.73307906 17.67241802 21.20687866 17.68562317 C16.95173515 17.69717014 12.69706849 17.68917736 8.44197655 17.66604614 C6.87948079 17.66075283 5.31694497 17.66228349 3.7544651 17.6710968 C1.62293199 17.68201227 -0.50706884 17.66834012 -2.63850403 17.64837646 C-4.42820744 17.64611431 -4.42820744 17.64611431 -6.25406647 17.64380646 C-9.88489419 17.03996051 -11.05822888 16.01562335 -13.28071594 13.14044189 C-14.00876545 10.39954962 -13.85514835 7.91022983 -13.28071594 5.14044189 C-9.6085489 0.20201035 -5.84815097 0.01516394 0 0 Z " fill="#000000" transform="translate(354.2807159423828,86.85955810546875)"/>
<path d="M0 0 C3.65464986 1.53392788 5.94394 3.7262778 8.703125 6.54296875 C9.60160156 7.45240234 10.50007813 8.36183594 11.42578125 9.29882812 C12.36756931 10.26134531 13.30897355 11.22423819 14.25 12.1875 C21.32924957 19.48318046 21.32924957 19.48318046 28.828125 26.3359375 C35.06190696 31.66571015 40.72572488 37.62143944 46.5 43.4375 C47.71591114 44.6584369 48.93205516 45.87914192 50.1484375 47.09960938 C53.10164966 50.06374013 56.05169398 53.03098958 59 56 C57.48623919 59.56764285 55.39486871 61.83706287 52.6484375 64.546875 C51.79765625 65.39121094 50.946875 66.23554688 50.0703125 67.10546875 C48.73613281 68.41451172 48.73613281 68.41451172 47.375 69.75 C46.4778125 70.63816406 45.580625 71.52632813 44.65625 72.44140625 C42.44192996 74.63216969 40.22307565 76.81812763 38 79 C34.64956603 77.54811406 32.49513804 75.7180341 29.953125 73.11328125 C28.8084375 71.9521582 28.8084375 71.9521582 27.640625 70.76757812 C26.85171875 69.95740234 26.0628125 69.14722656 25.25 68.3125 C18.94295598 61.8294501 18.94295598 61.8294501 12.25390625 55.75 C6.05443027 50.43164825 0.42563707 44.49229501 -5.3125 38.6875 C-7.63903178 36.33434669 -9.96888619 33.98455592 -12.30078125 31.63671875 C-12.82891922 31.10028244 -13.35705719 30.56384613 -13.90119934 30.01115417 C-16.17781577 27.71932985 -18.30062623 25.79958252 -21 24 C-19.41060574 20.06785699 -16.83657498 17.66979654 -13.8125 14.75 C-9.30556525 10.3497032 -5.0819231 5.80075232 -1 1 C-0.67 0.67 -0.34 0.34 0 0 Z " fill="#EEB882" transform="translate(437,397)"/>
<path d="M0 0 C0 32.34 0 64.68 0 98 C-0.33 98 -0.66 98 -1 98 C-1 67.31 -1 36.62 -1 5 C-29.81031139 12.20257785 -53.74886789 22.55371113 -69.89794922 48.14990234 C-77.06968889 60.18965495 -82.56482368 73.89303426 -83 88 C-83.02578125 88.70543945 -83.0515625 89.41087891 -83.078125 90.13769531 C-83.66096131 108.05262645 -81.02839187 122.90048932 -73 139 C-72.47535156 140.0621875 -71.95070313 141.124375 -71.41015625 142.21875 C-62.88996752 158.05088554 -48.96060078 170.08732928 -33 178 C-32.14921875 178.44214844 -31.2984375 178.88429687 -30.421875 179.33984375 C-9.77477421 189.50884998 14.50363761 190.11580549 36.3046875 183.2890625 C42.14801704 181.46618989 42.14801704 181.46618989 47 178 C47.66 179.98 48.32 181.96 49 184 C25.70873971 194.76338544 -0.24557174 196.92966902 -24.703125 188.3125 C-50.9184161 177.87608079 -70.17931601 159.78883498 -82 134 C-91.8011161 110.55919508 -91.95447131 84.17512175 -82.625 60.625 C-81.77537338 58.73836686 -80.90095078 56.86266951 -80 55 C-79.57074219 54.10152344 -79.14148438 53.20304687 -78.69921875 52.27734375 C-66.98902472 29.35175263 -46.52183597 12.27143063 -22.1875 4.125 C-14.74318065 1.80985566 -7.81053556 0 0 0 Z " fill="#5CADF0" transform="translate(105,16)"/>
<path d="M0 0 C0.8119986 -0.0087616 1.62399719 -0.01752319 2.46060181 -0.02655029 C5.13704314 -0.04850569 7.81182397 -0.03400613 10.48828125 -0.01708984 C12.3524609 -0.02045911 14.21663841 -0.02531265 16.08081055 -0.03158569 C19.98475085 -0.03895177 23.88811853 -0.02826018 27.79199219 -0.00488281 C32.79261351 0.02360496 37.7918931 0.00719954 42.79246521 -0.02274513 C46.64101241 -0.04082537 50.48924224 -0.03505678 54.33779907 -0.02210617 C56.18136759 -0.01877416 58.02496505 -0.02285205 59.86849976 -0.03450394 C62.44696199 -0.04722493 65.02326114 -0.02782029 67.6015625 0 C68.36119293 -0.01012115 69.12082336 -0.02024231 69.9034729 -0.03067017 C73.83653372 0.04782621 75.63851088 0.5206476 78.77807617 2.9647522 C80.80078125 5.64697266 80.80078125 5.64697266 81.36328125 9.20947266 C80.72206936 13.12798977 79.90578906 14.27255492 76.80078125 16.64697266 C73.72731076 18.1837079 70.49890154 17.8030893 67.12573242 17.80810547 C65.93765236 17.81555283 65.93765236 17.81555283 64.72557068 17.82315063 C62.09828836 17.83778722 59.47106644 17.84457713 56.84375 17.85009766 C55.02012632 17.85584838 53.19650266 17.86160612 51.37287903 17.86737061 C47.54537677 17.8778852 43.71789554 17.8837247 39.89038086 17.88720703 C34.98754248 17.89268926 30.08498216 17.91670952 25.18223095 17.94517899 C21.41355073 17.96381069 17.64493737 17.96901127 13.87621498 17.97054291 C12.06891677 17.97356934 10.26161973 17.98159756 8.45436668 17.99472809 C5.92403457 18.01179797 3.39438013 18.00990605 0.86401367 18.00341797 C0.11837158 18.01263275 -0.62727051 18.02184753 -1.39550781 18.03134155 C-5.83315657 17.99572779 -8.67364232 17.39187808 -12.19921875 14.64697266 C-13.76857469 11.50826078 -13.55122978 9.10841444 -13.19921875 5.64697266 C-9.40449272 0.57088738 -6.03413801 -0.08039758 0 0 Z " fill="#000000" transform="translate(354.19921875,120.35302734375)"/>
<path d="M0 0 C1.1904895 -0.00503792 1.1904895 -0.00503792 2.4050293 -0.01017761 C5.03712516 -0.01970142 7.66915749 -0.0216315 10.30126953 -0.02270508 C12.12728909 -0.02591689 13.95330838 -0.0292809 15.77932739 -0.03279114 C19.61102902 -0.03878614 23.44270808 -0.04063068 27.27441406 -0.04003906 C32.18625692 -0.03993747 37.09795514 -0.05358512 42.00976372 -0.07081127 C45.7826911 -0.08192624 49.55558347 -0.08395842 53.32852554 -0.08342934 C55.13943098 -0.08461039 56.9503373 -0.08903916 58.76122665 -0.0967617 C61.29404594 -0.10655056 63.82655073 -0.10368785 66.359375 -0.09765625 C67.10861237 -0.10327576 67.85784973 -0.10889526 68.62979126 -0.11468506 C72.32398216 -0.09231149 75.25213541 -0.05583989 78.30908203 2.14526367 C80.80939858 5.89573849 80.84511757 7.70382633 80.30908203 12.14526367 C77.57804945 15.78744704 76.08947383 17.0147641 71.55249023 17.77345276 C70.07185178 17.79997452 68.59056386 17.79915807 67.10986328 17.77636719 C66.29786469 17.78352249 65.48586609 17.7906778 64.64926147 17.79804993 C61.97279102 17.81491943 59.29799977 17.79554565 56.62158203 17.77416992 C54.75740419 17.77499879 52.89322642 17.77745883 51.02905273 17.78147888 C47.12510132 17.78433568 43.221724 17.76964734 39.31787109 17.7421875 C34.31738765 17.70810486 29.31793065 17.71412401 24.31739807 17.73285007 C20.46886665 17.74342604 16.62057348 17.73447683 12.77206421 17.71946526 C10.92850451 17.71428736 9.0849199 17.71476049 7.24136353 17.72101021 C4.66313304 17.72646968 2.0863646 17.70606504 -0.49169922 17.67871094 C-1.63114487 17.68849976 -1.63114487 17.68849976 -2.79360962 17.69848633 C-7.69086251 17.61027615 -10.27288895 16.67257637 -13.69091797 13.14526367 C-14.55393127 10.40077416 -14.32756977 7.93850175 -13.69091797 5.14526367 C-9.72569739 -0.00952308 -6.12567755 -0.00368528 0 0 Z " fill="#000000" transform="translate(354.69091796875,37.854736328125)"/>
<path d="M0 0 C5.63935449 2.34637428 9.48500458 6.10030941 13 11 C14.85804418 16.57413253 14.80631384 21.94275568 12.3125 27.3125 C9.92738402 31.53684274 6.99906037 33.85767979 2.8125 36.25 C-2.2604437 37.60278499 -7.3238852 38.06587136 -12.28515625 36.08984375 C-17.71725092 32.93212143 -20.99097288 29.02708136 -23 23 C-23.5635668 17.31014289 -23.32796433 12.83091597 -20 8 C-14.02327315 1.97996353 -8.6757171 -1.38411934 0 0 Z " fill="#F1D8C9" transform="translate(318,265)"/>
<path d="M0 0 C25.91362984 2.8792922 49.79999472 14.03400497 67 34 C80.13665555 50.73171275 86.88180714 67.81807143 89 89 C59.63 89 30.26 89 0 89 C0 59.63 0 30.26 0 0 Z M1 5 C1 32.39 1 59.78 1 88 C28.39 88 55.78 88 84 88 C81.55482966 63.54829665 70.61673907 42.28629835 52 26 C36.90260033 14.032309 20.17334921 7.13037213 1 5 Z " fill="#DEB759" transform="translate(120,16)"/>
<path d="M0 0 C9.57 0 19.14 0 29 0 C29 9.24 29 18.48 29 28 C19.43 28 9.86 28 0 28 C0 18.76 0 9.52 0 0 Z " fill="#F2D571" transform="translate(277,99)"/>
<path d="M0 0 C8.91 0 17.82 0 27 0 C27 9.24 27 18.48 27 28 C18.09 28 9.18 28 0 28 C0 18.76 0 9.52 0 0 Z " fill="#8AC9FE" transform="translate(278,16)"/>
<path d="M0 0 C12.21 0 24.42 0 37 0 C37 55.11 37 110.22 37 167 C24.79 167 12.58 167 0 167 C0 166.34 0 165.68 0 165 C1.23302856 164.97812622 1.23302856 164.97812622 2.4909668 164.95581055 C6.22361323 164.88123667 9.95537459 164.78460488 13.6875 164.6875 C14.98107422 164.66494141 16.27464844 164.64238281 17.60742188 164.61914062 C18.85458984 164.58369141 20.10175781 164.54824219 21.38671875 164.51171875 C23.10701294 164.47244263 23.10701294 164.47244263 24.86206055 164.43237305 C28.31948306 163.9559788 30.24594269 163.12146571 33 161 C34.10778776 157.67663671 34.13865415 155.18090747 34.15821838 151.6789093 C34.16315636 151.03522831 34.16809434 150.39154731 34.17318195 149.72836083 C34.18855984 147.56801465 34.19691833 145.40769819 34.20532227 143.24731445 C34.21490056 141.70009092 34.22491062 140.15287001 34.23532104 138.60565186 C34.26238141 134.40143488 34.28338485 130.19720666 34.30332303 125.99295068 C34.32517559 121.60068219 34.35256785 117.2084484 34.37937927 112.81620789 C34.42931603 104.49711604 34.47425122 96.17800496 34.51740164 87.85887545 C34.56676561 78.38858834 34.62168685 68.91833603 34.67708123 59.44808257 C34.79091638 39.96541923 34.89701842 20.48272394 35 1 C23.45 1 11.9 1 0 1 C0 0.67 0 0.34 0 0 Z " fill="#0EE09A" transform="translate(16,329)"/>
<path d="M0 0 C1.32 0 2.64 0 4 0 C5.18581545 20.24670085 -5.47412727 40.60636244 -18.625 55.4375 C-20.07012176 56.97089272 -21.52768712 58.49269614 -23 60 C-23.98033203 61.0209375 -23.98033203 61.0209375 -24.98046875 62.0625 C-31.13826651 68.36472372 -31.13826651 68.36472372 -34 70 C-37 69 -37 69 -38.1875 66.9375 C-38.455625 66.298125 -38.72375 65.65875 -39 65 C-38.071875 64.566875 -37.14375 64.13375 -36.1875 63.6875 C-19.7911826 54.16705764 -8.74712224 34.40957376 -3.9309082 16.70800781 C-2.47120209 11.17065008 -1.04890177 5.63214648 0 0 Z " fill="#F64553" transform="translate(204,121)"/>
<path d="M0 0 C9.57 0 19.14 0 29 0 C29 3.63 29 7.26 29 11 C27.01460565 12.98539435 23.23565684 12.58864973 20.5 12.875 C14.29204349 13.57357595 8.87661221 14.80872087 3 17 C2.01 17 1.02 17 0 17 C0 11.39 0 5.78 0 0 Z " fill="#ED5D67" transform="translate(277,181)"/>
<path d="M0 0 C12.28185267 6.61330528 19.36908362 20.94780398 23.67578125 33.67578125 C25.35419759 39.50122956 25.40724414 45.09927261 25.3125 51.125 C25.31733398 52.67380859 25.31733398 52.67380859 25.32226562 54.25390625 C25.26254477 62.77770144 23.63039176 69.74838371 20.625 77.75 C20.22539062 78.83796875 19.82578125 79.9259375 19.4140625 81.046875 C17.97468343 84.05287107 16.48877679 85.81834886 14 88 C12.89453125 86.25390625 12.89453125 86.25390625 12 84 C12.57421875 82.02734375 12.57421875 82.02734375 13.6875 79.9375 C18.10618606 70.97160521 19.54056577 62.18215835 19.4375 52.25 C19.42847656 51.20013916 19.41945313 50.15027832 19.41015625 49.06860352 C19.03478563 32.12348762 13.35798516 15.66108767 1.25 3.41796875 C0 2 0 2 0 0 Z " fill="#645B64" transform="translate(355,251)"/>
<path d="M0 0 C0.66 0 1.32 0 2 0 C2 35.97 2 71.94 2 109 C-10.21 109 -22.42 109 -35 109 C-35 108.34 -35 107.68 -35 107 C-34.17798096 106.98541748 -33.35596191 106.97083496 -32.5090332 106.95581055 C-28.77638677 106.88123667 -25.04462541 106.78460488 -21.3125 106.6875 C-20.01892578 106.66494141 -18.72535156 106.64238281 -17.39257812 106.61914062 C-16.14541016 106.58369141 -14.89824219 106.54824219 -13.61328125 106.51171875 C-11.89298706 106.47244263 -11.89298706 106.47244263 -10.13793945 106.43237305 C-6.69993488 105.95865437 -4.77199798 105.05467304 -2 103 C-0.86296634 100.72593267 -0.86372502 99.4517664 -0.84178162 96.92514038 C-0.8319928 96.07256149 -0.82220398 95.2199826 -0.81211853 94.34156799 C-0.80636307 93.40433395 -0.8006076 92.46709991 -0.79467773 91.50146484 C-0.78477814 90.51606216 -0.77487854 89.53065948 -0.76467896 88.51539612 C-0.73300597 85.24726797 -0.70828361 81.97912526 -0.68359375 78.7109375 C-0.66302923 76.44934707 -0.6420329 74.18776054 -0.62062073 71.92617798 C-0.56534821 65.96511986 -0.5159618 60.00402675 -0.46777344 54.04290771 C-0.41759619 47.9634692 -0.36189044 41.88408166 -0.30664062 35.8046875 C-0.19899571 23.86983519 -0.09756483 11.93493867 0 0 Z " fill="#FED165" transform="translate(240,387)"/>
<path d="M0 0 C0.33 0 0.66 0 1 0 C1 70.29 1 140.58 1 213 C-10.88 213 -22.76 213 -35 213 C-35 212.34 -35 211.68 -35 211 C-33.81241089 210.97812622 -33.81241089 210.97812622 -32.60083008 210.95581055 C-29.00423457 210.88121644 -25.40855557 210.78459167 -21.8125 210.6875 C-20.56662109 210.66494141 -19.32074219 210.64238281 -18.03710938 210.61914062 C-16.83505859 210.58369141 -15.63300781 210.54824219 -14.39453125 210.51171875 C-12.73707886 210.47244263 -12.73707886 210.47244263 -11.04614258 210.43237305 C-7.63760873 209.94856176 -5.74883024 209.04496081 -3 207 C-0.4879509 203.23192635 -0.71077021 200.25919563 -0.7215271 195.89460754 C-0.7157347 195.05899959 -0.7099423 194.22339163 -0.70397437 193.36246222 C-0.68692107 190.55255656 -0.68409329 187.74281462 -0.68115234 184.93286133 C-0.67185784 182.92258804 -0.66168989 180.91231863 -0.65071106 178.90205383 C-0.62334308 173.43547191 -0.60824154 167.96891586 -0.59528303 162.50228333 C-0.57968218 156.79272627 -0.5528823 151.08322227 -0.5272522 145.373703 C-0.48041037 134.5577864 -0.44369244 123.74185988 -0.41057932 112.92589349 C-0.37239608 100.61405443 -0.322976 88.30226859 -0.27259517 75.99047434 C-0.16919494 50.66035564 -0.0799609 25.33020277 0 0 Z " fill="#60B7FE" transform="translate(144,283)"/>
<path d="M0 0 C4.16346304 0.50727251 5.99903561 2.72339342 8.8125 5.6875 C12.71350583 9.71564972 16.67909256 13.43055472 21 17 C20.24432948 20.78630702 18.87402727 22.4041044 16 25 C11.75353474 23.3034955 8.78305326 20.26582771 5.5 17.1875 C4.93152344 16.66607422 4.36304688 16.14464844 3.77734375 15.60742188 C0.5421988 12.6012141 -2.33153872 9.53832733 -5 6 C-3.35 4.02 -1.7 2.04 0 0 Z " fill="#A196A1" transform="translate(397,375)"/>
<path d="M0 0 C1.32 0 2.64 0 4 0 C4 28.05 4 56.1 4 85 C-8.21 85 -20.42 85 -33 85 C-33 84.34 -33 83.68 -33 83 C-32.20827393 82.98541748 -31.41654785 82.97083496 -30.60083008 82.95581055 C-27.00423457 82.88121644 -23.40855557 82.78459167 -19.8125 82.6875 C-18.56662109 82.66494141 -17.32074219 82.64238281 -16.03710938 82.61914062 C-14.83505859 82.58369141 -13.63300781 82.54824219 -12.39453125 82.51171875 C-10.73707886 82.47244263 -10.73707886 82.47244263 -9.04614258 82.43237305 C-5.63760873 81.94856176 -3.74883024 81.04496081 -1 79 C1.37484022 75.43773967 1.30597717 72.8888028 1.31884766 68.7746582 C1.33391609 67.6767244 1.33391609 67.6767244 1.34928894 66.55661011 C1.38017185 64.13800845 1.39717004 61.71951775 1.4140625 59.30078125 C1.43277006 57.62354067 1.45234317 55.94630954 1.4727478 54.26908875 C1.52411859 49.85506762 1.56371777 45.44101595 1.60089111 41.02685547 C1.6408998 36.5223838 1.69200642 32.01803967 1.7421875 27.51367188 C1.83900532 18.67587078 1.92339133 9.83799775 2 1 C1.34 0.67 0.68 0.34 0 0 Z " fill="#EC424F" transform="translate(335,411)"/>
<path d="M0 0 C8.00609933 6.08463549 12.76468089 13.25844318 15.06640625 23.08984375 C15 25 15 25 13.65234375 26.75390625 C12 28 12 28 10 28 C9.69707031 26.94941406 9.39414062 25.89882813 9.08203125 24.81640625 C6.97186118 17.68598449 4.95499311 11.02181999 0.91796875 4.69921875 C0 3 0 3 0 0 Z " fill="#5CAFF4" transform="translate(342,329)"/>
</svg>
