<?xml version="1.0" encoding="UTF-8"?>
<svg version="1.1" xmlns="http://www.w3.org/2000/svg" width="512" height="512">
<path d="M0 0 C168.96 0 337.92 0 512 0 C512 168.96 512 337.92 512 512 C343.04 512 174.08 512 0 512 C0 343.04 0 174.08 0 0 Z " fill="#000000" transform="translate(0,0)"/>
<path d="M0 0 C2.13327476 -0.00734848 4.26654555 -0.01593697 6.39981079 -0.02566528 C12.17074628 -0.04781071 17.94153868 -0.05081536 23.71251082 -0.04891777 C28.54304551 -0.04879772 33.37355027 -0.05737622 38.20407659 -0.06569529 C49.60921607 -0.08490525 61.01428237 -0.08782234 72.41943359 -0.08105469 C84.15341606 -0.07441948 95.88708373 -0.09726314 107.62100238 -0.13436842 C117.72247054 -0.16514297 127.82383786 -0.17641693 137.92535192 -0.1725316 C143.94641156 -0.1704717 149.96722628 -0.17582552 155.9882412 -0.20042419 C161.65606249 -0.22281633 167.3233751 -0.22071018 172.99119949 -0.20049667 C175.05985351 -0.19710834 177.12854261 -0.20208065 179.19714928 -0.21648026 C197.97210014 -0.33805415 214.03673861 2.52885244 228.58911133 15.48242188 C242.15445044 30.02838791 243.35226151 46.67603664 243.3215332 65.51831055 C243.32888168 67.65158531 243.33747017 69.7848561 243.34719849 71.91812134 C243.36934391 77.68905683 243.37234856 83.45984923 243.37045097 89.23082137 C243.37033092 94.06135606 243.37890942 98.89186082 243.38722849 103.72238714 C243.40643845 115.12752662 243.40935555 126.53259292 243.40258789 137.93774414 C243.39595268 149.6717266 243.41879634 161.40539428 243.45590162 173.13931292 C243.48667617 183.24078109 243.49795013 193.34214841 243.49406481 203.44366246 C243.4920049 209.46472211 243.49735873 215.48553683 243.5219574 221.50655174 C243.54434953 227.17437304 243.54224339 232.84168565 243.52202988 238.50951004 C243.51864154 240.57816405 243.52361385 242.64685315 243.53801346 244.71545982 C243.65959124 263.49101125 240.82747161 279.71651018 227.71411133 294.16992188 C212.91501914 307.8837473 195.43677209 309.01912367 176.41503906 308.9375 C174.27645391 308.94293004 172.13787251 308.95005761 169.9992981 308.95874023 C164.22868263 308.97687045 158.45835539 308.96994905 152.68773532 308.95722389 C146.62800281 308.94704393 140.56829374 308.95650326 134.50856018 308.96276855 C124.33655399 308.9700299 114.16466426 308.96049642 103.99267578 308.94140625 C92.25689822 308.91963468 80.52139863 308.92669722 68.78562778 308.94871187 C58.68159252 308.96690201 48.57764061 308.9694067 38.47359425 308.9589572 C32.45104836 308.9527429 26.42863286 308.9518298 20.4060955 308.96510315 C14.74320552 308.97671389 9.08067175 308.96854069 3.41781998 308.94552612 C1.34791338 308.94026713 -0.72202354 308.94170423 -2.7919178 308.95057678 C-20.86230241 309.02085502 -36.52621999 306.57574041 -50.41088867 293.73242188 C-64.34290854 278.64181407 -65.69932442 261.35916575 -65.6159668 241.93334961 C-65.62139683 239.79476446 -65.62852441 237.65618306 -65.63720703 235.51760864 C-65.65533724 229.74699318 -65.64841584 223.97666593 -65.63569069 218.20604587 C-65.62551073 212.14631335 -65.63497005 206.08660429 -65.64123535 200.02687073 C-65.6484967 189.85486453 -65.63896321 179.68297481 -65.61987305 169.51098633 C-65.59810147 157.77520876 -65.60516402 146.03970918 -65.62717867 134.30393833 C-65.64536881 124.19990306 -65.6478735 114.09595116 -65.63742399 103.9919048 C-65.63120969 97.9693589 -65.63029659 91.9469434 -65.64356995 85.92440605 C-65.65518069 80.26151607 -65.64700748 74.5989823 -65.62399292 68.93613052 C-65.61873393 66.86622393 -65.62017103 64.79628701 -65.62904358 62.72639275 C-65.69923332 44.67876292 -63.23723974 29.12236962 -50.53588867 15.16992188 C-35.68624744 1.3850805 -19.26870237 -0.03142374 0 0 Z " fill="#FDFDFD" transform="translate(167.098388671875,101.580078125)"/>
<path d="M0 0 C15.55125 -0.061875 31.1025 -0.12375 47.125 -0.1875 C54.45162842 -0.22846802 54.45162842 -0.22846802 61.92626953 -0.27026367 C67.95678711 -0.28381348 67.95678711 -0.28381348 70.79269409 -0.28633118 C72.74543314 -0.29089488 74.69816451 -0.30135519 76.65084839 -0.31672668 C95.81676699 -0.45987056 114.8705006 0.72575873 130 14 C139.12056742 24.67586418 140.81245276 37.35125856 140.17480469 50.99755859 C139.29818817 61.03947012 134.35489652 69.18370042 126.98046875 75.81640625 C123.19962197 78.81650455 119.74393995 80.81401501 115 82 C115 82.66 115 83.32 115 84 C115.94875 84.061875 116.8975 84.12375 117.875 84.1875 C127.48279839 85.60727588 134.69587865 91.37063148 140.43359375 98.875 C146.60670987 107.96065459 148.17791748 118.60425023 148.1875 129.375 C148.19974609 130.09171875 148.21199219 130.8084375 148.22460938 131.546875 C148.24516035 139.137036 146.58015766 145.41145247 143.125 152.1875 C142.63257813 153.17105469 142.14015625 154.15460938 141.6328125 155.16796875 C134.53293543 167.48234884 121.2865472 173.39229069 108.08398438 177.12011719 C97.42873989 179.86332887 86.70809853 179.50228151 75.78125 179.390625 C73.8317104 179.38472716 71.88216442 179.38065677 69.93261719 179.37841797 C62.78831343 179.35763985 55.64414621 179.30179575 48.5 179.25 C24.4925 179.12625 24.4925 179.12625 0 179 C0 119.93 0 60.86 0 0 Z " fill="#010101" transform="translate(186,169)"/>
<path d="M0 0 C15.53102228 -0.16043524 15.53102228 -0.16043524 22.21289062 -0.1953125 C26.75092561 -0.21911292 31.28863411 -0.24709612 35.82641602 -0.30175781 C39.48988073 -0.34560532 43.15299477 -0.36921783 46.81670189 -0.37950897 C48.20600076 -0.38683135 49.59528307 -0.40112787 50.98443031 -0.42292023 C61.00363261 -0.57367336 69.42050036 0.41683509 77.98046875 5.9140625 C83.64162854 11.76137261 86.38323332 18.92798393 86.6875 27 C86.28199968 35.33118845 84.03777478 43.55997612 77.875 49.5 C68.66072071 55.93856452 59.07391531 56.56492149 48.14453125 56.390625 C46.74778563 56.3831448 45.35102937 56.3774603 43.95426941 56.37347412 C40.31596807 56.3583572 36.67832734 56.31920077 33.0402832 56.2746582 C29.31275524 56.23340009 25.58511511 56.21517783 21.85742188 56.1953125 C14.57103526 56.15482133 7.28645166 56.07649818 0 56 C0 37.52 0 19.04 0 0 Z " fill="#FDFDFD" transform="translate(217,267)"/>
<path d="M0 0 C7.79140519 -0.08410512 15.58114678 -0.16421488 23.372612 -0.20700073 C27.00161858 -0.22804028 30.63024564 -0.2561101 34.2590332 -0.30175781 C37.760394 -0.34552219 41.26138898 -0.36920069 44.7630024 -0.37950897 C46.73542992 -0.3903937 48.70771222 -0.42157019 50.67991638 -0.45318604 C58.70635883 -0.45517277 65.74106569 0.08467538 71.87217712 5.72113037 C77.7068582 11.88586608 78.45748703 18.48975807 78.31640625 26.73828125 C77.72512549 32.83358287 75.53746395 37.13011141 71.6875 41.8125 C65.52624587 46.82747429 60.17393902 49.13081291 52.22167969 49.11352539 C51.0607782 49.11344986 49.89987671 49.11337433 48.70379639 49.11329651 C47.45576233 49.10813522 46.20772827 49.10297394 44.921875 49.09765625 C43.64016418 49.0962413 42.35845337 49.09482635 41.03790283 49.09336853 C37.6381636 49.08955901 34.2384674 49.07974214 30.83874512 49.06866455 C27.36646111 49.05841674 23.8941699 49.05380883 20.421875 49.04882812 C13.61454538 49.0386497 6.80733379 49.0190741 0 49 C0 32.83 0 16.66 0 0 Z " fill="#FDFDFD" transform="translate(217,195)"/>
</svg>
