<?xml version="1.0" encoding="UTF-8"?>
<svg version="1.1" xmlns="http://www.w3.org/2000/svg" width="512" height="512">
<path d="M0 0 C1.05700712 -0.00644889 2.11401423 -0.01289778 3.20305187 -0.0195421 C4.9356197 -0.01489629 4.9356197 -0.01489629 6.7031889 -0.01015663 C7.93504931 -0.01468774 9.16690972 -0.01921886 10.43609923 -0.02388728 C13.85270262 -0.03436043 17.26909556 -0.03585663 20.68570006 -0.03349853 C24.37156821 -0.0330904 28.05740496 -0.04412909 31.74325848 -0.05361366 C38.9636347 -0.07022567 46.18397828 -0.0757233 53.40437201 -0.07683842 C59.27375458 -0.07778881 65.14312637 -0.08189867 71.01250553 -0.08823967 C87.65437853 -0.10585275 104.29622574 -0.11507845 120.93810812 -0.11357872 C121.83525198 -0.11349881 122.73239585 -0.1134189 123.65672588 -0.11333656 C125.00408539 -0.11321392 125.00408539 -0.11321392 126.37866428 -0.1130888 C140.93560393 -0.11227592 155.4924401 -0.13141401 170.04934982 -0.1596133 C184.99735816 -0.18834164 199.94531604 -0.20215361 214.89335269 -0.20042574 C223.28510577 -0.19976182 231.67675037 -0.20525524 240.06847858 -0.22678185 C247.21353167 -0.24499302 254.35842711 -0.24934157 261.50349335 -0.235763 C265.14808412 -0.22923291 268.79237246 -0.22911723 272.43693447 -0.2464695 C276.39049069 -0.2650991 280.34360532 -0.25264658 284.29718304 -0.23720741 C286.01971262 -0.2526381 286.01971262 -0.2526381 287.77704078 -0.26838052 C295.54620088 -0.20127353 300.92761416 0.95968567 306.93284893 6.22211266 C307.47167706 6.87308922 308.01050518 7.52406578 308.56566143 8.19476891 C309.11995831 8.84316734 309.67425518 9.49156578 310.24534893 10.15961266 C313.50265856 14.88711339 313.98848465 19.23297513 313.98118877 24.85809898 C313.987906 25.60675728 313.99462322 26.35541557 314.001544 27.12676048 C314.02048911 29.59350854 314.02444655 32.05998394 314.02659893 34.52680016 C314.03302983 36.24926933 314.03975841 37.97173742 314.04677105 39.69420433 C314.05873548 43.30289808 314.06245279 46.91149618 314.0612669 50.52020836 C314.06106388 55.13021595 314.08835165 59.73960589 314.12281132 64.34946728 C314.14511908 67.9072555 314.14910324 71.46489606 314.14804745 75.02274704 C314.15039812 76.72151058 314.15919146 78.42027852 314.17471218 80.11897278 C314.32254348 97.97158243 314.32254348 97.97158243 307.72581768 105.49945641 C307.07484112 106.03828453 306.42386456 106.57711266 305.75316143 107.13226891 C305.10476299 107.68656578 304.45636456 108.24086266 303.78831768 108.81195641 C298.93462179 112.15621614 294.64920453 112.52473267 288.87816143 112.38226891 C285.32034893 112.32039391 285.32034893 112.32039391 281.69066143 112.25726891 C281.69066143 117.53726891 281.69066143 122.81726891 281.69066143 128.25726891 C284.00066143 128.17476891 286.31066143 128.09226891 288.69066143 128.00726891 C296.28381542 127.93231503 301.14638137 128.87251613 306.68675518 134.16351891 C309.74508197 137.46183512 311.71143153 139.84124681 312.69066143 144.25726891 C313.52984112 144.23370323 313.52984112 144.23370323 314.38597393 144.20966148 C356.30546768 143.21137772 416.52263975 145.41303736 449.69066143 174.25726891 C454.74291767 179.18704621 457.73844564 183.54118962 457.94793034 190.78573895 C457.96153108 192.64764704 457.96409097 194.50965493 457.95808697 196.37160301 C457.96261808 197.3992858 457.96714919 198.4269686 457.97181761 199.48579329 C457.98449185 202.93415947 457.98283927 206.38236832 457.98118877 209.83075523 C457.98717213 212.30124172 457.99397723 214.77172634 458.001544 217.24220848 C458.01739314 223.2594219 458.02365325 229.27657331 458.02476875 235.29380182 C458.02571958 240.18587777 458.02983157 245.0779408 458.03617001 249.97001266 C458.05378087 263.84501033 458.06300916 277.71997708 458.06150906 291.594986 C458.06142915 292.34278008 458.06134923 293.09057416 458.0612669 293.86102867 C458.06118514 294.6097376 458.06110338 295.35844653 458.06101914 296.12984361 C458.06020636 308.26184474 458.07934241 320.39372169 458.10754363 332.5256869 C458.13628301 344.98766943 458.15008334 357.44959141 458.14835608 369.91160792 C458.14769252 376.90608603 458.15316957 383.90043397 458.17471218 390.8948822 C458.19484461 397.47355759 458.19423949 404.05200514 458.17967892 410.6307106 C458.17758597 413.044582 458.18232051 415.45847047 458.19439983 417.87231255 C458.2098288 421.16919351 458.20055867 424.46512347 458.18513775 427.76198387 C458.19542488 428.71578951 458.205712 429.66959515 458.21631086 430.65230399 C458.14203769 437.84464198 456.41938416 443.10384224 451.68284893 448.57758141 C430.71453035 466.45094521 403.23642235 471.77419409 376.69066143 476.00726891 C375.45944561 476.20594566 374.22822979 476.40462242 372.9597044 476.60931969 C351.44600096 479.86187726 329.94804534 480.63604868 308.21218777 480.57532692 C306.15847222 480.5696804 304.10476494 480.56686386 302.05104351 480.56424522 C282.12643462 480.52731947 262.44003524 480.15992278 242.69066143 477.25726891 C241.4741087 477.08566246 240.25755596 476.91405602 239.00413799 476.73724937 C175.69079363 467.57196705 175.69079363 467.57196705 156.81175518 444.99555016 C153.90122793 440.48271173 153.44444793 436.58151633 153.46361065 431.2638607 C153.4633186 430.58038063 153.46302654 429.89690056 153.46272564 429.19270897 C153.46411226 426.94717 153.47964156 424.70196823 153.49534893 422.45648766 C153.49908144 420.89421838 153.50192729 419.33194676 153.50392437 417.7696743 C153.51154208 413.66791832 153.53117447 409.56630511 153.55333233 405.46460533 C153.57383096 401.27507012 153.58293466 397.08551174 153.59300518 392.89594078 C153.61442221 384.68298481 153.64853555 376.47014464 153.69066143 368.25726891 C152.87859234 368.26095608 152.06652325 368.26464325 151.229846 368.26844215 C131.45729856 368.35683484 111.68478525 368.42299881 91.91208172 368.46451759 C82.35008422 368.48513019 72.78821873 368.51322589 63.22630596 368.55902672 C54.89073948 368.59893436 46.55526862 368.62471119 38.21960926 368.63362288 C33.80717028 368.63883099 29.39500482 368.65104471 24.98265362 368.68018913 C20.8261184 368.70742037 16.66996834 368.71569842 12.51335239 368.70969963 C10.99121219 368.71079643 9.46905857 368.71870452 7.94699574 368.73409081 C-1.26524435 368.82261641 -8.31032372 368.63793871 -15.55152607 362.29242516 C-16.09035419 361.64144859 -16.62918232 360.99047203 -17.18433857 360.31976891 C-17.73863544 359.67137047 -18.29293232 359.02297203 -18.86402607 358.35492516 C-22.1213357 353.62742442 -22.60716179 349.28156269 -22.59986591 343.65643883 C-22.60658314 342.90778053 -22.61330036 342.15912224 -22.62022114 341.38777733 C-22.63916625 338.92102928 -22.64312369 336.45455387 -22.64527607 333.98773766 C-22.65170697 332.26526848 -22.65843555 330.54280039 -22.66544819 328.82033348 C-22.67741262 325.21163973 -22.68112993 321.60304164 -22.67994404 317.99432945 C-22.67974102 313.38432186 -22.70702879 308.77493192 -22.74148846 304.16507053 C-22.76379621 300.60728231 -22.76778038 297.04964175 -22.76672459 293.49179077 C-22.76907526 291.79302723 -22.7778686 290.09425929 -22.79338932 288.39556503 C-22.94122062 270.54295538 -22.94122062 270.54295538 -16.34449482 263.01508141 C-15.36802998 262.20683922 -15.36802998 262.20683922 -14.37183857 261.38226891 C-13.72344013 260.82797203 -13.07504169 260.27367516 -12.40699482 259.70258141 C-7.55329893 256.35832167 -3.26788167 255.98980514 2.50316143 256.13226891 C4.87503643 256.17351891 7.24691143 256.21476891 9.69066143 256.25726891 C9.69066143 250.97726891 9.69066143 245.69726891 9.69066143 240.25726891 C7.38066143 240.33976891 5.07066143 240.42226891 2.69066143 240.50726891 C-4.87227775 240.58192453 -9.74671001 239.65666946 -15.27027607 234.38617516 C-20.75221112 228.46792282 -22.61037358 223.75784984 -22.59986591 215.65643883 C-22.60658314 214.90778053 -22.61330036 214.15912224 -22.62022114 213.38777733 C-22.63916625 210.92102928 -22.64312369 208.45455387 -22.64527607 205.98773766 C-22.65170697 204.26526848 -22.65843555 202.54280039 -22.66544819 200.82033348 C-22.67741262 197.21163973 -22.68112993 193.60304164 -22.67994404 189.99432945 C-22.67974102 185.38432186 -22.70702879 180.77493192 -22.74148846 176.16507053 C-22.76379621 172.60728231 -22.76778038 169.04964175 -22.76672459 165.49179077 C-22.76907526 163.79302723 -22.7778686 162.09425929 -22.79338932 160.39556503 C-22.94122062 142.54295538 -22.94122062 142.54295538 -16.34449482 135.01508141 C-15.69351826 134.47625328 -15.04254169 133.93742516 -14.37183857 133.38226891 C-13.72344013 132.82797203 -13.07504169 132.27367516 -12.40699482 131.70258141 C-7.55329893 128.35832167 -3.26788167 127.98980514 2.50316143 128.13226891 C6.06097393 128.19414391 6.06097393 128.19414391 9.69066143 128.25726891 C9.69066143 122.97726891 9.69066143 117.69726891 9.69066143 112.25726891 C7.38066143 112.33976891 5.07066143 112.42226891 2.69066143 112.50726891 C-4.87227775 112.58192453 -9.74671001 111.65666946 -15.27027607 106.38617516 C-20.75221112 100.46792282 -22.61037358 95.75784984 -22.59986591 87.65643883 C-22.60658314 86.90778053 -22.61330036 86.15912224 -22.62022114 85.38777733 C-22.63916625 82.92102928 -22.64312369 80.45455387 -22.64527607 77.98773766 C-22.65170697 76.26526848 -22.65843555 74.54280039 -22.66544819 72.82033348 C-22.67741262 69.21163973 -22.68112993 65.60304164 -22.67994404 61.99432945 C-22.67974102 57.38432186 -22.70702879 52.77493192 -22.74148846 48.16507053 C-22.76379621 44.60728231 -22.76778038 41.04964175 -22.76672459 37.49179077 C-22.76907526 35.79302723 -22.7778686 34.09425929 -22.79338932 32.39556503 C-22.94122062 14.54295538 -22.94122062 14.54295538 -16.34449482 7.01508141 C-15.69351826 6.47625328 -15.04254169 5.93742516 -14.37183857 5.38226891 C-13.72344013 4.82797203 -13.07504169 4.27367516 -12.40699482 3.70258141 C-8.39650113 0.93929898 -4.83754914 0.00747982 0 0 Z M73.69066143 112.25726891 C73.69066143 117.53726891 73.69066143 122.81726891 73.69066143 128.25726891 C121.21066143 128.25726891 168.73066143 128.25726891 217.69066143 128.25726891 C217.69066143 122.97726891 217.69066143 117.69726891 217.69066143 112.25726891 C170.17066143 112.25726891 122.65066143 112.25726891 73.69066143 112.25726891 Z M73.69066143 240.25726891 C73.69066143 245.53726891 73.69066143 250.81726891 73.69066143 256.25726891 C100.09066143 256.25726891 126.49066143 256.25726891 153.69066143 256.25726891 C153.69066143 250.97726891 153.69066143 245.69726891 153.69066143 240.25726891 C127.29066143 240.25726891 100.89066143 240.25726891 73.69066143 240.25726891 Z " fill="#010100" transform="translate(38.30933856964111,15.742731094360352)"/>
<path d="M0 0 C1.19722514 -0.00638882 2.39445027 -0.01277764 3.62795496 -0.01936007 C6.94818639 -0.03198338 10.26698024 -0.0221693 13.58708882 -0.00284529 C17.16861846 0.01257626 20.75005538 -0.0008187 24.33158875 -0.0105896 C31.34651928 -0.02512174 38.36116056 -0.01287668 45.3760637 0.00852364 C53.54357295 0.03252627 61.71101581 0.03081972 69.8785525 0.02821773 C84.45062994 0.02452683 99.02257103 0.04535933 113.59460449 0.07946777 C127.7375432 0.1125596 141.88033879 0.12672615 156.02331543 0.1204834 C171.42063766 0.11372041 186.81789992 0.11617701 202.2152133 0.1358428 C203.43636253 0.13740203 203.43636253 0.13740203 204.68218145 0.13899276 C206.31729823 0.14108367 207.95241499 0.14319464 209.58753172 0.14532593 C215.2819364 0.15222355 220.97632261 0.1528905 226.67073059 0.15144348 C233.60946152 0.15000423 240.5480757 0.15968617 247.48676789 0.18338984 C251.02763592 0.19525551 254.56834115 0.20237128 258.10922813 0.19655228 C261.94557432 0.19043397 265.78161378 0.20753287 269.61791992 0.22705078 C270.73999297 0.22172286 271.86206601 0.21639493 273.01814127 0.21090555 C274.04564792 0.21996219 275.07315457 0.22901883 276.13179779 0.23834991 C277.01725328 0.23992112 277.90270877 0.24149232 278.81499624 0.24311113 C281.89240779 0.7099724 283.79111049 1.8209473 286.30895996 3.62145996 C287.73562012 6.47478028 287.45203689 8.91334269 287.47009277 12.10314941 C287.47505768 12.76840637 287.48002258 13.43366333 287.48513794 14.11907959 C287.49976618 16.32431059 287.50656322 18.52946962 287.51208496 20.73474121 C287.51783663 22.26690167 287.52359436 23.79906212 287.52935791 25.33122253 C287.5398703 28.54670548 287.54571115 31.76216341 287.54919434 34.97766113 C287.55467438 39.09357886 287.57869063 43.20916499 287.60716629 47.32497883 C287.62581247 50.49145973 287.63099935 53.65786116 287.63253021 56.82439232 C287.63555368 58.34142046 287.64357194 59.85844731 287.65671539 61.37542152 C287.67381515 63.50106446 287.67188641 65.62590266 287.66540527 67.75158691 C287.6690509 68.96022903 287.67269653 70.16887115 287.67645264 71.41413879 C287.27147868 74.9485808 286.48837531 76.82965071 284.30895996 79.62145996 C281.35762983 80.60523667 279.45139302 80.74856344 276.37510014 80.75288773 C275.35095888 80.75672887 274.32681763 80.76057002 273.27164179 80.76452756 C271.57877052 80.76322784 271.57877052 80.76322784 269.85169983 80.76190186 C268.65547798 80.76487298 267.45925612 80.7678441 266.22678512 80.77090526 C262.90060866 80.77809318 259.57448383 80.78076516 256.24830329 80.78150272 C252.66337305 80.78335217 249.07845404 80.79089887 245.49353027 80.79763794 C237.65278186 80.81122518 229.81203856 80.81724632 221.97128034 80.8216486 C217.07777056 80.82440984 212.18426276 80.82864692 207.29075432 80.83315277 C193.74798615 80.84534496 180.20521956 80.85564502 166.66244602 80.85902786 C165.79554754 80.85924743 164.92864905 80.85946699 164.03548091 80.85969321 C163.16648729 80.85991149 162.29749367 80.86012977 161.4021669 80.86035466 C159.64119883 80.86079813 157.88023076 80.86124469 156.1192627 80.86169434 C155.24575831 80.86191577 154.37225393 80.8621372 153.47227972 80.86236534 C139.31022276 80.86631553 125.14821718 80.88377654 110.98618007 80.90705386 C96.45410426 80.93074712 81.92205425 80.94322875 67.3899588 80.94439578 C59.227474 80.94531358 51.06505618 80.95109232 42.9025898 80.96921539 C35.95392757 80.98458894 29.00535304 80.98975308 22.05667705 80.98147729 C18.50985287 80.97756126 14.96320543 80.97854654 11.41640282 80.99253464 C7.57525939 81.00754545 3.73436689 80.99943547 -0.10679626 80.98895264 C-1.23314639 80.99700904 -2.35949652 81.00506545 -3.51997846 81.01336598 C-4.54672746 81.00677614 -5.57347647 81.0001863 -6.63133907 80.99339676 C-7.51825843 80.99399385 -8.40517778 80.99459094 -9.31897348 80.99520612 C-12.2207423 80.53799933 -13.57685461 79.63635118 -15.69104004 77.62145996 C-16.82078184 74.23223456 -16.84573647 71.60028437 -16.88391113 68.02624512 C-16.89208862 67.36084213 -16.90026611 66.69543915 -16.90869141 66.00987244 C-16.93348357 63.81009817 -16.95004381 61.61038808 -16.96447754 59.41052246 C-16.96980122 58.65826763 -16.97512489 57.9060128 -16.98060989 57.13096237 C-17.00731233 53.15059173 -17.02669801 49.17025217 -17.0411377 45.18981934 C-17.05448684 41.89754513 -17.08236014 38.6058893 -17.12316895 35.31384277 C-17.17247969 31.33566854 -17.19725612 27.35805588 -17.20436478 23.37958908 C-17.21107664 21.86530804 -17.22629732 20.35103951 -17.25025558 18.83693314 C-17.28190944 16.7157797 -17.28194571 14.59679187 -17.27453613 12.47546387 C-17.28262299 11.26983795 -17.29070984 10.06421204 -17.29904175 8.822052 C-15.49970567 -0.64986339 -7.89867442 -0.08811762 0 0 Z " fill="#56A3FE" transform="translate(48.6910400390625,31.3785400390625)"/>
<path d="M0 0 C3.4728183 1.3706738 6.86891443 2.85138616 10.26147461 4.41064453 C47.19454176 21.16089009 91.01005718 24.45240472 131.0625 24.3125 C132.66552475 24.31026428 132.66552475 24.31026428 134.30093384 24.3079834 C161.82676978 24.23968044 189.5538917 23.14234976 216.57226562 17.49853516 C218.97481527 17.00517168 221.38203063 16.56539812 223.796875 16.13671875 C232.82512156 14.47386599 241.4409955 12.04328593 250.125 9.0625 C251.07310547 8.73862305 252.02121094 8.41474609 252.99804688 8.08105469 C258.39678714 6.15729975 263.29816717 3.89621115 268.21826172 0.95092773 C270 0 270 0 272 0 C272.09279724 7.60616489 272.1638141 15.21227087 272.20724869 22.81887341 C272.22809843 26.35121382 272.25636679 29.88316613 272.30175781 33.4152832 C272.35364825 37.47871567 272.37296666 41.54174228 272.390625 45.60546875 C272.41127014 46.8702153 272.43191528 48.13496185 272.45318604 49.43803406 C272.45348816 50.61888077 272.45379028 51.79972748 272.45410156 53.01635742 C272.46298401 54.05338303 272.47186646 55.09040863 272.48101807 56.15885925 C271.8696735 59.76977554 270.52174972 61.38800112 268 64 C265.6280102 65.49853944 263.36428625 66.80525927 260.875 68.0625 C259.95460938 68.55073242 259.95460938 68.55073242 259.015625 69.04882812 C222.14063253 88.20713183 174.72785781 89.29347262 133.9375 89.25 C132.57277557 89.24897278 132.57277557 89.24897278 131.18048096 89.2479248 C112.68209416 89.20181821 94.39837687 88.38725262 76.0625 85.875 C75.27339233 85.76806824 74.48428467 85.66113647 73.67126465 85.55096436 C20.34693178 78.21916945 20.34693178 78.21916945 2 62 C-0.29790514 58.5531423 -0.24434461 57.29881048 -0.22705078 53.2434082 C-0.22689972 52.06241043 -0.22674866 50.88141266 -0.22659302 49.66462708 C-0.21627045 48.38955795 -0.20594788 47.11448883 -0.1953125 45.80078125 C-0.1924826 44.49545944 -0.18965271 43.19013763 -0.18673706 41.84526062 C-0.17910747 38.37804485 -0.15946493 34.91099712 -0.1373291 31.44384766 C-0.11685605 27.90464552 -0.10773223 24.36541618 -0.09765625 20.82617188 C-0.0762183 13.88404563 -0.04209056 6.94203089 0 0 Z " fill="#FEDD54" transform="translate(208,391)"/>
<path d="M0 0 C3.4728183 1.3706738 6.86891443 2.85138616 10.26147461 4.41064453 C47.1945492 21.16089346 91.01005048 24.45239239 131.0625 24.3125 C132.1315155 24.31100952 133.20053101 24.30951904 134.30194092 24.3079834 C163.0785119 24.23660263 191.73710391 22.68487331 220 17 C221.54679594 16.7118149 223.09366821 16.42403913 224.640625 16.13671875 C233.34021653 14.44016526 241.67863835 11.93085665 250.0625 9.0625 C251.01455322 8.73862305 251.96660645 8.41474609 252.94750977 8.08105469 C258.36821638 6.16017792 263.28415168 3.90825244 268.22045898 0.95092773 C270 0 270 0 272 0 C272.09279724 7.60616489 272.1638141 15.21227087 272.20724869 22.81887341 C272.22809843 26.35121382 272.25636679 29.88316613 272.30175781 33.4152832 C272.35364825 37.47871567 272.37296666 41.54174228 272.390625 45.60546875 C272.41127014 46.8702153 272.43191528 48.13496185 272.45318604 49.43803406 C272.45348816 50.61888077 272.45379028 51.79972748 272.45410156 53.01635742 C272.46298401 54.05338303 272.47186646 55.09040863 272.48101807 56.15885925 C271.87375004 59.74569735 270.47973518 61.38894492 268 64 C221.87537342 96.31105511 142.917854 92.0510809 89.5625 87.25 C88.67449707 87.17167938 87.78649414 87.09335876 86.87158203 87.01266479 C69.86739163 85.46976685 52.96344967 82.72005142 36.5 78.125 C35.13149902 77.74601562 35.13149902 77.74601562 33.73535156 77.359375 C26.42132968 75.26149439 19.70244294 72.64386334 13 69 C12.04351562 68.48179687 11.08703125 67.96359375 10.1015625 67.4296875 C2.51902251 63.10611885 2.51902251 63.10611885 0 59 C-0.36076355 56.27911377 -0.36076355 56.27911377 -0.34057617 53.12988281 C-0.34034958 51.94896057 -0.34012299 50.76803833 -0.33988953 49.55133057 C-0.32440567 48.28142273 -0.30892181 47.01151489 -0.29296875 45.703125 C-0.28872391 44.39921814 -0.28447906 43.09531128 -0.28010559 41.75189209 C-0.26867549 38.29281228 -0.23922477 34.83411302 -0.20599365 31.37518311 C-0.1752528 27.84262235 -0.16159172 24.30999984 -0.14648438 20.77734375 C-0.11435282 13.85140661 -0.06317904 6.9257216 0 0 Z " fill="#FEDD54" transform="translate(208,231)"/>
<path d="M0 0 C3.4728183 1.3706738 6.86891443 2.85138616 10.26147461 4.41064453 C47.19454176 21.16089009 91.01005718 24.45240472 131.0625 24.3125 C132.66552475 24.31026428 132.66552475 24.31026428 134.30093384 24.3079834 C161.82676978 24.23968044 189.5538917 23.14234976 216.57226562 17.49853516 C218.97481527 17.00517168 221.38203063 16.56539812 223.796875 16.13671875 C232.82512156 14.47386599 241.4409955 12.04328593 250.125 9.0625 C251.07310547 8.73862305 252.02121094 8.41474609 252.99804688 8.08105469 C258.39678714 6.15729975 263.29816717 3.89621115 268.21826172 0.95092773 C270 0 270 0 272 0 C272.09279724 7.60616489 272.1638141 15.21227087 272.20724869 22.81887341 C272.22809843 26.35121382 272.25636679 29.88316613 272.30175781 33.4152832 C272.35364825 37.47871567 272.37296666 41.54174228 272.390625 45.60546875 C272.41127014 46.8702153 272.43191528 48.13496185 272.45318604 49.43803406 C272.45348816 50.61888077 272.45379028 51.79972748 272.45410156 53.01635742 C272.46298401 54.05338303 272.47186646 55.09040863 272.48101807 56.15885925 C271.87081934 59.76300758 270.50787687 61.38634476 268 64 C265.78998628 65.47428936 263.71821826 66.72781858 261.375 67.9375 C260.72329834 68.27813477 260.07159668 68.61876953 259.40014648 68.96972656 C251.58113279 72.90923199 243.38677891 75.55629545 235 78 C233.75089844 78.36867188 232.50179687 78.73734375 231.21484375 79.1171875 C185.98637364 91.38737182 135.88737286 91.41845631 89.5625 87.25 C88.67449707 87.17167938 87.78649414 87.09335876 86.87158203 87.01266479 C69.8879936 85.4716362 53.00071173 82.73631008 36.5625 78.125 C35.65274414 77.87161865 34.74298828 77.6182373 33.80566406 77.35717773 C22.01867995 73.97379936 7.12487905 69.68731857 0 59 C-0.24050903 56.39936829 -0.24050903 56.39936829 -0.22705078 53.2434082 C-0.22689972 52.06241043 -0.22674866 50.88141266 -0.22659302 49.66462708 C-0.21627045 48.38955795 -0.20594788 47.11448883 -0.1953125 45.80078125 C-0.1924826 44.49545944 -0.18965271 43.19013763 -0.18673706 41.84526062 C-0.17910747 38.37804485 -0.15946493 34.91099712 -0.1373291 31.44384766 C-0.11685605 27.90464552 -0.10773223 24.36541618 -0.09765625 20.82617188 C-0.0762183 13.88404563 -0.04209056 6.94203089 0 0 Z " fill="#FEDD54" transform="translate(208,311)"/>
<path d="M0 0 C1.77662813 -0.00640819 1.77662813 -0.00640819 3.58914775 -0.01294583 C6.8732737 -0.01975737 10.1564127 -0.00413495 13.44042194 0.02094448 C16.98297066 0.04253831 20.52547343 0.03522983 24.06806946 0.03143311 C30.2046378 0.02881142 36.34094031 0.04449782 42.47744179 0.0726223 C51.34974395 0.11325889 60.22191759 0.12627966 69.09430274 0.13256226 C83.48910408 0.14350521 97.88376374 0.17677939 112.27848816 0.22407532 C126.26155386 0.26997091 140.24458109 0.30536281 154.22770691 0.32661438 C155.08963501 0.327928 155.95156312 0.32924161 156.83961026 0.33059504 C161.16365343 0.33712023 165.48769688 0.34343877 169.81174052 0.34965456 C205.68365031 0.40148758 241.55539902 0.48955286 277.4271698 0.60127258 C277.4271698 0.93127258 277.4271698 1.26127258 277.4271698 1.60127258 C276.58871521 1.64614807 275.75026062 1.69102356 274.88639832 1.73725891 C208.35269921 4.4462463 208.35269921 4.4462463 150.25920105 33.35127258 C145.42532612 39.28797186 143.82987924 44.92211186 143.8177948 52.47627258 C143.80125854 53.28620667 143.78472229 54.09614075 143.76768494 54.93061829 C143.71955805 57.48758287 143.69791394 60.04395442 143.6771698 62.60127258 C143.64898039 64.34739561 143.61904885 66.09349143 143.58732605 67.83955383 C143.51380946 72.09341116 143.4640203 76.34694607 143.4271698 80.60127258 C123.28678618 80.67131773 103.14642723 80.7242387 83.00594711 80.7567091 C73.65461407 80.77218562 64.30335665 80.79329011 54.95207214 80.82759094 C46.80259153 80.8574693 38.65316569 80.87684188 30.50363183 80.88353807 C26.18750496 80.88745299 21.87153478 80.89666982 17.55545807 80.91846275 C13.49418835 80.93880324 9.43314009 80.94511136 5.37182426 80.94059563 C3.88026413 80.94142192 2.38869669 80.94740219 0.89718056 80.95888901 C-1.13762956 80.97379317 -3.17255811 80.96844353 -5.20741272 80.96203613 C-6.34674885 80.96480151 -7.48608498 80.96756689 -8.65994644 80.97041607 C-11.91337606 80.55811594 -13.27104585 79.90345913 -15.5728302 77.60127258 C-16.702572 74.21204719 -16.72752663 71.58009699 -16.76570129 68.00605774 C-16.77387878 67.34065475 -16.78205627 66.67525177 -16.79048157 65.98968506 C-16.81527373 63.78991079 -16.83183397 61.5902007 -16.8462677 59.39033508 C-16.85159138 58.63808025 -16.85691505 57.88582542 -16.86240005 57.11077499 C-16.8891025 53.13040436 -16.90848817 49.1500648 -16.92292786 45.16963196 C-16.936277 41.87735775 -16.9641503 38.58570192 -17.00495911 35.2936554 C-17.05426985 31.31548116 -17.07904629 27.33786851 -17.08615494 23.3594017 C-17.0928668 21.84512066 -17.10808749 20.33085213 -17.13204575 18.81674576 C-17.16369961 16.69559232 -17.16373588 14.57660449 -17.15632629 12.45527649 C-17.16441315 11.24965057 -17.1725 10.04402466 -17.18083191 8.80186462 C-15.38923794 -0.62929535 -7.87064017 -0.1032774 0 0 Z " fill="#56A3FE" transform="translate(48.57283020019531,159.3987274169922)"/>
<path d="M0 0 C1.07492706 -0.00100708 2.14985413 -0.00201416 3.25735474 -0.00305176 C36.52533119 0.01789649 70.61901301 2.03863353 102.75 11.25 C104.43222656 11.71019531 104.43222656 11.71019531 106.1484375 12.1796875 C117.35744616 15.40127906 132.96098607 20.0664791 139.75 30.25 C139.875 33.0625 139.875 33.0625 138.75 36.25 C112.1429112 63.61729134 51.81154248 63.87273086 16.25592041 64.4364624 C11.39967507 64.49008841 6.54401473 64.50517587 1.6875 64.5 C0.32277557 64.49897278 0.32277557 64.49897278 -1.06951904 64.4979248 C-19.66278898 64.45158171 -38.01062032 63.60309804 -56.4375 61.0625 C-57.62933395 60.90068237 -57.62933395 60.90068237 -58.84524536 60.7355957 C-115.83681552 52.91290215 -115.83681552 52.91290215 -131.25 36.25 C-132.375 33.25 -132.375 33.25 -132.25 30.25 C-125.04051789 19.66159588 -110.98331876 15.78683771 -99.25 12.25 C-98.42113281 11.99863281 -97.59226563 11.74726563 -96.73828125 11.48828125 C-83.40480716 7.5619817 -69.9351229 5.28425461 -56.1875 3.4375 C-55.4075769 3.3322702 -54.62765381 3.22704041 -53.82409668 3.11862183 C-35.8677233 0.72946784 -18.10199749 0.0118258 0 0 Z " fill="#FDCB00" transform="translate(340.25,175.75)"/>
<path d="M0 0 C1.9666008 -0.01030998 1.9666008 -0.01030998 3.97293091 -0.02082825 C5.41878322 -0.00313458 6.86462972 0.01503944 8.31047058 0.03364563 C9.83828179 0.03505652 11.3660964 0.03426331 12.89390564 0.03143311 C17.03633708 0.02999913 21.17804391 0.05938528 25.32030702 0.09430289 C29.65111249 0.12556979 33.98193477 0.12849739 38.31283569 0.13442993 C46.51162574 0.14996743 54.71008224 0.19099452 62.90872544 0.24117738 C73.98918243 0.30752652 85.06973071 0.33450614 96.15033627 0.36368847 C113.60524999 0.41069659 131.05945987 0.51030917 148.514328 0.60127258 C148.514328 27.00127258 148.514328 53.40127258 148.514328 80.60127258 C109.80550269 80.72218169 109.80550269 80.72218169 93.61198425 80.74775696 C82.42102444 80.7655731 71.23013228 80.78654233 60.03923035 80.82759094 C51.88974974 80.8574693 43.74032389 80.87684188 35.59079003 80.88353807 C31.27466316 80.88745299 26.95869298 80.89666982 22.64261627 80.91846275 C18.58134655 80.93880324 14.52029829 80.94511136 10.45898247 80.94059563 C8.96742233 80.94142192 7.4758549 80.94740219 5.98433876 80.95888901 C3.94952865 80.97379317 1.91460009 80.96844353 -0.12025452 80.96203613 C-1.25959064 80.96480151 -2.39892677 80.96756689 -3.57278824 80.97041607 C-6.82621786 80.55811594 -8.18388765 79.90345913 -10.485672 77.60127258 C-11.6154138 74.21204719 -11.64036843 71.58009699 -11.67854309 68.00605774 C-11.68672058 67.34065475 -11.69489807 66.67525177 -11.70332336 65.98968506 C-11.72811553 63.78991079 -11.74467577 61.5902007 -11.7591095 59.39033508 C-11.76443317 58.63808025 -11.76975685 57.88582542 -11.77524185 57.11077499 C-11.80194429 53.13040436 -11.82132997 49.1500648 -11.83576965 45.16963196 C-11.8491188 41.87735775 -11.8769921 38.58570192 -11.9178009 35.2936554 C-11.96711164 31.31548116 -11.99188808 27.33786851 -11.99899673 23.3594017 C-12.0057086 21.84512066 -12.02092928 20.33085213 -12.04488754 18.81674576 C-12.0765414 16.69559232 -12.07657767 14.57660449 -12.06916809 12.45527649 C-12.07725494 11.24965057 -12.0853418 10.04402466 -12.09367371 8.80186462 C-10.81324329 2.0615293 -6.43532766 -0.02605396 0 0 Z " fill="#56A3FE" transform="translate(43.48567199707031,287.3987274169922)"/>
<path d="M0 0 C0.80232056 -0.00004028 1.60464111 -0.00008057 2.43127441 -0.00012207 C4.12239443 0.00522359 5.8135146 0.02276578 7.50439453 0.05175781 C10.08573724 0.09362006 12.66446867 0.09282315 15.24609375 0.0859375 C16.89324721 0.09643096 18.54038728 0.10936992 20.1875 0.125 C21.3392572 0.12530212 21.3392572 0.12530212 22.51428223 0.12561035 C27.02599744 0.22473308 30.01087988 0.78722566 33.59375 3.59375 C35.18381531 6.77388063 34.77792077 10.21345657 34.796875 13.70703125 C34.80257507 14.51359665 34.80827515 15.32016205 34.81414795 16.15116882 C34.82360195 17.86012458 34.83013352 19.5690986 34.83398438 21.27807617 C34.8436732 23.88558041 34.874685 26.49229078 34.90625 29.09960938 C34.91278185 30.76041199 34.91803161 32.42122024 34.921875 34.08203125 C34.9342218 34.85928055 34.9465686 35.63652985 34.95928955 36.43733215 C34.94069428 40.98490483 34.51725081 44.03271364 31.59375 47.59375 C27.8240619 48.8503127 24.27657257 48.77550362 20.34765625 48.796875 C19.13637306 48.80542511 19.13637306 48.80542511 17.90061951 48.81414795 C16.19344388 48.82358834 14.48625011 48.83012812 12.77905273 48.83398438 C10.16943625 48.8437009 7.56060393 48.8747369 4.95117188 48.90625 C3.29167134 48.91277933 1.63216518 48.91803007 -0.02734375 48.921875 C-0.80661728 48.9342218 -1.58589081 48.9465686 -2.38877869 48.95928955 C-5.62902164 48.94598287 -7.99008795 48.81914875 -10.86743164 47.26074219 C-15.32042454 42.43684317 -13.7127961 33.07245058 -13.75634766 26.83398438 C-13.77291642 25.09393955 -13.80021889 23.35396305 -13.83837891 21.61425781 C-13.89321881 19.09925214 -13.9150286 16.58583593 -13.9296875 14.0703125 C-13.95235687 13.29620026 -13.97502625 12.52208801 -13.99838257 11.72451782 C-13.98351021 7.91146608 -13.53704249 5.78874566 -11.39892578 2.60107422 C-7.57414985 0.03562245 -4.45403041 -0.09510468 0 0 Z " fill="#000001" transform="translate(125.40625,303.40625)"/>
<path d="M0 0 C0.80232056 -0.00004028 1.60464111 -0.00008057 2.43127441 -0.00012207 C4.12239443 0.00522359 5.8135146 0.02276578 7.50439453 0.05175781 C10.08573724 0.09362006 12.66446867 0.09282315 15.24609375 0.0859375 C16.89324721 0.09643096 18.54038728 0.10936992 20.1875 0.125 C21.3392572 0.12530212 21.3392572 0.12530212 22.51428223 0.12561035 C27.02599744 0.22473308 30.01087988 0.78722566 33.59375 3.59375 C35.18381531 6.77388063 34.77792077 10.21345657 34.796875 13.70703125 C34.80257507 14.51359665 34.80827515 15.32016205 34.81414795 16.15116882 C34.82360195 17.86012458 34.83013352 19.5690986 34.83398438 21.27807617 C34.8436732 23.88558041 34.874685 26.49229078 34.90625 29.09960938 C34.91278185 30.76041199 34.91803161 32.42122024 34.921875 34.08203125 C34.9342218 34.85928055 34.9465686 35.63652985 34.95928955 36.43733215 C34.94069428 40.98490483 34.51725081 44.03271364 31.59375 47.59375 C27.8240619 48.8503127 24.27657257 48.77550362 20.34765625 48.796875 C19.13637306 48.80542511 19.13637306 48.80542511 17.90061951 48.81414795 C16.19344388 48.82358834 14.48625011 48.83012812 12.77905273 48.83398438 C10.16943625 48.8437009 7.56060393 48.8747369 4.95117188 48.90625 C3.29167134 48.91277933 1.63216518 48.91803007 -0.02734375 48.921875 C-0.80661728 48.9342218 -1.58589081 48.9465686 -2.38877869 48.95928955 C-5.62902164 48.94598287 -7.99008795 48.81914875 -10.86743164 47.26074219 C-15.32042454 42.43684317 -13.7127961 33.07245058 -13.75634766 26.83398438 C-13.77291642 25.09393955 -13.80021889 23.35396305 -13.83837891 21.61425781 C-13.89321881 19.09925214 -13.9150286 16.58583593 -13.9296875 14.0703125 C-13.95235687 13.29620026 -13.97502625 12.52208801 -13.99838257 11.72451782 C-13.98351021 7.91146608 -13.53704249 5.78874566 -11.39892578 2.60107422 C-7.57414985 0.03562245 -4.45403041 -0.09510468 0 0 Z " fill="#000001" transform="translate(61.40625,303.40625)"/>
<path d="M0 0 C0.80232056 -0.00004028 1.60464111 -0.00008057 2.43127441 -0.00012207 C4.12239443 0.00522359 5.8135146 0.02276578 7.50439453 0.05175781 C10.08573724 0.09362006 12.66446867 0.09282315 15.24609375 0.0859375 C16.89324721 0.09643096 18.54038728 0.10936992 20.1875 0.125 C21.3392572 0.12530212 21.3392572 0.12530212 22.51428223 0.12561035 C27.02599744 0.22473308 30.01087988 0.78722566 33.59375 3.59375 C35.18381531 6.77388063 34.77792077 10.21345657 34.796875 13.70703125 C34.80257507 14.51359665 34.80827515 15.32016205 34.81414795 16.15116882 C34.82360195 17.86012458 34.83013352 19.5690986 34.83398438 21.27807617 C34.8436732 23.88558041 34.874685 26.49229078 34.90625 29.09960938 C34.91278185 30.76041199 34.91803161 32.42122024 34.921875 34.08203125 C34.9342218 34.85928055 34.9465686 35.63652985 34.95928955 36.43733215 C34.94069428 40.98490483 34.51725081 44.03271364 31.59375 47.59375 C27.8240619 48.8503127 24.27657257 48.77550362 20.34765625 48.796875 C19.13637306 48.80542511 19.13637306 48.80542511 17.90061951 48.81414795 C16.19344388 48.82358834 14.48625011 48.83012812 12.77905273 48.83398438 C10.16943625 48.8437009 7.56060393 48.8747369 4.95117188 48.90625 C3.29167134 48.91277933 1.63216518 48.91803007 -0.02734375 48.921875 C-0.80661728 48.9342218 -1.58589081 48.9465686 -2.38877869 48.95928955 C-5.62902164 48.94598287 -7.99008795 48.81914875 -10.86743164 47.26074219 C-15.32042454 42.43684317 -13.7127961 33.07245058 -13.75634766 26.83398438 C-13.77291642 25.09393955 -13.80021889 23.35396305 -13.83837891 21.61425781 C-13.89321881 19.09925214 -13.9150286 16.58583593 -13.9296875 14.0703125 C-13.95235687 13.29620026 -13.97502625 12.52208801 -13.99838257 11.72451782 C-13.98351021 7.91146608 -13.53704249 5.78874566 -11.39892578 2.60107422 C-7.57414985 0.03562245 -4.45403041 -0.09510468 0 0 Z " fill="#000001" transform="translate(125.40625,175.40625)"/>
<path d="M0 0 C0.80232056 -0.00004028 1.60464111 -0.00008057 2.43127441 -0.00012207 C4.12239443 0.00522359 5.8135146 0.02276578 7.50439453 0.05175781 C10.08573724 0.09362006 12.66446867 0.09282315 15.24609375 0.0859375 C16.89324721 0.09643096 18.54038728 0.10936992 20.1875 0.125 C21.3392572 0.12530212 21.3392572 0.12530212 22.51428223 0.12561035 C27.02599744 0.22473308 30.01087988 0.78722566 33.59375 3.59375 C35.18381531 6.77388063 34.77792077 10.21345657 34.796875 13.70703125 C34.80257507 14.51359665 34.80827515 15.32016205 34.81414795 16.15116882 C34.82360195 17.86012458 34.83013352 19.5690986 34.83398438 21.27807617 C34.8436732 23.88558041 34.874685 26.49229078 34.90625 29.09960938 C34.91278185 30.76041199 34.91803161 32.42122024 34.921875 34.08203125 C34.9342218 34.85928055 34.9465686 35.63652985 34.95928955 36.43733215 C34.94069428 40.98490483 34.51725081 44.03271364 31.59375 47.59375 C27.8240619 48.8503127 24.27657257 48.77550362 20.34765625 48.796875 C19.13637306 48.80542511 19.13637306 48.80542511 17.90061951 48.81414795 C16.19344388 48.82358834 14.48625011 48.83012812 12.77905273 48.83398438 C10.16943625 48.8437009 7.56060393 48.8747369 4.95117188 48.90625 C3.29167134 48.91277933 1.63216518 48.91803007 -0.02734375 48.921875 C-0.80661728 48.9342218 -1.58589081 48.9465686 -2.38877869 48.95928955 C-5.62902164 48.94598287 -7.99008795 48.81914875 -10.86743164 47.26074219 C-15.32042454 42.43684317 -13.7127961 33.07245058 -13.75634766 26.83398438 C-13.77291642 25.09393955 -13.80021889 23.35396305 -13.83837891 21.61425781 C-13.89321881 19.09925214 -13.9150286 16.58583593 -13.9296875 14.0703125 C-13.95235687 13.29620026 -13.97502625 12.52208801 -13.99838257 11.72451782 C-13.98351021 7.91146608 -13.53704249 5.78874566 -11.39892578 2.60107422 C-7.57414985 0.03562245 -4.45403041 -0.09510468 0 0 Z " fill="#000001" transform="translate(61.40625,175.40625)"/>
<path d="M0 0 C0.80232056 -0.00004028 1.60464111 -0.00008057 2.43127441 -0.00012207 C4.12239443 0.00522359 5.8135146 0.02276578 7.50439453 0.05175781 C10.08573724 0.09362006 12.66446867 0.09282315 15.24609375 0.0859375 C16.89324721 0.09643096 18.54038728 0.10936992 20.1875 0.125 C21.3392572 0.12530212 21.3392572 0.12530212 22.51428223 0.12561035 C27.02599744 0.22473308 30.01087988 0.78722566 33.59375 3.59375 C35.18381531 6.77388063 34.77792077 10.21345657 34.796875 13.70703125 C34.80257507 14.51359665 34.80827515 15.32016205 34.81414795 16.15116882 C34.82360195 17.86012458 34.83013352 19.5690986 34.83398438 21.27807617 C34.8436732 23.88558041 34.874685 26.49229078 34.90625 29.09960938 C34.91278185 30.76041199 34.91803161 32.42122024 34.921875 34.08203125 C34.9342218 34.85928055 34.9465686 35.63652985 34.95928955 36.43733215 C34.94069428 40.98490483 34.51725081 44.03271364 31.59375 47.59375 C27.8240619 48.8503127 24.27657257 48.77550362 20.34765625 48.796875 C19.13637306 48.80542511 19.13637306 48.80542511 17.90061951 48.81414795 C16.19344388 48.82358834 14.48625011 48.83012812 12.77905273 48.83398438 C10.16943625 48.8437009 7.56060393 48.8747369 4.95117188 48.90625 C3.29167134 48.91277933 1.63216518 48.91803007 -0.02734375 48.921875 C-0.80661728 48.9342218 -1.58589081 48.9465686 -2.38877869 48.95928955 C-5.62902164 48.94598287 -7.99008795 48.81914875 -10.86743164 47.26074219 C-15.32042454 42.43684317 -13.7127961 33.07245058 -13.75634766 26.83398438 C-13.77291642 25.09393955 -13.80021889 23.35396305 -13.83837891 21.61425781 C-13.89321881 19.09925214 -13.9150286 16.58583593 -13.9296875 14.0703125 C-13.95235687 13.29620026 -13.97502625 12.52208801 -13.99838257 11.72451782 C-13.98351021 7.91146608 -13.53704249 5.78874566 -11.39892578 2.60107422 C-7.57414985 0.03562245 -4.45403041 -0.09510468 0 0 Z " fill="#000001" transform="translate(125.40625,47.40625)"/>
<path d="M0 0 C0.80232056 -0.00004028 1.60464111 -0.00008057 2.43127441 -0.00012207 C4.12239443 0.00522359 5.8135146 0.02276578 7.50439453 0.05175781 C10.08573724 0.09362006 12.66446867 0.09282315 15.24609375 0.0859375 C16.89324721 0.09643096 18.54038728 0.10936992 20.1875 0.125 C21.3392572 0.12530212 21.3392572 0.12530212 22.51428223 0.12561035 C27.02599744 0.22473308 30.01087988 0.78722566 33.59375 3.59375 C35.18381531 6.77388063 34.77792077 10.21345657 34.796875 13.70703125 C34.80257507 14.51359665 34.80827515 15.32016205 34.81414795 16.15116882 C34.82360195 17.86012458 34.83013352 19.5690986 34.83398438 21.27807617 C34.8436732 23.88558041 34.874685 26.49229078 34.90625 29.09960938 C34.91278185 30.76041199 34.91803161 32.42122024 34.921875 34.08203125 C34.9342218 34.85928055 34.9465686 35.63652985 34.95928955 36.43733215 C34.94069428 40.98490483 34.51725081 44.03271364 31.59375 47.59375 C27.8240619 48.8503127 24.27657257 48.77550362 20.34765625 48.796875 C19.13637306 48.80542511 19.13637306 48.80542511 17.90061951 48.81414795 C16.19344388 48.82358834 14.48625011 48.83012812 12.77905273 48.83398438 C10.16943625 48.8437009 7.56060393 48.8747369 4.95117188 48.90625 C3.29167134 48.91277933 1.63216518 48.91803007 -0.02734375 48.921875 C-0.80661728 48.9342218 -1.58589081 48.9465686 -2.38877869 48.95928955 C-5.62902164 48.94598287 -7.99008795 48.81914875 -10.86743164 47.26074219 C-15.32042454 42.43684317 -13.7127961 33.07245058 -13.75634766 26.83398438 C-13.77291642 25.09393955 -13.80021889 23.35396305 -13.83837891 21.61425781 C-13.89321881 19.09925214 -13.9150286 16.58583593 -13.9296875 14.0703125 C-13.95235687 13.29620026 -13.97502625 12.52208801 -13.99838257 11.72451782 C-13.98351021 7.91146608 -13.53704249 5.78874566 -11.39892578 2.60107422 C-7.57414985 0.03562245 -4.45403041 -0.09510468 0 0 Z " fill="#000001" transform="translate(61.40625,47.40625)"/>
<path d="M0 0 C3.2296738 -0.08111739 6.45730014 -0.14055592 9.6875 -0.1875 C11.05551758 -0.22520508 11.05551758 -0.22520508 12.45117188 -0.26367188 C21.00895523 -0.35702951 21.00895523 -0.35702951 25 3 C26.42666016 5.85332032 26.14307693 8.29188273 26.16113281 11.48168945 C26.16858017 12.47957489 26.16858017 12.47957489 26.17617798 13.49761963 C26.19080622 15.70285063 26.19760326 17.90800966 26.203125 20.11328125 C26.20887667 21.64544171 26.2146344 23.17760215 26.22039795 24.70976257 C26.23091034 27.92524552 26.23675119 31.14070345 26.24023438 34.35620117 C26.24571442 38.4721189 26.26973067 42.58770503 26.29820633 46.70351887 C26.31685251 49.86999977 26.32203939 53.03640119 26.32357025 56.20293236 C26.32659372 57.7199605 26.33461198 59.23698735 26.34775543 60.75396156 C26.36485519 62.8796045 26.36292645 65.0044427 26.35644531 67.13012695 C26.36191376 68.94309013 26.36191376 68.94309013 26.36749268 70.79267883 C25.96251872 74.32712084 25.17941535 76.20819075 23 79 C20.11734851 79.96088383 18.32337729 80.11670941 15.33203125 80.09765625 C14.43935547 80.09443359 13.54667969 80.09121094 12.62695312 80.08789062 C11.23379883 80.07532227 11.23379883 80.07532227 9.8125 80.0625 C8.87212891 80.05798828 7.93175781 80.05347656 6.96289062 80.04882812 C4.64189992 80.03704645 2.32094193 80.01911114 0 80 C0.66 74.72 1.32 69.44 2 64 C-0.64 64 -3.28 64 -6 64 C-6 58.72 -6 53.44 -6 48 C-3.36 48 -0.72 48 2 48 C2 42.72 2 37.44 2 32 C-0.64 32 -3.28 32 -6 32 C-6 26.72 -6 21.44 -6 16 C-3.36 16 -0.72 16 2 16 C1.34 10.72 0.68 5.44 0 0 Z " fill="#2387FE" transform="translate(310,32)"/>
<path d="M0 0 C36.96 0 73.92 0 112 0 C112 5.28 112 10.56 112 16 C75.04 16 38.08 16 0 16 C0 10.72 0 5.44 0 0 Z " fill="#000000" transform="translate(176,80)"/>
<path d="M0 0 C36.96 0 73.92 0 112 0 C112 5.28 112 10.56 112 16 C75.04 16 38.08 16 0 16 C0 10.72 0 5.44 0 0 Z " fill="#000000" transform="translate(176,48)"/>
<path d="M0 0 C0.09279724 7.60616489 0.1638141 15.21227087 0.20724869 22.81887341 C0.22809843 26.35121382 0.25636679 29.88316613 0.30175781 33.4152832 C0.35364825 37.47871567 0.37296666 41.54174228 0.390625 45.60546875 C0.41127014 46.8702153 0.43191528 48.13496185 0.45318604 49.43803406 C0.45348816 50.61888077 0.45379028 51.79972748 0.45410156 53.01635742 C0.46298401 54.05338303 0.47186646 55.09040863 0.48101807 56.15885925 C-0.1303265 59.76977554 -1.47825028 61.38800112 -4 64 C-6.37323408 65.49932553 -8.63296556 66.80790032 -11.125 68.0625 C-12.13348999 68.58118652 -12.13348999 68.58118652 -13.16235352 69.11035156 C-21.04280643 73.11150205 -28.8273357 76.07759102 -37.375 78.3125 C-38.06585693 78.49651367 -38.75671387 78.68052734 -39.46850586 78.87011719 C-42.93388021 79.72786209 -45.61223022 80.34642132 -49 79 C-48.07058594 78.56429687 -47.14117187 78.12859375 -46.18359375 77.6796875 C-33.43349024 71.78528137 -33.43349024 71.78528137 -25 61 C-24.57822958 57.11745065 -24.65159982 53.25674198 -24.70703125 49.35546875 C-24.71339851 47.66808342 -24.71339851 47.66808342 -24.71989441 45.9466095 C-24.7366631 42.35999438 -24.77431312 38.77394479 -24.8125 35.1875 C-24.82754913 32.75326333 -24.84123713 30.31901784 -24.85351562 27.88476562 C-24.88656075 21.92298471 -24.93674272 15.96153277 -25 10 C-23.38931641 9.41992188 -23.38931641 9.41992188 -21.74609375 8.828125 C-20.30977493 8.30241354 -18.87358378 7.77635317 -17.4375 7.25 C-16.73302734 6.99734375 -16.02855469 6.7446875 -15.30273438 6.484375 C-11.71681981 5.16237885 -8.39645812 3.73664234 -5.09765625 1.796875 C-2 0 -2 0 0 0 Z " fill="#FDCB00" transform="translate(480,391)"/>
<path d="M0 0 C0.09279724 7.60616489 0.1638141 15.21227087 0.20724869 22.81887341 C0.22809843 26.35121382 0.25636679 29.88316613 0.30175781 33.4152832 C0.35364825 37.47871567 0.37296666 41.54174228 0.390625 45.60546875 C0.41127014 46.8702153 0.43191528 48.13496185 0.45318604 49.43803406 C0.45348816 50.61888077 0.45379028 51.79972748 0.45410156 53.01635742 C0.46298401 54.05338303 0.47186646 55.09040863 0.48101807 56.15885925 C-0.12703104 59.75031081 -1.51208345 61.38885864 -4 64 C-6.48046875 65.6953125 -6.48046875 65.6953125 -9.1875 67.125 C-10.06792969 67.60195313 -10.94835937 68.07890625 -11.85546875 68.5703125 C-15.77812314 70.35378021 -19.91206934 71.63735645 -24 73 C-24.33 52.21 -24.66 31.42 -25 10 C-19.72 8.02 -14.44 6.04 -9 4 C-2 0 -2 0 0 0 Z " fill="#FDCC00" transform="translate(480,231)"/>
<path d="M0 0 C0.09279724 7.60616489 0.1638141 15.21227087 0.20724869 22.81887341 C0.22809843 26.35121382 0.25636679 29.88316613 0.30175781 33.4152832 C0.35364825 37.47871567 0.37296666 41.54174228 0.390625 45.60546875 C0.41127014 46.8702153 0.43191528 48.13496185 0.45318604 49.43803406 C0.45348816 50.61888077 0.45379028 51.79972748 0.45410156 53.01635742 C0.46298401 54.05338303 0.47186646 55.09040863 0.48101807 56.15885925 C-0.221301 60.30711785 -2.40057109 62.82567366 -5.75170898 65.28613281 C-6.32735596 65.58874023 -6.90300293 65.89134766 -7.49609375 66.203125 C-8.13740234 66.5434375 -8.77871094 66.88375 -9.43945312 67.234375 C-10.42848633 67.73710937 -10.42848633 67.73710937 -11.4375 68.25 C-12.09298828 68.600625 -12.74847656 68.95125 -13.42382812 69.3125 C-17.06352465 71.21083721 -19.91041892 72.18208378 -24 73 C-24.33 52.21 -24.66 31.42 -25 10 C-19.72 8.02 -14.44 6.04 -9 4 C-2 0 -2 0 0 0 Z " fill="#FDCC00" transform="translate(480,311)"/>
<path d="M0 0 C40.98666667 8.48 40.98666667 8.48 50 22 C50.125 24.8125 50.125 24.8125 49 28 C37.10068248 40.23929802 16.14690049 44.74779743 0 48 C2.50631119 45.09165254 5.22069493 43.83025942 8.6875 42.25 C15.32546776 39.01549934 22.13636894 35.15907766 25 28 C25.4374484 23.47969983 25.49116919 21.04640392 23.5625 16.9375 C17.0070036 9.42266267 8.96243877 5.14000979 0 1 C0 0.67 0 0.34 0 0 Z " fill="#E6BB00" transform="translate(430,184)"/>
<path d="M0 0 C10.56 0 21.12 0 32 0 C32 5.28 32 10.56 32 16 C21.44 16 10.88 16 0 16 C0 10.72 0 5.44 0 0 Z " fill="#898890" transform="translate(64,256)"/>
<path d="M0 0 C10.56 0 21.12 0 32 0 C32 5.28 32 10.56 32 16 C21.44 16 10.88 16 0 16 C0 10.72 0 5.44 0 0 Z " fill="#898890" transform="translate(272,128)"/>
<path d="M0 0 C10.56 0 21.12 0 32 0 C32 5.28 32 10.56 32 16 C21.44 16 10.88 16 0 16 C0 10.72 0 5.44 0 0 Z " fill="#898890" transform="translate(64,128)"/>
<path d="M0 0 C5.28 0 10.56 0 16 0 C16 5.28 16 10.56 16 16 C10.72 16 5.44 16 0 16 C0 10.72 0 5.44 0 0 Z " fill="#000000" transform="translate(336,440)"/>
<path d="M0 0 C5.28 0 10.56 0 16 0 C16 5.28 16 10.56 16 16 C10.72 16 5.44 16 0 16 C0 10.72 0 5.44 0 0 Z " fill="#000000" transform="translate(336,368)"/>
<path d="M0 0 C5.28 0 10.56 0 16 0 C16 5.28 16 10.56 16 16 C10.72 16 5.44 16 0 16 C0 10.72 0 5.44 0 0 Z " fill="#00B6BD" transform="translate(128,320)"/>
<path d="M0 0 C5.28 0 10.56 0 16 0 C16 5.28 16 10.56 16 16 C10.72 16 5.44 16 0 16 C0 10.72 0 5.44 0 0 Z " fill="#FF7956" transform="translate(64,320)"/>
<path d="M0 0 C5.28 0 10.56 0 16 0 C16 5.28 16 10.56 16 16 C10.72 16 5.44 16 0 16 C0 10.72 0 5.44 0 0 Z " fill="#000000" transform="translate(336,280)"/>
<path d="M0 0 C5.28 0 10.56 0 16 0 C16 5.28 16 10.56 16 16 C10.72 16 5.44 16 0 16 C0 10.72 0 5.44 0 0 Z " fill="#ACABB1" transform="translate(64,256)"/>
<path d="M0 0 C5.28 0 10.56 0 16 0 C16 5.28 16 10.56 16 16 C10.72 16 5.44 16 0 16 C0 10.72 0 5.44 0 0 Z " fill="#00B6BD" transform="translate(128,192)"/>
<path d="M0 0 C5.28 0 10.56 0 16 0 C16 5.28 16 10.56 16 16 C10.72 16 5.44 16 0 16 C0 10.72 0 5.44 0 0 Z " fill="#FF7956" transform="translate(64,192)"/>
<path d="M0 0 C5.28 0 10.56 0 16 0 C16 5.28 16 10.56 16 16 C10.72 16 5.44 16 0 16 C0 10.72 0 5.44 0 0 Z " fill="#ACABB1" transform="translate(272,128)"/>
<path d="M0 0 C5.28 0 10.56 0 16 0 C16 5.28 16 10.56 16 16 C10.72 16 5.44 16 0 16 C0 10.72 0 5.44 0 0 Z " fill="#ACABB1" transform="translate(64,128)"/>
<path d="M0 0 C5.28 0 10.56 0 16 0 C16 5.28 16 10.56 16 16 C10.72 16 5.44 16 0 16 C0 10.72 0 5.44 0 0 Z " fill="#000000" transform="translate(304,80)"/>
<path d="M0 0 C5.28 0 10.56 0 16 0 C16 5.28 16 10.56 16 16 C10.72 16 5.44 16 0 16 C0 10.72 0 5.44 0 0 Z " fill="#00B6BD" transform="translate(128,64)"/>
<path d="M0 0 C5.28 0 10.56 0 16 0 C16 5.28 16 10.56 16 16 C10.72 16 5.44 16 0 16 C0 10.72 0 5.44 0 0 Z " fill="#FF7956" transform="translate(64,64)"/>
<path d="M0 0 C5.28 0 10.56 0 16 0 C16 5.28 16 10.56 16 16 C10.72 16 5.44 16 0 16 C0 10.72 0 5.44 0 0 Z " fill="#000000" transform="translate(304,48)"/>
</svg>
