<?xml version="1.0" encoding="UTF-8"?>
<svg version="1.1" xmlns="http://www.w3.org/2000/svg" width="512" height="512">
<path d="M0 0 C0.65960637 -0.00453111 1.31921275 -0.00906223 1.99880719 -0.01373065 C4.19566804 -0.02632945 6.39227953 -0.02475724 8.58917236 -0.02310181 C10.16987423 -0.02908997 11.75057318 -0.03589618 13.33126831 -0.04345703 C17.61658745 -0.06109683 21.90182667 -0.06581161 26.18717861 -0.0670886 C28.86778782 -0.06851212 31.54837683 -0.07278556 34.22898102 -0.07808304 C43.59026881 -0.09657796 52.95149972 -0.10475449 62.31280518 -0.10317993 C71.02311792 -0.10197928 79.73318257 -0.1230679 88.44343257 -0.15466726 C95.93410551 -0.18086858 103.42469762 -0.19154558 110.915416 -0.19026911 C115.38368917 -0.18976053 119.85174187 -0.19538581 124.31996918 -0.21662521 C128.5258731 -0.23607228 132.73134773 -0.23608823 136.9372673 -0.22159195 C138.47468319 -0.21951061 140.0121264 -0.22416427 141.5494957 -0.23631287 C154.62185597 -0.33286338 163.39459612 1.71658625 172.99639893 10.89633179 C179.30772771 17.70090829 182.43633944 24.70131564 182.46304321 34.07180786 C182.46757433 34.73141423 182.47210544 35.39102061 182.47677386 36.07061505 C182.48937266 38.2674759 182.48780045 40.46408739 182.48614502 42.66098022 C182.49213318 44.24168209 182.49893939 45.82238104 182.50650024 47.40307617 C182.52414005 51.68839531 182.52885482 55.97363453 182.53013182 60.25898647 C182.53155533 62.93959568 182.53582877 65.6201847 182.54112625 68.30078888 C182.55962117 77.66207667 182.5677977 87.02330758 182.56622314 96.38461304 C182.5650225 105.09492578 182.58611111 113.80499044 182.61771047 122.51524043 C182.6439118 130.00591337 182.6545888 137.49650548 182.65331233 144.98722386 C182.65280374 149.45549703 182.65842903 153.92354973 182.67966843 158.39177704 C182.69911549 162.59768096 182.69913144 166.80315559 182.68463516 171.00907516 C182.68255382 172.54649105 182.68720749 174.08393426 182.69935608 175.62130356 C182.79590659 188.69366383 180.74645697 197.46640398 171.56671143 207.06820679 C164.76213492 213.37953557 157.76172757 216.5081473 148.39123535 216.53485107 C147.73162898 216.53938219 147.0720226 216.5439133 146.39242816 216.54858172 C144.19556731 216.56118052 141.99895582 216.55960831 139.80206299 216.55795288 C138.22136112 216.56394104 136.64066217 216.57074725 135.05996704 216.57830811 C130.7746479 216.59594791 126.48940868 216.60066268 122.20405674 216.60193968 C119.52344753 216.60336319 116.84285852 216.60763663 114.16225433 216.61293411 C104.80096654 216.63142903 95.43973563 216.63960556 86.07843018 216.63803101 C77.36811743 216.63683036 68.65805278 216.65791897 59.94780278 216.68951833 C52.45712984 216.71571966 44.96653773 216.72639666 37.47581935 216.72512019 C33.00754618 216.72461161 28.53949348 216.73023689 24.07126617 216.75147629 C19.86536226 216.77092335 15.65988762 216.7709393 11.45396805 216.75644302 C9.91655216 216.75436168 8.37910895 216.75901535 6.84173965 216.77116394 C-6.23062062 216.86771445 -15.00336077 214.81826483 -24.60516357 205.63851929 C-34.85764852 194.58477441 -34.9671832 181.67671683 -34.64031982 167.21664429 C-34.25645469 161.95270303 -33.68458309 158.45215228 -29.91375732 154.66220093 C-27.32071504 152.61632518 -24.65577402 150.94305819 -21.80438232 149.26742554 C-20.3993738 148.09412017 -19.01977092 146.8890421 -17.67938232 145.64242554 C-17.0580542 145.10359741 -16.43672607 144.56476929 -15.79656982 144.00961304 C-13.44417597 141.95242155 -11.12403266 139.86145639 -8.80438232 137.76742554 C-5.18761887 134.50351706 -1.54048624 131.27951605 2.13311768 128.07992554 C4.50526196 125.99531389 6.85117833 123.8831391 9.19561768 121.76742554 C10.86228434 120.26742554 12.52895101 118.76742554 14.19561768 117.26742554 C14.94585205 116.5880896 15.69608643 115.90875366 16.46905518 115.20883179 C17.1625708 114.58879272 17.85608643 113.96875366 18.57061768 113.32992554 C19.17647705 112.7846521 19.78233643 112.23937866 20.40655518 111.67758179 C22.25104165 110.22373983 24.08722666 109.28563609 26.19561768 108.26742554 C26.67310959 108.74935867 27.1506015 109.23129181 27.64256287 109.72782898 C32.61681718 114.74635736 37.59811894 119.75781037 42.58355713 124.76522827 C44.44279442 126.63451812 46.30023205 128.50559976 48.15582275 130.37850952 C50.82451929 133.07148641 53.49963808 135.75793673 56.17608643 138.44320679 C57.00335739 139.28080032 57.83062836 140.11839386 58.68296814 140.98136902 C59.46339981 141.76195175 60.24383148 142.54253448 61.0479126 143.34677124 C61.72964035 144.03294022 62.4113681 144.71910919 63.11375427 145.42607117 C67.14998681 148.99601452 70.56127983 150.97005539 76.10319519 150.74475098 C83.04937865 149.16018089 88.91202681 141.81336214 93.72296143 136.90023804 C94.39734756 136.22065033 95.0717337 135.54106262 95.76655579 134.84088135 C97.89362908 132.69616669 100.0137995 130.5448015 102.13311768 128.39242554 C104.27835777 126.21958081 106.42505592 124.04822616 108.57466125 121.87969971 C109.90622821 120.53585131 111.23511325 119.1893393 112.56108093 117.83996582 C114.08722637 116.29706176 115.63875609 114.77932991 117.19561768 113.26742554 C117.52561768 113.26742554 117.85561768 113.26742554 118.19561768 113.26742554 C118.29358643 114.29223022 118.39155518 115.31703491 118.49249268 116.37289429 C118.64264719 117.73366956 118.79373855 119.09434168 118.94561768 120.45492554 C119.03843018 121.46522827 119.03843018 121.46522827 119.13311768 122.49594116 C119.68518815 127.21154317 120.86549529 129.89281678 124.19561768 133.26742554 C127.40669655 134.87296497 130.71232495 134.7421161 134.19561768 134.26742554 C137.45470153 132.42533466 138.82689613 131.12147287 140.30963135 127.68710327 C141.40965612 123.44129258 141.50124056 119.54438963 141.49639893 115.17758179 C141.50068405 114.31483139 141.50496918 113.45208099 141.50938416 112.56318665 C141.51510647 110.74528884 141.51564325 108.92736815 141.5112915 107.10946655 C141.50813153 104.34205742 141.53161659 101.57571839 141.5569458 98.80844116 C141.55921915 97.03565604 141.55992212 95.26286807 141.55889893 93.49008179 C141.57271355 92.26008202 141.57271355 92.26008202 141.58680725 91.00523376 C141.5443806 85.68598869 140.67994078 81.99359695 138.19561768 77.26742554 C134.6460571 73.83236692 130.99830551 73.15462429 126.1807251 73.10629272 C125.40279099 73.09668518 124.62485687 73.08707764 123.823349 73.07717896 C122.99100235 73.07292908 122.1586557 73.0686792 121.30108643 73.06430054 C120.43550613 73.05860046 119.56992584 73.05290039 118.67811584 73.04702759 C116.8482688 73.03759353 115.01840489 73.03104995 113.1885376 73.02719116 C110.40348321 73.01749643 107.61917055 72.98646272 104.83428955 72.95492554 C103.05239287 72.94839371 101.27049093 72.94314394 99.48858643 72.93930054 C98.66231247 72.92695374 97.83603851 72.91460693 96.98472595 72.90188599 C90.92395184 72.92498631 85.98387673 73.83894184 81.25811768 77.95492554 C79.68031743 81.38896138 79.54736533 84.60370724 80.19561768 88.26742554 C82.02923314 91.51151443 83.41899358 92.88858452 86.75811768 94.51742554 C91.53823577 95.56036039 96.32007824 95.93776273 101.19561768 96.26742554 C96.09112946 102.44877423 90.51266825 108.06565432 84.82061768 113.70492554 C83.89378174 114.62724976 82.9669458 115.54957397 82.01202393 116.49984741 C79.74215922 118.75801178 77.4699823 121.01379495 75.19561768 123.26742554 C72.03722885 121.8716203 69.93121969 120.23943073 67.51617432 117.78329468 C66.81186783 117.07238174 66.10756134 116.36146881 65.38191223 115.62901306 C64.25522377 114.47742958 64.25522377 114.47742958 63.10577393 113.30258179 C62.32423447 112.51346909 61.54269501 111.72435638 60.73747253 110.91133118 C57.39539965 107.53656952 54.06522774 104.15015046 50.73394775 100.76473999 C48.29948584 98.29410267 45.85904921 95.82947966 43.41827393 93.36508179 C42.29462181 92.21653465 42.29462181 92.21653465 41.14826965 91.04478455 C35.87863561 85.7259412 32.19532474 82.01279639 24.35577393 81.77133179 C18.30287307 83.16141933 13.68551689 88.41659396 9.32061768 92.57992554 C8.07921278 93.74872607 6.83703148 94.91670254 5.59405518 96.08383179 C4.70991943 96.9155188 4.70991943 96.9155188 3.80792236 97.76400757 C1.29812761 100.10430377 -1.28527012 102.35349107 -3.88250732 104.59555054 C-6.21543307 106.62500627 -8.50949478 108.69507254 -10.80438232 110.76742554 C-14.43494902 114.04324984 -18.09065247 117.28569305 -21.78094482 120.49398804 C-24.88920962 123.21822012 -27.95314932 125.9919542 -31.01922607 128.76351929 C-32.80438232 130.26742554 -32.80438232 130.26742554 -33.80438232 130.26742554 C-33.80438232 116.40742554 -33.80438232 102.54742554 -33.80438232 88.26742554 C-60.28186322 88.33027782 -86.75921532 88.4054347 -113.23658848 88.50314045 C-125.53041794 88.54811076 -137.82421836 88.58752264 -150.11810303 88.61386108 C-160.8331369 88.63683109 -171.54807895 88.67021806 -182.26304001 88.7161271 C-187.93680844 88.74007265 -193.61048585 88.75879275 -199.28430367 88.76503944 C-204.62522019 88.77108419 -209.96590376 88.79106227 -215.30673409 88.82170105 C-217.26625959 88.830491 -219.22581553 88.83420188 -221.18535995 88.8324337 C-223.86316626 88.8307804 -226.54026291 88.8474851 -229.2179718 88.86869812 C-229.99133536 88.86385054 -230.76469893 88.85900297 -231.56149775 88.8540085 C-236.67780388 88.9207845 -240.24566726 89.9053375 -244.80438232 92.26742554 C-248.38526879 95.96767489 -248.92773302 99.73340559 -248.93581009 104.73811054 C-248.93965123 105.63350711 -248.94349238 106.52890368 -248.94744992 107.45143348 C-248.94658344 108.43109004 -248.94571696 109.4107466 -248.94482422 110.42008972 C-248.94779534 111.46395786 -248.95076646 112.50782601 -248.95382762 113.58332652 C-248.96252145 117.09237344 -248.96402345 120.60138627 -248.96551514 124.11044312 C-248.97014279 126.62181166 -248.97516738 129.13317949 -248.9805603 131.64454651 C-248.99369054 138.47514059 -249.00016703 145.30572343 -249.00457096 152.13632798 C-249.00733447 156.40187279 -249.01157201 160.66741533 -249.01607513 164.9329586 C-249.02826639 176.74464812 -249.03856625 188.55633583 -249.04195023 200.3680315 C-249.04216979 201.12383856 -249.04238936 201.87964563 -249.04261558 202.65835593 C-249.04283386 203.415962 -249.04305213 204.17356807 -249.04327703 204.9541319 C-249.04372049 206.48930856 -249.04416705 208.02448521 -249.0446167 209.55966187 C-249.04483813 210.32116107 -249.04505956 211.08266027 -249.0452877 211.86723521 C-249.04923592 224.20687824 -249.0666913 236.54646223 -249.08997622 248.88608245 C-249.11369334 261.55707429 -249.12615223 274.2280365 -249.12731814 286.89905089 C-249.12823466 294.01253996 -249.13398111 301.12595207 -249.15213776 308.23941994 C-249.16915417 314.92968757 -249.17078869 321.61978421 -249.16199875 328.31007576 C-249.16122677 330.76629273 -249.16559216 333.22251747 -249.175457 335.67871475 C-249.18813025 339.03058838 -249.18232443 342.38194064 -249.171875 345.73381042 C-249.1799314 346.70677482 -249.18798781 347.67973921 -249.19628835 348.68218738 C-249.15518186 354.31634073 -248.49569719 358.28461222 -245.80438232 363.26742554 C-241.72642886 367.21383212 -237.56590682 367.39212396 -232.08430767 367.3988533 C-230.91023946 367.40269445 -229.73617124 367.40653559 -228.5265252 367.41049314 C-226.59012656 367.40919341 -226.59012656 367.40919341 -224.61460876 367.40786743 C-223.23021163 367.41045128 -221.84581524 367.4134645 -220.46141988 367.41687083 C-216.65303902 367.42494166 -212.84467701 367.42673045 -209.03628862 367.4274683 C-204.93052373 367.42931869 -200.82476863 367.43686591 -196.7190094 367.44360352 C-187.73972513 367.45718753 -178.76044532 367.46321154 -169.78115249 367.46761417 C-164.17553026 367.47037624 -158.56990977 367.47461351 -152.96428871 367.47911835 C-137.44674761 367.49131066 -121.92920789 367.50161034 -106.4116621 367.50499344 C-105.41844614 367.505213 -104.42523018 367.50543257 -103.40191676 367.50565879 C-101.9085139 367.50598621 -101.9085139 367.50598621 -100.38494128 367.50632024 C-98.36744702 367.50676371 -96.34995276 367.50721027 -94.3324585 367.50765991 C-92.83133592 367.50799206 -92.83133592 367.50799206 -91.29988763 367.50833091 C-75.08033526 367.51227983 -58.8608278 367.52973687 -42.64129277 367.55301943 C-25.99265785 367.57672527 -9.34404546 367.58919492 7.30460662 367.59036136 C16.65374204 367.5912785 26.00281894 367.59704082 35.35193825 367.61518097 C43.31205058 367.63057153 51.2720863 367.63570857 59.23221067 367.62744287 C63.29382284 367.62353277 67.35528069 367.62448344 71.41687393 367.63850021 C75.13590423 367.65121749 78.85466391 367.6500609 82.57369372 367.6379095 C84.55465002 367.63502065 86.5356109 367.64690469 88.51653033 367.65933156 C94.82776275 367.62414217 99.67325154 367.45463356 105.19561768 364.26742554 C108.81063218 360.53191055 109.32045514 356.73756482 109.32019043 351.6887207 C109.32275345 350.77475021 109.32531647 349.86077972 109.32795715 348.91911316 C109.32480751 347.42597847 109.32480751 347.42597847 109.32159424 345.90267944 C109.32346237 344.8485939 109.32533051 343.79450836 109.32725525 342.70848083 C109.33125836 340.41950347 109.33333401 338.13052212 109.33371735 335.84154129 C109.33713232 330.97660854 109.35849204 326.1118095 109.37894821 321.24692345 C109.41698291 312.18798418 109.4482302 303.12918815 109.44610596 294.07015991 C109.44531958 287.76949187 109.46865014 281.4693138 109.50798798 275.16877365 C109.51845947 272.76783831 109.51996363 270.36684649 109.51233673 267.96590042 C109.50273023 264.60704634 109.5238699 261.24968036 109.55206299 257.89096069 C109.5418663 256.89958603 109.53166962 255.90821136 109.52116394 254.88679504 C109.58886933 250.38880762 109.72159376 247.24832165 112.61083984 243.66595459 C116.61525647 239.95008025 119.32786212 239.8772721 124.64483643 239.90805054 C128.75430272 240.48702588 130.40911345 242.26657483 133.19561768 245.26742554 C134.40405333 247.68429686 134.32929522 249.21964854 134.3427887 251.92037964 C134.35352165 253.3921315 134.35352165 253.3921315 134.36447144 254.89361572 C134.36716034 255.97410187 134.36984924 257.05458801 134.37261963 258.16781616 C134.37919083 259.30296661 134.38576202 260.43811707 134.39253235 261.60766602 C134.41230686 265.37966981 134.42393956 269.15163365 134.43389893 272.92367554 C134.43797445 274.21120224 134.44204998 275.49872894 134.44624901 276.82527161 C134.46497592 282.94098715 134.47953436 289.05668264 134.48786098 295.17242098 C134.49761111 302.21670647 134.52386788 309.26067587 134.56436187 316.3048501 C134.59827869 322.41626546 134.61001602 328.52754912 134.61406517 334.63905334 C134.61892927 337.23210284 134.63053811 339.825149 134.64910316 342.4181366 C134.67352413 346.05630373 134.6725231 349.69365417 134.66558838 353.33187866 C134.68480347 354.92831711 134.68480347 354.92831711 134.70440674 356.55700684 C134.62816511 367.57770975 131.13926558 375.14748922 123.56671143 383.06820679 C115.2194703 390.81037606 107.20000474 392.57124427 96.04962158 392.49447632 C94.93683838 392.49476837 93.82405518 392.49506042 92.67755127 392.49536133 C89.0090142 392.4939709 85.34068165 392.47842295 81.67218018 392.46273804 C79.12484854 392.45900689 76.57751547 392.4561604 74.03018188 392.4541626 C68.01670964 392.44731335 62.00332484 392.43155941 55.9898876 392.41146362 C49.14103781 392.38907498 42.29218446 392.37810375 35.44330716 392.36807275 C21.3607036 392.34719228 7.27816464 392.31203485 -6.80438232 392.26742554 C-6.71710373 392.94470703 -6.62982513 393.62198853 -6.53990173 394.3197937 C-6.13970007 397.43741632 -5.74350257 400.55553578 -5.34735107 403.67367554 C-5.21002563 404.73876343 -5.0727002 405.80385132 -4.93121338 406.9012146 C-3.862025 415.35119961 -3.16726499 423.7584526 -2.80438232 432.26742554 C-2.19130219 432.25632248 -1.57822205 432.24521942 -0.94656372 432.23377991 C5.44491989 432.12300544 11.83613002 432.04768316 18.22833252 431.99276733 C20.61255981 431.96765144 22.99671032 431.9335523 25.38067627 431.89022827 C28.81137046 431.82945107 32.24104512 431.8011856 35.67218018 431.77914429 C36.73490143 431.75333786 37.79762268 431.72753143 38.89254761 431.70094299 C47.17019641 431.69781872 47.17019641 431.69781872 50.85333252 434.67294312 C54.4921507 438.70355817 54.58563323 441.42348781 54.55499268 446.71664429 C53.97601733 450.82611058 52.19646838 452.48092131 49.19561768 455.26742554 C45.78073725 456.97486575 41.86988769 456.4192486 38.11193848 456.42132568 C37.15891177 456.42570794 36.20588506 456.43009019 35.22397876 456.43460524 C32.01042157 456.44802697 28.79689181 456.45417966 25.58331299 456.46029663 C23.28736241 456.46819491 20.99141309 456.47646369 18.69546509 456.4850769 C11.1382364 456.51132765 3.58100208 456.52660709 -3.97625732 456.54086304 C-6.57453668 456.54622137 -9.172816 456.55159887 -11.77109528 456.55699539 C-22.57646098 456.57862814 -33.38182434 456.59751756 -44.18720627 456.60861778 C-46.99189 456.61154753 -49.79657369 456.61450918 -52.60125732 456.61752319 C-53.29835632 456.61826924 -53.99545531 456.61901529 -54.71367851 456.61978395 C-66.0065967 456.63243792 -77.29935745 456.66566096 -88.59220204 456.70732503 C-100.18396554 456.74974165 -111.77564008 456.77290482 -123.36748052 456.77853835 C-129.87686282 456.78219745 -136.38597832 456.79427847 -142.89528656 456.82664108 C-149.01844329 456.85664695 -155.14117072 456.86306002 -161.26438522 456.85125732 C-163.51301292 456.85103597 -165.76166011 456.859392 -168.01021957 456.87691116 C-171.07825633 456.89951577 -174.14472494 456.8913475 -177.21276855 456.87542725 C-178.10440917 456.88930933 -178.99604978 456.90319142 -179.91470981 456.91749418 C-184.18684603 456.86280385 -186.95198261 456.58849916 -190.34135818 453.85442543 C-194.13748742 449.8672189 -194.19473161 447.16901396 -194.16375732 441.81820679 C-193.58478198 437.70874049 -191.80523303 436.05392976 -188.80438232 433.26742554 C-186.34277215 432.03662045 -184.73941239 432.14698576 -181.98748779 432.15390015 C-180.98660126 432.15397568 -179.98571472 432.15405121 -178.95449829 432.15412903 C-177.8711319 432.15929031 -176.7877655 432.1644516 -175.67156982 432.16976929 C-174.56459747 432.17118423 -173.45762512 432.17259918 -172.31710815 432.17405701 C-168.77117239 432.17966781 -165.2252991 432.19222217 -161.67938232 432.20492554 C-159.27964365 432.20993914 -156.87990399 432.21450229 -154.48016357 432.21859741 C-148.58821507 432.22964076 -142.69630316 432.24638944 -136.80438232 432.26742554 C-136.74830811 430.95258179 -136.74830811 430.95258179 -136.69110107 429.61117554 C-136.23999507 420.90748326 -135.37598189 412.31820066 -134.26141357 403.67367554 C-134.12142944 402.57184937 -133.98144531 401.47002319 -133.83721924 400.33480835 C-133.49520717 397.64538294 -133.15088382 394.95627557 -132.80438232 392.26742554 C-133.38268988 392.27111271 -133.96099743 392.27479988 -134.55682945 392.27859879 C-148.66366829 392.36714542 -162.77046518 392.43322988 -176.87752342 392.47467422 C-183.69976186 392.49525196 -190.52181418 392.52328003 -197.34393311 392.56918335 C-203.93157137 392.61348761 -210.51906757 392.63658504 -217.10686111 392.64693451 C-219.61618715 392.65430706 -222.12550301 392.66870384 -224.63474655 392.69034576 C-228.15815549 392.71951738 -231.68077377 392.72337564 -235.20428467 392.7215271 C-236.2343161 392.7359082 -237.26434753 392.75028931 -238.32559204 392.7651062 C-249.22940562 392.70348361 -256.77939383 389.12029915 -264.60516357 381.63851929 C-272.31354098 373.32771097 -274.10481543 365.31400731 -274.07180786 354.21109009 C-274.07633897 353.09412585 -274.08087009 351.97716161 -274.08553851 350.82634997 C-274.0982037 347.0817316 -274.09656074 343.33725828 -274.09490967 339.59262085 C-274.10089361 336.90848245 -274.10764225 334.22435543 -274.11526489 331.54022217 C-274.13186304 325.00445174 -274.13737392 318.46871739 -274.13848965 311.93292764 C-274.13944076 306.61850569 -274.14355422 301.30409562 -274.1498909 295.98967743 C-274.1675007 280.91329414 -274.17673027 265.83693929 -274.17522995 250.76054564 C-274.17515004 249.94812851 -274.17507013 249.13571137 -274.17498779 248.29867554 C-274.17490603 247.4852632 -274.17482427 246.67185087 -274.17474003 245.83378968 C-274.17392738 232.65563019 -274.19306035 219.47758507 -274.22126453 206.29945865 C-274.25001398 192.75940368 -274.26380366 179.21940445 -274.26207697 165.67931819 C-274.26141374 158.08116879 -274.26687644 150.48313926 -274.28843307 142.8850174 C-274.30667213 136.41490418 -274.31097002 129.94496517 -274.29741423 123.47483733 C-274.29089793 120.17628244 -274.29290532 116.87812972 -274.30812073 113.57959366 C-274.32357545 109.99666403 -274.31426214 106.41460665 -274.29885864 102.83169556 C-274.30914577 101.79879686 -274.3194329 100.76589816 -274.33003175 99.7016995 C-274.22698928 88.82719236 -270.63861148 81.27291236 -263.17547607 73.46664429 C-255.65414436 66.49051619 -248.14080884 63.95407342 -237.99655151 64.0269165 C-236.68416671 64.02435323 -236.68416671 64.02435323 -235.34526908 64.02173817 C-232.42026067 64.01844992 -229.49548281 64.02943607 -226.57049561 64.04037476 C-224.47111517 64.04093901 -222.37173433 64.04062203 -220.27235413 64.03948975 C-214.5765755 64.0389158 -208.88088107 64.05067698 -203.18512201 64.06463766 C-197.23138003 64.07713798 -191.27763613 64.07831497 -185.32388306 64.08068848 C-174.05116186 64.08690529 -162.77847945 64.10331887 -151.50577533 64.12338746 C-138.6715448 64.14574016 -125.83731241 64.15673831 -113.00306726 64.16677833 C-86.60348411 64.18768489 -60.20393539 64.22286482 -33.80438232 64.26742554 C-33.82532959 63.19895386 -33.84627686 62.13048218 -33.86785889 61.02963257 C-33.94087553 57.02277302 -33.98640344 53.01597089 -34.02410889 49.00863647 C-34.04408518 47.28229852 -34.07127604 45.55602701 -34.10614014 43.82992554 C-34.38441904 29.68680972 -33.34939169 20.10832613 -23.17547607 9.46664429 C-16.37089957 3.1553155 -9.37049222 0.02670377 0 0 Z M-107.80438232 392.26742554 C-110.56513507 412.22409498 -110.56513507 412.22409498 -111.80438232 432.26742554 C-84.08438232 432.26742554 -56.36438232 432.26742554 -27.80438232 432.26742554 C-28.75908098 418.90164438 -30.26843829 405.57894053 -31.80438232 392.26742554 C-56.88438232 392.26742554 -81.96438232 392.26742554 -107.80438232 392.26742554 Z " fill="#FF5E00" transform="translate(301.80438232421875,27.732574462890625)"/>
<path d="M0 0 C1.3123848 -0.00256327 1.3123848 -0.00256327 2.65128243 -0.00517833 C5.57629085 -0.00846659 8.5010687 0.00251957 11.42605591 0.01345825 C13.52543635 0.01402251 15.62481718 0.01370552 17.72419739 0.01257324 C23.41997601 0.0119993 29.11567044 0.02376047 34.8114295 0.03772116 C40.76517148 0.05022147 46.71891538 0.05139847 52.67266846 0.05377197 C63.94538965 0.05998879 75.21807207 0.07640236 86.49077618 0.09647095 C99.32500672 0.11882365 112.1592391 0.12982181 124.99348426 0.13986182 C151.39306813 0.16076839 177.79261485 0.19635107 204.19216919 0.24050903 C204.19216919 8.16050903 204.19216919 16.08050903 204.19216919 24.24050903 C201.65198593 24.24637527 199.11180267 24.25224152 196.49464417 24.25828552 C172.58302177 24.31492233 148.67149002 24.38798658 124.75996304 24.47622395 C112.46613357 24.52119426 100.17233315 24.56060613 87.87844849 24.58694458 C77.16341461 24.60991458 66.44847257 24.64330155 55.73351151 24.68921059 C50.05974307 24.71315614 44.38606567 24.73187624 38.71224785 24.73812294 C33.37133132 24.74416768 28.03064775 24.76414577 22.68981743 24.79478455 C20.73029192 24.8035745 18.77073598 24.80728537 16.81119156 24.8055172 C14.13338526 24.80386389 11.45628861 24.8205686 8.77857971 24.84178162 C8.00521615 24.83693404 7.23185259 24.83208646 6.43505377 24.82709199 C1.31874764 24.893868 -2.24911574 25.878421 -6.80783081 28.24050903 C-10.38871728 31.94075838 -10.93118151 35.70648909 -10.93925858 40.71119404 C-10.94309972 41.60659061 -10.94694087 42.50198718 -10.95089841 43.42451698 C-10.95003193 44.40417354 -10.94916544 45.3838301 -10.94827271 46.39317322 C-10.95124383 47.43704136 -10.95421495 48.4809095 -10.95727611 49.55641001 C-10.96596993 53.06545693 -10.96747193 56.57446977 -10.96896362 60.08352661 C-10.97359127 62.59489515 -10.97861586 65.10626299 -10.98400879 67.61763 C-10.99713903 74.44822409 -11.00361552 81.27880693 -11.00801945 88.10941148 C-11.01078296 92.37495628 -11.01502049 96.64049882 -11.01952362 100.9060421 C-11.03171488 112.71773162 -11.04201474 124.52941932 -11.04539871 136.341115 C-11.04561828 137.09692206 -11.04583784 137.85272912 -11.04606406 138.63143943 C-11.04628234 139.3890455 -11.04650062 140.14665157 -11.04672551 140.9272154 C-11.04716898 142.46239205 -11.04761554 143.99756871 -11.04806519 145.53274536 C-11.04828662 146.29424456 -11.04850805 147.05574377 -11.04873618 147.8403187 C-11.05268441 160.17996173 -11.07013979 172.51954572 -11.09342471 184.85916594 C-11.11714183 197.53015778 -11.12960071 210.20111999 -11.13076663 222.87213439 C-11.13168315 229.98562346 -11.1374296 237.09903557 -11.15558624 244.21250343 C-11.17260266 250.90277107 -11.17423718 257.59286771 -11.16544724 264.28315926 C-11.16467526 266.73937623 -11.16904064 269.19560096 -11.17890549 271.65179825 C-11.19157874 275.00367188 -11.18577291 278.35502414 -11.17532349 281.70689392 C-11.18337989 282.67985832 -11.1914363 283.65282271 -11.19973683 284.65527087 C-11.15863035 290.28942423 -10.49914568 294.25769572 -7.80783081 299.24050903 C-3.72987735 303.18691561 0.4306447 303.36520746 5.91224384 303.3719368 C7.08631206 303.37577794 8.26038027 303.37961909 9.47002631 303.38357663 C11.40642495 303.38227691 11.40642495 303.38227691 13.38194275 303.38095093 C14.76633989 303.38353478 16.15073628 303.38654799 17.53513163 303.38995433 C21.34351249 303.39802516 25.1518745 303.39981395 28.96026289 303.4005518 C33.06602778 303.40240219 37.17178288 303.40994941 41.27754211 303.41668701 C50.25682638 303.43027103 59.23610619 303.43629504 68.21539903 303.44069767 C73.82102125 303.44345974 79.42664175 303.44769701 85.0322628 303.45220184 C100.5498039 303.46439415 116.06734362 303.47469383 131.58488941 303.47807693 C132.57810537 303.4782965 133.57132134 303.47851607 134.59463475 303.47874229 C136.08803762 303.4790697 136.08803762 303.4790697 137.61161023 303.47940373 C139.6291045 303.4798472 141.64659876 303.48029377 143.66409302 303.48074341 C145.16521559 303.48107555 145.16521559 303.48107555 146.69666388 303.48141441 C162.91621625 303.48536332 179.13572372 303.50282037 195.35525874 303.52610293 C212.00389367 303.54980877 228.65250605 303.56227842 245.30115813 303.56344485 C254.65029355 303.564362 263.99937045 303.57012432 273.34848976 303.58826447 C281.30860209 303.60365503 289.26863781 303.60879206 297.22876219 303.60052636 C301.29037436 303.59661627 305.35183221 303.59756694 309.41342545 303.61158371 C313.13245575 303.62430099 316.85121542 303.6231444 320.57024523 303.610993 C322.55120153 303.60810415 324.53216242 303.61998818 326.51308185 303.63241506 C332.82431426 303.59722567 337.66980306 303.42771706 343.19216919 300.24050903 C346.80718369 296.50499405 347.31700666 292.71064831 347.31674194 287.6618042 C347.31930496 286.74783371 347.32186798 285.83386322 347.32450867 284.89219666 C347.32135902 283.39906197 347.32135902 283.39906197 347.31814575 281.87576294 C347.32001389 280.8216774 347.32188202 279.76759186 347.32380676 278.68156433 C347.32780987 276.39258697 347.32988552 274.10360562 347.33026886 271.81462479 C347.33368384 266.94969203 347.35504355 262.084893 347.37549973 257.22000694 C347.41353443 248.16106767 347.44478171 239.10227164 347.44265747 230.04324341 C347.4418711 223.74257536 347.46520165 217.4423973 347.50453949 211.14185715 C347.51501098 208.7409218 347.51651515 206.33992998 347.50888824 203.93898392 C347.49928175 200.58012983 347.52042141 197.22276385 347.5486145 193.86404419 C347.53841782 192.87266953 347.52822113 191.88129486 347.51771545 190.85987854 C347.58542084 186.36189112 347.71814527 183.22140515 350.60739136 179.63903809 C354.61180798 175.92316375 357.32441364 175.8503556 362.64138794 175.88113403 C366.75085423 176.46010938 368.40566496 178.23965833 371.19216919 181.24050903 C372.40060485 183.65738035 372.32584673 185.19273204 372.33934021 187.89346313 C372.35007317 189.365215 372.35007317 189.365215 372.36102295 190.86669922 C372.36371185 191.94718536 372.36640076 193.02767151 372.36917114 194.14089966 C372.37574234 195.27605011 372.38231354 196.41120056 372.38908386 197.58074951 C372.40885837 201.35275331 372.42049108 205.12471714 372.43045044 208.89675903 C372.43452597 210.18428574 372.43860149 211.47181244 372.44280052 212.7983551 C372.46152743 218.91407064 372.47608588 225.02976614 372.48441249 231.14550447 C372.49416262 238.18978997 372.52041939 245.23375936 372.56091338 252.2779336 C372.5948302 258.38934896 372.60656754 264.50063261 372.61061668 270.61213684 C372.61548078 273.20518633 372.62708963 275.7982325 372.64565468 278.39122009 C372.67007564 282.02938723 372.66907461 285.66673766 372.66213989 289.30496216 C372.68135498 290.9014006 372.68135498 290.9014006 372.70095825 292.53009033 C372.62471662 303.55079325 369.13581709 311.12057272 361.56326294 319.04129028 C353.21602182 326.78345956 345.19655625 328.54432776 334.0461731 328.46755981 C332.93338989 328.46785187 331.82060669 328.46814392 330.67410278 328.46844482 C327.00556572 328.4670544 323.33723317 328.45150644 319.66873169 328.43582153 C317.12140005 328.43209039 314.57406698 328.4292439 312.0267334 328.42724609 C306.01326116 328.42039685 299.99987635 328.40464291 293.98643911 328.38454711 C287.13758932 328.36215848 280.28873597 328.35118724 273.43985868 328.34115624 C259.35725511 328.32027577 245.27471616 328.28511835 231.19216919 328.24050903 C231.27944778 328.91779053 231.36672638 329.59507202 231.45664978 330.2928772 C231.85685144 333.41049982 232.25304895 336.52861928 232.64920044 339.64675903 C232.78652588 340.71184692 232.92385132 341.77693481 233.06533813 342.8742981 C234.13452651 351.32428311 234.82928652 359.7315361 235.19216919 368.24050903 C235.80524933 368.22940598 236.41832947 368.21830292 237.04998779 368.2068634 C243.44147141 368.09608893 249.83268154 368.02076666 256.22488403 367.96585083 C258.60911133 367.94073494 260.99326184 367.9066358 263.37722778 367.86331177 C266.80792198 367.80253457 270.23759663 367.7742691 273.66873169 367.75222778 C274.73145294 367.72642136 275.79417419 367.70061493 276.88909912 367.67402649 C285.16674792 367.67090222 285.16674792 367.67090222 288.84988403 370.64602661 C292.48870221 374.67664166 292.58218475 377.3965713 292.55154419 382.68972778 C291.97256885 386.79919408 290.1930199 388.45400481 287.19216919 391.24050903 C283.77728877 392.94794924 279.8664392 392.3923321 276.10848999 392.39440918 C275.15546328 392.39879143 274.20243658 392.40317369 273.22053027 392.40768874 C270.00697308 392.42111047 266.79344333 392.42726315 263.5798645 392.43338013 C261.28391393 392.4412784 258.9879646 392.44954718 256.6920166 392.4581604 C249.13478791 392.48441115 241.57755359 392.49969058 234.02029419 392.51394653 C231.42201483 392.51930486 228.82373552 392.52468237 226.22545624 392.53007889 C215.42009053 392.55171163 204.61472717 392.57060106 193.80934525 392.58170128 C191.00466152 392.58463102 188.19997783 392.58759268 185.39529419 392.59060669 C184.6981952 392.59135274 184.00109621 392.59209879 183.282873 392.59286745 C171.98995482 392.60552142 160.69719406 392.63874446 149.40434948 392.68040852 C137.81258598 392.72282514 126.22091143 392.74598832 114.629071 392.75162184 C108.11968869 392.75528094 101.6105732 392.76736197 95.10126495 392.79972458 C88.97810822 392.82973045 82.85538079 392.83614351 76.73216629 392.82434082 C74.48353859 392.82411946 72.2348914 392.8324755 69.98633194 392.84999466 C66.91829519 392.87259927 63.85182658 392.864431 60.78378296 392.84851074 C59.89214235 392.86239283 59.00050173 392.87627492 58.08184171 392.89057767 C53.80970548 392.83588735 51.0445689 392.56158266 47.65519333 389.82750893 C43.85906409 385.8403024 43.80181991 383.14209746 43.83279419 377.79129028 C44.41176953 373.68182399 46.19131848 372.02701326 49.19216919 369.24050903 C51.65377936 368.00970395 53.25713912 368.12006926 56.00906372 368.12698364 C57.00995026 368.12705917 58.01083679 368.1271347 59.04205322 368.12721252 C60.12541962 368.13237381 61.20878601 368.1375351 62.32498169 368.14285278 C63.43195404 368.14426773 64.53892639 368.14568268 65.67944336 368.1471405 C69.22537912 368.15275131 72.77125242 368.16530567 76.31716919 368.17800903 C78.71690786 368.18302264 81.11664752 368.18758579 83.51638794 368.19168091 C89.40833644 368.20272425 95.30024835 368.21947293 101.19216919 368.24050903 C101.24824341 366.92566528 101.24824341 366.92566528 101.30545044 365.58425903 C101.75655644 356.88056676 102.62056963 348.29128416 103.73513794 339.64675903 C103.87512207 338.54493286 104.0151062 337.44310669 104.15933228 336.30789185 C104.50134435 333.61846644 104.84566769 330.92935906 105.19216919 328.24050903 C104.61386164 328.24419621 104.03555408 328.24788338 103.43972206 328.25168228 C89.33288322 328.34022891 75.22608634 328.40631337 61.11902809 328.44775772 C54.29678965 328.46833545 47.47473734 328.49636352 40.65261841 328.54226685 C34.06498014 328.58657111 27.47748395 328.60966853 20.8896904 328.62001801 C18.38036436 328.62739056 15.8710485 328.64178734 13.36180496 328.66342926 C9.83839602 328.69260088 6.31577774 328.69645914 2.79226685 328.6946106 C1.76223541 328.7089917 0.73220398 328.7233728 -0.32904053 328.7381897 C-11.2328541 328.6765671 -18.78284231 325.09338265 -26.60861206 317.61160278 C-34.31698947 309.30079446 -36.10826392 301.2870908 -36.07525635 290.18417358 C-36.07978746 289.06720935 -36.08431857 287.95024511 -36.08898699 286.79943347 C-36.10165218 283.0548151 -36.10000922 279.31034177 -36.09835815 275.56570435 C-36.1043421 272.88156595 -36.11109074 270.19743893 -36.11871338 267.51330566 C-36.13531152 260.97753523 -36.1408224 254.44180088 -36.14193814 247.90601113 C-36.14288925 242.59158919 -36.14700271 237.27717912 -36.15333939 231.96276093 C-36.17094919 216.88637763 -36.18017876 201.81002279 -36.17867844 186.73362914 C-36.17859853 185.921212 -36.17851861 185.10879487 -36.17843628 184.27175903 C-36.17835452 183.4583467 -36.17827276 182.64493437 -36.17818852 181.80687317 C-36.17737587 168.62871369 -36.19650883 155.45066856 -36.22471301 142.27254215 C-36.25346247 128.73248718 -36.26725215 115.19248794 -36.26552546 101.65240169 C-36.26486223 94.05425228 -36.27032493 86.45622275 -36.29188156 78.85810089 C-36.31012062 72.38798768 -36.31441851 65.91804866 -36.30086271 59.44792083 C-36.29434641 56.14936593 -36.29635381 52.85121321 -36.31156921 49.55267715 C-36.32702393 45.96974752 -36.31771063 42.38769015 -36.30230713 38.80477905 C-36.31259426 37.77188035 -36.32288138 36.73898165 -36.33348024 35.67478299 C-36.23043777 24.80027586 -32.64205997 17.24599586 -25.17892456 9.43972778 C-17.65759285 2.46359969 -10.14425732 -0.07284309 0 0 Z M130.19216919 328.24050903 C127.43141644 348.19717848 127.43141644 348.19717848 126.19216919 368.24050903 C153.91216919 368.24050903 181.63216919 368.24050903 210.19216919 368.24050903 C209.23747054 354.87472787 207.72811323 341.55202403 206.19216919 328.24050903 C181.11216919 328.24050903 156.03216919 328.24050903 130.19216919 328.24050903 Z " fill="#28394C" transform="translate(63.807830810546875,91.75949096679688)"/>
<path d="M0 0 C3.12578143 1.6720747 5.39281175 3.7856235 7 7 C7.10597535 9.01423059 7.14666447 11.03199729 7.15821838 13.04898071 C7.1680072 14.33909561 7.17779602 15.62921051 7.18788147 16.9584198 C7.19378606 18.39627038 7.19959648 19.83412135 7.20532227 21.27197266 C7.21489805 22.77964041 7.22490795 24.28730545 7.23532104 25.79496765 C7.26240873 29.89594085 7.28339733 33.9969256 7.30332303 38.09793901 C7.3251588 42.38077442 7.35255925 46.66357405 7.37937927 50.94638062 C7.4293388 59.06009257 7.47426551 67.17382434 7.51740164 75.28757513 C7.56674618 84.52326139 7.62167461 93.75891177 7.67708123 102.99456334 C7.79095132 121.99634226 7.89777938 140.99815502 8 160 C8.80099121 159.25959473 9.60198242 158.51918945 10.42724609 157.75634766 C11.50090423 156.76717409 12.57463879 155.77808347 13.6484375 154.7890625 C14.1736499 154.3031665 14.6988623 153.81727051 15.23999023 153.31665039 C19.46292898 149.43180682 23.85490786 145.79721276 28.328125 142.203125 C31.91208452 139.24793031 35.31534706 136.11377315 38.7109375 132.9453125 C43.24123295 129.09533445 46.97675503 127.01167336 52.95703125 127.21484375 C59.40182308 128.87774896 64.55876376 133.39703545 69.79980469 137.34863281 C72.77880057 139.58453252 75.8070483 141.74883511 78.83447266 143.91845703 C81.1037249 145.54722964 83.36535944 147.18605047 85.625 148.828125 C89.77739979 151.84303229 93.94720303 154.83291466 98.125 157.8125 C98.72328613 158.23926025 99.32157227 158.66602051 99.93798828 159.10571289 C101.29169988 160.07088537 102.64579971 161.0355133 104 162 C109.27942941 157.84385345 113.30073125 153.30640728 117.48046875 148.05859375 C120.20518291 144.75091749 123.06838667 141.62298639 126 138.5 C129.59121627 134.66772488 133.0386769 130.7998164 136.3125 126.6875 C140.30875699 121.71061168 144.57971762 117.0338524 148.9375 112.375 C149.60112549 111.66303467 150.26475098 110.95106934 150.94848633 110.2175293 C151.57263428 109.555354 152.19678223 108.89317871 152.83984375 108.2109375 C153.40050537 107.61587402 153.96116699 107.02081055 154.53881836 106.40771484 C157.61315661 103.44587118 160.87534403 103.28707962 164.99609375 103.36328125 C170.85935654 104.60607947 175.27366149 108.67065277 179.87597656 112.32226562 C183.05399067 114.83253148 186.28642852 117.26995238 189.51245117 119.71801758 C192.20446166 121.76288418 194.88952356 123.81663603 197.57421875 125.87109375 C202.84966294 129.89676574 208.16233183 133.86977994 213.5 137.8125 C214.28270264 138.39290039 215.06540527 138.97330078 215.87182617 139.57128906 C219.48980162 142.23478049 223.0824092 144.78469568 227 147 C229.00153185 145.43943064 231.00154025 143.87699784 233 142.3125 C233.6199585 141.82716797 234.23991699 141.34183594 234.87866211 140.84179688 C240.51056513 136.41647982 246.0634119 131.8974177 251.58007812 127.3293457 C257.5118192 122.45974761 261.65098967 119.35797435 269.5546875 119.5703125 C273.55175316 120.27267228 275.26833621 122.05820822 278 125 C279.90729061 128.81458122 279.69679831 132.86199598 279 137 C275.42872501 143.84277143 267.91381977 148.40001925 261.89453125 152.99609375 C258.47502405 155.61182973 255.13847207 158.31728642 251.81469727 161.05322266 C249.14921271 163.24372965 246.46452458 165.40966684 243.77441406 167.56982422 C242.21294856 168.8283637 240.66403493 170.10244272 239.1171875 171.37890625 C234.55836134 174.91592655 230.63946869 177.35063103 224.72265625 176.84765625 C219.09508783 175.09560123 214.67973704 171.29237225 210.12402344 167.67773438 C206.94588336 165.16736902 203.7132751 162.72989361 200.48730469 160.28149414 C197.79736986 158.23850877 195.11317875 156.18815803 192.4296875 154.13671875 C187.11878717 150.08517307 181.79292173 146.05503523 176.4375 142.0625 C175.64641846 141.4653418 174.85533691 140.86818359 174.0402832 140.25292969 C172.93559692 139.43356934 172.93559692 139.43356934 171.80859375 138.59765625 C171.16720459 138.11820557 170.52581543 137.63875488 169.86499023 137.14477539 C167.9093543 135.94435952 166.24246396 135.42972532 164 135 C155.50707892 144.03573247 155.50707892 144.03573247 147.5 153.5 C143.68305149 158.25735611 139.61834256 162.70718377 135.45019531 167.15307617 C132.23749938 170.60030918 129.2006415 174.13437276 126.25 177.8125 C114.89332995 191.94110773 114.89332995 191.94110773 107.875 192.75 C99.97785988 192.64817441 94.22793301 187.19764835 88.19140625 182.64697266 C85.24638175 180.43361088 82.25721585 178.2841574 79.26708984 176.13232422 C77.7599811 175.04719294 76.25507924 173.95898976 74.75244141 172.86767578 C67.26691399 167.43387004 59.64902555 162.20008685 52 157 C46.24636909 161.10881075 41.05477549 165.62832869 35.859375 170.421875 C32.25101215 173.67531691 28.49160716 176.71226743 24.7109375 179.76171875 C21.0975815 182.7450804 17.64049162 185.88402912 14.19140625 189.0546875 C12 191 12 191 9.90991211 192.17236328 C7.04988184 194.90918887 7.392038 197.31696461 7.25 201.1875 C7.19328125 202.45980469 7.1365625 203.73210937 7.078125 205.04296875 C7.05234375 206.01878906 7.0265625 206.99460937 7 208 C7.59230915 207.9981014 8.1846183 207.9962028 8.79487622 207.99424666 C43.89215597 207.88238051 78.98940507 207.79657952 114.08682597 207.74467335 C118.30007178 207.73841974 122.51331723 207.73194814 126.7265625 207.7253418 C127.56535139 207.72403024 128.40414028 207.72271869 129.26834701 207.7213674 C142.8537551 207.69960491 156.4390575 207.66017876 170.02440287 207.61423602 C183.9619982 207.5674948 197.89953814 207.53970955 211.83720863 207.52955753 C220.43904266 207.5226935 229.04057799 207.50100663 237.64232008 207.46041767 C243.53914767 207.43400808 249.43582062 207.42599492 255.33270307 207.43249311 C258.73609915 207.43569886 262.13897294 207.43075091 265.54227638 207.40397263 C269.23214597 207.37916774 272.92072807 207.38505083 276.61062622 207.39872742 C277.68650564 207.38416321 278.76238507 207.369599 279.87086689 207.35459346 C287.95248722 207.4357966 287.95248722 207.4357966 291.64933586 210.41257954 C295.30277416 214.43398815 295.39002149 217.15503768 295.359375 222.44921875 C294.78039966 226.55868504 293.00085071 228.21349577 290 231 C287.52470239 232.2376488 285.8865074 232.12985153 283.11668777 232.13701439 C281.5591871 232.1446262 281.5591871 232.1446262 279.97022176 232.15239179 C278.82063757 232.15288955 277.67105338 232.15338731 276.4866333 232.15390015 C274.66507221 232.16047353 274.66507221 232.16047353 272.80671191 232.1671797 C269.42513368 232.17826195 266.04360183 232.18479761 262.6620121 232.18936086 C259.01908046 232.19531045 255.37616595 232.20692188 251.73324585 232.21765137 C242.93012585 232.24218995 234.12700016 232.25680455 225.32385647 232.26971143 C222.83832489 232.27342227 220.35279386 232.27739559 217.86726284 232.2814641 C202.43934243 232.30669924 187.01142115 232.32875691 171.58348465 232.34119225 C168.0087814 232.34412204 164.43407818 232.34708369 160.859375 232.35009766 C159.97087666 232.35084371 159.08237833 232.35158976 158.1669558 232.35235842 C143.77012155 232.36501513 129.37341071 232.39824156 114.97663417 232.43989949 C100.20275892 232.48229888 85.42894688 232.50588496 70.65501094 232.51111281 C62.35713467 232.51452918 54.05945128 232.52631079 45.76163483 232.55921555 C38.69549081 232.58718986 31.62957918 232.598227 24.56338409 232.58702008 C20.95746666 232.58182662 17.35203609 232.58476376 13.74618912 232.60948563 C9.83769434 232.63605899 5.92986639 232.62394092 2.02130127 232.60800171 C0.88063997 232.6218838 -0.26002134 232.63576588 -1.43524814 232.65006864 C-9.98962392 232.56383733 -9.98962392 232.56383733 -13.68883133 229.58699989 C-17.49531949 225.3262185 -17.15064064 222.01330296 -17.15390015 216.52374268 C-17.1582824 215.63605281 -17.16266465 214.74836294 -17.1671797 213.83377337 C-17.18059855 210.8413286 -17.18675347 207.8489133 -17.19287109 204.85644531 C-17.20076961 202.71812811 -17.2090384 200.57981225 -17.21765137 198.4414978 C-17.24389973 191.40371987 -17.25918148 184.3659359 -17.2734375 177.328125 C-17.27879596 174.90814968 -17.28417346 172.4881744 -17.28956985 170.06819916 C-17.3112024 160.00400432 -17.32994025 149.93981112 -17.34119225 139.87559891 C-17.35743831 125.43797526 -17.39062803 111.00062047 -17.44759309 96.56309819 C-17.48625537 86.41952355 -17.50582053 76.27602093 -17.51111281 66.13237453 C-17.51477124 60.07011464 -17.52684506 54.00814132 -17.55921555 47.945961 C-17.58923069 42.24303238 -17.59563122 36.5405647 -17.58383179 30.83757401 C-17.58361051 28.74375061 -17.59196035 26.64990622 -17.60948563 24.55615616 C-17.63210581 21.6982768 -17.62391535 18.84207894 -17.60800171 15.98419189 C-17.6218838 15.15480645 -17.63576588 14.32542101 -17.65006864 13.47090268 C-17.59333891 9.33853224 -17.22683531 6.771569 -14.58699989 3.50098801 C-10.17289213 -0.76636067 -5.95650726 -0.83920163 0 0 Z " fill="#28394B" transform="translate(93,140)"/>
<path d="M0 0 C3.05450157 1.52725078 4.50204807 2.57294263 5.640625 5.8359375 C5.94226563 6.84527344 5.94226563 6.84527344 6.25 7.875 C7.46407472 11.6421004 8.93886832 12.91557384 12.3125 14.9375 C18.58395162 18.70241712 22.01310427 23.63294398 24.0625 30.625 C23.98410661 34.85824296 23.13846234 37.34391922 21 41 C17.81110649 43.89225225 15.2553217 45.24777252 11 45.5 C6.7761719 45.26579156 4.22228572 43.77266445 1 41 C0.525625 40.0925 0.05125 39.185 -0.4375 38.25 C-0.953125 37.5075 -1.46875 36.765 -2 36 C-5.45728358 35.24988633 -5.45728358 35.24988633 -9 36 C-11.44098818 37.85420839 -11.44098818 37.85420839 -13 40 C-11.99937677 42.71355452 -11.40745036 43.79304109 -8.78515625 45.125 C-7.88667969 45.41375 -6.98820312 45.7025 -6.0625 46 C-5.07765625 46.33257812 -4.0928125 46.66515625 -3.078125 47.0078125 C-1.08874229 47.64906023 0.9008282 48.28972583 2.890625 48.9296875 C12.91400956 52.31747949 20.75349215 57.54638367 25.609375 67.19921875 C27.19939317 71.04323536 27.50016606 74.74550538 27.4375 78.875 C27.42992676 79.57681396 27.42235352 80.27862793 27.41455078 81.00170898 C27.14923977 89.37643495 24.31081984 95.30588849 18.71875 101.42578125 C15.58774616 104.29349613 11.40718274 108 7 108 C6.9071875 109.3303125 6.9071875 109.3303125 6.8125 110.6875 C5.81397923 114.75839238 4.10938685 116.27928651 1 119 C0.67 119.33 0.34 119.66 0 120 C-4.97203603 120.50888288 -9.47771481 120.7611426 -14 118.5 C-15.89714533 116.12856833 -16.41227088 114.92817052 -17.25 112.125 C-18.46407472 108.3578996 -19.93886832 107.08442616 -23.3125 105.0625 C-29.1011005 101.56856495 -32.7265956 97.1488337 -34.7265625 90.6328125 C-35.43517236 86.50620212 -35.22277092 84.46267807 -33.375 80.625 C-29.71168579 76.57607377 -27.55429492 75.17269944 -22.0625 74.5625 C-17.7849487 74.74005873 -15.26583542 76.18986254 -12 79 C-11.525625 79.9075 -11.05125 80.815 -10.5625 81.75 C-10.046875 82.4925 -9.53125 83.235 -9 84 C-4.60907888 84.54886514 -2.71499122 84.47666082 1 82 C1.25030977 79.41619823 1.25030977 79.41619823 1 77 C-3.75071252 74.39176568 -8.21075233 72.58505393 -13.4375 71.125 C-23.00568902 68.27113553 -30.25747425 63.25587497 -36 55 C-39.45563378 47.79388314 -39.94173435 38.84808242 -37.8515625 31.15625 C-35.08430143 24.14924032 -30.29125909 18.15194951 -24 14 C-20.5625 12.625 -20.5625 12.625 -18 12 C-17.9175 11.113125 -17.835 10.22625 -17.75 9.3125 C-16.89879084 5.55299285 -15.62034678 3.77915568 -13 1 C-9.0499487 -0.97502565 -4.30610447 -0.42998728 0 0 Z " fill="#28394B" transform="translate(177,140)"/>
</svg>
