<?xml version="1.0" encoding="UTF-8"?>
<svg version="1.1" xmlns="http://www.w3.org/2000/svg" width="512" height="512">
<path d="M0 0 C1.71084741 -0.01582698 3.42168836 -0.03236637 5.13252258 -0.04956055 C10.72174849 -0.10167249 16.3110021 -0.13256412 21.90039062 -0.16113281 C23.83090733 -0.17186223 25.76142389 -0.18261727 27.69194031 -0.19339752 C35.72160506 -0.23659029 43.75126225 -0.27406516 51.78101349 -0.2966423 C63.26272214 -0.32914925 74.74308091 -0.39564165 86.22428083 -0.509444 C94.31455724 -0.58689028 102.40447273 -0.62591188 110.49511003 -0.63648343 C115.32097975 -0.64377915 120.14540427 -0.66769517 124.97087097 -0.7326889 C129.50893415 -0.79294737 134.04468112 -0.80544562 138.58305931 -0.78192139 C140.24353373 -0.78148078 141.90411733 -0.79802192 143.56421852 -0.83322906 C156.08411062 -1.08420582 156.08411062 -1.08420582 160.99577332 2.57601166 C163.26474383 5.07358878 165.17149686 7.59276764 167.05664062 10.38574219 C168.02312498 11.48973235 169.00973329 12.57681515 170.02539062 13.63574219 C174.96493967 19.00216585 179.87258295 24.39493507 184.74414062 29.82324219 C187.80023523 33.2097254 190.88649674 36.56819033 193.97290039 39.92700195 C196.83266267 43.04207344 199.67179421 46.17425894 202.49414062 49.32324219 C205.98112159 53.20944817 209.50996048 57.05417026 213.05664062 60.88574219 C217.33639018 65.5092683 221.5742267 70.16666553 225.77929688 74.85839844 C228.35473838 77.71656422 230.95349826 80.5528448 233.55664062 83.38574219 C237.6470894 87.83771517 241.70260049 92.3194327 245.74023438 96.81933594 C249.19595908 100.6480225 252.69058236 104.4405374 256.18554688 108.23339844 C256.84808739 108.99315963 256.84808739 108.99315963 257.52401257 109.76826954 C259.05628992 111.46345586 259.05628992 111.46345586 261.05341816 112.95862103 C265.7430377 117.09634019 267.52211223 120.72945787 267.958444 126.84056246 C268.10507487 131.36450386 268.07138051 135.8773401 268.01245117 140.40258789 C268.01510825 142.44353954 268.02124745 144.48448917 268.03059387 146.52542114 C268.04567259 152.0528844 268.01104915 157.57902538 267.96658683 163.10628915 C267.92762425 168.90222556 267.93183829 174.69814177 267.93061829 180.4941864 C267.92230358 190.2296686 267.88373759 199.96464914 267.82495117 209.69995117 C267.75726909 220.93518762 267.72732358 232.16999512 267.71997613 243.40542346 C267.71208172 255.39060542 267.68125205 267.37563776 267.64118218 279.36075187 C267.63088625 282.80254102 267.62430592 286.24432185 267.61835289 289.68612099 C267.60750087 295.10928222 267.58085458 300.53215591 267.54231071 305.95518875 C267.53041945 307.93841505 267.52344692 309.92167829 267.52192307 311.90493965 C267.49995777 331.56957507 264.36727126 348.7037284 250.05664062 363.38574219 C237.96261259 373.84395184 224.93661331 378.71417334 209.09562683 378.6464386 C207.65121474 378.65217692 207.65121474 378.65217692 206.17762262 378.65803117 C202.97211825 378.66829573 199.7667952 378.66438147 196.5612793 378.66040039 C194.25432673 378.66475051 191.94737562 378.66993466 189.64042664 378.67588806 C183.38827081 378.68925765 177.1361755 378.68985894 170.88400817 378.68732476 C165.65803744 378.68625357 160.43207889 378.69114226 155.20611078 378.69593018 C142.16839837 378.707652 129.13072037 378.70680434 116.09300575 378.70037337 C104.7916955 378.69520673 93.49047151 378.70645538 82.18917831 378.72547159 C70.56325847 378.74488286 58.93738306 378.75280926 47.31144696 378.74934834 C40.79311791 378.74753825 34.27486786 378.75014437 27.75655174 378.76406288 C21.62432059 378.77666742 15.49226164 378.77467214 9.36003304 378.76165199 C7.11554785 378.75929232 4.87105045 378.76199893 2.62657928 378.77027512 C-16.33655439 378.83513111 -33.52821578 377.25648073 -48.04101562 363.51074219 C-59.98152384 350.17267963 -65.0983264 335.94797005 -65.08380127 318.11508179 C-65.08677239 316.97502737 -65.08974351 315.83497295 -65.09280467 314.66037142 C-65.10148108 310.83753836 -65.10299904 307.01473666 -65.10449219 303.19189453 C-65.10858447 300.45189225 -65.11412547 297.71189326 -65.11953735 294.97189331 C-65.13310051 287.525401 -65.13914234 280.07891409 -65.14354801 272.63241148 C-65.14631402 267.97919953 -65.15055205 263.32598964 -65.15505219 258.67277908 C-65.16724255 245.7792874 -65.17754211 232.88579736 -65.18092728 219.99230003 C-65.18114684 219.16759835 -65.18136641 218.34289667 -65.18159263 217.49320403 C-65.18181091 216.66657271 -65.18202918 215.83994139 -65.18225408 214.98826063 C-65.18269754 213.31330005 -65.1831441 211.63833948 -65.18359375 209.96337891 C-65.18381518 209.1325475 -65.18403661 208.3017161 -65.18426475 207.44570799 C-65.18821065 193.99086309 -65.20565936 180.53607241 -65.22895327 167.08124845 C-65.25269762 153.25416666 -65.26513054 139.42711205 -65.26629519 125.60000956 C-65.26721026 117.84196621 -65.2729199 110.08399352 -65.29111481 102.3259697 C-65.30655752 95.71833317 -65.31161178 89.11078914 -65.3033767 82.50313799 C-65.29948476 79.13550491 -65.30197853 75.76820842 -65.31443405 72.40057373 C-65.32717705 68.73965882 -65.32126338 65.07921654 -65.31085205 61.41830444 C-65.31890846 60.36788574 -65.32696486 59.31746703 -65.3352654 58.23521745 C-65.22784254 42.00659494 -59.32328499 27.06099459 -47.94335938 15.38574219 C-33.3793617 2.79164694 -18.58381006 0.09666496 0 0 Z " fill="#EBEBEC" transform="translate(154.943359375,66.6142578125)"/>
<path d="M0 0 C0.74544571 -0.00817749 1.49089142 -0.01635498 2.25892639 -0.02478027 C4.71598534 -0.04950845 7.17298694 -0.06611919 9.63012695 -0.08056641 C10.47359995 -0.08589008 11.31707294 -0.09121376 12.18610573 -0.09669876 C16.65205601 -0.12337764 21.11797886 -0.14276799 25.58398438 -0.15722656 C29.26490202 -0.17055115 32.94526341 -0.19838371 36.62597656 -0.23925781 C41.08627506 -0.28877589 45.54607026 -0.31337066 50.00663185 -0.32045364 C51.69819453 -0.32713322 53.38974743 -0.34226864 55.08115196 -0.36634445 C66.63381398 -0.52138914 75.26711278 0.47930445 84.2434082 8.38037109 C91.73447155 16.72349852 93.51145925 24.7877913 92.9855957 35.76318359 C92.40203449 42.04789584 89.94120266 47.01100785 86.4309082 52.19287109 C86.01325195 52.82708984 85.5955957 53.46130859 85.1652832 54.11474609 C81.48576891 59.06982534 76.39464396 61.87484634 70.4309082 63.19287109 C71.0599707 63.44939453 71.6890332 63.70591797 72.3371582 63.97021484 C81.14903659 67.91167249 87.88506392 74.01539178 91.4309082 83.19287109 C94.06645471 91.81829601 92.40907521 99.35445414 88.9152832 107.43115234 C86.39017784 112.12917733 83.51532118 115.46219383 79.0559082 118.38037109 C78.32629883 118.86892578 77.59668945 119.35748047 76.8449707 119.86083984 C69.3979282 123.96996847 61.7470166 124.03740853 53.4309082 123.19287109 C49.70355347 122.01376019 46.65458444 120.38642522 43.4309082 118.19287109 C42.55692383 117.61666016 42.55692383 117.61666016 41.6652832 117.02880859 C36.69981793 113.3423268 33.3655615 107.996831 31.4309082 102.19287109 C31.42948318 102.89285217 31.42805817 103.59283325 31.42658997 104.31402588 C31.40864224 110.96229552 31.36668504 117.60995052 31.29881763 124.25790787 C31.26475715 127.67446647 31.23947084 131.09058792 31.23535156 134.50732422 C31.2301914 138.44977673 31.18486278 142.39131178 31.13793945 146.33349609 C31.14383842 148.14361176 31.14383842 148.14361176 31.14985657 149.99029541 C30.99151351 159.34345485 28.84245932 167.89593447 23.2434082 175.56787109 C14.45064291 183.77445203 6.1634859 185.77721694 -5.51049805 185.53271484 C-13.58155208 185.08255886 -19.7244024 180.90638785 -25.10424805 175.08349609 C-27.48590682 172.0095685 -29.09812139 168.77789948 -30.5690918 165.19287109 C-30.9815918 164.24412109 -31.3940918 163.29537109 -31.8190918 162.31787109 C-34.15259798 152.59492865 -32.07961838 143.95778797 -26.9206543 135.48583984 C-23.72996946 130.83914381 -20.2636232 126.44717998 -16.5690918 122.19287109 C-17.08858398 121.78037109 -17.60807617 121.36787109 -18.14331055 120.94287109 C-26.80760855 113.76799955 -31.2922973 105.94803336 -32.92456055 94.75537109 C-33.43027125 86.2266284 -30.07502037 78.02050113 -24.8815918 71.31787109 C-21.13726889 67.31803009 -16.34956188 64.77205752 -11.5690918 62.19287109 C-12.6209668 61.78037109 -13.6728418 61.36787109 -14.7565918 60.94287109 C-23.11967135 57.26513129 -26.87670943 51.01966876 -30.6159668 42.92724609 C-33.47224108 35.43626261 -33.73108751 27.73806957 -31.1315918 20.13037109 C-27.4095449 11.8547562 -20.87476816 4.86653564 -12.5690918 1.19287109 C-8.39453713 0.11127842 -4.28656642 0.02624884 0 0 Z " fill="#AF83C7" transform="translate(225.569091796875,220.80712890625)"/>
<path d="M0 0 C0.74544571 -0.00817749 1.49089142 -0.01635498 2.25892639 -0.02478027 C4.71598534 -0.04950845 7.17298694 -0.06611919 9.63012695 -0.08056641 C10.47359995 -0.08589008 11.31707294 -0.09121376 12.18610573 -0.09669876 C16.65205601 -0.12337764 21.11797886 -0.14276799 25.58398438 -0.15722656 C29.26490202 -0.17055115 32.94526341 -0.19838371 36.62597656 -0.23925781 C41.08627506 -0.28877589 45.54607026 -0.31337066 50.00663185 -0.32045364 C51.69819453 -0.32713322 53.38974743 -0.34226864 55.08115196 -0.36634445 C66.63381398 -0.52138914 75.26711278 0.47930445 84.2434082 8.38037109 C91.73447155 16.72349852 93.51145925 24.7877913 92.9855957 35.76318359 C92.40203449 42.04789584 89.94120266 47.01100785 86.4309082 52.19287109 C86.01325195 52.82708984 85.5955957 53.46130859 85.1652832 54.11474609 C82.04435658 58.31759395 77.63532434 61.60056146 72.44128418 62.56063652 C70.23574416 62.70281765 68.06272817 62.7224 65.8527832 62.69458008 C64.6099054 62.70268456 64.6099054 62.70268456 63.34191895 62.71095276 C60.62121114 62.72339176 57.90157162 62.70698161 55.1809082 62.68896484 C53.27954045 62.68911994 51.37817239 62.69061076 49.47680664 62.69337463 C45.49912475 62.69475647 41.52180438 62.6822367 37.54418945 62.65942383 C32.45666285 62.63103997 27.36973655 62.63377947 22.28216553 62.64651394 C18.35810254 62.65348333 14.43417724 62.64566743 10.51013184 62.63325691 C8.63473031 62.62875467 6.75931395 62.62839485 4.88391113 62.63232231 C2.25864585 62.63524692 -0.36580473 62.6186683 -2.9909668 62.59692383 C-4.1429657 62.6036763 -4.1429657 62.6036763 -5.3182373 62.61056519 C-12.47656219 62.51251755 -18.40627867 60.35568422 -23.5690918 55.19287109 C-30.14860932 45.91792781 -33.96817271 36.6783493 -32.5690918 25.19287109 C-30.5361197 16.27490014 -24.84484801 9.16804327 -17.60424805 3.71240234 C-11.95717716 0.28956069 -6.43930025 0.03943114 0 0 Z " fill="#EC4D6B" transform="translate(225.569091796875,220.80712890625)"/>
<path d="M0 0 C2 0 2 0 3.3046875 1.29296875 C3.82289063 1.91816406 4.34109375 2.54335937 4.875 3.1875 C8.11922388 7.00622186 11.465211 10.70506507 14.875 14.375 C19.1981813 19.03876314 23.4781769 23.73695325 27.72265625 28.47265625 C30.29809758 31.33082184 32.89683799 34.16712083 35.5 37 C38.83328749 40.62743489 42.14946307 44.26893076 45.4375 47.9375 C48.92448097 51.82370598 52.45331985 55.66842807 56 59.5 C60.27974955 64.12352611 64.51758608 68.78092335 68.72265625 73.47265625 C71.29809775 76.33082203 73.89685764 79.16710261 76.5 82 C80.58920545 86.45061978 84.64369115 90.93078117 88.6796875 95.4296875 C90.83742537 97.81990891 93.01018668 100.19507048 95.19018555 102.56494141 C98.87301255 106.56924029 102.55537888 110.57463463 106.1875 114.625 C106.73792969 115.23601562 107.28835938 115.84703125 107.85546875 116.4765625 C109 118 109 118 109 120 C97.56865802 120.11614541 86.13745775 120.20484287 74.70564461 120.25906086 C69.39664913 120.28509048 64.08805907 120.32036704 58.77929688 120.37719727 C53.65048139 120.43175397 48.52205444 120.46147039 43.39297104 120.47438622 C41.44183109 120.48358374 39.49071103 120.50154415 37.5397377 120.52865028 C16.09622027 120.81457442 16.09622027 120.81457442 7.88259888 112.98042297 C1.41423665 106.16440837 -0.44829146 100.26365843 -0.34057617 91.04736328 C-0.34101425 90.0613765 -0.34145233 89.07538971 -0.34190369 88.05952454 C-0.33982005 84.81291642 -0.31650858 81.56682998 -0.29296875 78.3203125 C-0.2873713 76.06444582 -0.2831019 73.80857549 -0.28010559 71.55270386 C-0.26866864 65.62444942 -0.2392111 59.69641659 -0.20599365 53.76824951 C-0.17526813 47.71532183 -0.16159493 41.66235824 -0.14648438 35.609375 C-0.11434051 23.73948614 -0.06315785 11.86976152 0 0 Z " fill="#B5B1B8" transform="translate(312,68)"/>
<path d="M0 0 C9.590625 -0.1546875 9.590625 -0.1546875 19.375 -0.3125 C21.37224121 -0.35802002 23.36948242 -0.40354004 25.42724609 -0.45043945 C36.94258988 -0.60399722 44.87585748 0.37366324 53.8125 8.1875 C61.30356335 16.53062743 63.08055105 24.59492021 62.5546875 35.5703125 C61.97112629 41.85502474 59.51029445 46.81813676 56 52 C55.58234375 52.63421875 55.1646875 53.2684375 54.734375 53.921875 C51.48476282 58.2980194 47.09767799 61.53638367 41.67630005 62.34777832 C39.00591714 62.46089354 36.3634407 62.45043524 33.69140625 62.390625 C32.40453918 62.38458252 32.40453918 62.38458252 31.0916748 62.37841797 C27.91506277 62.35763469 24.73875782 62.30178993 21.5625 62.25 C14.446875 62.1675 7.33125 62.085 0 62 C0 41.54 0 21.08 0 0 Z " fill="#EF7118" transform="translate(256,221)"/>
<path d="M0 0 C1.03613937 0.00707474 2.07227875 0.01414948 3.13981628 0.0214386 C6.44160872 0.04937518 9.74169091 0.11211495 13.04296875 0.17578125 C15.28448068 0.20086495 17.52601925 0.22367799 19.76757812 0.24414062 C25.25578955 0.29919919 30.74300696 0.38281844 36.23046875 0.48828125 C36.35543866 5.53783458 36.44544238 10.58645934 36.50512695 15.63720703 C36.53004458 17.34993194 36.56399204 19.06255306 36.60766602 20.77490234 C36.90385226 32.69901192 36.28412201 42.78960624 29.04296875 52.86328125 C20.25020346 61.06986219 11.96304645 63.0726271 0.2890625 62.828125 C-7.78199153 62.37796901 -13.92484185 58.20179801 -19.3046875 52.37890625 C-21.68634627 49.30497866 -23.29856084 46.07330963 -24.76953125 42.48828125 C-25.18203125 41.53953125 -25.59453125 40.59078125 -26.01953125 39.61328125 C-28.36103015 29.85703582 -26.24221146 21.26510946 -21.12109375 12.74609375 C-19.41543809 10.23602407 -17.69502184 7.83409723 -15.76953125 5.48828125 C-15.12790039 4.62614014 -14.48626953 3.76399902 -13.82519531 2.87573242 C-9.34380403 -0.62566782 -5.53043293 -0.14239872 0 0 Z " fill="#7CB75E" transform="translate(219.76953125,343.51171875)"/>
<path d="M0 0 C7.70058685 5.3830769 12.91475344 12.4860064 14.80078125 21.74609375 C16.14104106 30.78540159 13.16236016 39.04265001 7.90234375 46.40234375 C5.86500447 48.67446934 3.9711402 50.26794658 1.42578125 51.93359375 C0.69617188 52.42214844 -0.0334375 52.91070312 -0.78515625 53.4140625 C-8.23219875 57.52319113 -15.88311035 57.59063118 -24.19921875 56.74609375 C-27.92657348 55.56698284 -30.97554252 53.93964788 -34.19921875 51.74609375 C-34.781875 51.36195313 -35.36453125 50.9778125 -35.96484375 50.58203125 C-42.08446453 46.03867643 -45.84386271 39.13894489 -47.19921875 31.74609375 C-48.32719609 22.40970299 -46.51338373 15.51970698 -41.19921875 7.74609375 C-30.68536386 -4.72382716 -14.28850972 -8.14673467 0 0 Z " fill="#4ABEF1" transform="translate(303.19921875,287.25390625)"/>
<path d="M0 0 C8.58 0 17.16 0 26 0 C23.90999084 1.04500458 21.81293866 2.08084058 19.66796875 3.0078125 C10.38797635 7.18746262 5.417428 12.92837918 1.62890625 22.3125 C1.42136719 22.869375 1.21382813 23.42625 1 24 C0.67 24 0.34 24 0 24 C0 16.08 0 8.16 0 0 Z " fill="#E9E8E7" transform="translate(256,283)"/>
</svg>
