<?xml version="1.0" encoding="UTF-8"?>
<svg version="1.1" xmlns="http://www.w3.org/2000/svg" width="512" height="512">
<path d="M0 0 C1.05489624 -0.00935994 1.05489624 -0.00935994 2.13110352 -0.01890898 C4.47576936 -0.03479977 6.81938988 -0.02225106 9.1640625 -0.00964355 C10.84977828 -0.01506645 12.53548932 -0.02219005 14.22119141 -0.03088379 C18.79145963 -0.04910026 23.36136618 -0.04205658 27.93164062 -0.02936745 C32.71745774 -0.01923109 37.50324416 -0.02863489 42.2890625 -0.03491211 C50.32557731 -0.04218666 58.36194503 -0.03260586 66.3984375 -0.0135498 C75.68597197 0.00821857 84.97315519 0.00116706 94.26068115 -0.02085543 C102.23877974 -0.0390149 110.21677267 -0.04156507 118.19488525 -0.03110075 C122.95810706 -0.02486883 127.72116384 -0.02402189 132.484375 -0.0372467 C136.96279317 -0.04881255 141.44075904 -0.04076615 145.91912842 -0.01766968 C147.56141408 -0.0123865 149.20373788 -0.01388971 150.8460083 -0.02272034 C153.09055875 -0.03367555 155.33366615 -0.01991476 157.578125 0 C158.83318848 0.0015081 160.08825195 0.0030162 161.38134766 0.00457001 C166.67780661 0.78692706 169.58318963 3.03336191 172.93255949 7.12905836 C175.15355912 11.17132642 175.34690176 14.42325692 175.29242706 18.91320801 C175.29824083 19.74901335 175.30405459 20.58481869 175.31004453 21.44595146 C175.32467036 24.25336309 175.31074725 27.05990397 175.29699707 29.86730957 C175.30160496 31.89761808 175.30795711 33.92792326 175.31590605 35.95822144 C175.33263782 41.54274646 175.32433543 47.12699883 175.31196117 52.71152496 C175.30292879 58.73205941 175.31687141 64.75254624 175.32788086 70.77307129 C175.34466024 81.88731084 175.34317705 93.00147519 175.33223499 104.11571527 C175.32217641 114.3828576 175.31954425 124.649968 175.32432556 134.91711426 C175.32478387 135.9383134 175.32478387 135.9383134 175.32525144 136.98014283 C175.32649678 139.74366559 175.32777037 142.50718834 175.3290905 145.27071106 C175.34132904 171.1995665 175.33022863 197.12836644 175.30870291 223.05721331 C175.28972019 246.09810846 175.29141869 269.13891519 175.31054688 292.17980957 C175.33196112 318.06095741 175.34046112 343.9420562 175.32809782 369.82321167 C175.32681493 372.58172606 175.32556357 375.34024047 175.32432556 378.09875488 C175.32400925 378.77798138 175.32369294 379.45720788 175.32336705 380.15701699 C175.31881538 390.41820869 175.32414155 400.67936496 175.33424377 410.94055176 C175.34567207 422.60691325 175.3424545 434.27319059 175.3211208 445.93954277 C175.31059073 451.89467167 175.30652197 457.84962087 175.31971741 463.80474854 C175.33160645 469.25259427 175.32513624 474.70009314 175.3038072 480.14790726 C175.29932634 482.1222461 175.30164048 484.09661405 175.31131035 486.0709343 C175.32342252 488.74859694 175.31105213 491.42506167 175.29242706 494.10266113 C175.30179173 494.87452192 175.31115639 495.64638271 175.32080483 496.44163322 C175.24836117 501.62990159 174.16659264 504.58111551 170.7890625 508.50793457 C166.1652559 512.48495666 162.29312254 513.08299461 156.38378906 513.01129913 C155.54798372 513.0171129 154.71217838 513.02292666 153.85104561 513.0289166 C151.04363399 513.04354243 148.2370931 513.02961932 145.4296875 513.01586914 C143.39937899 513.02047703 141.36907381 513.02682918 139.33877563 513.03477812 C133.75425061 513.05150989 128.16999824 513.0432075 122.58547211 513.03083324 C116.56493766 513.02180086 110.54445083 513.03574348 104.52392578 513.04675293 C93.40968623 513.06353231 82.29552188 513.06204912 71.18128181 513.05110706 C60.91413947 513.04104848 50.64702907 513.03841632 40.37988281 513.04319763 C39.69908338 513.04350317 39.01828395 513.04380871 38.31685424 513.04412351 C35.55333148 513.04536885 32.78980873 513.04664245 30.02628601 513.04796257 C4.09743057 513.06020111 -21.83136937 513.0491007 -47.76021624 513.02757498 C-70.80111139 513.00859226 -93.84191812 513.01029076 -116.8828125 513.02941895 C-142.76396034 513.0508332 -168.64505913 513.05933319 -194.5262146 513.04696989 C-197.28472899 513.045687 -200.0432434 513.04443564 -202.80175781 513.04319763 C-203.48098431 513.04288132 -204.1602108 513.04256501 -204.86001992 513.04223912 C-215.12121162 513.03768745 -225.38236789 513.04301362 -235.64355469 513.05311584 C-247.30991618 513.06454414 -258.97619352 513.06132657 -270.6425457 513.03999287 C-276.5976746 513.0294628 -282.5526238 513.02539404 -288.50775146 513.03858948 C-293.9555972 513.05047852 -299.40309607 513.04400831 -304.85091019 513.02267927 C-306.82524903 513.01819841 -308.79961698 513.02051255 -310.77393723 513.03018242 C-313.45159987 513.04229459 -316.1280646 513.0299242 -318.80566406 513.01129913 C-319.57752485 513.0206638 -320.34938564 513.03002846 -321.14463615 513.0396769 C-326.31350375 512.96750413 -329.22784667 511.76521804 -333.2109375 508.50793457 C-336.91973477 504.07730236 -337.71199251 501.02226384 -337.71887207 495.29699707 C-337.72823201 494.24210083 -337.72823201 494.24210083 -337.73778105 493.16589355 C-337.75367184 490.82122771 -337.74112313 488.47760719 -337.72851562 486.13293457 C-337.73393852 484.44721879 -337.74106212 482.76150775 -337.74975586 481.07580566 C-337.76797233 476.50553744 -337.76092865 471.93563089 -337.74823952 467.36535645 C-337.73810316 462.57953933 -337.74750696 457.79375291 -337.75378418 453.00793457 C-337.76105873 444.97141976 -337.75147793 436.93505204 -337.73242188 428.89855957 C-337.7106535 419.6110251 -337.71770501 410.32384188 -337.7397275 401.03631592 C-337.75788697 393.05821733 -337.76043714 385.0802244 -337.74997282 377.10211182 C-337.74374091 372.33889001 -337.74289396 367.57583324 -337.75611877 362.81262207 C-337.76768462 358.3342039 -337.75963822 353.85623803 -337.73654175 349.37786865 C-337.73125857 347.73558299 -337.73276178 346.09325919 -337.74159241 344.45098877 C-337.75254762 342.20643832 -337.73878683 339.96333092 -337.71887207 337.71887207 C-337.71736397 336.46380859 -337.71585587 335.20874512 -337.71430206 333.91564941 C-336.91104152 328.47767645 -334.54443669 325.60550498 -330.3619442 322.1629982 C-326.84096447 320.31360655 -324.74647756 320.01367815 -320.79483032 320.0269165 C-319.52445923 320.02141785 -318.25408813 320.01591919 -316.94522095 320.01025391 C-315.5502281 320.02440773 -314.15523913 320.03894693 -312.76025391 320.05383301 C-311.28155549 320.0549621 -309.80285483 320.05432641 -308.32415771 320.05206299 C-304.32031085 320.05091732 -300.31694523 320.07440236 -296.31321001 320.10235882 C-292.12520329 320.12739725 -287.93718501 320.12971639 -283.74911499 320.13446045 C-275.82311515 320.14688307 -267.89733652 320.17969495 -259.971434 320.21985841 C-250.94610486 320.26459838 -241.92076506 320.28656874 -232.8953526 320.30664015 C-214.33375558 320.34842827 -195.77236434 320.41876639 -177.2109375 320.50793457 C-177.21462467 319.74040548 -177.21831184 318.9728764 -177.22211075 318.18208885 C-177.31046128 299.50346458 -177.37664686 280.82488203 -177.41818619 262.14609337 C-177.43880842 253.11314768 -177.46692252 244.0803415 -177.51269531 235.04748535 C-177.55257348 227.17412555 -177.57837278 219.3008668 -177.58729148 211.42740881 C-177.59250459 207.25871308 -177.60475007 203.0903064 -177.63385773 198.92170334 C-177.66104245 194.99662714 -177.66937642 191.07195858 -177.66336823 187.14679718 C-177.66446711 185.70766865 -177.67240313 184.26852624 -177.6877594 182.82947922 C-177.70773088 180.86110088 -177.70047583 178.89250296 -177.69195557 176.92404175 C-177.69564274 175.82342093 -177.69932991 174.7228001 -177.70312881 173.58882713 C-176.86984472 168.37284972 -174.37334142 165.46468067 -170.3619442 162.1629982 C-166.84096447 160.31360655 -164.74647756 160.01367815 -160.79483032 160.0269165 C-159.52445923 160.02141785 -158.25408813 160.01591919 -156.94522095 160.01025391 C-155.5502281 160.02440773 -154.15523913 160.03894693 -152.76025391 160.05383301 C-151.28155549 160.0549621 -149.80285483 160.05432641 -148.32415771 160.05206299 C-144.32031085 160.05091732 -140.31694523 160.07440236 -136.31321001 160.10235882 C-132.12520329 160.12739725 -127.93718501 160.12971639 -123.74911499 160.13446045 C-115.82311515 160.14688307 -107.89733652 160.17969495 -99.971434 160.21985841 C-90.94610486 160.26459838 -81.92076506 160.28656874 -72.8953526 160.30664015 C-54.33375558 160.34842827 -35.77236434 160.41876639 -17.2109375 160.50793457 C-17.21462467 159.74040548 -17.21831184 158.9728764 -17.22211075 158.18208885 C-17.31046128 139.50346458 -17.37664686 120.82488203 -17.41818619 102.14609337 C-17.43880842 93.11314768 -17.46692252 84.0803415 -17.51269531 75.04748535 C-17.55257348 67.17412555 -17.57837278 59.3008668 -17.58729148 51.42740881 C-17.59250459 47.25871308 -17.60475007 43.0903064 -17.63385773 38.92170334 C-17.66104245 34.99662714 -17.66937642 31.07195858 -17.66336823 27.14679718 C-17.66446711 25.70766865 -17.67240313 24.26852624 -17.6877594 22.82947922 C-17.70773088 20.86110088 -17.70047583 18.89250296 -17.69195557 16.92404175 C-17.69564274 15.82342093 -17.69932991 14.7228001 -17.70312881 13.58882713 C-16.87320506 8.39388391 -14.37885375 5.48557487 -10.41162109 2.16468048 C-6.65004457 0.21760376 -4.22225622 0.00507352 0 0 Z " fill="#FFA000" transform="translate(337.2109375,-0.5079345703125)"/>
<path d="M0 0 C1.27037109 -0.00549866 2.54074219 -0.01099731 3.84960938 -0.0166626 C5.24460222 -0.00250877 6.63959119 0.01203042 8.03457642 0.0269165 C9.51327483 0.0280456 10.99197549 0.02740991 12.47067261 0.02514648 C16.47451948 0.02400082 20.47788509 0.04748586 24.48162031 0.07544231 C28.66962704 0.10048074 32.85764531 0.10279989 37.04571533 0.10754395 C44.97171517 0.11996657 52.8974938 0.15277845 60.82339633 0.1929419 C69.84872546 0.23768187 78.87406526 0.25965224 87.89947772 0.27972364 C106.46107474 0.32151177 125.02246598 0.39184989 143.58389282 0.48101807 C143.58486963 1.19816943 143.58584644 1.91532079 143.58685285 2.65420401 C143.64510243 45.14170702 143.71888218 87.62915829 143.8128791 130.11659799 C143.82414751 135.21609845 143.83528592 140.31559918 143.84634399 145.4151001 C143.84964952 146.93795284 143.84964952 146.93795284 143.85302182 148.49157028 C143.88841131 164.93835221 143.91326612 181.3851341 143.93423984 197.83194001 C143.95598874 214.70308464 143.98903048 231.57417979 144.03259438 248.44528234 C144.0591268 258.85885446 144.07681046 269.2723649 144.08323886 279.68596916 C144.08848788 286.82326547 144.10468847 293.96048411 144.12955848 301.09773882 C144.14359016 305.21791216 144.15273808 309.33794641 144.14890099 313.45814514 C144.145495 317.22974038 144.1558309 321.00103834 144.17712834 324.77257268 C144.18490442 326.78425838 144.17794588 328.79598433 144.17047578 330.80767119 C144.17993232 332.00397198 144.18938886 333.20027276 144.19913197 334.43282509 C144.20103057 335.46338606 144.20292917 336.49394704 144.2048853 337.55573714 C144.81984215 342.30213779 146.54348791 345.54465364 150.08389282 348.73101807 C151.90170387 350.0034858 153.73763882 351.25018206 155.58389282 352.48101807 C114.66514932 352.57254217 73.74641915 352.64304081 32.82759377 352.68527938 C27.99847584 352.69028231 23.16935811 352.69545959 18.34024048 352.70074463 C16.89813434 352.70231849 16.89813434 352.70231849 15.42689474 352.70392415 C-0.14694542 352.72133683 -15.72072662 352.75287928 -31.29453178 352.78962925 C-47.27067239 352.82701465 -63.24678208 352.84924883 -79.22296464 352.85737205 C-89.08382919 352.8628648 -98.94452708 352.88022295 -108.80534033 352.91268393 C-115.56416937 352.93380218 -122.32291204 352.94022422 -129.08177169 352.93502358 C-132.98329274 352.93245759 -136.88452225 352.93643429 -140.78599167 352.95783997 C-144.35777699 352.97729391 -147.92907449 352.97829603 -151.50088219 352.96461365 C-153.4052432 352.96212117 -155.30959841 352.9793837 -157.21387637 352.9973433 C-167.79235288 352.92302338 -167.79235288 352.92302338 -172.41610718 348.48101807 C-176.12490445 344.05038585 -176.91716218 340.99534733 -176.92404175 335.27008057 C-176.93340169 334.21518433 -176.93340169 334.21518433 -176.94295073 333.13897705 C-176.95884152 330.79431121 -176.94629281 328.45069068 -176.9336853 326.10601807 C-176.9391082 324.42030229 -176.9462318 322.73459125 -176.95492554 321.04888916 C-176.973142 316.47862094 -176.96609833 311.90871439 -176.95340919 307.33843994 C-176.94327284 302.55262283 -176.95267664 297.76683641 -176.95895386 292.98101807 C-176.96622841 284.94450325 -176.95664761 276.90813554 -176.93759155 268.87164307 C-176.91582318 259.58410859 -176.92287468 250.29692538 -176.94489717 241.00939941 C-176.96305665 233.03130082 -176.96560682 225.0533079 -176.9551425 217.07519531 C-176.94891058 212.31197351 -176.94806364 207.54891673 -176.96128845 202.78570557 C-176.9728543 198.3072874 -176.9648079 193.82932152 -176.94171143 189.35095215 C-176.93642825 187.70866649 -176.93793146 186.06634268 -176.94676208 184.42407227 C-176.9577173 182.17952182 -176.94395651 179.93641442 -176.92404175 177.69195557 C-176.92253365 176.43689209 -176.92102554 175.18182861 -176.91947174 173.88873291 C-176.1162112 168.45075995 -173.74960636 165.57858847 -169.56711388 162.1360817 C-166.04613415 160.28669004 -163.95164723 159.98676165 -160 160 C-158.72962891 159.99450134 -157.45925781 159.98900269 -156.15039062 159.9833374 C-154.75539778 159.99749123 -153.36040881 160.01203042 -151.96542358 160.0269165 C-150.48672517 160.0280456 -149.00802451 160.02740991 -147.52932739 160.02514648 C-143.52548052 160.02400082 -139.52211491 160.04748586 -135.51837969 160.07544231 C-131.33037296 160.10048074 -127.14235469 160.10279989 -122.95428467 160.10754395 C-115.02828483 160.11996657 -107.1025062 160.15277845 -99.17660367 160.1929419 C-90.15127454 160.23768187 -81.12593474 160.25965224 -72.10052228 160.27972364 C-53.53892526 160.32151177 -34.97753402 160.39184989 -16.41610718 160.48101807 C-16.41979435 159.71348898 -16.42348152 158.94595989 -16.42728043 158.15517235 C-16.51563096 139.47654808 -16.58181654 120.79796553 -16.62335587 102.11917686 C-16.6439781 93.08623117 -16.6720922 84.05342499 -16.71786499 75.02056885 C-16.75774316 67.14720905 -16.78354246 59.27395029 -16.79246116 51.40049231 C-16.79767427 47.23179658 -16.80991974 43.0633899 -16.8390274 38.89478683 C-16.86621212 34.96971063 -16.8745461 31.04504208 -16.8685379 27.11988068 C-16.86963678 25.68075214 -16.87757281 24.24160974 -16.89292908 22.80256271 C-16.91290056 20.83418437 -16.90564551 18.86558646 -16.89712524 16.89712524 C-16.90081242 15.79650442 -16.90449959 14.6958836 -16.90829849 13.56191063 C-16.08878605 8.43213747 -13.70814786 5.49185362 -9.67055535 2.33301961 C-6.05889768 0.27774166 -4.11367245 -0.01378115 0 0 Z " fill="#FFC006" transform="translate(176.41610717773438,159.51898193359375)"/>
</svg>
