<?xml version="1.0" encoding="UTF-8"?>
<svg version="1.1" xmlns="http://www.w3.org/2000/svg" width="512" height="512">
<path d="M0 0 C1.10347778 0.00094414 1.10347778 0.00094414 2.22924805 0.00190735 C3.06351318 -0.00432144 3.89777832 -0.01055023 4.75732422 -0.01696777 C6.11047729 -0.00315315 6.11047729 -0.00315315 7.4909668 0.01094055 C8.41562744 0.01044205 9.34028809 0.00994354 10.29296875 0.00942993 C12.24994045 0.01177273 14.20691504 0.02151335 16.16381836 0.03804016 C19.1663699 0.06162677 22.16803374 0.0586035 25.1706543 0.05195618 C27.06909711 0.05753288 28.96753618 0.06464271 30.8659668 0.07344055 C31.76806885 0.07252914 32.6701709 0.07161774 33.59960938 0.07067871 C34.43387451 0.08021072 35.26813965 0.08974274 36.12768555 0.0995636 C37.23116333 0.10647469 37.23116333 0.10647469 38.35693359 0.11352539 C40.1784668 0.3742218 40.1784668 0.3742218 42.1784668 2.3742218 C42.40551758 5.07978821 42.40551758 5.07978821 42.3737793 8.4757843 C42.36411133 10.29336243 42.36411133 10.29336243 42.35424805 12.1476593 C42.32911133 14.05418274 42.32911133 14.05418274 42.3034668 15.9992218 C42.29444336 17.2779718 42.28541992 18.5567218 42.27612305 19.8742218 C42.25248983 23.04107347 42.21954308 26.20755604 42.1784668 29.3742218 C43.00016357 29.53495178 43.82186035 29.69568176 44.66845703 29.86128235 C53.15182716 31.64812549 60.09768612 34.45422668 67.70776367 38.49726868 C68.49344727 38.89623352 69.27913086 39.29519836 70.08862305 39.70625305 C70.78093018 40.07468323 71.4732373 40.4431134 72.18652344 40.82270813 C74.19651528 41.57856119 74.19651528 41.57856119 76.21557617 40.695755 C78.3328538 39.27027941 79.93513571 37.76489352 81.67456055 35.8976593 C82.31586914 35.2273468 82.95717773 34.5570343 83.61791992 33.8664093 C84.95202263 32.45275599 86.28015253 31.03344248 87.60229492 29.6085968 C88.24489258 28.94086243 88.88749023 28.27312805 89.54956055 27.5851593 C90.12633545 26.96947083 90.70311035 26.35378235 91.29736328 25.71943665 C93.1784668 24.3742218 93.1784668 24.3742218 95.49194336 23.80171204 C99.66215914 24.69040306 101.86302192 27.34418751 104.79174805 30.32344055 C105.71336983 31.23788689 105.71336983 31.23788689 106.65361023 32.17080688 C107.94808179 33.46187901 109.23627253 34.75927491 110.51855469 36.06245422 C112.4840146 38.05467495 114.47469246 40.01884122 116.46948242 41.98164368 C117.72434393 43.23980927 118.97765349 44.49952503 120.22924805 45.76094055 C120.82602859 46.34759995 121.42280914 46.93425934 122.03767395 47.53869629 C126.00723978 51.62317515 126.00723978 51.62317515 126.78271484 55.02461243 C125.9940275 58.09141121 124.73525499 59.38937436 122.4597168 61.58125305 C121.69272461 62.33213196 120.92573242 63.08301086 120.13549805 63.85664368 C119.32467773 64.62556946 118.51385742 65.39449524 117.6784668 66.1867218 C116.86764648 66.97498352 116.05682617 67.76324524 115.22143555 68.57539368 C113.21786721 70.52003353 111.20358278 72.45207245 109.1784668 74.3742218 C110.57725482 78.84219519 112.31477452 83.01244259 114.3034668 87.2492218 C114.84229492 88.40164368 115.38112305 89.55406555 115.9362793 90.7414093 C116.34620117 91.61023743 116.75612305 92.47906555 117.1784668 93.3742218 C119.14638184 93.40395081 119.14638184 93.40395081 121.15405273 93.4342804 C126.02208635 93.51035931 130.88982195 93.59907344 135.75756836 93.69160461 C137.86427934 93.72988486 139.97105547 93.7647394 142.07788086 93.7960968 C145.106438 93.84176779 148.13454702 93.89975925 151.1628418 93.9601593 C152.10464294 93.97171051 153.04644409 93.98326172 154.01678467 93.99516296 C154.89739563 94.01503265 155.77800659 94.03490234 156.68530273 94.05537415 C157.45807556 94.06869781 158.23084839 94.08202148 159.02703857 94.0957489 C161.56768591 94.42460088 163.05148067 94.93229829 165.1784668 96.3742218 C168.2452195 100.43694033 168.60725102 103.91811943 168.55941772 108.85127258 C168.5640977 109.59522341 168.56877767 110.33917423 168.57359946 111.10566902 C168.58554742 113.59380647 168.57609323 116.08139294 168.56665039 118.5695343 C168.57071619 120.35524313 168.57605811 122.14094945 168.58258057 123.926651 C168.59625901 128.77370622 168.59095331 133.62056991 168.58144331 138.46762848 C168.57384948 143.53952553 168.58089156 148.61140614 168.58560181 153.68330383 C168.59106016 162.20074916 168.58386564 170.71811645 168.56958008 179.23554993 C168.55325343 189.08367987 168.55854188 198.93162349 168.57505929 208.77974892 C168.58867187 217.23422656 168.59059493 225.6886481 168.58274329 234.14313316 C168.57806553 239.19303313 168.57744478 244.24284552 168.58735275 249.29273987 C168.5960168 254.04027786 168.59001075 258.78757556 168.57266998 263.53508759 C168.56870214 265.27777457 168.56984427 267.02048176 168.57645798 268.76316071 C168.58465191 271.14143745 168.57437844 273.51894343 168.55941772 275.89717102 C168.56610989 276.5873488 168.57280205 277.27752659 168.57969701 277.98861885 C168.52728515 282.28199579 167.78179826 284.94986385 165.1784668 288.3742218 C159.78353719 292.28984702 154.05352279 291.77848947 147.6652832 291.71479797 C146.51348572 291.71523605 145.36168823 291.71567413 144.17498779 291.71612549 C140.37649452 291.71403926 136.57844526 291.69071509 132.7800293 291.66719055 C130.143018 291.66159403 127.50600357 291.6573242 124.86898804 291.65432739 C118.64298461 291.64501811 112.41713997 291.62041963 106.19120634 291.59027892 C99.10053533 291.55669997 92.00985657 291.54024015 84.9191258 291.52519262 C70.33882437 291.49386896 55.75864781 291.44113033 41.1784668 291.3742218 C41.32993164 292.16594788 41.48139648 292.95767395 41.63745117 293.77339172 C42.32250775 297.36862133 43.00055747 300.96513798 43.6784668 304.5617218 C43.91694336 305.80760071 44.15541992 307.05347961 44.40112305 308.33711243 C44.62670898 309.53916321 44.85229492 310.74121399 45.0847168 311.97969055 C45.29418945 313.08465881 45.50366211 314.18962708 45.71948242 315.32807922 C46.13299885 318.0724646 46.26856428 320.60597655 46.1784668 323.3742218 C47.20786377 323.36636658 47.20786377 323.36636658 48.25805664 323.35835266 C51.35651744 323.33761224 54.45496366 323.32457104 57.5534668 323.3117218 C58.63370117 323.3033429 59.71393555 323.29496399 60.8269043 323.28633118 C62.3737793 323.28149719 62.3737793 323.28149719 63.9519043 323.27656555 C65.38155518 323.26871033 65.38155518 323.26871033 66.84008789 323.26069641 C69.1784668 323.3742218 69.1784668 323.3742218 71.1784668 324.3742218 C71.1784668 331.3042218 71.1784668 338.2342218 71.1784668 345.3742218 C68.90977368 346.50856836 67.67347477 346.50217664 65.1550293 346.50793457 C64.31375488 346.51219955 63.47248047 346.51646454 62.60571289 346.52085876 C61.68097168 346.52040558 60.75623047 346.51995239 59.8034668 346.51948547 C58.34481201 346.52452339 58.34481201 346.52452339 56.85668945 346.52966309 C53.63060237 346.53919043 50.40456708 346.54111698 47.1784668 346.54219055 C44.94409157 346.54540149 42.70971657 346.54876544 40.4753418 346.55227661 C35.78783683 346.55827207 31.10035032 346.56011604 26.4128418 346.55952454 C20.39326202 346.5594228 14.3737999 346.57308511 8.35424805 346.59029675 C3.73900809 346.60138964 -0.87620315 346.60344459 -5.49145508 346.60291481 C-7.71151129 346.60409864 -9.93156817 346.60854279 -12.15161133 346.61624718 C-15.25000367 346.62599406 -18.34813711 346.62319027 -21.4465332 346.61714172 C-22.37127441 346.62276123 -23.29601562 346.62838074 -24.2487793 346.63417053 C-25.09005371 346.62997604 -25.93132812 346.62578156 -26.7980957 346.62145996 C-27.53108887 346.62200473 -28.26408203 346.6225495 -29.01928711 346.62311077 C-30.8215332 346.3742218 -30.8215332 346.3742218 -32.8215332 344.3742218 C-33.08032227 342.43476868 -33.08032227 342.43476868 -33.0871582 340.0929718 C-33.09102539 338.83033508 -33.09102539 338.83033508 -33.0949707 337.54219055 C-33.08723633 336.66176086 -33.07950195 335.78133118 -33.0715332 334.8742218 C-33.08313477 333.55357727 -33.08313477 333.55357727 -33.0949707 332.20625305 C-33.09239258 331.36449524 -33.08981445 330.52273743 -33.0871582 329.6554718 C-33.08490234 328.88267883 -33.08264648 328.10988586 -33.08032227 327.31367493 C-32.8215332 325.3742218 -32.8215332 325.3742218 -30.8215332 323.3742218 C-28.4831543 323.14717102 -28.4831543 323.14717102 -25.5949707 323.1789093 C-24.5637207 323.18535461 -23.5324707 323.19179993 -22.4699707 323.19844055 C-21.38973633 323.21519836 -20.30950195 323.23195618 -19.1965332 323.2492218 C-18.10856445 323.25824524 -17.0205957 323.26726868 -15.8996582 323.27656555 C-13.20673169 323.30018771 -10.51424065 323.33312624 -7.8215332 323.3742218 C-7.69907227 322.12769836 -7.57661133 320.88117493 -7.45043945 319.59687805 C-6.8230242 313.95014079 -5.80450688 308.39373852 -4.7590332 302.8117218 C-4.57276367 301.8030304 -4.38649414 300.79433899 -4.19458008 299.75508118 C-3.73973518 297.29425364 -3.28200202 294.83400206 -2.8215332 292.3742218 C-3.42929659 292.37275524 -4.03705997 292.37128868 -4.66324043 292.36977768 C-19.46152179 292.33270227 -34.25959381 292.2736779 -49.05768013 292.19031906 C-56.21399428 292.1505345 -63.37019856 292.11813914 -70.52661133 292.10322571 C-76.76522708 292.09020606 -83.00360101 292.06323375 -89.24208057 292.01960874 C-92.54442496 291.99700035 -95.84640624 291.98339189 -99.14883804 291.98233795 C-102.83844621 291.979976 -106.52710748 291.9529559 -110.21655273 291.92012024 C-111.30771896 291.9251506 -112.39888519 291.93018097 -113.52311707 291.93536377 C-119.38277552 291.85460923 -123.36306117 291.6073123 -127.8215332 287.3742218 C-129.98300784 283.21818556 -130.07499134 279.61420441 -130.08222961 274.97309875 C-130.08605516 274.23731503 -130.08988071 273.50153131 -130.09382218 272.74345112 C-130.104124 270.28306199 -130.10016546 267.82290746 -130.09619141 265.36250305 C-130.10053939 263.59649947 -130.10572283 261.83049779 -130.11167908 260.0644989 C-130.12506969 255.27120244 -130.12564777 250.47798483 -130.12311578 245.68467331 C-130.1220463 241.68350877 -130.12692873 237.6823602 -130.1317212 233.68119907 C-130.14281618 224.24324919 -130.14325356 214.80533911 -130.13720703 205.36738586 C-130.13116362 195.62832636 -130.14348761 185.8894112 -130.1647771 176.15037632 C-130.1823828 167.78932301 -130.18839617 159.4283157 -130.18513936 151.06724453 C-130.18332502 146.07322706 -130.1859779 141.07931259 -130.1998539 136.08531189 C-130.21241115 131.39031598 -130.21050811 126.6955455 -130.19744301 122.00055313 C-130.19507324 120.27721201 -130.1978262 118.55385512 -130.20606613 116.83053207 C-130.21650149 114.47854015 -130.20845937 112.12730922 -130.195755 109.77534485 C-130.19592275 108.45906601 -130.19609049 107.14278717 -130.19626331 105.78662109 C-129.6992622 101.26078715 -128.20618464 98.67085597 -124.91485596 95.58874512 C-122.5165104 94.19725086 -121.08494947 93.98145479 -118.32836914 93.94184875 C-117.44775818 93.9220546 -116.56714722 93.90226044 -115.65985107 93.88186646 C-114.24714935 93.87228157 -114.24714935 93.87228157 -112.8059082 93.86250305 C-111.83494202 93.84455185 -110.86397583 93.82660065 -109.86358643 93.80810547 C-106.76627935 93.75397907 -103.6691266 93.72009897 -100.5715332 93.6867218 C-98.46994922 93.65355082 -96.3683856 93.61906137 -94.2668457 93.58320618 C-89.1185195 93.49825107 -83.97023925 93.43145073 -78.8215332 93.3742218 C-77.45245904 90.79784592 -76.10124865 88.21454076 -74.7590332 85.6242218 C-74.3690918 84.89461243 -73.97915039 84.16500305 -73.57739258 83.4132843 C-73.03115234 82.34980774 -73.03115234 82.34980774 -72.47387695 81.2648468 C-71.96328735 80.29079895 -71.96328735 80.29079895 -71.44238281 79.29707336 C-70.67208132 76.91135 -70.94798324 75.69869652 -71.8215332 73.3742218 C-73.42229536 71.47376451 -73.42229536 71.47376451 -75.4543457 69.6945343 C-76.17750977 69.01262024 -76.90067383 68.33070618 -77.64575195 67.62812805 C-79.17994194 66.20854649 -80.72165507 64.79705258 -82.27075195 63.39375305 C-82.99133789 62.70926086 -83.71192383 62.02476868 -84.4543457 61.3195343 C-85.12353027 60.70610168 -85.79271484 60.09266907 -86.48217773 59.46064758 C-87.8215332 57.3742218 -87.8215332 57.3742218 -87.88037109 54.51753235 C-86.52385831 50.49053163 -84.21456983 48.0480644 -81.24731445 45.13594055 C-80.68586227 44.56970474 -80.1244101 44.00346893 -79.54594421 43.42007446 C-78.35919741 42.22993528 -77.166153 41.04604662 -75.96728516 39.86811829 C-74.13972826 38.06733343 -72.34037698 36.24143659 -70.54223633 34.41133118 C-69.38302874 33.2554278 -68.22227099 32.10107651 -67.05981445 30.94844055 C-66.52520096 30.4037059 -65.99058746 29.85897125 -65.43977356 29.29772949 C-62.96573036 26.8991284 -60.96512695 25.42363221 -57.69189453 24.2973175 C-54.8215332 24.3742218 -54.8215332 24.3742218 -52.64331055 25.83711243 C-51.9879834 26.56092102 -51.33265625 27.28472961 -50.6574707 28.0304718 C-49.92786133 28.80519836 -49.19825195 29.57992493 -48.4465332 30.37812805 C-47.7040332 31.20183899 -46.9615332 32.02554993 -46.1965332 32.8742218 C-44.71612803 34.49961511 -43.22442932 36.11481643 -41.7199707 37.7179718 C-41.06689941 38.4417804 -40.41382813 39.16558899 -39.7409668 39.91133118 C-37.95042458 41.61638723 -37.95042458 41.61638723 -35.77880859 41.195755 C-32.75912174 39.92829258 -29.82263667 38.50380382 -26.8840332 37.0617218 C-10.86002435 29.3742218 -10.86002435 29.3742218 -3.8215332 29.3742218 C-3.83200684 28.60231506 -3.84248047 27.83040833 -3.85327148 27.03511047 C-3.89479774 23.54401392 -3.92084878 20.05296931 -3.9465332 16.5617218 C-3.96329102 15.3467804 -3.98004883 14.13183899 -3.99731445 12.88008118 C-4.00375977 11.71670227 -4.01020508 10.55332336 -4.0168457 9.35469055 C-4.02731934 8.28114319 -4.03779297 7.20759583 -4.04858398 6.10151672 C-3.7916348 3.01508734 -3.35864832 0.69001181 0 0 Z M-25.8215332 88.3742218 C-26.57563477 89.08320618 -27.32973633 89.79219055 -28.10668945 90.5226593 C-30.04803341 92.19816638 -30.04803341 92.19816638 -29.8215332 94.3742218 C2.8484668 94.3742218 35.5184668 94.3742218 69.1784668 94.3742218 C59.15294109 81.00685419 45.88397682 72.047035 29.1784668 69.3742218 C7.42157781 67.35716053 -10.08804011 72.94922857 -25.8215332 88.3742218 Z " fill="#F8F2F0" transform="translate(236.821533203125,82.62577819824219)"/>
<path d="M0 0 C98.34 0 196.68 0 298 0 C298 25 298 25 295 30 C289.60507039 33.91562522 283.87505599 33.40426767 277.48681641 33.34057617 C276.33501892 33.34101425 275.18322144 33.34145233 273.996521 33.34190369 C270.19802772 33.33981745 266.39997846 33.31649329 262.6015625 33.29296875 C259.9645512 33.28737223 257.32753678 33.2831024 254.69052124 33.28010559 C248.46451781 33.27079631 242.23867317 33.24619783 236.01273954 33.21605712 C228.92206853 33.18247817 221.83138978 33.16601835 214.740659 33.15097082 C200.16035757 33.11964716 185.58018101 33.06690853 171 33 C171.15146484 33.79172607 171.30292969 34.58345215 171.45898438 35.39916992 C172.14404095 38.99439953 172.82209067 42.59091618 173.5 46.1875 C173.73847656 47.43337891 173.97695313 48.67925781 174.22265625 49.96289062 C174.44824219 51.16494141 174.67382812 52.36699219 174.90625 53.60546875 C175.11572266 54.71043701 175.32519531 55.81540527 175.54101562 56.95385742 C175.95453206 59.6982428 176.09009749 62.23175475 176 65 C176.68626465 64.99476318 177.3725293 64.98952637 178.07958984 64.98413086 C181.17805064 64.96339044 184.27649686 64.95034924 187.375 64.9375 C188.99535156 64.92493164 188.99535156 64.92493164 190.6484375 64.91210938 C191.6796875 64.90888672 192.7109375 64.90566406 193.7734375 64.90234375 C194.72653809 64.89710693 195.67963867 64.89187012 196.66162109 64.88647461 C199 65 199 65 201 66 C201 72.93 201 79.86 201 87 C198.73130688 88.13434656 197.49500797 88.12795484 194.9765625 88.13371277 C193.71465088 88.14011024 193.71465088 88.14011024 192.42724609 88.14663696 C191.50250488 88.14618378 190.57776367 88.14573059 189.625 88.14526367 C188.65256348 88.14862228 187.68012695 88.1519809 186.67822266 88.15544128 C183.45213558 88.16496863 180.22610028 88.16689518 177 88.16796875 C174.76562478 88.17117969 172.53124977 88.17454364 170.296875 88.17805481 C165.60937004 88.18405027 160.92188353 88.18589424 156.234375 88.18530273 C150.21479523 88.185201 144.1953331 88.19886331 138.17578125 88.21607494 C133.5605413 88.22716784 128.94533005 88.22922279 124.33007812 88.22869301 C122.11002191 88.22987684 119.88996504 88.23432099 117.66992188 88.24202538 C114.57152954 88.25177226 111.4733961 88.24896847 108.375 88.24291992 C106.98788818 88.25134918 106.98788818 88.25134918 105.57275391 88.25994873 C104.73147949 88.25575424 103.89020508 88.25155975 103.0234375 88.24723816 C102.29044434 88.24778293 101.55745117 88.24832769 100.80224609 88.24888897 C99 88 99 88 97 86 C96.74121094 84.06054688 96.74121094 84.06054688 96.734375 81.71875 C96.73050781 80.45611328 96.73050781 80.45611328 96.7265625 79.16796875 C96.73429687 78.28753906 96.74203125 77.40710938 96.75 76.5 C96.73839844 75.17935547 96.73839844 75.17935547 96.7265625 73.83203125 C96.72914063 72.99027344 96.73171875 72.14851563 96.734375 71.28125 C96.73663086 70.50845703 96.73888672 69.73566406 96.74121094 68.93945312 C97 67 97 67 99 65 C101.33837891 64.77294922 101.33837891 64.77294922 104.2265625 64.8046875 C105.2578125 64.81113281 106.2890625 64.81757813 107.3515625 64.82421875 C108.97191406 64.84935547 108.97191406 64.84935547 110.625 64.875 C111.71296875 64.88402344 112.8009375 64.89304687 113.921875 64.90234375 C116.61480152 64.92596591 119.30729255 64.95890444 122 65 C122.12246094 63.75347656 122.24492187 62.50695312 122.37109375 61.22265625 C122.998509 55.57591899 124.01702632 50.01951672 125.0625 44.4375 C125.24876953 43.42880859 125.43503906 42.42011719 125.62695312 41.38085938 C126.08179803 38.92003184 126.53953118 36.45978026 127 34 C126.39223661 33.99853344 125.78447323 33.99706688 125.15829277 33.99555588 C110.36001142 33.95848047 95.5619394 33.8994561 80.76385307 33.81609726 C73.60753892 33.7763127 66.45133464 33.74391734 59.29492188 33.72900391 C53.05630613 33.71598426 46.81793219 33.68901195 40.57945263 33.64538693 C37.27710824 33.62277855 33.97512696 33.60917009 30.67269516 33.60811615 C26.983087 33.6057542 23.29442573 33.5787341 19.60498047 33.54589844 C17.96823112 33.55344398 17.96823112 33.55344398 16.29841614 33.56114197 C10.43875768 33.48038742 6.45847203 33.2330905 2 29 C0 24 0 24 0 0 Z " fill="#71EAA2" transform="translate(107,341)"/>
<path d="M0 0 C1.10347778 0.00094414 1.10347778 0.00094414 2.22924805 0.00190735 C3.06351318 -0.00432144 3.89777832 -0.01055023 4.75732422 -0.01696777 C6.11047729 -0.00315315 6.11047729 -0.00315315 7.4909668 0.01094055 C8.87795776 0.01019279 8.87795776 0.01019279 10.29296875 0.00942993 C12.24994045 0.01177273 14.20691504 0.02151335 16.16381836 0.03804016 C19.1663699 0.06162677 22.16803374 0.0586035 25.1706543 0.05195618 C27.06909711 0.05753288 28.96753618 0.06464271 30.8659668 0.07344055 C31.76806885 0.07252914 32.6701709 0.07161774 33.59960938 0.07067871 C34.43387451 0.08021072 35.26813965 0.08974274 36.12768555 0.0995636 C37.23116333 0.10647469 37.23116333 0.10647469 38.35693359 0.11352539 C40.1784668 0.3742218 40.1784668 0.3742218 42.1784668 2.3742218 C42.40551758 5.07978821 42.40551758 5.07978821 42.3737793 8.4757843 C42.36411133 10.29336243 42.36411133 10.29336243 42.35424805 12.1476593 C42.32911133 14.05418274 42.32911133 14.05418274 42.3034668 15.9992218 C42.29444336 17.2779718 42.28541992 18.5567218 42.27612305 19.8742218 C42.25248983 23.04107347 42.21954308 26.20755604 42.1784668 29.3742218 C43.00016357 29.53495178 43.82186035 29.69568176 44.66845703 29.86128235 C53.15182716 31.64812549 60.09768612 34.45422668 67.70776367 38.49726868 C68.49344727 38.89623352 69.27913086 39.29519836 70.08862305 39.70625305 C70.78093018 40.07468323 71.4732373 40.4431134 72.18652344 40.82270813 C74.19651528 41.57856119 74.19651528 41.57856119 76.21557617 40.695755 C78.3328538 39.27027941 79.93513571 37.76489352 81.67456055 35.8976593 C82.31586914 35.2273468 82.95717773 34.5570343 83.61791992 33.8664093 C84.95202263 32.45275599 86.28015253 31.03344248 87.60229492 29.6085968 C88.24489258 28.94086243 88.88749023 28.27312805 89.54956055 27.5851593 C90.12633545 26.96947083 90.70311035 26.35378235 91.29736328 25.71943665 C93.1784668 24.3742218 93.1784668 24.3742218 95.49194336 23.80171204 C99.66215914 24.69040306 101.86302192 27.34418751 104.79174805 30.32344055 C105.71336983 31.23788689 105.71336983 31.23788689 106.65361023 32.17080688 C107.94808179 33.46187901 109.23627253 34.75927491 110.51855469 36.06245422 C112.4840146 38.05467495 114.47469246 40.01884122 116.46948242 41.98164368 C117.72434393 43.23980927 118.97765349 44.49952503 120.22924805 45.76094055 C120.82602859 46.34759995 121.42280914 46.93425934 122.03767395 47.53869629 C126.00723978 51.62317515 126.00723978 51.62317515 126.78271484 55.02461243 C125.9940275 58.09141121 124.73525499 59.38937436 122.4597168 61.58125305 C121.69272461 62.33213196 120.92573242 63.08301086 120.13549805 63.85664368 C119.32467773 64.62556946 118.51385742 65.39449524 117.6784668 66.1867218 C116.86764648 66.97498352 116.05682617 67.76324524 115.22143555 68.57539368 C113.21786721 70.52003353 111.20358278 72.45207245 109.1784668 74.3742218 C110.57076511 78.82822465 112.30840783 82.97011166 114.3034668 87.1867218 C117.1784668 93.27374333 117.1784668 93.27374333 117.1784668 94.3742218 C110.45279556 94.5520134 103.72773199 94.67442081 97.00024414 94.75874329 C94.71290442 94.79390072 92.4257215 94.84163697 90.13891602 94.90229797 C86.84701853 94.98742092 83.55720318 95.02695801 80.2644043 95.05781555 C78.73594376 95.11200905 78.73594376 95.11200905 77.17660522 95.16729736 C70.18746561 95.17114443 70.18746561 95.17114443 67.25508118 92.85510254 C65.75284873 91.09551673 64.48128911 89.28263904 63.1784668 87.3742218 C47.7868599 73.72918022 31.65111206 69.2724625 11.61108398 70.1789093 C-3.17585707 71.36613861 -15.65532348 78.95430988 -25.8215332 89.3742218 C-26.2976001 90.23547668 -26.77366699 91.09673157 -27.26416016 91.98408508 C-31.32936756 95.78345315 -35.57170175 94.9940726 -40.9309082 94.86250305 C-42.01285461 94.85542831 -43.09480103 94.84835358 -44.20953369 94.84106445 C-47.6642377 94.81308224 -51.11731931 94.75033311 -54.5715332 94.6867218 C-56.91395771 94.66164404 -59.25640763 94.63882997 -61.59887695 94.61836243 C-67.34031564 94.56324308 -73.08080853 94.47957768 -78.8215332 94.3742218 C-78.0557263 92.47635251 -77.28365743 90.58100936 -76.5090332 88.6867218 C-76.07977539 87.63097961 -75.65051758 86.57523743 -75.20825195 85.48750305 C-73.8215332 82.3742218 -73.8215332 82.3742218 -72.09106445 79.72969055 C-70.63843669 77.51402298 -70.63843669 77.51402298 -70.90698242 75.29170227 C-72.06181127 72.87044606 -73.47064548 71.50019184 -75.4543457 69.6945343 C-76.17750977 69.01262024 -76.90067383 68.33070618 -77.64575195 67.62812805 C-79.17994194 66.20854649 -80.72165507 64.79705258 -82.27075195 63.39375305 C-82.99133789 62.70926086 -83.71192383 62.02476868 -84.4543457 61.3195343 C-85.12353027 60.70610168 -85.79271484 60.09266907 -86.48217773 59.46064758 C-87.8215332 57.3742218 -87.8215332 57.3742218 -87.88037109 54.51753235 C-86.52385831 50.49053163 -84.21456983 48.0480644 -81.24731445 45.13594055 C-80.68586227 44.56970474 -80.1244101 44.00346893 -79.54594421 43.42007446 C-78.35919741 42.22993528 -77.166153 41.04604662 -75.96728516 39.86811829 C-74.13972826 38.06733343 -72.34037698 36.24143659 -70.54223633 34.41133118 C-69.38302874 33.2554278 -68.22227099 32.10107651 -67.05981445 30.94844055 C-66.52520096 30.4037059 -65.99058746 29.85897125 -65.43977356 29.29772949 C-62.96573036 26.8991284 -60.96512695 25.42363221 -57.69189453 24.2973175 C-54.8215332 24.3742218 -54.8215332 24.3742218 -52.64331055 25.83711243 C-51.9879834 26.56092102 -51.33265625 27.28472961 -50.6574707 28.0304718 C-49.92786133 28.80519836 -49.19825195 29.57992493 -48.4465332 30.37812805 C-47.7040332 31.20183899 -46.9615332 32.02554993 -46.1965332 32.8742218 C-44.71612803 34.49961511 -43.22442932 36.11481643 -41.7199707 37.7179718 C-41.06689941 38.4417804 -40.41382813 39.16558899 -39.7409668 39.91133118 C-37.95042458 41.61638723 -37.95042458 41.61638723 -35.77880859 41.195755 C-32.75912174 39.92829258 -29.82263667 38.50380382 -26.8840332 37.0617218 C-10.86002435 29.3742218 -10.86002435 29.3742218 -3.8215332 29.3742218 C-3.83200684 28.60231506 -3.84248047 27.83040833 -3.85327148 27.03511047 C-3.89479774 23.54401392 -3.92084878 20.05296931 -3.9465332 16.5617218 C-3.96329102 15.3467804 -3.98004883 14.13183899 -3.99731445 12.88008118 C-4.00375977 11.71670227 -4.01020508 10.55332336 -4.0168457 9.35469055 C-4.02731934 8.28114319 -4.03779297 7.20759583 -4.04858398 6.10151672 C-3.7916348 3.01508734 -3.35864832 0.69001181 0 0 Z " fill="#FCAC6C" transform="translate(236.821533203125,82.62577819824219)"/>
<path d="M0 0 C2.33818902 1.70637974 2.9368298 2.6530828 3.46069336 5.5300293 C3.50331299 6.53461182 3.54593262 7.53919434 3.58984375 8.57421875 C3.64938232 9.70432373 3.7089209 10.83442871 3.77026367 11.9987793 C3.82545166 13.21605713 3.88063965 14.43333496 3.9375 15.6875 C6.58090618 59.92276325 20.14021477 102.76457089 46 139 C46.72832031 140.02351562 47.45664063 141.04703125 48.20703125 142.1015625 C60.69297548 159.15443768 75.11604314 175.20847431 92 188 C92.95036133 188.72437256 92.95036133 188.72437256 93.91992188 189.46337891 C105.09379349 197.92709201 116.63120539 205.40160056 129 212 C129.74266113 212.39670898 130.48532227 212.79341797 131.25048828 213.20214844 C152.42682748 224.30448756 175.49491406 231.02310691 199 235 C199.73186523 235.12455566 200.46373047 235.24911133 201.21777344 235.37744141 C219.23099326 238.31012915 237.79542206 238.20454582 256 238 C253.19331987 235.12060795 250.42207727 232.50688915 247.1875 230.125 C244.26433765 227.6720855 244.04227867 227.28185783 243.4375 223.25 C244 220 244 220 246 218 C250.45962084 217.39631962 252.50370728 217.69125976 256.359375 220.08984375 C257.50381394 221.02185589 258.63361807 221.97205787 259.75 222.9375 C260.3483667 223.43169434 260.9467334 223.92588867 261.56323242 224.43505859 C262.78870873 225.44921223 264.00839951 226.47039805 265.22216797 227.49853516 C266.90455379 228.91939107 268.60441878 230.31425751 270.31640625 231.69921875 C278.95120982 238.69037001 278.95120982 238.69037001 279.40625 241.578125 C278.8329665 246.40693601 276.48999001 249.03010328 273.5 252.75 C272.67894775 253.79909546 272.67894775 253.79909546 271.84130859 254.86938477 C270.74320282 256.26968744 269.63960507 257.66570259 268.53027344 259.05712891 C267.19140172 260.75699188 265.90150582 262.47806518 264.6328125 264.23046875 C263.97023438 265.12378906 263.30765625 266.01710938 262.625 266.9375 C262.06039063 267.70964844 261.49578125 268.48179687 260.9140625 269.27734375 C258.35831418 271.57751724 256.38610757 271.79176344 253 272 C250.625 270.9375 250.625 270.9375 249 269 C248.38898768 265.02841994 248.88770724 262.75724558 251.1875 259.5703125 C252.11039301 258.41010414 253.04839736 257.26177938 254 256.125 C254.47695313 255.53203125 254.95390625 254.9390625 255.4453125 254.328125 C256.6172753 252.87489113 257.80692461 251.43595145 259 250 C257.78344727 250.02094727 256.56689453 250.04189453 255.31347656 250.06347656 C223.42499191 250.56324893 193.75256721 249.34391819 163 240 C162.16629883 239.74911621 161.33259766 239.49823242 160.47363281 239.23974609 C132.98866771 230.77655387 107.50770704 216.76331273 85 199 C84.02546875 198.23945313 83.0509375 197.47890625 82.046875 196.6953125 C72.39020647 188.9869192 62.6349031 180.63696217 54.734375 171.09375 C53.42976906 169.51882031 52.077406 167.98326375 50.703125 166.46875 C14.05688167 125.26883147 -6.80424013 69.82941565 -9 15 C-9.06445312 13.93652344 -9.12890625 12.87304688 -9.1953125 11.77734375 C-9.47294622 4.75321065 -9.47294622 4.75321065 -7.3125 1.3125 C-4.54871092 -0.25613705 -3.1263916 -0.56114721 0 0 Z " fill="#4EABF7" transform="translate(20,240)"/>
<path d="M0 0 C5.17212297 0.90335919 10.24999097 2.09775013 15.33935547 3.38183594 C16.41378906 3.63835937 17.48822266 3.89488281 18.59521484 4.15917969 C19.62324219 4.41570312 20.65126953 4.67222656 21.71044922 4.93652344 C22.63656006 5.16581543 23.5626709 5.39510742 24.5168457 5.63134766 C27.04941547 6.5610022 28.22443485 7.42366854 29.90185547 9.50683594 C30.97431864 12.06424812 31.06261754 13.07401499 30.08935547 15.69433594 C28.90185547 17.50683594 28.90185547 17.50683594 26.90185547 18.50683594 C25.31483746 18.44404026 23.73022536 18.30880468 22.15185547 18.13183594 C21.31138672 18.04160156 20.47091797 17.95136719 19.60498047 17.85839844 C16.68983327 17.4792608 13.79856546 17.00656076 10.90185547 16.50683594 C11.23805908 17.02777832 11.5742627 17.5487207 11.9206543 18.08544922 C37.08660751 57.31033165 53.76823828 101.43707877 54.90185547 148.50683594 C54.92231934 149.2614209 54.9427832 150.01600586 54.96386719 150.79345703 C56.51528069 215.78614351 33.49370935 278.42170892 -11.31689453 325.85546875 C-21.30381771 336.23850787 -31.40375087 346.07607347 -43.09814453 354.50683594 C-44.30419167 355.39572759 -45.50991369 356.28506051 -46.71533203 357.17480469 C-64.29955679 370.04888522 -64.29955679 370.04888522 -70.53564453 371.06933594 C-73.09814453 370.50683594 -73.09814453 370.50683594 -74.97314453 369.38183594 C-76.62605054 366.62699258 -76.4411949 364.6660905 -76.09814453 361.50683594 C-74.33251953 359.67089844 -74.33251953 359.67089844 -71.84814453 358.13183594 C-70.47142578 357.24625 -70.47142578 357.24625 -69.06689453 356.34277344 C-68.08720703 355.73691406 -67.10751953 355.13105469 -66.09814453 354.50683594 C-51.95351755 345.37500259 -39.23603222 335.14980465 -27.09814453 323.50683594 C-26.27443359 322.724375 -25.45072266 321.94191406 -24.60205078 321.13574219 C9.96276742 287.52939381 32.19421986 239.65706574 39.90185547 192.50683594 C40.0775708 191.49266602 40.0775708 191.49266602 40.25683594 190.45800781 C49.77279851 133.50362853 33.83276142 71.40308822 0.51904297 24.71777344 C-0.01462891 23.98816406 -0.54830078 23.25855469 -1.09814453 22.50683594 C-3.29485127 26.47780581 -4.13096796 30.55015439 -5.12158203 34.94824219 C-6.27174348 37.96166519 -7.29741662 38.9601653 -10.09814453 40.50683594 C-13.22314453 40.44433594 -13.22314453 40.44433594 -16.09814453 39.50683594 C-17.70409515 37.21637652 -18.12215511 35.92037485 -17.95922852 33.11425781 C-17.77690674 32.24349609 -17.59458496 31.37273437 -17.40673828 30.47558594 C-17.2054834 29.50621094 -17.00422852 28.53683594 -16.796875 27.53808594 C-15.67417437 22.66755798 -14.46880089 17.83086844 -13.16064453 13.00683594 C-12.90863281 12.03230469 -12.65662109 11.05777344 -12.39697266 10.05371094 C-12.14496094 9.12042969 -11.89294922 8.18714844 -11.63330078 7.22558594 C-11.41037354 6.38962891 -11.18744629 5.55367188 -10.95776367 4.69238281 C-8.64507542 -1.18753346 -5.62621986 -0.75425073 0 0 Z " fill="#4EABF7" transform="translate(446.09814453125,87.4931640625)"/>
<path d="M0 0 C1.41014877 0.00081573 1.41014877 0.00081573 2.8487854 0.00164795 C18.59186964 0.04333911 33.68646183 1.0699757 49.125 4.375 C50.1449707 4.58930664 51.16494141 4.80361328 52.21582031 5.02441406 C71.95393291 9.28993258 90.44222239 15.95456646 108.6875 24.5625 C109.75282959 25.06152832 110.81815918 25.56055664 111.91577148 26.07470703 C121.63578128 30.79157453 121.63578128 30.79157453 125.125 35.375 C125.0625 38.625 125.0625 38.625 124.125 41.375 C121.09654925 42.88922538 118.39998565 42.89620793 115.125 42.375 C111.50806465 40.9987376 108.12150209 39.21476723 104.6875 37.4375 C49.84793848 10.27270518 -13.33123788 4.53072151 -71.80859375 23.5859375 C-100.16743634 33.34466603 -127.31748973 47.40418568 -149.875 67.375 C-150.64972656 68.04144531 -151.42445313 68.70789063 -152.22265625 69.39453125 C-164.67456624 80.30766862 -176.12466168 91.98189174 -185.875 105.375 C-186.26880859 105.91334473 -186.66261719 106.45168945 -187.06835938 107.00634766 C-196.54129861 120.0613908 -204.37321044 133.63621658 -210.875 148.375 C-210.06675781 148.1584375 -209.25851563 147.941875 -208.42578125 147.71875 C-206.82283203 147.30109375 -206.82283203 147.30109375 -205.1875 146.875 C-203.60388672 146.45734375 -203.60388672 146.45734375 -201.98828125 146.03125 C-195.14256166 144.58823759 -195.14256166 144.58823759 -192.0625 146.5 C-190.32301218 149.24655972 -190.47730872 151.19346974 -190.875 154.375 C-193.23946216 157.60017643 -196.02131102 158.21584171 -199.79296875 159.19921875 C-201.55157227 159.65844727 -201.55157227 159.65844727 -203.34570312 160.12695312 C-204.57224609 160.43568359 -205.79878906 160.74441406 -207.0625 161.0625 C-208.26970703 161.38283203 -209.47691406 161.70316406 -210.72070312 162.03320312 C-223.00206462 165.18244235 -223.00206462 165.18244235 -228.875 164.375 C-233.43066053 159.69005627 -234.11377875 152.69134174 -235.625 146.5625 C-235.95371094 145.30373047 -236.28242188 144.04496094 -236.62109375 142.74804688 C-236.92660156 141.52537109 -237.23210937 140.30269531 -237.546875 139.04296875 C-237.8262793 137.93203857 -238.10568359 136.8211084 -238.39355469 135.67651367 C-238.93475351 131.96524001 -238.69693482 129.02694143 -237.875 125.375 C-234.91835481 123.8966774 -232.13270263 124.31467217 -228.875 124.375 C-225.65535469 130.22890057 -223.875 135.64207662 -223.875 142.375 C-223.215 142.375 -222.555 142.375 -221.875 142.375 C-221.6275 141.54871094 -221.38 140.72242188 -221.125 139.87109375 C-219.68764918 135.85100316 -217.87832194 132.1998258 -215.875 128.4375 C-215.47982178 127.69532227 -215.08464355 126.95314453 -214.67749023 126.18847656 C-200.03215896 99.18012864 -178.99789275 74.32349581 -154.875 55.375 C-154.12476563 54.7459375 -153.37453125 54.116875 -152.6015625 53.46875 C-132.93242706 37.08899216 -109.78134849 24.36128242 -85.875 15.375 C-85.07336426 15.07255371 -84.27172852 14.77010742 -83.44580078 14.45849609 C-72.85640371 10.53843301 -62.13575981 7.55471705 -51.125 5.0625 C-50.06152344 4.81999512 -48.99804688 4.57749023 -47.90234375 4.32763672 C-31.96410212 0.88554088 -16.25842083 -0.03561774 0 0 Z " fill="#4EABF7" transform="translate(255.875,0.625)"/>
<path d="M0 0 C13.86 0 27.72 0 42 0 C43.30752808 3.92258424 44.34193996 7.24275399 45.0703125 11.22265625 C45.33134766 12.64868164 45.33134766 12.64868164 45.59765625 14.10351562 C45.85869141 15.56821289 45.85869141 15.56821289 46.125 17.0625 C46.30675781 18.04283203 46.48851562 19.02316406 46.67578125 20.03320312 C46.93294922 21.45729492 46.93294922 21.45729492 47.1953125 22.91015625 C47.35016113 23.76746338 47.50500977 24.62477051 47.66455078 25.50805664 C48.0049612 28.03685515 48.05873954 30.45167353 48 33 C48.68626465 32.99476318 49.3725293 32.98952637 50.07958984 32.98413086 C53.17805064 32.96339044 56.27649686 32.95034924 59.375 32.9375 C60.99535156 32.92493164 60.99535156 32.92493164 62.6484375 32.91210938 C63.6796875 32.90888672 64.7109375 32.90566406 65.7734375 32.90234375 C66.72653809 32.89710693 67.67963867 32.89187012 68.66162109 32.88647461 C71 33 71 33 73 34 C73 40.93 73 47.86 73 55 C70.73130688 56.13434656 69.49500797 56.12795484 66.9765625 56.13371277 C66.13528809 56.13797775 65.29401367 56.14224274 64.42724609 56.14663696 C63.50250488 56.14618378 62.57776367 56.14573059 61.625 56.14526367 C60.65256348 56.14862228 59.68012695 56.1519809 58.67822266 56.15544128 C55.45213558 56.16496863 52.22610028 56.16689518 49 56.16796875 C46.76562478 56.17117969 44.53124977 56.17454364 42.296875 56.17805481 C37.60937004 56.18405027 32.92188353 56.18589424 28.234375 56.18530273 C22.21479523 56.185201 16.1953331 56.19886331 10.17578125 56.21607494 C5.5605413 56.22716784 0.94533005 56.22922279 -3.66992188 56.22869301 C-5.88997809 56.22987684 -8.11003496 56.23432099 -10.33007812 56.24202538 C-13.42847046 56.25177226 -16.5266039 56.24896847 -19.625 56.24291992 C-21.01211182 56.25134918 -21.01211182 56.25134918 -22.42724609 56.25994873 C-23.68915771 56.253657 -23.68915771 56.253657 -24.9765625 56.24723816 C-25.70955566 56.24778293 -26.44254883 56.24832769 -27.19775391 56.24888897 C-29 56 -29 56 -31 54 C-31.25878906 52.06054688 -31.25878906 52.06054688 -31.265625 49.71875 C-31.26820313 48.87699219 -31.27078125 48.03523438 -31.2734375 47.16796875 C-31.26183594 45.84732422 -31.26183594 45.84732422 -31.25 44.5 C-31.25773438 43.61957031 -31.26546875 42.73914063 -31.2734375 41.83203125 C-31.27085937 40.99027344 -31.26828125 40.14851563 -31.265625 39.28125 C-31.26336914 38.50845703 -31.26111328 37.73566406 -31.25878906 36.93945312 C-31 35 -31 35 -29 33 C-26.66162109 32.77294922 -26.66162109 32.77294922 -23.7734375 32.8046875 C-22.2265625 32.81435547 -22.2265625 32.81435547 -20.6484375 32.82421875 C-19.56820312 32.84097656 -18.48796875 32.85773438 -17.375 32.875 C-16.28703125 32.88402344 -15.1990625 32.89304687 -14.078125 32.90234375 C-11.38519848 32.92596591 -8.69270745 32.95890444 -6 33 C-5.814375 31.12634766 -5.814375 31.12634766 -5.625 29.21484375 C-5.00205696 23.61603353 -4.02102679 18.10046051 -3 12.5625 C-2.82210937 11.57056641 -2.64421875 10.57863281 -2.4609375 9.55664062 C-2.28820312 8.61111328 -2.11546875 7.66558594 -1.9375 6.69140625 C-1.78152344 5.83748291 -1.62554687 4.98355957 -1.46484375 4.10375977 C-1 2 -1 2 0 0 Z " fill="#70EAA1" transform="translate(235,373)"/>
<path d="M0 0 C0.79277344 0.01353516 1.58554688 0.02707031 2.40234375 0.04101562 C4.35185564 0.07624777 6.30101626 0.13005179 8.25 0.1875 C7.27594208 1.02886002 6.30188416 1.87022003 5.29830933 2.73707581 C0.516091 8.37793878 1.41531653 15.40909298 1.47705078 22.39428711 C1.46887343 23.94211362 1.45806723 25.48992814 1.44483948 27.03771973 C1.41646168 31.22543786 1.42473581 35.4123677 1.43970728 39.60012507 C1.44910026 43.98175513 1.42462472 48.3631945 1.40377808 52.74476624 C1.3694599 61.03548409 1.36549708 69.32592602 1.37250316 77.61670071 C1.37899889 87.05812136 1.35155857 96.4993486 1.32130075 105.94071186 C1.2598358 125.35634094 1.24208399 144.77178375 1.25 164.1875 C-4.36 164.1875 -9.97 164.1875 -15.75 164.1875 C-15.81943194 143.93399964 -15.87297618 123.68053286 -15.90543652 103.42693806 C-15.92090868 94.0229468 -15.94200488 84.61903083 -15.97631836 75.21508789 C-16.00621001 67.01908591 -16.02557246 58.82313845 -16.03226548 50.62708348 C-16.03617814 46.28689176 -16.04538067 41.94685601 -16.06719017 37.60671425 C-16.08755164 33.52163926 -16.09383451 29.43678451 -16.08932304 25.35166359 C-16.0901484 23.85246077 -16.09611618 22.35325058 -16.10761642 20.85409164 C-16.12255341 18.80649393 -16.11716338 16.75877806 -16.11076355 14.71113586 C-16.11352893 13.56534719 -16.11629431 12.41955851 -16.11914349 11.23904896 C-15.6108696 7.03736934 -13.91942104 4.47107881 -11.109375 1.38671875 C-7.47656186 -0.45976078 -4.00833409 -0.12962274 0 0 Z " fill="#F3EAE6" transform="translate(122.75,176.8125)"/>
<path d="M0 0 C13.86 0 27.72 0 42 0 C43.90129838 5.70389515 45.07059539 11.11095502 46.125 17 C46.30675781 17.97195313 46.48851562 18.94390625 46.67578125 19.9453125 C46.84722656 20.89148438 47.01867187 21.83765625 47.1953125 22.8125 C47.35016113 23.66457031 47.50500977 24.51664062 47.66455078 25.39453125 C48 28 48 28 48 34 C30.18 34 12.36 34 -6 34 C-4.87351054 22.73510541 -4.87351054 22.73510541 -4.0625 18.28125 C-3.88976562 17.32992188 -3.71703125 16.37859375 -3.5390625 15.3984375 C-3.36117187 14.44195312 -3.18328125 13.48546875 -3 12.5 C-2.82210937 11.51257813 -2.64421875 10.52515625 -2.4609375 9.5078125 C-1.1308171 2.2616342 -1.1308171 2.2616342 0 0 Z " fill="#FEC293" transform="translate(235,373)"/>
<path d="M0 0 C2 3 2 3 1.86711121 5.49534607 C0.80875226 8.5524198 -0.19002125 9.32087172 -2.8737793 11.07446289 C-3.6952092 11.62175552 -4.5166391 12.16904816 -5.36296082 12.73292542 C-6.25767593 13.30703659 -7.15239105 13.88114777 -8.07421875 14.47265625 C-8.99080765 15.07758408 -9.90739655 15.6825119 -10.85176086 16.30577087 C-13.7879244 18.23895249 -16.73727026 20.15087032 -19.6875 22.0625 C-21.65650784 23.35343249 -23.62461828 24.64573486 -25.59179688 25.93945312 C-29.21544851 28.3198371 -32.84405997 30.69220479 -36.47924805 33.05493164 C-40.0028337 35.3457656 -43.50949721 37.65910027 -47 40 C-41.00437943 44.54752577 -34.90841419 48.75329094 -28.5 52.6875 C-22.09234243 56.62718499 -15.83313044 60.75279628 -9.625 65 C-8.79806641 65.56420654 -7.97113281 66.12841309 -7.11914062 66.7097168 C-1.25992101 70.74007899 -1.25992101 70.74007899 1 73 C1.25 76 1.25 76 1 79 C-1 81 -1 81 -3.77856445 81.33154297 C-7.59894853 80.93835755 -9.39354779 79.86602567 -12.54296875 77.6953125 C-13.60459229 76.97472656 -14.66621582 76.25414062 -15.76000977 75.51171875 C-16.90264972 74.71635152 -18.04514298 73.92077353 -19.1875 73.125 C-20.3713406 72.31498113 -21.55617179 71.50640827 -22.74194336 70.69921875 C-25.22393453 69.00828631 -27.7014715 67.31108091 -30.17675781 65.61035156 C-33.99747936 62.99277168 -37.84931785 60.42393062 -41.7109375 57.8671875 C-42.33158585 57.45598663 -42.95223419 57.04478577 -43.59169006 56.62112427 C-46.01061232 55.01918662 -48.43012462 53.4181435 -50.85018921 51.81793213 C-52.51750837 50.71421258 -54.18263524 49.6071834 -55.84765625 48.5 C-56.79648682 47.8709375 -57.74531738 47.241875 -58.72290039 46.59375 C-61 45 -61 45 -63 43 C-63.39453125 40.1015625 -63.39453125 40.1015625 -63 37 C-61.26171875 35.0859375 -61.26171875 35.0859375 -58.6875 33.375 C-57.67042969 32.68921875 -56.65335938 32.0034375 -55.60546875 31.296875 C-54.40605662 30.52747881 -53.20408111 29.76206866 -52 29 C-51.35627441 28.59072266 -50.71254883 28.18144531 -50.04931641 27.75976562 C-47.08279983 25.87907424 -44.11294478 24.00468524 -41.12695312 22.1550293 C-35.98847534 18.95545849 -30.96130308 15.6286897 -25.98046875 12.19140625 C-24.76187845 11.35637498 -23.5431282 10.52157706 -22.32421875 9.68701172 C-20.51119117 8.44531076 -18.703145 7.19853164 -16.90722656 5.93218994 C-15.22308632 4.74521309 -13.52553451 3.58013839 -11.82421875 2.41796875 C-10.84541748 1.73500732 -9.86661621 1.0520459 -8.8581543 0.34838867 C-5.35569051 -1.30396526 -3.65108602 -1.19163131 0 0 Z " fill="#52ACF6" transform="translate(213,224)"/>
<path d="M0 0 C3.48240961 0.92342124 5.73262089 2.21019356 8.7019043 4.23999023 C10.29446045 5.31615601 10.29446045 5.31615601 11.91918945 6.4140625 C13.06170493 7.20094516 14.20411788 7.9879767 15.34643555 8.77514648 C16.52978485 9.57952952 17.71387939 10.3828172 18.89868164 11.18505859 C21.3790384 12.86561184 23.85606415 14.55092695 26.33129883 16.23901367 C30.1718564 18.8528409 34.03500785 21.4317659 37.9050293 24.00170898 C38.52804428 24.41552322 39.15105927 24.82933746 39.79295349 25.25569153 C41.62308369 26.47080715 43.4535041 27.68548472 45.28393555 28.90014648 C47.5585726 30.41008173 49.83178851 31.92208564 52.10424805 33.43530273 C53.05831543 34.06960205 54.01238281 34.70390137 54.99536133 35.35742188 C57.15893555 36.83764648 57.15893555 36.83764648 58.15893555 37.83764648 C58.59643555 40.58764648 58.59643555 40.58764648 58.15893555 43.83764648 C53.33978591 48.4212259 47.71208642 51.90272095 42.15893555 55.52905273 C41.2050293 56.15617661 40.25112305 56.78330048 39.26831055 57.4294281 C36.23410458 59.42312345 33.19660604 61.41173479 30.15893555 63.40014648 C28.11704449 64.74029945 26.07537551 66.08079085 24.03393555 67.42163086 C19.47525081 70.41548198 14.91619766 73.40875429 10.34936523 76.39016724 C8.45716676 77.6405694 6.59697557 78.9266769 4.73706055 80.22412109 C1.616639 82.17704401 -0.22296757 82.33102333 -3.84106445 81.83764648 C-5.84106445 79.83764648 -5.84106445 79.83764648 -6.52856445 77.15014648 C-5.58188048 72.58885097 -3.52900909 71.43486281 0.1784668 68.79077148 C4.19118927 66.16120237 8.25603151 63.6231836 12.3425293 61.11010742 C18.71695424 57.17035868 24.95037039 53.03312383 31.15893555 48.83764648 C32.14531006 48.17829102 33.13168457 47.51893555 34.14794922 46.83959961 C35.05907471 46.22020508 35.9702002 45.60081055 36.90893555 44.96264648 C37.7287793 44.40834961 38.54862305 43.85405273 39.39331055 43.28295898 C39.9759668 42.80600586 40.55862305 42.32905273 41.15893555 41.83764648 C41.15893555 41.17764648 41.15893555 40.51764648 41.15893555 39.83764648 C39.72054912 38.60202597 39.72054912 38.60202597 37.79760742 37.41088867 C37.06264038 36.92988708 36.32767334 36.4488855 35.57043457 35.95330811 C34.76432739 35.43560852 33.95822021 34.91790894 33.12768555 34.38452148 C31.89097107 33.5777597 31.89097107 33.5777597 30.62927246 32.75469971 C27.97672814 31.02573435 25.31821176 29.30623615 22.65893555 27.58764648 C20.02918208 25.88192566 17.40078049 24.17418407 14.77429199 22.46343994 C13.1379784 21.3982954 11.49966253 20.33621815 9.85900879 19.277771 C-2.2890067 11.38970424 -2.2890067 11.38970424 -5.84106445 7.83764648 C-6.09106445 4.90014648 -6.09106445 4.90014648 -5.84106445 1.83764648 C-2.84106445 -0.16235352 -2.84106445 -0.16235352 0 0 Z " fill="#52ACF6" transform="translate(303.841064453125,223.162353515625)"/>
<path d="M0 0 C2.375 0.5625 2.375 0.5625 4.25 1.6875 C5.95055102 4.5217517 5.10209304 6.40463985 4.375 9.5625 C3.18261719 12.17358398 3.18261719 12.17358398 1.671875 14.80859375 C1.11048828 15.79867432 0.54910156 16.78875488 -0.02929688 17.80883789 C-0.63837891 18.86192139 -1.24746094 19.91500488 -1.875 21 C-2.50470703 22.10529053 -3.13441406 23.21058105 -3.78320312 24.34936523 C-5.08968565 26.64208513 -6.39961402 28.93284469 -7.71289062 31.22167969 C-9.47406922 34.29879511 -11.21825406 37.3845579 -12.953125 40.4765625 C-18.67807701 50.67829385 -24.48911668 60.82772727 -30.375 70.9375 C-30.98408203 71.98494385 -31.59316406 73.0323877 -32.22070312 74.11157227 C-32.78208984 75.07248779 -33.34347656 76.03340332 -33.921875 77.0234375 C-34.42041992 77.87728027 -34.91896484 78.73112305 -35.43261719 79.61083984 C-36.625 81.5625 -36.625 81.5625 -37.625 82.5625 C-40.5625 82.75 -40.5625 82.75 -43.625 82.5625 C-45.625 80.5625 -45.625 80.5625 -46.0703125 78.0546875 C-45.41687276 72.93034426 -43.041156 69.13136236 -40.5 64.6875 C-39.96375 63.72714844 -39.4275 62.76679688 -38.875 61.77734375 C-34.30979155 53.64622363 -29.59502227 45.5999994 -24.85913086 37.56738281 C-20.24386984 29.71472248 -15.85690419 21.75405249 -11.61914062 13.69140625 C-4.87337469 1.04429458 -4.87337469 1.04429458 0 0 Z " fill="#53ACF6" transform="translate(276.625,222.4375)"/>
<path d="M0 0 C5.28 0 10.56 0 16 0 C14.35106533 11.40513148 12.20000875 22.6902463 10 34 C4.72 34 -0.56 34 -6 34 C-5.36431171 26.74255869 -4.33171322 19.66037106 -3 12.5 C-2.82210937 11.51257813 -2.64421875 10.52515625 -2.4609375 9.5078125 C-1.1308171 2.2616342 -1.1308171 2.2616342 0 0 Z " fill="#FBAD6D" transform="translate(235,373)"/>
<path d="M0 0 C5.61 0 11.22 0 17 0 C17.01417969 1.74667969 17.02835938 3.49335938 17.04296875 5.29296875 C17.08987086 7.59117221 17.13811823 9.88934849 17.1875 12.1875 C17.19330078 13.33798828 17.19910156 14.48847656 17.20507812 15.67382812 C17.28572769 22.39341615 17.28572769 22.39341615 20.36328125 28.17578125 C22.23048125 29.46760703 24.11081525 30.7405435 26 32 C23.12397545 32.10852923 20.25209168 32.1875515 17.375 32.25 C16.56675781 32.28351563 15.75851563 32.31703125 14.92578125 32.3515625 C9.47377581 32.44021299 6.213002 31.81114643 2 28 C0.19746297 24.3860975 -0.24015578 21.49394255 -0.1953125 17.48046875 C-0.18564453 15.9480957 -0.18564453 15.9480957 -0.17578125 14.38476562 C-0.15902344 13.32966797 -0.14226562 12.27457031 -0.125 11.1875 C-0.11597656 10.11306641 -0.10695313 9.03863281 -0.09765625 7.93164062 C-0.07415424 5.28766448 -0.03828517 2.6438034 0 0 Z " fill="#58DC8D" transform="translate(107,342)"/>
<path d="M0 0 C1.57043101 0.01330874 3.14079971 0.03717648 4.7109375 0.0703125 C5.51273438 0.07933594 6.31453125 0.08835937 7.140625 0.09765625 C9.12252273 0.12125027 11.10426731 0.15712185 13.0859375 0.1953125 C12.0959375 1.6803125 12.0959375 1.6803125 11.0859375 3.1953125 C10.89049754 6.06942958 10.80717784 8.82413967 10.8359375 11.6953125 C10.82820313 12.46746094 10.82046875 13.23960937 10.8125 14.03515625 C10.82600597 17.93162718 10.87918581 19.88518497 13.0859375 23.1953125 C10.29401545 23.24911828 7.5031234 23.28888919 4.7109375 23.3203125 C3.916875 23.33707031 3.1228125 23.35382813 2.3046875 23.37109375 C0.23101735 23.38866723 -1.84289491 23.29866418 -3.9140625 23.1953125 C-6.32236042 20.78701458 -6.17008829 20.20247694 -6.1796875 16.9140625 C-6.18226563 16.07230469 -6.18484375 15.23054688 -6.1875 14.36328125 C-6.17589844 13.04263672 -6.17589844 13.04263672 -6.1640625 11.6953125 C-6.17179688 10.81488281 -6.17953125 9.93445313 -6.1875 9.02734375 C-6.18492187 8.18558594 -6.18234375 7.34382813 -6.1796875 6.4765625 C-6.17743164 5.70376953 -6.17517578 4.93097656 -6.17285156 4.13476562 C-5.63406275 0.09689928 -3.78399413 0.18882206 0 0 Z " fill="#58DD8E" transform="translate(209.9140625,405.8046875)"/>
</svg>
