<?xml version="1.0" encoding="UTF-8"?>
<svg version="1.1" xmlns="http://www.w3.org/2000/svg" width="512" height="512">
<path d="M0 0 C0.77408485 -0.00295142 1.54816971 -0.00590285 2.34571168 -0.00894371 C4.9669612 -0.01767841 7.58816682 -0.0192193 10.20942974 -0.02082157 C12.09675203 -0.02554955 13.9840733 -0.03070004 15.87139338 -0.03623921 C21.0791401 -0.05018259 26.28687981 -0.05773939 31.49464047 -0.0642122 C35.95602909 -0.0705723 40.41740613 -0.08064387 44.87878755 -0.09077286 C59.57918032 -0.12413407 74.27958014 -0.14562382 88.97999838 -0.16397271 C92.80559506 -0.16876531 96.63119145 -0.17374891 100.45678782 -0.17877793 C124.19374341 -0.20974382 147.93070131 -0.23644433 171.6676712 -0.25319672 C177.16846312 -0.25713409 182.66925499 -0.26114591 188.17004681 -0.2652216 C188.85346519 -0.26572326 189.53688358 -0.26622493 190.24101161 -0.2667418 C212.40658019 -0.28316542 234.57203848 -0.32162948 256.73755279 -0.3725087 C280.16134718 -0.4261784 303.58505552 -0.45791022 327.00891989 -0.4653936 C339.78198105 -0.47006376 352.55485966 -0.4848978 365.32786274 -0.5251379 C376.20276307 -0.55935593 387.07744795 -0.57341061 397.95239905 -0.56071376 C403.50446266 -0.55486778 409.05607011 -0.55888695 414.60806561 -0.5888834 C419.68668038 -0.6160993 424.76451175 -0.61585848 429.84314283 -0.59337295 C431.6843557 -0.59013095 433.52561967 -0.59712844 435.366747 -0.61517017 C437.86303215 -0.638157 440.35648623 -0.62443331 442.85270691 -0.60127258 C443.57379036 -0.61674882 444.29487381 -0.63222505 445.03780827 -0.64817026 C448.98490145 -0.56688933 450.53185285 0.0672666 453.53776568 2.68612522 C457.55903794 8.33686667 456.74242969 15.11669101 456.08782005 21.67675686 C456.0186614 22.39439616 455.94950274 23.11203547 455.87824836 23.85142142 C455.645357 26.24545792 455.39985452 28.63802599 455.15434551 31.03079891 C454.98263692 32.76846828 454.81170658 34.50621471 454.64148599 36.24403048 C454.17222841 41.01139529 453.69188337 45.77758723 453.20969331 50.54365897 C452.69129436 55.68691392 452.1831591 60.83118409 451.67372417 65.97533321 C450.67439216 76.04957305 449.66551455 86.12283512 448.65333959 96.19579184 C447.4750108 107.92541869 446.30573749 119.65594287 445.13674442 131.38650316 C443.05063609 152.31657537 440.9557092 173.24575572 438.85608196 194.17447567 C436.81857914 214.48397957 434.78816011 234.79417594 432.76526165 255.10513973 C430.56264844 277.22042624 428.35632506 299.33533636 426.14334661 321.4495883 C425.90738108 323.80761647 425.67141636 326.16564472 425.43545246 328.52367306 C425.31934627 329.68387788 425.20324007 330.84408271 425.08361551 332.03944525 C424.26553771 340.21643373 423.45000495 348.39367378 422.6353693 356.57100582 C421.64250088 366.53627834 420.64526334 376.5011025 419.64249989 386.46538436 C419.13094606 391.54955922 418.62127909 396.63390412 418.11675167 401.71878147 C417.65481063 406.37383719 417.18737332 411.02830702 416.71554784 415.68237096 C416.54585173 417.36577054 416.37815433 419.04937305 416.21266296 420.73319119 C415.98723949 423.02367224 415.75448916 425.31329721 415.5199337 427.60285854 C415.39256504 428.87438227 415.26519637 430.145906 415.13396806 431.45596075 C414.16392742 438.34323326 413.36697027 443.61798505 407.61511517 448.1398077 C404.76494122 449.5844183 404.76494122 449.5844183 401.58069134 450.75748348 C400.36929485 451.2115205 399.15789837 451.66555752 397.9097929 452.13335323 C396.57596911 452.61749382 395.24206337 453.10140868 393.90808392 453.5851202 C392.49730752 454.10829747 391.08699972 454.63273979 389.67712688 455.15834713 C386.64667844 456.28517648 383.61323589 457.40336837 380.57712078 458.51483822 C375.75516535 460.28011662 370.94013274 462.06374496 366.12610149 463.85050106 C361.09793377 465.71566141 356.0692263 467.57930973 351.0380125 469.4362402 C339.26909782 473.77998272 327.51483259 478.161337 315.77136517 482.57340145 C314.56750384 483.02562824 314.56750384 483.02562824 313.33932209 483.48699093 C309.36519033 484.98001614 305.39128302 486.47363756 301.41751385 487.96762753 C296.92618388 489.65607791 292.43427729 491.3429878 287.94201946 493.02896786 C287.23112132 493.29585541 286.52022318 493.56274296 285.78778267 493.83771801 C282.32279861 495.13805857 278.85689855 496.43585417 275.38896465 497.72830868 C274.05724583 498.22490948 272.72556511 498.72161249 271.39392376 499.21842098 C270.74576734 499.46023476 270.09761091 499.70204853 269.42981339 499.95118999 C265.54309253 501.40559671 261.66867504 502.88847657 257.80227852 504.39606094 C255.93630741 505.12233743 254.06727549 505.84073417 252.19819927 506.5589819 C249.92808912 507.43183868 247.66269379 508.31711401 245.40349102 509.21782589 C244.38962826 509.60449932 243.3757655 509.99117275 242.33117962 510.38956356 C241.46362545 510.72934734 240.59607128 511.06913113 239.70222759 511.41921139 C228.4597913 514.04343008 218.79105148 509.99811374 208.22546673 506.42008114 C206.37209975 505.80462859 204.5183023 505.19047108 202.66411114 504.57750607 C197.64946379 502.91542702 192.64125121 501.23470542 187.63416672 499.55000114 C182.38583648 497.78712063 177.13229726 496.03989325 171.87945843 494.2905035 C163.06309074 491.3516786 154.25073414 488.40107813 145.44079876 485.44303036 C135.26057847 482.02501208 125.07482662 478.62392562 114.88580823 475.23223186 C105.07346329 471.96565533 95.26456654 468.68884961 85.45739269 465.4067831 C81.2878937 464.01150561 77.11732269 462.61950318 72.94587231 461.23007107 C68.03465016 459.5935835 63.12654814 457.94805536 58.22070026 456.29552937 C56.42141628 455.6909989 54.62111047 455.08949992 52.81971836 454.49128056 C50.35843812 453.6733357 47.90113811 452.8443792 45.4445219 452.0125494 C44.73343092 451.77907102 44.02233994 451.54559265 43.28970075 451.30503917 C36.6684223 449.03775178 31.78593684 446.52835135 28.61511517 440.1398077 C27.97321445 436.84943497 27.97321445 436.84943497 27.59004211 433.02278996 C27.51566889 432.31408611 27.44129566 431.60538226 27.3646687 430.87520254 C27.11798401 428.49537856 26.88900013 426.11418504 26.65986919 423.73261166 C26.48508977 422.01058838 26.30922833 420.28867465 26.13237685 418.56686294 C25.64913624 413.83093172 25.18137886 409.09357877 24.71611273 404.3558526 C24.21176531 399.2476877 23.69318376 394.14096586 23.1763792 389.03404903 C22.16579944 379.02499654 21.16849497 369.0146634 20.17569522 359.00383337 C19.01867118 347.34166207 17.84893595 335.68077645 16.67875489 324.01991926 C14.59037431 303.20445708 12.51414065 282.38780089 10.44446087 261.57047176 C8.43745875 241.38363103 6.42112602 221.19775043 4.39465618 201.01285458 C2.18803308 179.03335441 -0.01398911 157.05340349 -2.20751172 135.07259166 C-2.32365237 133.90877323 -2.43979301 132.74495479 -2.55945307 131.54586913 C-2.79270209 129.20851965 -3.0259412 126.87116917 -3.25917026 124.53381769 C-4.06982446 116.412311 -4.88355797 108.29111621 -5.69835186 100.17002392 C-6.6924196 90.26048167 -7.68092687 80.35040229 -8.66255566 70.43961985 C-9.16318043 65.38633403 -9.66609895 60.3333063 -10.17549229 55.28089619 C-10.64256299 50.64747371 -11.10265766 46.01341122 -11.55739907 41.37876295 C-11.72230404 39.71016388 -11.88965357 38.04180403 -12.05981853 36.37373318 C-12.85717408 28.54428622 -13.54506072 20.71822105 -13.73327827 12.84749317 C-13.76547897 11.67282108 -13.79767967 10.49814899 -13.83085614 9.28788078 C-13.29056984 5.47404627 -12.05456506 3.86031716 -9.38488483 1.1398077 C-6.38170746 -0.36178099 -3.2939037 -0.0041255 0 0 Z " fill="#FDC006" transform="translate(34.38488483428955,-0.13980770111083984)"/>
<path d="M0 0 C0.77408485 -0.00295142 1.54816971 -0.00590285 2.34571168 -0.00894371 C4.9669612 -0.01767841 7.58816682 -0.0192193 10.20942974 -0.02082157 C12.09675203 -0.02554955 13.9840733 -0.03070004 15.87139338 -0.03623921 C21.0791401 -0.05018259 26.28687981 -0.05773939 31.49464047 -0.0642122 C35.95602909 -0.0705723 40.41740613 -0.08064387 44.87878755 -0.09077286 C59.57918032 -0.12413407 74.27958014 -0.14562382 88.97999838 -0.16397271 C92.80559506 -0.16876531 96.63119145 -0.17374891 100.45678782 -0.17877793 C124.19374341 -0.20974382 147.93070131 -0.23644433 171.6676712 -0.25319672 C177.16846312 -0.25713409 182.66925499 -0.26114591 188.17004681 -0.2652216 C188.85346519 -0.26572326 189.53688358 -0.26622493 190.24101161 -0.2667418 C212.40658019 -0.28316542 234.57203848 -0.32162948 256.73755279 -0.3725087 C280.16134718 -0.4261784 303.58505552 -0.45791022 327.00891989 -0.4653936 C339.78198105 -0.47006376 352.55485966 -0.4848978 365.32786274 -0.5251379 C376.20276307 -0.55935593 387.07744795 -0.57341061 397.95239905 -0.56071376 C403.50446266 -0.55486778 409.05607011 -0.55888695 414.60806561 -0.5888834 C419.68668038 -0.6160993 424.76451175 -0.61585848 429.84314283 -0.59337295 C431.6843557 -0.59013095 433.52561967 -0.59712844 435.366747 -0.61517017 C437.86303215 -0.638157 440.35648623 -0.62443331 442.85270691 -0.60127258 C443.57379036 -0.61674882 444.29487381 -0.63222505 445.03780827 -0.64817026 C448.98490145 -0.56688933 450.53185285 0.0672666 453.53776568 2.68612522 C457.55903794 8.33686667 456.74242969 15.11669101 456.08782005 21.67675686 C456.0186614 22.39439616 455.94950274 23.11203547 455.87824836 23.85142142 C455.645357 26.24545792 455.39985452 28.63802599 455.15434551 31.03079891 C454.98263692 32.76846828 454.81170658 34.50621471 454.64148599 36.24403048 C454.17222841 41.01139529 453.69188337 45.77758723 453.20969331 50.54365897 C452.69129436 55.68691392 452.1831591 60.83118409 451.67372417 65.97533321 C450.67439216 76.04957305 449.66551455 86.12283512 448.65333959 96.19579184 C447.4750108 107.92541869 446.30573749 119.65594287 445.13674442 131.38650316 C443.05063609 152.31657537 440.9557092 173.24575572 438.85608196 194.17447567 C436.81857914 214.48397957 434.78816011 234.79417594 432.76526165 255.10513973 C430.56264844 277.22042624 428.35632506 299.33533636 426.14334661 321.4495883 C425.90738108 323.80761647 425.67141636 326.16564472 425.43545246 328.52367306 C425.31934627 329.68387788 425.20324007 330.84408271 425.08361551 332.03944525 C424.26553771 340.21643373 423.45000495 348.39367378 422.6353693 356.57100582 C421.64250088 366.53627834 420.64526334 376.5011025 419.64249989 386.46538436 C419.13094606 391.54955922 418.62127909 396.63390412 418.11675167 401.71878147 C417.65481063 406.37383719 417.18737332 411.02830702 416.71554784 415.68237096 C416.54585173 417.36577054 416.37815433 419.04937305 416.21266296 420.73319119 C415.98723949 423.02367224 415.75448916 425.31329721 415.5199337 427.60285854 C415.39256504 428.87438227 415.26519637 430.145906 415.13396806 431.45596075 C414.16392742 438.34323326 413.36697027 443.61798505 407.61511517 448.1398077 C404.76494122 449.5844183 404.76494122 449.5844183 401.58069134 450.75748348 C400.36929485 451.2115205 399.15789837 451.66555752 397.9097929 452.13335323 C396.57596911 452.61749382 395.24206337 453.10140868 393.90808392 453.5851202 C392.49730752 454.10829747 391.08699972 454.63273979 389.67712688 455.15834713 C386.64667844 456.28517648 383.61323589 457.40336837 380.57712078 458.51483822 C375.75516535 460.28011662 370.94013274 462.06374496 366.12610149 463.85050106 C361.09793377 465.71566141 356.0692263 467.57930973 351.0380125 469.4362402 C339.26909782 473.77998272 327.51483259 478.161337 315.77136517 482.57340145 C314.56750384 483.02562824 314.56750384 483.02562824 313.33932209 483.48699093 C309.36519033 484.98001614 305.39128302 486.47363756 301.41751385 487.96762753 C296.92618388 489.65607791 292.43427729 491.3429878 287.94201946 493.02896786 C287.23112132 493.29585541 286.52022318 493.56274296 285.78778267 493.83771801 C282.32279861 495.13805857 278.85689855 496.43585417 275.38896465 497.72830868 C274.05724583 498.22490948 272.72556511 498.72161249 271.39392376 499.21842098 C270.74576734 499.46023476 270.09761091 499.70204853 269.42981339 499.95118999 C265.54309253 501.40559671 261.66867504 502.88847657 257.80227852 504.39606094 C255.93630741 505.12233743 254.06727549 505.84073417 252.19819927 506.5589819 C249.92808912 507.43183868 247.66269379 508.31711401 245.40349102 509.21782589 C244.38962826 509.60449932 243.3757655 509.99117275 242.33117962 510.38956356 C241.46362545 510.72934734 240.59607128 511.06913113 239.70222759 511.41921139 C228.4597913 514.04343008 218.79105148 509.99811374 208.22546673 506.42008114 C206.37209975 505.80462859 204.5183023 505.19047108 202.66411114 504.57750607 C197.64946379 502.91542702 192.64125121 501.23470542 187.63416672 499.55000114 C182.38583648 497.78712063 177.13229726 496.03989325 171.87945843 494.2905035 C163.06309074 491.3516786 154.25073414 488.40107813 145.44079876 485.44303036 C135.26057847 482.02501208 125.07482662 478.62392562 114.88580823 475.23223186 C105.07346329 471.96565533 95.26456654 468.68884961 85.45739269 465.4067831 C81.2878937 464.01150561 77.11732269 462.61950318 72.94587231 461.23007107 C68.03465016 459.5935835 63.12654814 457.94805536 58.22070026 456.29552937 C56.42141628 455.6909989 54.62111047 455.08949992 52.81971836 454.49128056 C50.35843812 453.6733357 47.90113811 452.8443792 45.4445219 452.0125494 C44.73343092 451.77907102 44.02233994 451.54559265 43.28970075 451.30503917 C36.6684223 449.03775178 31.78593684 446.52835135 28.61511517 440.1398077 C27.97321445 436.84943497 27.97321445 436.84943497 27.59004211 433.02278996 C27.51566889 432.31408611 27.44129566 431.60538226 27.3646687 430.87520254 C27.11798401 428.49537856 26.88900013 426.11418504 26.65986919 423.73261166 C26.48508977 422.01058838 26.30922833 420.28867465 26.13237685 418.56686294 C25.64913624 413.83093172 25.18137886 409.09357877 24.71611273 404.3558526 C24.21176531 399.2476877 23.69318376 394.14096586 23.1763792 389.03404903 C22.16579944 379.02499654 21.16849497 369.0146634 20.17569522 359.00383337 C19.01867118 347.34166207 17.84893595 335.68077645 16.67875489 324.01991926 C14.59037431 303.20445708 12.51414065 282.38780089 10.44446087 261.57047176 C8.43745875 241.38363103 6.42112602 221.19775043 4.39465618 201.01285458 C2.18803308 179.03335441 -0.01398911 157.05340349 -2.20751172 135.07259166 C-2.32365237 133.90877323 -2.43979301 132.74495479 -2.55945307 131.54586913 C-2.79270209 129.20851965 -3.0259412 126.87116917 -3.25917026 124.53381769 C-4.06982446 116.412311 -4.88355797 108.29111621 -5.69835186 100.17002392 C-6.6924196 90.26048167 -7.68092687 80.35040229 -8.66255566 70.43961985 C-9.16318043 65.38633403 -9.66609895 60.3333063 -10.17549229 55.28089619 C-10.64256299 50.64747371 -11.10265766 46.01341122 -11.55739907 41.37876295 C-11.72230404 39.71016388 -11.88965357 38.04180403 -12.05981853 36.37373318 C-12.85717408 28.54428622 -13.54506072 20.71822105 -13.73327827 12.84749317 C-13.76547897 11.67282108 -13.79767967 10.49814899 -13.83085614 9.28788078 C-13.29056984 5.47404627 -12.05456506 3.86031716 -9.38488483 1.1398077 C-6.38170746 -0.36178099 -3.2939037 -0.0041255 0 0 Z M8.61511517 21.1398077 C10.98086554 45.38874907 13.34877595 69.63679094 15.77315998 93.87983608 C16.27484825 98.89770241 16.77586904 103.91563528 17.27687359 108.93356991 C18.19150395 118.09320093 19.10683657 127.25276168 20.02234602 136.41230488 C20.59603921 142.15203371 21.16958933 147.89177684 21.74311733 153.63152218 C23.33850227 169.59751207 24.93406733 185.56348394 26.53031635 201.52938747 C26.63153914 202.54183491 26.73276193 203.55428234 26.83705207 204.59740999 C26.93847193 205.61182688 27.03989179 206.62624376 27.14438498 207.67140055 C27.34979796 209.72597373 27.55521062 211.78054695 27.76062298 213.8351202 C27.86250787 214.85419053 27.96439276 215.87326086 28.06936507 216.92321211 C29.72750597 233.50858632 31.38430383 250.0940944 33.04054089 266.67965883 C34.75039707 283.8019687 36.46137396 300.92416629 38.17346609 318.04625273 C39.1310591 327.62309567 40.08818242 337.19998502 41.0440588 346.77699947 C41.8556173 354.90802974 42.66820509 363.03895634 43.48210789 371.1697523 C43.89628757 375.30766338 44.3100024 379.44561944 44.7223978 383.58370876 C44.83912042 384.75406533 44.83912042 384.75406533 44.95820107 385.94806546 C45.11089844 387.47963942 45.26339564 389.01123335 45.41568016 390.54284841 C45.77027838 394.09964891 46.13084889 397.65560701 46.50705457 401.21019173 C47.09050908 406.75038361 47.65424368 412.26977755 47.95130825 417.83342648 C48.08496516 424.84550025 48.08496516 424.84550025 51.15588856 430.82780552 C53.61465537 432.04878929 55.93111423 432.55355385 58.61511517 433.1398077 C60.44161769 433.77075304 62.26759739 434.40363416 64.0843153 435.0622232 C67.7659397 436.38767168 71.4822634 437.61184932 75.19128704 438.85806942 C76.8628246 439.423163 78.53425421 439.98857595 80.20558453 440.55428219 C85.66276485 442.3993825 91.12312563 444.23496047 96.58386517 446.0694952 C98.46980951 446.70350823 100.35575004 447.33753259 102.24168682 447.97156811 C110.08476454 450.60751925 117.92869674 453.24090175 125.77488232 455.867589 C136.99560888 459.62409208 148.21095288 463.39581211 159.41939211 467.18882644 C167.31757534 469.86025483 175.22143482 472.51440533 183.1297164 475.15578759 C187.84703011 476.73187537 192.56154408 478.31536543 197.2701292 479.91736126 C201.69603991 481.42275177 206.1286056 482.90657691 210.56713963 484.37431431 C212.19147444 484.91553865 213.81327733 485.4644334 215.43219471 486.02165318 C226.90505966 490.16839003 226.90505966 490.16839003 238.61511517 488.1398077 C239.6768243 487.79466625 240.73853344 487.4495248 241.83241558 487.09392452 C242.82104092 486.71791607 243.80966625 486.34190762 244.82824993 485.95450497 C245.97922665 485.52028225 247.13020336 485.08605953 248.31605816 484.63867855 C249.56291066 484.16127238 250.80973066 483.68378134 252.05652142 483.20621395 C253.39415205 482.6991889 254.73200338 482.19274576 256.07005596 481.68683529 C258.94008481 480.60043972 261.80866746 479.51034072 264.67615032 478.417243 C269.22904189 476.68175808 273.78501968 474.95448692 278.34167767 473.22891903 C279.91116982 472.63449195 281.48065831 472.04005522 283.05014324 471.44560909 C283.83680244 471.14767012 284.62346165 470.84973114 285.43395901 470.54276371 C287.85827703 469.62422593 290.28228082 468.70486326 292.70621014 467.78530025 C304.37349773 463.36012906 316.05132584 458.96360751 327.73620892 454.5851202 C328.55444197 454.27850649 329.37267502 453.97189278 330.21570301 453.65598774 C335.06134365 451.84043102 339.90731508 450.02575868 344.75343227 448.21147442 C350.8166425 445.94153009 356.87962365 443.67097577 362.94214344 441.39918804 C364.93695354 440.65189847 366.93201993 439.90529651 368.92711163 439.15875912 C376.83963863 436.19425111 384.73398492 433.1867646 392.61511517 430.1398077 C392.71121326 429.22187939 392.71121326 429.22187939 392.80925274 428.28540707 C393.50640037 421.62803653 394.20486255 414.97080466 394.90393353 408.31363583 C395.1610747 405.86347253 395.41793188 403.4132794 395.67444134 400.96304989 C396.96874052 388.60159213 398.26638718 376.24079741 399.63684368 363.88753414 C403.30992418 330.70878027 406.63279817 297.49611666 409.93910608 264.27931565 C410.51034269 258.54059335 411.08239236 252.80195257 411.65496159 247.06336308 C411.73754497 246.23565549 411.82012836 245.40794791 411.90521428 244.55515828 C412.07311535 242.87236038 412.24101769 241.1895626 412.40892126 239.50676496 C413.96560014 223.90409937 415.51974546 208.30118225 417.07300111 192.69817556 C418.40395294 179.32897385 419.73734203 165.96001693 421.07239056 152.59122372 C422.6326615 136.96711715 424.19131538 121.34285057 425.74747819 105.71833426 C425.91309868 104.05549122 426.0787218 102.39264845 426.24434757 100.72980595 C426.32579594 99.91208175 426.40724431 99.09435755 426.49116081 98.25185383 C427.06385686 92.50328492 427.63772476 86.75483369 428.21206379 81.00642872 C428.90920536 74.02867482 429.60461607 67.05075107 430.29777489 60.07260036 C430.65098928 56.517193 431.00499729 52.96186941 431.36114407 49.40675449 C431.74671613 45.55765497 432.12847587 41.70818288 432.50984478 37.85866451 C432.67982156 36.17081393 432.67982156 36.17081393 432.8532322 34.44886535 C432.95465058 33.41877619 433.05606895 32.38868703 433.16056061 31.32738304 C433.24898312 30.43985043 433.33740564 29.55231782 433.42850763 28.63789028 C433.61474956 26.144702 433.61511517 23.63994247 433.61511517 21.1398077 C293.36511517 21.1398077 153.11511517 21.1398077 8.61511517 21.1398077 Z " fill="#030200" transform="translate(34.38488483428955,-0.13980770111083984)"/>
<path d="M0 0 C1.66934853 -0.01358047 1.66934853 -0.01358047 3.37242126 -0.0274353 C7.04534465 -0.04802236 10.71586438 -0.017938 14.38867188 0.01464844 C16.94405184 0.0150122 19.49943316 0.01300512 22.05480957 0.00872803 C27.40815045 0.00743354 32.76064833 0.02963758 38.11376953 0.07128906 C44.29320295 0.1190641 50.47154662 0.12432228 56.65111399 0.10633874 C62.60781127 0.08983532 68.5641791 0.10193643 74.52085876 0.12706757 C77.05019309 0.13542988 79.57955981 0.13692077 82.10890198 0.13141632 C85.644869 0.12813289 89.1791115 0.15726996 92.71484375 0.1953125 C93.75918076 0.18833344 94.80351776 0.18135437 95.87950134 0.17416382 C100.48372756 0.25503938 103.81739566 0.32984389 107.49133301 3.29144287 C110.16946724 6.21462024 110.79600859 6.96972018 111.06152344 10.87939453 C110.81383809 15.72703524 109.79483122 20.09988563 108.59179688 24.78808594 C108.35712708 25.72075287 108.12245728 26.6534198 107.88067627 27.61434937 C107.38387812 29.57699578 106.88271672 31.53854233 106.37744141 33.49902344 C105.60904417 36.49270298 104.86342893 39.49145888 104.11914062 42.49121094 C103.63223336 44.40301973 103.14399684 46.31449058 102.65429688 48.22558594 C102.43433044 49.11839264 102.21436401 50.01119934 101.98773193 50.93106079 C100.72167846 55.75473729 99.4716154 59.24263671 95.85742188 62.87402344 C92.38478915 64.6103398 88.64549174 64.47592746 84.85742188 63.87402344 C82.10172741 61.69243199 80.42153441 60.0022485 78.85742188 56.87402344 C78.85742188 44.97631124 82.97180281 33.4164997 85.85742188 21.87402344 C58.79742187 21.87402344 31.73742187 21.87402344 3.85742188 21.87402344 C3.85742188 57.18402344 3.85742188 92.49402344 3.85742188 128.87402344 C29.58644451 128.67622607 29.58644451 128.67622607 55.31494141 128.42358398 C60.30249023 128.40100098 60.30249023 128.40100098 62.64083862 128.39680481 C64.26647797 128.38915015 65.89208973 128.37161241 67.51754761 128.34614563 C69.98696843 128.30940578 72.45466219 128.3044975 74.92431641 128.30639648 C75.64282839 128.28840594 76.36134037 128.2704154 77.10162544 128.25187969 C80.93473457 128.29119005 83.35410924 128.8996018 86.30796814 131.24876404 C88.85742188 133.87402344 88.85742188 133.87402344 89.58178711 136.44580078 C89.2293781 146.30492186 87.44661639 155.79824573 85.52471924 165.45831299 C84.47458877 170.73800315 83.46370148 176.02526244 82.44726562 181.31152344 C82.23469116 182.4113858 82.0221167 183.51124817 81.80310059 184.6444397 C79.17159654 198.31933076 76.79515731 212.03921012 74.41726685 225.7600708 C73.25415566 232.46907571 72.07248603 239.17422617 70.85742188 245.87402344 C70.72412476 246.62083374 70.59082764 247.36764404 70.45349121 248.13708496 C70.1012282 250.08095386 69.72631155 252.02067989 69.34960938 253.95996094 C69.1547998 254.97880371 68.95999023 255.99764648 68.75927734 257.04736328 C67.61952423 260.61965931 66.27473211 262.99357899 63.85742188 265.87402344 C61.35958607 267.10975181 59.27497096 267.95144038 56.64648438 268.73339844 C55.93388962 268.96446289 55.22129486 269.19552734 54.48710632 269.43359375 C52.1581121 270.18392608 49.82099727 270.90416885 47.48242188 271.62402344 C45.86353367 272.1379536 44.24529266 272.65392667 42.62768555 273.171875 C40.15076569 273.96408395 37.67330802 274.75411025 35.19297791 275.5355835 C29.80537111 277.23448541 24.45412928 279.0168718 19.11914062 280.87402344 C17.76095078 281.34323165 16.40271617 281.81231029 15.04443359 282.28125 C12.5223807 283.15261162 10.00594345 284.03647498 7.49072266 284.92773438 C1.02835183 287.13448662 -4.30186947 288.61562002 -11.14257812 287.87402344 C-14.14257813 285.43652344 -14.14257813 285.43652344 -16.14257812 282.87402344 C-16.47257812 282.54402344 -16.80257813 282.21402344 -17.14257812 281.87402344 C-17.70619363 276.12514533 -16.78058683 273.32548616 -13.14257812 268.87402344 C-10.078125 267.25244141 -10.078125 267.25244141 -6.36132812 265.99121094 C-5.6728479 265.75159637 -4.98436768 265.51198181 -4.27502441 265.2651062 C-1.90421919 264.44693162 0.47597814 263.66065991 2.85742188 262.87402344 C4.69901491 262.24936374 6.54014193 261.62332889 8.38085938 260.99609375 C14.36327473 258.96730407 20.3595181 256.9814543 26.35742188 254.99902344 C28.45256799 254.30399433 30.54762072 253.60868364 32.64257812 252.91308594 C37.71312328 251.23015858 42.78480027 249.55068097 47.85742188 247.87402344 C48.05936157 246.66069336 48.05936157 246.66069336 48.26538086 245.42285156 C51.49301615 226.11867172 54.93016972 206.85959582 58.54492188 187.62402344 C58.73674042 186.60203857 58.92855896 185.58005371 59.12619019 184.52709961 C59.68487101 181.55392003 60.24528431 178.58107395 60.80664062 175.60839844 C60.96900208 174.74684143 61.13136353 173.88528442 61.29864502 172.99761963 C62.7621681 165.27851161 64.30801555 157.57625208 65.85742188 149.87402344 C64.91639114 149.88290588 63.97536041 149.89178833 63.0058136 149.90093994 C54.13360429 149.98205825 45.26147032 150.04200434 36.38897419 150.08127213 C31.82759955 150.10213894 27.26652449 150.13043985 22.70532227 150.17578125 C18.3027318 150.21927161 13.90042933 150.24316736 9.49764061 150.25353241 C7.81870172 150.26091808 6.13977844 150.27534074 4.4609623 150.29694366 C2.10749999 150.32602099 -0.24477537 150.32997777 -2.59838867 150.328125 C-3.29106842 150.3425061 -3.98374817 150.35688721 -4.69741821 150.3717041 C-8.13445055 150.34246438 -10.05063726 149.93146424 -12.98908997 148.09564209 C-16.62443643 144.34528318 -17.39184376 141.53670052 -17.42346191 136.35295105 C-17.4348822 135.23007187 -17.44630249 134.10719269 -17.45806885 132.95028687 C-17.46030457 131.72266632 -17.46254028 130.49504578 -17.46484375 129.23022461 C-17.47477356 127.9339061 -17.48470337 126.63758759 -17.49493408 125.30198669 C-17.5211369 121.74814988 -17.53406296 118.19438855 -17.5429554 114.64047027 C-17.54882405 112.41853498 -17.55703499 110.19662016 -17.56596375 107.97469521 C-17.59330145 101.01804362 -17.61264082 94.06143903 -17.62036753 87.10473746 C-17.62932715 79.08282921 -17.66441886 71.06160285 -17.72236872 63.03990191 C-17.76564424 56.83337968 -17.78577826 50.62704901 -17.78844976 44.42037755 C-17.79054291 40.71602693 -17.80229193 37.01231781 -17.83808899 33.30812645 C-17.8772681 29.17366739 -17.86845718 25.0406302 -17.85546875 20.90600586 C-17.87389832 19.68445801 -17.89232788 18.46291016 -17.91131592 17.2043457 C-17.8612424 12.11828391 -17.78548114 7.87524929 -14.79443359 3.614151 C-10.52891433 -0.45663597 -5.60293901 -0.09287848 0 0 Z " fill="#010100" transform="translate(294.142578125,106.1259765625)"/>
<path d="M0 0 C1.13984848 -0.0071553 2.27969696 -0.01431061 3.4540863 -0.02168274 C4.71074097 -0.02437164 5.96739563 -0.02706055 7.26213074 -0.02983093 C8.58087692 -0.03640213 9.89962311 -0.04297333 11.2583313 -0.04974365 C14.88239386 -0.06715875 18.50644323 -0.07770678 22.13053727 -0.08594918 C24.39431567 -0.09109825 26.65808996 -0.09717402 28.92186546 -0.10346031 C36.00345835 -0.1225138 43.08504081 -0.13674461 50.16665441 -0.14507228 C58.34350972 -0.15484642 66.52009446 -0.18116964 74.69685441 -0.22157317 C81.01539428 -0.25172425 87.33385654 -0.26654018 93.65246695 -0.26985329 C97.42706181 -0.27220495 101.20136765 -0.28117979 104.97588539 -0.30631447 C108.52756553 -0.32958294 112.07876612 -0.33383376 115.6305027 -0.32355309 C117.55351996 -0.3228211 119.4765128 -0.34192107 121.39942932 -0.36161804 C123.12189125 -0.35120232 123.12189125 -0.35120232 124.87915039 -0.34057617 C125.87485456 -0.34296453 126.87055872 -0.34535288 127.89643574 -0.34781361 C131.44172238 0.29414308 133.07539433 1.644444 135.63005066 4.14717102 C137.46029963 7.14543801 137.8818225 9.37959059 137.89011288 12.87052727 C137.89717847 13.82227486 137.90424406 14.77402246 137.91152376 15.7546109 C137.90910868 16.79720475 137.90669359 17.8397986 137.90420532 18.91398621 C137.909442 20.02389675 137.91467868 21.1338073 137.92007405 22.2773515 C137.93511901 26.009873 137.93578019 29.74225796 137.93644714 33.47480774 C137.94406555 36.1454374 137.95244334 38.81605545 137.96166992 41.48667908 C137.98451931 48.75107561 137.99244026 56.01544292 137.99749637 63.27987051 C138.00075306 67.81543634 138.00727532 72.35099369 138.01449776 76.88655472 C138.03406258 89.44370437 138.05046782 102.00084613 138.05337429 114.55801201 C138.05356186 115.36155241 138.05374943 116.16509282 138.05394268 116.99298293 C138.05430893 118.62195468 138.05467263 120.25092643 138.0550338 121.87989818 C138.05521661 122.68852302 138.05539942 123.49714786 138.05558777 124.33027649 C138.05585859 125.54469351 138.05585859 125.54469351 138.05613489 126.78364421 C138.05967763 139.90645885 138.08670669 153.0291095 138.12408566 166.15186726 C138.16215297 179.62403951 138.18153165 193.09613035 138.1818338 206.56835759 C138.18241868 214.1329073 138.19093044 221.69726132 138.21983147 229.26176071 C138.24432422 235.70205109 138.2516426 242.14207441 138.23658394 248.58239876 C138.22940644 251.86837736 138.23302038 255.15371772 138.25299454 258.43965912 C138.2733336 262.00236652 138.26297297 265.5637 138.24478149 269.12638855 C138.25798146 270.16452096 138.27118143 271.20265337 138.2847814 272.27224433 C138.23123779 276.85182268 138.16029352 280.11912244 135.21662998 283.77346992 C131.30656216 287.36173501 128.93158459 287.5051758 123.77909851 287.44419861 C117.18971993 286.82266876 110.88031258 284.73423446 104.55192566 282.87763977 C103.0114572 282.43543576 101.47070037 281.99423524 99.92967224 281.5539856 C96.71670953 280.6331322 93.50644078 279.70359514 90.29801941 278.76704407 C86.19751333 277.57034079 82.09238415 276.39055807 77.98531723 275.21659374 C74.80967295 274.30780372 71.63587657 273.39270273 68.46266937 272.47544289 C66.94966751 272.03836858 65.43627976 271.60262764 63.92249298 271.16827965 C61.80596564 270.55939953 59.6918776 269.9426911 57.57829285 269.32368469 C55.7782077 268.80073067 55.7782077 268.80073067 53.9417572 268.26721191 C48.26500301 266.34729638 44.26645747 264.82404629 41.45484924 259.27107239 C39.82330725 255.06976273 39.08527103 250.71241067 38.30583191 246.28779602 C38.11409897 245.26160156 37.92236603 244.2354071 37.724823 243.17811584 C37.11851921 239.91991708 36.5299939 236.65881775 35.94255066 233.39717102 C35.34062718 230.12203446 34.73510357 226.84758608 34.12814331 223.57337952 C33.75265305 221.54074452 33.38079409 219.50743464 33.01293945 217.47340393 C32.84573898 216.55524902 32.67853851 215.63709412 32.50627136 214.69111633 C32.36067276 213.88394165 32.21507416 213.07676697 32.06506348 212.24513245 C31.63596785 209.96987469 31.63596785 209.96987469 30.63005066 207.14717102 C29.95809078 200.31557888 29.95809078 200.31557888 31.67692566 197.32685852 C33.45690158 195.15947607 35.10477716 193.40980777 37.63005066 192.14717102 C41.61665118 191.76384405 44.17381027 191.95414624 47.88005066 193.52217102 C53.60196957 198.98400271 54.2467864 208.53498389 55.67301941 216.09248352 C55.84634293 216.98837189 56.01966644 217.88426025 56.19824219 218.80729675 C56.74282517 221.62802056 57.28031237 224.45004017 57.81755066 227.27217102 C58.18882392 229.2019493 58.56056463 231.13163771 58.93278503 233.06123352 C59.83727197 237.75552611 60.73540435 242.45099349 61.63005066 247.14717102 C62.29722107 247.32256409 62.96439148 247.49795715 63.65177917 247.67866516 C76.95530014 251.18784821 90.19636663 254.81877632 103.32951355 258.92475891 C104.21888611 259.20182678 105.10825867 259.47889465 106.02458191 259.76435852 C106.79648865 260.0078302 107.56839539 260.25130188 108.36369324 260.50215149 C110.75225168 261.1819502 113.19486434 261.66013376 115.63005066 262.14717102 C115.63005066 182.61717102 115.63005066 103.08717102 115.63005066 21.14717102 C76.36005066 21.14717102 37.09005066 21.14717102 -3.36994934 21.14717102 C-9.36994934 18.14717102 -9.36994934 18.14717102 -11.36994934 15.14717102 C-12.10959959 10.55445899 -11.97956128 7.12255013 -9.49494934 3.14717102 C-6.22603823 0.07054879 -4.39524299 0.01888548 0 0 Z " fill="#040300" transform="translate(118.36994934082031,106.85282897949219)"/>
<path d="M0 0 C0.8971875 0.309375 0.8971875 0.309375 1.8125 0.625 C-1.1340385 2.42566242 -4.07551935 4.12663895 -7.1875 5.625 C-5.69046729 2.17030914 -4.27938051 -0.73360809 0 0 Z " fill="#3E2F01" transform="translate(29.1875,0.375)"/>
</svg>
