<?xml version="1.0" encoding="UTF-8"?>
<svg version="1.1" xmlns="http://www.w3.org/2000/svg" width="512" height="512">
<path d="M0 0 C168.96 0 337.92 0 512 0 C512 168.96 512 337.92 512 512 C343.04 512 174.08 512 0 512 C0 343.04 0 174.08 0 0 Z " fill="#000000" transform="translate(0,0)"/>
<path d="M0 0 C18.00243057 -0.07012594 36.00482562 -0.12300573 54.00736332 -0.15543652 C62.36652763 -0.1708959 70.72560701 -0.19196764 79.0847168 -0.22631836 C86.37174504 -0.25624918 93.65871176 -0.27558175 100.94579977 -0.28226548 C104.80316278 -0.28617152 108.6603498 -0.29533177 112.51765633 -0.31719017 C116.15131804 -0.33761362 119.78473192 -0.34382205 123.41844559 -0.33932304 C125.38164182 -0.34053666 127.34481131 -0.35664809 129.30793762 -0.3732605 C137.09845521 -0.34601464 142.59970312 -0.30514783 148.40911865 5.34170532 C150.86962351 10.99973371 150.52227459 16.42922367 150.45410156 22.53271484 C150.45297233 23.91289232 150.45360843 25.2930722 150.45587158 26.67324829 C150.45701671 30.40852311 150.43354068 34.1432815 150.40557575 37.87843657 C150.38052816 41.78616926 150.37821746 45.6939145 150.37347412 49.60171509 C150.36105417 56.99648311 150.32824598 64.39101388 150.28807616 71.78567755 C150.24332781 80.20642099 150.22136373 88.6271759 150.20129442 97.04800868 C150.15951236 114.36547623 150.08917954 131.68271301 150 149 C148.40946589 149.0180334 146.81887219 149.03085666 145.22827148 149.04150391 C144.34251938 149.04920807 143.45676727 149.05691223 142.54417419 149.06484985 C127.99303525 148.69394788 114.14650905 139.79238202 104 130 C90.66171861 114.45760738 87.50165561 99.14593631 87.8125 79.3125 C87.82757978 77.62826723 87.84126233 75.94402133 87.85351562 74.25976562 C87.88624753 70.17284759 87.9378456 66.08657211 88 62 C86.36756348 62.0314209 86.36756348 62.0314209 84.70214844 62.06347656 C80.60951236 62.13665517 76.51693231 62.18207844 72.42382812 62.21972656 C70.66266103 62.23966673 68.9015586 62.26682911 67.140625 62.30175781 C48.30111721 62.66570285 33.30001574 58.60848015 19.28125 45.27734375 C18.5284375 44.52582031 17.775625 43.77429688 17 43 C16.3503125 42.36191406 15.700625 41.72382813 15.03125 41.06640625 C6.06450452 31.60806289 1.31087974 19.03782231 0.42578125 6.18359375 C0.34368408 5.0227124 0.26158691 3.86183105 0.17700195 2.66577148 C0.11859131 1.78606689 0.06018066 0.9063623 0 0 Z " fill="#FCFCFC" transform="translate(181,181)"/>
<path d="M0 0 C18.16735607 -0.07007766 36.33467708 -0.12298206 54.50213909 -0.15543652 C62.93758856 -0.17090614 71.37295404 -0.19199746 79.80834961 -0.22631836 C87.16054824 -0.25621783 94.51268606 -0.27557431 101.8649438 -0.28226548 C105.75801262 -0.28617683 109.65090745 -0.29537091 113.54392052 -0.31719017 C117.20876494 -0.33756405 120.87336383 -0.34383203 124.53825951 -0.33932304 C126.52331041 -0.34054089 128.50833463 -0.35667834 130.49331665 -0.3732605 C131.67817154 -0.36913651 132.86302643 -0.36501251 134.08378601 -0.36076355 C135.62548478 -0.36491162 135.62548478 -0.36491162 137.19832897 -0.36914349 C141.68692983 0.22226705 145.12126047 2.54551256 148 6 C149.04877236 9.14631709 149.12323224 11.33544291 149.12025452 14.63774109 C149.12231651 16.3982782 149.12231651 16.3982782 149.12442017 18.19438171 C149.12082489 19.48334854 149.11722961 20.77231537 149.11352539 22.1003418 C149.11324334 23.470225 149.1134016 24.84010834 149.1139679 26.20999146 C149.11425518 29.93078273 149.10836949 33.65154186 149.10139394 37.37232566 C149.09514904 41.26008171 149.0945557 45.14783847 149.09336853 49.03559875 C149.09025858 56.39848557 149.08204969 63.76135756 149.07201904 71.12423784 C149.0608475 79.50624987 149.05534483 87.88826261 149.05032361 96.27028024 C149.03986682 113.51352874 149.02227385 130.7567628 149 148 C147.23040409 148.01205189 145.46078458 148.02067356 143.69116211 148.02783203 C142.70570908 148.03299835 141.72025604 148.03816467 140.7049408 148.04348755 C126.39210415 147.81337893 112.87860653 138.76896389 103.03515625 129.0625 C92.35438432 117.47023987 86.78846237 103.70285951 86.90234375 87.9765625 C86.9037587 87.23038666 86.90517365 86.48421082 86.90663147 85.71542358 C86.91219126 83.35190682 86.92473611 80.98848773 86.9375 78.625 C86.9425202 77.01432429 86.9470822 75.40364709 86.95117188 73.79296875 C86.96214749 69.86194201 86.97938404 65.93098752 87 62 C86.01306152 62.02094727 85.02612305 62.04189453 84.00927734 62.06347656 C80.27814783 62.13696078 76.54707927 62.18218482 72.81542969 62.21972656 C71.21343156 62.23959929 69.61150355 62.2667074 68.00976562 62.30175781 C48.88472078 62.70918358 33.46700976 58.20754471 18.63671875 45.53515625 C8.91362128 36.18657809 0.33779555 22.76892206 -0.09765625 8.88671875 C-0.08605469 7.83097656 -0.07445312 6.77523437 -0.0625 5.6875 C-0.05347656 4.61886719 -0.04445312 3.55023438 -0.03515625 2.44921875 C-0.02355469 1.64097656 -0.01195312 0.83273438 0 0 Z " fill="#FDFDFD" transform="translate(250,113)"/>
<path d="M0 0 C18.15008531 -0.07010117 36.30013546 -0.1229936 54.45032692 -0.15543652 C62.87790072 -0.17090115 71.30539037 -0.19198293 79.73291016 -0.22631836 C87.07889245 -0.2562331 94.42481379 -0.27557794 101.77085531 -0.28226548 C105.66004378 -0.28617424 109.5490579 -0.29535186 113.43819046 -0.31719017 C117.10057571 -0.33758817 120.76271516 -0.34382716 124.42515182 -0.33932304 C126.40643197 -0.34053883 128.38768548 -0.35666363 130.36889648 -0.3732605 C131.55512604 -0.36913651 132.74135559 -0.36501251 133.96353149 -0.36076355 C135.50384757 -0.36491162 135.50384757 -0.36491162 137.07528114 -0.36914349 C141.4771859 0.18644307 144.68595247 1.70692988 147.85245228 4.82287979 C149.33805539 7.64135652 149.36925958 9.65074537 149.36076355 12.83392334 C149.36694954 14.62176491 149.36694954 14.62176491 149.3732605 16.44572449 C149.36247467 17.74979752 149.35168884 19.05387054 149.34057617 20.39746094 C149.33972978 21.78719565 149.34020528 23.17693171 149.34190369 24.56666565 C149.3427646 28.33708726 149.32512351 32.10722269 149.30418181 35.87757778 C149.28543092 39.81870003 149.28366583 43.7598288 149.28010559 47.70098877 C149.27078045 55.16306316 149.24616035 62.62500573 149.21605712 70.08702207 C149.18252769 78.58270241 149.16603077 87.07838905 149.15097082 95.57411909 C149.11961118 113.04948898 149.06684159 130.52473055 149 148 C147.07107907 148.01797624 145.14210993 148.03083088 143.21313477 148.04150391 C142.13894791 148.04920807 141.06476105 148.05691223 139.95802307 148.06484985 C126.10350909 147.76111213 113.38737891 138.37079343 104 129 C103.43539062 128.44699219 102.87078125 127.89398438 102.2890625 127.32421875 C85.05361591 108.94886167 86.43014367 85.26767214 87 62 C85.51173706 62.0314209 85.51173706 62.0314209 83.9934082 62.06347656 C80.24925651 62.13685595 76.50516574 62.18214836 72.76049805 62.21972656 C71.15166474 62.23962238 69.54290158 62.26674929 67.93432617 62.30175781 C47.47490891 62.73530109 31.44394203 56.77854737 16.375 42.75 C6.84499073 32.80084681 1.33334523 20.40402117 0.44091797 6.74731445 C0.35663544 5.48442093 0.27235291 4.2215274 0.18551636 2.92036438 C0.12429596 1.95664413 0.06307556 0.99292389 0 0 Z " fill="#FEFEFE" transform="translate(113,250)"/>
</svg>
