<?xml version="1.0" encoding="UTF-8"?>
<svg version="1.1" xmlns="http://www.w3.org/2000/svg" width="512" height="512">
<path d="M0 0 C7.4084805 5.16903487 12.45783854 11.973289 14.8046875 20.74609375 C15.19032513 24.51368499 15.15574424 28.24336958 15.09765625 32.02734375 C15.09341141 33.08143433 15.08916656 34.1355249 15.08479309 35.22155762 C15.06810155 38.5633378 15.03046659 41.90449815 14.9921875 45.24609375 C14.97712838 47.52212666 14.96344213 49.7981691 14.95117188 52.07421875 C14.91822931 57.63171921 14.86812556 63.18886217 14.8046875 68.74609375 C15.74135254 68.72724121 16.67801758 68.70838867 17.64306641 68.68896484 C18.88491699 68.67430176 20.12676758 68.65963867 21.40625 68.64453125 C23.24437256 68.61625244 23.24437256 68.61625244 25.11962891 68.58740234 C34.39452472 68.98681153 41.97320689 72.64231433 48.8046875 78.74609375 C49.39765625 79.22433594 49.990625 79.70257813 50.6015625 80.1953125 C64.3336639 92.25647235 67.32406576 113.55712651 68.8046875 130.74609375 C69.13535927 136.2639071 69.14620641 141.78274237 69.1171875 147.30859375 C69.11503235 148.05965393 69.1128772 148.81071411 69.11065674 149.58453369 C69.00892549 171.99539921 66.39833958 194.00696648 62.9296875 216.12109375 C62.75442535 217.2620047 62.75442535 217.2620047 62.57562256 218.42596436 C57.83445921 248.9086561 57.83445921 248.9086561 49.8046875 260.74609375 C46.1605101 263.17554535 44.09227478 262.9078895 39.8046875 262.74609375 C39.5365625 263.61234375 39.2684375 264.47859375 38.9921875 265.37109375 C37.83356763 268.66401339 36.42258911 271.6573725 34.8046875 274.74609375 C35.7946875 276.23109375 35.7946875 276.23109375 36.8046875 277.74609375 C37.46756149 283.56695596 36.23752444 286.40222878 32.8046875 291.05859375 C32.19826416 291.8949939 32.19826416 291.8949939 31.57958984 292.74829102 C28.35619414 297.1494901 24.90781834 301.36752047 21.46484375 305.59765625 C16.70598571 311.75617842 15.7400869 317.55048318 15.48828125 325.140625 C15.44638672 326.34267578 15.40449219 327.54472656 15.36132812 328.78320312 C15.32201172 330.02908203 15.28269531 331.27496094 15.2421875 332.55859375 C15.17741211 334.45641602 15.17741211 334.45641602 15.11132812 336.39257812 C15.0054428 339.51031264 14.90336345 342.6281241 14.8046875 345.74609375 C15.7328125 345.82859375 16.6609375 345.91109375 17.6171875 345.99609375 C20.8046875 346.74609375 20.8046875 346.74609375 22.47865295 348.36120605 C24.26733596 351.57817209 24.19273243 353.97939534 24.20874023 357.65429688 C24.21560349 358.34095932 24.22246674 359.02762177 24.22953796 359.73509216 C24.24780338 361.99938778 24.24396958 364.26299045 24.23828125 366.52734375 C24.24284283 368.10388413 24.24814833 369.68042251 24.25416565 371.25695801 C24.26309592 374.55892014 24.26067427 377.8606404 24.25073242 381.16259766 C24.23923575 385.39306806 24.25946452 389.62270463 24.28864956 393.85306549 C24.30699811 397.10790301 24.30672197 400.36254013 24.30101204 403.61741638 C24.30085869 405.17713085 24.30691394 406.73685878 24.31930351 408.29652405 C24.33418938 410.47751161 24.32355714 412.65695138 24.30639648 414.83789062 C24.30623032 416.07825073 24.30606415 417.31861084 24.30589294 418.59655762 C23.8046875 421.74609375 23.8046875 421.74609375 22.37147522 424.14550781 C18.43815704 426.59822867 14.78376965 426.30395595 10.234375 426.26367188 C8.78010101 426.27418579 8.78010101 426.27418579 7.29644775 426.28491211 C4.09056995 426.3025223 0.88557434 426.29085827 -2.3203125 426.27734375 C-4.54703949 426.28003778 -6.77376533 426.28391946 -9.00048828 426.28894043 C-13.66775714 426.29483959 -18.33471984 426.28625879 -23.00195312 426.26757812 C-28.98784758 426.24478867 -34.97302469 426.25790947 -40.95889282 426.28186798 C-45.55710262 426.29631446 -50.15514204 426.29172518 -54.75335693 426.28135681 C-56.96059249 426.27868636 -59.16784347 426.28197043 -61.37506104 426.29127502 C-64.45879151 426.30142137 -67.54135645 426.28596559 -70.625 426.26367188 C-71.53940857 426.2717688 -72.45381714 426.27986572 -73.39593506 426.28820801 C-79.52487246 426.20602116 -79.52487246 426.20602116 -82.79345703 423.96374512 C-84.1953125 421.74609375 -84.1953125 421.74609375 -84.1953125 417.74609375 C-88.8153125 417.74609375 -93.4353125 417.74609375 -98.1953125 417.74609375 C-98.8553125 419.72609375 -99.5153125 421.70609375 -100.1953125 423.74609375 C-102.74947173 426.30025298 -103.69524374 426.00315372 -107.23999023 426.02075195 C-108.29125595 426.03028397 -109.34252167 426.03981598 -110.42564392 426.04963684 C-111.56522049 426.04872543 -112.70479706 426.04781403 -113.87890625 426.046875 C-115.62857445 426.05330269 -115.62857445 426.05330269 -117.41358948 426.05986023 C-119.88419952 426.06561177 -122.35482651 426.06609777 -124.82543945 426.06176758 C-128.61373692 426.05860965 -132.40125242 426.08205061 -136.18945312 426.10742188 C-138.58593651 426.1096949 -140.98242201 426.11039835 -143.37890625 426.109375 C-144.51645859 426.11858475 -145.65401093 426.12779449 -146.82603455 426.13728333 C-148.40766136 426.12794014 -148.40766136 426.12794014 -150.02124023 426.1184082 C-150.9500853 426.11903763 -151.87893036 426.11966705 -152.83592224 426.12031555 C-155.1953125 425.74609375 -155.1953125 425.74609375 -156.9924469 424.65896606 C-158.83519974 421.72850493 -158.59259067 419.20534563 -158.61523438 415.76782227 C-158.62370392 415.06179871 -158.63217346 414.35577515 -158.64089966 413.62835693 C-158.66430508 411.29372155 -158.66529103 408.95974385 -158.6640625 406.625 C-158.67116207 405.00218949 -158.67886076 403.37938149 -158.68713379 401.75657654 C-158.70058676 398.35449243 -158.70214382 394.95264039 -158.69628906 391.55053711 C-158.69039257 387.1909941 -158.72097732 382.83256462 -158.76140594 378.47323704 C-158.78725784 375.1214549 -158.79016269 371.76994175 -158.78651428 368.41807365 C-158.78820796 366.81089415 -158.79787442 365.20370255 -158.81565857 363.59662056 C-158.83780061 361.34824284 -158.82817425 359.10212983 -158.81054688 356.85375977 C-158.81260132 355.57485367 -158.81465576 354.29594757 -158.81677246 352.97828674 C-158.1953125 349.74609375 -158.1953125 349.74609375 -155.84436035 347.30186462 C-153.1953125 345.74609375 -153.1953125 345.74609375 -150.1953125 345.74609375 C-150.23996786 341.38950122 -150.31030813 337.034244 -150.40283203 332.6784668 C-150.43077753 331.2016916 -150.45212122 329.72477418 -150.46630859 328.24780273 C-150.58115611 316.95829204 -151.49602701 306.6592424 -158.8203125 297.49609375 C-159.51511719 296.58214844 -160.20992187 295.66820312 -160.92578125 294.7265625 C-161.67472656 293.74300781 -162.42367187 292.75945312 -163.1953125 291.74609375 C-182.41738964 265.70656568 -193.04622496 231.86876672 -193.5078125 199.49609375 C-193.53681641 198.80257812 -193.56582031 198.1090625 -193.59570312 197.39453125 C-193.63823641 193.97878146 -193.42922569 192.07450167 -191.42578125 189.26171875 C-189.1953125 187.74609375 -189.1953125 187.74609375 -185.1953125 187.74609375 C-185.1953125 184.44609375 -185.1953125 181.14609375 -185.1953125 177.74609375 C-186.1440625 177.47796875 -187.0928125 177.20984375 -188.0703125 176.93359375 C-191.1953125 175.74609375 -191.1953125 175.74609375 -193.1953125 172.74609375 C-193.40102533 169.68764427 -193.48898925 166.71951174 -193.48583984 163.65991211 C-193.49255707 162.72944061 -193.49927429 161.79896912 -193.50619507 160.84030151 C-193.52523427 157.75545952 -193.52910306 154.67083465 -193.53125 151.5859375 C-193.5376767 149.43941661 -193.54440496 147.2928966 -193.55142212 145.14637756 C-193.56341173 140.63963798 -193.5671015 136.13297512 -193.56591797 131.6262207 C-193.56571535 125.86849563 -193.59295143 120.11126729 -193.62746239 114.35365963 C-193.64977726 109.91565218 -193.653754 105.47776307 -193.65269852 101.03970528 C-193.65505011 98.91835388 -193.66384856 96.79699901 -193.67936325 94.67570305 C-193.69910396 91.69613588 -193.69315205 88.71762367 -193.68115234 85.73803711 C-193.69239136 84.87168137 -193.70363037 84.00532562 -193.71520996 83.11271667 C-193.62160308 73.90058554 -190.42723911 66.18424401 -184.12109375 59.5 C-176.26661776 52.34653201 -168.26194248 50.29873037 -157.765625 50.41015625 C-152.75716277 50.881412 -148.63834361 52.4529164 -144.1953125 54.74609375 C-144.1540625 53.77671875 -144.1128125 52.80734375 -144.0703125 51.80859375 C-143.02336527 44.62537249 -137.73682891 38.39907172 -132.15234375 34.03125 C-123.99324339 28.67327791 -115.8301441 27.62651555 -106.1953125 28.74609375 C-102.37373074 29.78306096 -98.79460195 31.10070429 -95.1953125 32.74609375 C-94.66744141 31.87597656 -94.66744141 31.87597656 -94.12890625 30.98828125 C-88.97363938 22.8313838 -82.86482888 16.16008241 -73.1953125 13.74609375 C-64.27701223 12.85152525 -56.04873537 12.85951952 -48.1953125 17.74609375 C-47.88078125 17.15441406 -47.56625 16.56273438 -47.2421875 15.953125 C-41.86922704 6.03256849 -36.35590485 0.5591836 -25.6953125 -3.62890625 C-16.6812275 -5.23856429 -8.075085 -4.61228165 0 0 Z " fill="#FDC69D" transform="translate(318.1953125,86.25390625)"/>
<path d="M0 0 C7.4084805 5.16903487 12.45783854 11.973289 14.8046875 20.74609375 C15.19032513 24.51368499 15.15574424 28.24336958 15.09765625 32.02734375 C15.09341141 33.08143433 15.08916656 34.1355249 15.08479309 35.22155762 C15.06810155 38.5633378 15.03046659 41.90449815 14.9921875 45.24609375 C14.97712838 47.52212666 14.96344213 49.7981691 14.95117188 52.07421875 C14.91822931 57.63171921 14.86812556 63.18886217 14.8046875 68.74609375 C15.74135254 68.72724121 16.67801758 68.70838867 17.64306641 68.68896484 C18.88491699 68.67430176 20.12676758 68.65963867 21.40625 68.64453125 C23.24437256 68.61625244 23.24437256 68.61625244 25.11962891 68.58740234 C34.39452472 68.98681153 41.97320689 72.64231433 48.8046875 78.74609375 C49.39765625 79.22433594 49.990625 79.70257813 50.6015625 80.1953125 C64.3336639 92.25647235 67.32406576 113.55712651 68.8046875 130.74609375 C69.13535927 136.2639071 69.14620641 141.78274237 69.1171875 147.30859375 C69.11503235 148.05965393 69.1128772 148.81071411 69.11065674 149.58453369 C69.00892549 171.99539921 66.39833958 194.00696648 62.9296875 216.12109375 C62.75442535 217.2620047 62.75442535 217.2620047 62.57562256 218.42596436 C57.83445921 248.9086561 57.83445921 248.9086561 49.8046875 260.74609375 C46.27895943 263.09657913 44.95455105 263.41007192 40.8046875 262.74609375 C37.8671875 260.12109375 37.8671875 260.12109375 35.8046875 256.74609375 C36.14676501 252.39340073 37.48099646 248.79711134 39.171875 244.80078125 C42.00360799 237.61660747 43.55320709 230.45200114 44.9296875 222.87109375 C45.18425568 221.50988474 45.43906058 220.14871999 45.6940918 218.78759766 C47.84101241 207.17106239 49.62310707 195.50222231 50.8046875 183.74609375 C50.8982251 182.82997314 50.9917627 181.91385254 51.08813477 180.9699707 C51.95112725 171.34655581 52.05966644 161.72074547 52.09985352 152.06518555 C52.11133457 150.15658125 52.13172446 148.24800808 52.16137695 146.33959961 C52.43600404 128.55634514 52.24645995 106.79095989 39.921875 92.57421875 C33.16697907 86.16369006 25.93138799 84.28817081 16.8659668 84.35791016 C16.01130325 84.3526532 15.15663971 84.34739624 14.27607727 84.34197998 C11.47682945 84.3288728 8.67815891 84.33748094 5.87890625 84.34765625 C3.92454418 84.34563378 1.97018286 84.3427209 0.01582336 84.33895874 C-4.06675448 84.33454879 -8.14913467 84.34092708 -12.23168945 84.35498047 C-17.4686483 84.3721284 -22.70514777 84.36218738 -27.94209003 84.34426308 C-31.97148623 84.3334377 -36.0007729 84.33686486 -40.03017235 84.34464645 C-41.96191652 84.34664897 -43.89367061 84.34418738 -45.82540321 84.33720779 C-48.51839331 84.3296076 -51.21063061 84.3411746 -53.90356445 84.35791016 C-54.70307526 84.35183746 -55.50258606 84.34576477 -56.32632446 84.33950806 C-60.49125448 84.36192354 -60.49125448 84.36192354 -64.18229675 86.08676147 C-65.94917952 88.98093722 -65.78187714 91.53690838 -65.1953125 94.74609375 C-62.80522944 102.90114566 -59.53897651 109.18489067 -52.1953125 113.74609375 C-46.06054321 116.77304304 -39.85180471 118.02979292 -33.1640625 119.33984375 C-32.01417847 119.57264038 -30.86429443 119.80543701 -29.67956543 120.04528809 C-26.01955142 120.78608356 -22.35772832 121.51727156 -18.6953125 122.24609375 C-13.87060875 123.2062117 -9.04805095 124.17622248 -4.2265625 125.15234375 C-3.12534058 125.3680603 -2.02411865 125.58377686 -0.88952637 125.80603027 C13.4480676 128.7111639 13.4480676 128.7111639 16.8046875 133.74609375 C16.54199716 141.75814908 14.10118848 149.11411304 11.8046875 156.74609375 C11.54429687 157.74125 11.28390625 158.73640625 11.015625 159.76171875 C10.78101563 160.6434375 10.54640625 161.52515625 10.3046875 162.43359375 C10.10875 163.20058594 9.9128125 163.96757812 9.7109375 164.7578125 C7.77002932 169.01609812 3.8619609 170.25463634 -0.32006836 171.83642578 C-0.95952393 172.07474121 -1.59897949 172.31305664 -2.2578125 172.55859375 C-30.99115612 183.77818155 -50.32778556 204.13486737 -64.47851562 231.11889648 C-64.91873047 231.94848877 -65.35894531 232.77808105 -65.8125 233.6328125 C-66.20034668 234.37748779 -66.58819336 235.12216309 -66.98779297 235.8894043 C-68.1953125 237.74609375 -68.1953125 237.74609375 -71.1953125 239.74609375 C-73.5703125 240.18359375 -73.5703125 240.18359375 -76.1953125 239.74609375 C-79.0703125 237.68359375 -79.0703125 237.68359375 -81.1953125 234.74609375 C-80.94294466 229.15307668 -79.16588511 224.92283171 -76.6328125 220.05859375 C-76.27276123 219.35871338 -75.91270996 218.65883301 -75.54174805 217.93774414 C-66.87756181 201.40458039 -55.20048298 186.89544643 -40.1953125 175.74609375 C-39.38320313 175.12734375 -38.57109375 174.50859375 -37.734375 173.87109375 C-35.89902795 172.48009388 -34.05470271 171.10467399 -32.1953125 169.74609375 C-35.28859145 166.76933916 -35.28859145 166.76933916 -39.1953125 165.74609375 C-39.9790625 166.77734375 -40.7628125 167.80859375 -41.5703125 168.87109375 C-46.64481377 174.86046905 -53.34566914 178.47269209 -61.1796875 179.29296875 C-69.46133212 179.7534956 -76.27021582 178.53937291 -83.1953125 173.74609375 C-83.77667969 173.36195313 -84.35804688 172.9778125 -84.95703125 172.58203125 C-89.11864933 169.50012769 -91.90748613 165.33186962 -94.1953125 160.74609375 C-94.1953125 160.08609375 -94.1953125 159.42609375 -94.1953125 158.74609375 C-94.78699219 159.02324219 -95.37867188 159.30039063 -95.98828125 159.5859375 C-96.77847656 159.94816406 -97.56867188 160.31039062 -98.3828125 160.68359375 C-99.16011719 161.04324219 -99.93742187 161.40289062 -100.73828125 161.7734375 C-108.23986844 164.74306422 -116.80352063 164.92056026 -124.3828125 162.18359375 C-131.88242963 158.81471812 -137.20930108 153.13442089 -142.1953125 146.74609375 C-142.87078125 147.09542969 -143.54625 147.44476563 -144.2421875 147.8046875 C-145.13421875 148.25972656 -146.02625 148.71476563 -146.9453125 149.18359375 C-147.82703125 149.63605469 -148.70875 150.08851563 -149.6171875 150.5546875 C-153.74466492 152.46208237 -157.27992785 152.94478464 -161.8203125 153.05859375 C-163.26277344 153.11466797 -163.26277344 153.11466797 -164.734375 153.171875 C-169.58824423 152.57472856 -173.74282832 150.70547469 -178.1953125 148.74609375 C-178.17436523 149.45217773 -178.15341797 150.15826172 -178.13183594 150.88574219 C-178.04861952 154.08904751 -177.99663465 157.29212538 -177.9453125 160.49609375 C-177.91179687 161.60726562 -177.87828125 162.7184375 -177.84375 163.86328125 C-177.83085937 164.93320313 -177.81796875 166.003125 -177.8046875 167.10546875 C-177.78374023 168.08999023 -177.76279297 169.07451172 -177.74121094 170.08886719 C-178.32196909 173.48723908 -179.5424801 174.61920151 -182.1953125 176.74609375 C-184.6328125 177.68359375 -184.6328125 177.68359375 -187.1953125 177.74609375 C-191.79232743 175.5520639 -191.79232743 175.5520639 -193.1953125 172.74609375 C-193.30975178 169.74791509 -193.36319345 166.77245262 -193.37231445 163.7734375 C-193.37888565 162.84311203 -193.38545685 161.91278656 -193.39222717 160.95426941 C-193.41199445 157.86404341 -193.42363369 154.77386621 -193.43359375 151.68359375 C-193.43766928 150.62775085 -193.4417448 149.57190796 -193.44594383 148.48406982 C-193.46682449 142.88993525 -193.48111455 137.29582531 -193.49047852 131.70166016 C-193.50151494 125.93608872 -193.5358773 120.17090621 -193.57565022 114.4054718 C-193.60186847 109.96318877 -193.61017525 105.52099738 -193.61375999 101.0786438 C-193.61861666 98.95449208 -193.63020426 96.8303442 -193.64879799 94.70626831 C-193.67328779 91.72184056 -193.67220573 88.73840485 -193.6652832 85.75390625 C-193.67809326 84.88597946 -193.69090332 84.01805267 -193.70410156 83.12382507 C-193.6266919 73.90410431 -190.43182502 66.18910488 -184.12109375 59.5 C-176.26661776 52.34653201 -168.26194248 50.29873037 -157.765625 50.41015625 C-152.75716277 50.881412 -148.63834361 52.4529164 -144.1953125 54.74609375 C-144.1540625 53.77671875 -144.1128125 52.80734375 -144.0703125 51.80859375 C-143.02336527 44.62537249 -137.73682891 38.39907172 -132.15234375 34.03125 C-123.99324339 28.67327791 -115.8301441 27.62651555 -106.1953125 28.74609375 C-102.37373074 29.78306096 -98.79460195 31.10070429 -95.1953125 32.74609375 C-94.66744141 31.87597656 -94.66744141 31.87597656 -94.12890625 30.98828125 C-88.97363938 22.8313838 -82.86482888 16.16008241 -73.1953125 13.74609375 C-64.27701223 12.85152525 -56.04873537 12.85951952 -48.1953125 17.74609375 C-47.88078125 17.15441406 -47.56625 16.56273438 -47.2421875 15.953125 C-41.86922704 6.03256849 -36.35590485 0.5591836 -25.6953125 -3.62890625 C-16.6812275 -5.23856429 -8.075085 -4.61228165 0 0 Z " fill="#030201" transform="translate(318.1953125,86.25390625)"/>
<path d="M0 0 C2.58984375 1.328125 2.58984375 1.328125 5 4 C6.01086297 7.70221259 6.2988923 11.43436393 6.625 15.25 C6.85312676 17.42616634 7.08490662 19.60195279 7.3203125 21.77734375 C7.43149414 22.84065918 7.54267578 23.90397461 7.65722656 24.99951172 C10.77901077 52.32624097 20.68782761 76.99878897 37 99 C50.70494985 118.16939681 49 133.78608327 49 159 C93.22 159 137.44 159 183 159 C183 148.11 183 137.22 183 126 C186.37335137 114.75549543 186.37335137 114.75549543 189.5625 110.6875 C190.61050781 109.32625 190.61050781 109.32625 191.6796875 107.9375 C192.44539062 106.968125 193.21109375 105.99875 194 105 C194.85902031 103.8767167 195.71571911 102.75165496 196.5703125 101.625 C199.02418252 98.39847226 201.49314388 95.18571112 204 92 C204.4117749 91.4330542 204.8235498 90.8661084 205.24780273 90.28198242 C208.39848883 86.11912087 208.39848883 86.11912087 211.38671875 85.52734375 C212.14597656 85.66269531 212.90523437 85.79804688 213.6875 85.9375 C214.45449219 86.04964844 215.22148437 86.16179687 216.01171875 86.27734375 C218 87 218 87 220 90 C220.66287399 95.82086221 219.43283694 98.65613503 216 103.3125 C215.59571777 103.8701001 215.19143555 104.4277002 214.77490234 105.00219727 C211.55150664 109.40339635 208.10313084 113.62142672 204.66015625 117.8515625 C199.90129821 124.01008467 198.9353994 129.80438943 198.68359375 137.39453125 C198.64169922 138.59658203 198.59980469 139.79863281 198.55664062 141.03710938 C198.51732422 142.28298828 198.47800781 143.52886719 198.4375 144.8125 C198.39431641 146.07771484 198.35113281 147.34292969 198.30664062 148.64648438 C198.2007553 151.76421889 198.09867595 154.88203035 198 158 C198.928125 158.0825 199.85625 158.165 200.8125 158.25 C204 159 204 159 205.67396545 160.6151123 C207.46264846 163.83207834 207.38804493 166.23330159 207.40405273 169.90820312 C207.41091599 170.59486557 207.41777924 171.28152802 207.42485046 171.98899841 C207.44311588 174.25329403 207.43928208 176.5168967 207.43359375 178.78125 C207.43815533 180.35779038 207.44346083 181.93432876 207.44947815 183.51086426 C207.45840842 186.81282639 207.45598677 190.11454665 207.44604492 193.41650391 C207.43454825 197.64697431 207.45477702 201.87661088 207.48396206 206.10697174 C207.50231061 209.36180926 207.50203447 212.61644638 207.49632454 215.87132263 C207.49617119 217.4310371 207.50222644 218.99076503 207.51461601 220.5504303 C207.52950188 222.73141786 207.51886964 224.91085763 207.50170898 227.09179688 C207.50154282 228.33215698 207.50137665 229.57251709 207.50120544 230.85046387 C207 234 207 234 205.56678772 236.39941406 C201.63346954 238.85213492 197.97908215 238.5578622 193.4296875 238.51757812 C192.46017151 238.5245874 191.49065552 238.53159668 190.49176025 238.53881836 C187.28588245 238.55642855 184.08088684 238.54476452 180.875 238.53125 C178.64827301 238.53394403 176.42154717 238.53782571 174.19482422 238.54284668 C169.52755536 238.54874584 164.86059266 238.54016504 160.19335938 238.52148438 C154.20746492 238.49869492 148.22228781 238.51181572 142.23641968 238.53577423 C137.63820988 238.55022071 133.04017046 238.54563143 128.44195557 238.53526306 C126.23472001 238.53259261 124.02746903 238.53587668 121.82025146 238.54518127 C118.73652099 238.55532762 115.65395605 238.53987184 112.5703125 238.51757812 C111.65590393 238.52567505 110.74149536 238.53377197 109.79937744 238.54211426 C103.67044004 238.45992741 103.67044004 238.45992741 100.40185547 236.21765137 C99 234 99 234 99 230 C94.38 230 89.76 230 85 230 C84.01 232.97 84.01 232.97 83 236 C80.44584077 238.55415923 79.50006876 238.25705997 75.95532227 238.2746582 C74.90405655 238.28419022 73.85279083 238.29372223 72.76966858 238.30354309 C71.63009201 238.30263168 70.49051544 238.30172028 69.31640625 238.30078125 C68.14996078 238.30506638 66.98351532 238.3093515 65.78172302 238.31376648 C63.31111298 238.31951802 60.84048599 238.32000402 58.36987305 238.31567383 C54.58157558 238.3125159 50.79406008 238.33595686 47.00585938 238.36132812 C44.60937599 238.36360115 42.21289049 238.3643046 39.81640625 238.36328125 C38.67885391 238.372491 37.54130157 238.38170074 36.36927795 238.39118958 C35.31486008 238.38496078 34.2604422 238.37873199 33.17407227 238.37231445 C32.2452272 238.37294388 31.31638214 238.3735733 30.35939026 238.3742218 C28 238 28 238 26.2028656 236.91287231 C24.36011276 233.98241118 24.60272183 231.45925188 24.58007812 228.02172852 C24.56737381 226.96269318 24.56737381 226.96269318 24.55441284 225.88226318 C24.53100742 223.5476278 24.53002147 221.2136501 24.53125 218.87890625 C24.52415043 217.25609574 24.51645174 215.63328774 24.50817871 214.01048279 C24.49472574 210.60839868 24.49316868 207.20654664 24.49902344 203.80444336 C24.50491993 199.44490035 24.47433518 195.08647087 24.43390656 190.72714329 C24.40805466 187.37536115 24.40514981 184.023848 24.40879822 180.6719799 C24.40710454 179.0648004 24.39743808 177.4576088 24.37965393 175.85052681 C24.35751189 173.60214909 24.36713825 171.35603608 24.38476562 169.10766602 C24.38271118 167.82875992 24.38065674 166.54985382 24.37854004 165.23219299 C25 162 25 162 27.35095215 159.55577087 C30 158 30 158 33 158 C32.95534464 153.64340747 32.88500437 149.28815025 32.79248047 144.93237305 C32.76453497 143.45559785 32.74319128 141.97868043 32.72900391 140.50170898 C32.61415639 129.21219829 31.69928549 118.91314865 24.375 109.75 C23.33279297 108.37908203 23.33279297 108.37908203 22.26953125 106.98046875 C21.52058594 105.99691406 20.77164063 105.01335937 20 104 C0.77792286 77.96047193 -9.85091246 44.12267297 -10.3125 11.75 C-10.34150391 11.05648438 -10.37050781 10.36296875 -10.40039062 9.6484375 C-10.443384 6.19573868 -10.25874436 4.3457265 -8.1640625 1.546875 C-5.1984117 -0.57297647 -3.57461424 -0.58361049 0 0 Z " fill="#020201" transform="translate(135,274)"/>
<path d="M0 0 C49.83 0 99.66 0 151 0 C151 16.17 151 32.34 151 49 C141.64914062 49.03867187 141.64914062 49.03867187 132.109375 49.078125 C128.16271911 49.10328819 124.21614025 49.12961695 120.26953125 49.16015625 C114.00374037 49.20853025 107.73812777 49.25255998 101.47216797 49.27099609 C96.42100213 49.28612774 91.37030225 49.32051105 86.31934357 49.36830902 C84.39125872 49.38315891 82.46310736 49.39104308 80.53496552 49.39188385 C77.83628013 49.39424443 75.13889202 49.42124988 72.44042969 49.45410156 C71.64129654 49.4490712 70.84216339 49.44404083 70.01881409 49.43885803 C66.43463476 49.50647021 64.41111718 49.68159719 61.53497314 51.90911865 C59.97278898 53.91375103 59.97278898 53.91375103 59 56 C56.56065775 56.13501894 54.12875896 56.23403897 51.6875 56.3125 C50.99720703 56.35439453 50.30691406 56.39628906 49.59570312 56.43945312 C47.57421875 56.48828125 47.57421875 56.48828125 44 56 C42.14453125 53.54296875 42.14453125 53.54296875 41 51 C37.67246006 49.33623003 33.93627443 49.75614098 30.2734375 49.68359375 C29.50878174 49.66494263 28.74412598 49.6462915 27.95629883 49.6270752 C25.09598503 49.55870285 22.23547835 49.49860181 19.375 49.4375 C12.98125 49.293125 6.5875 49.14875 0 49 C0 32.83 0 16.66 0 0 Z " fill="#E5E1E5" transform="translate(175,448)"/>
<path d="M0 0 C5.77464265 2.6044599 9.56835812 6.31175463 11.92578125 12.265625 C12.13078344 14.82770173 12.22978492 17.28240634 12.23217773 19.84472656 C12.24050125 20.6029924 12.24882477 21.36125824 12.25740051 22.14250183 C12.28147731 24.64713698 12.29027073 27.15151142 12.296875 29.65625 C12.30584477 31.40256832 12.31496668 33.14888587 12.32423401 34.89520264 C12.34072142 38.55694443 12.34842337 42.21859484 12.35131836 45.88037109 C12.3566947 50.55890423 12.39434434 55.23657089 12.44006252 59.91485977 C12.46989787 63.52326543 12.47704335 67.13146435 12.47804451 70.7399826 C12.4822358 72.46388457 12.49462614 74.18778776 12.51556206 75.91156769 C12.70179669 92.57508287 12.70179669 92.57508287 6.92578125 99.265625 C3.49088024 102.55654813 -0.35247658 104.5406996 -5.13671875 104.828125 C-10.88697897 104.00665925 -14.32053088 102.1141068 -18.38671875 97.828125 C-21.67795484 92.83032204 -22.3749964 88.57222931 -22.38061523 82.66479492 C-22.38893875 81.91613663 -22.39726227 81.16747833 -22.40583801 80.39613342 C-22.42986658 77.92940008 -22.43870157 75.46293159 -22.4453125 72.99609375 C-22.45428474 71.27362492 -22.46340669 69.55115686 -22.47267151 67.82868958 C-22.48914498 64.22000234 -22.49685854 60.61140769 -22.49975586 57.00268555 C-22.50513595 52.39255746 -22.54280708 47.78330712 -22.58850002 43.17342663 C-22.61833472 39.61563488 -22.62548081 36.0580528 -22.62648201 32.50014687 C-22.63067212 30.80136409 -22.64305765 29.10257999 -22.66399956 27.40392113 C-22.85028898 10.98594956 -22.85028898 10.98594956 -17.07421875 4.265625 C-12.12295014 -0.39439252 -6.63333784 -2.34852639 0 0 Z " fill="#EFAD81" transform="translate(210.07421875,130.734375)"/>
<path d="M0 0 C4.14327184 2.25631664 6.69711307 5.08172615 8.8125 9.3125 C8.91751656 10.85315363 8.9611984 12.39820424 8.97363281 13.94238281 C8.98324036 14.90388245 8.9928479 15.86538208 9.00274658 16.85601807 C9.00699646 17.89868835 9.01124634 18.94135864 9.015625 20.015625 C9.02132507 21.08617126 9.02702515 22.15671753 9.03289795 23.25970459 C9.04235763 25.52940886 9.04888576 27.79912693 9.05273438 30.06884766 C9.06242152 33.53442546 9.09342875 36.9994057 9.125 40.46484375 C9.1315318 42.66926731 9.13678158 44.87369511 9.140625 47.078125 C9.1529718 48.11269836 9.1653186 49.14727173 9.17803955 50.2131958 C9.16124488 55.66447559 8.94373292 59.63345236 5.8125 64.3125 C0.81310309 68.92732792 -3.19366279 70.79510683 -9.94140625 70.62890625 C-14.61210321 69.9709472 -17.35115073 67.21854504 -20.4375 63.875 C-24.3862633 58.09288231 -24.51943936 53.0768259 -24.55859375 46.26171875 C-24.56762222 45.28894485 -24.5766507 44.31617096 -24.58595276 43.31391907 C-24.60043573 41.25887113 -24.60933713 39.20377728 -24.61303711 37.14868164 C-24.62492079 34.02084763 -24.67411551 30.89499544 -24.72460938 27.76757812 C-24.73407599 25.76563457 -24.74130988 23.76367897 -24.74609375 21.76171875 C-24.76562607 20.83437424 -24.78515839 19.90702972 -24.80528259 18.95158386 C-24.76101335 12.5112706 -23.29102768 8.31115798 -19.1875 3.3125 C-13.39550944 -2.06577695 -7.32356408 -3.38851472 0 0 Z " fill="#EDAB7E" transform="translate(164.1875,153.6875)"/>
<path d="M0 0 C4.90869699 2.39527227 7.74448496 6.45990089 9.91015625 11.37109375 C10.54199015 14.93508935 10.49723621 18.38574786 10.3984375 21.99609375 C10.39136276 22.98359619 10.38428802 23.97109863 10.3769989 24.98852539 C10.34919581 28.11684605 10.28648342 31.24332173 10.22265625 34.37109375 C10.1975552 36.50257817 10.17474521 38.63409087 10.15429688 40.765625 C10.10368315 45.96871607 10.00580392 51.16786053 9.91015625 56.37109375 C-0.97984375 56.37109375 -11.86984375 56.37109375 -23.08984375 56.37109375 C-23.18179879 49.92913248 -23.26140151 43.48945855 -23.30957031 37.04736328 C-23.32965482 34.85718051 -23.35692792 32.66705116 -23.39160156 30.47705078 C-23.44025784 27.32440999 -23.46284453 24.17247971 -23.48046875 21.01953125 C-23.50111389 20.04430511 -23.52175903 19.06907898 -23.54302979 18.06430054 C-23.54548321 10.5892899 -21.51342279 7.09023121 -16.52734375 1.49609375 C-11.8269324 -2.19026946 -5.47421775 -1.64738142 0 0 Z " fill="#EEAB7E" transform="translate(308.08984375,98.62890625)"/>
<path d="M0 0 C1.46407221 2.87224073 2.64971516 5.71939088 3.75 8.75 C8.66608817 21.05829428 18.01014963 28.84628101 30 34 C31.485 34.495 31.485 34.495 33 35 C33.08156437 37.85475306 33.14076372 40.70713565 33.1875 43.5625 C33.21263672 44.36236328 33.23777344 45.16222656 33.26367188 45.98632812 C33.34758424 52.83917126 32.16717591 57.49941241 27.5625 62.8125 C22.94503133 66.75424155 19.51976321 67.45842927 13.53515625 67.30859375 C9.37002877 66.80159056 7.33661171 65.60255713 4 63 C-0.83823192 56.66165501 -0.52549856 50.83278772 -0.390625 43.06640625 C-0.38496521 41.83333237 -0.37930542 40.60025848 -0.37347412 39.32981873 C-0.35115549 35.40697761 -0.30096423 31.48506321 -0.25 27.5625 C-0.22766801 24.89649774 -0.21167969 22.23050418 -0.1953125 19.56445312 C-0.15130524 13.0426547 -0.08443668 6.52139358 0 0 Z " fill="#F1AF82" transform="translate(237,183)"/>
<path d="M0 0 C4.86182377 2.43091188 7.80741607 5.71281586 11 10 C12.09911549 13.29734646 12.1139456 15.72958745 12.09765625 19.19921875 C12.09443359 20.40771484 12.09121094 21.61621094 12.08789062 22.86132812 C12.07532227 24.7552832 12.07532227 24.7552832 12.0625 26.6875 C12.05798828 27.96173828 12.05347656 29.23597656 12.04882812 30.54882812 C12.03702873 33.69926564 12.02056597 36.84960949 12 40 C10.865625 40.02578125 9.73125 40.0515625 8.5625 40.078125 C-2.97969973 40.06687878 -2.97969973 40.06687878 -13 45 C-15.25370814 47.52333914 -17.16850742 50.15943666 -19 53 C-19.66 53.99 -20.32 54.98 -21 56 C-21.10164192 49.7013125 -21.17156661 43.40283747 -21.21972656 37.10351562 C-21.23980888 34.96183366 -21.26708037 32.8202063 -21.30175781 30.67871094 C-21.35042398 27.59556585 -21.3730029 24.51314738 -21.390625 21.4296875 C-21.42159271 19.99965897 -21.42159271 19.99965897 -21.45318604 18.54074097 C-21.45510248 12.82876481 -20.86311361 9.50873228 -17 5 C-11.67541734 0.19488882 -7.01210056 -0.85396079 0 0 Z " fill="#F2B083" transform="translate(258,115)"/>
<path d="M0 0 C5.95827215 -0.49652268 10.01671919 0.64524233 15 4 C19.99537343 9.25828782 21.29972253 13.43236005 21.30639648 20.57910156 C21.31472 21.3373674 21.32304352 22.09563324 21.33161926 22.87687683 C21.35569606 25.38151198 21.36448948 27.88588642 21.37109375 30.390625 C21.38006352 32.13694332 21.38918543 33.88326087 21.39845276 35.62957764 C21.41494017 39.29131943 21.42264212 42.95296984 21.42553711 46.61474609 C21.43091345 51.29327923 21.46856309 55.97094589 21.51428127 60.64923477 C21.54411662 64.25764043 21.5512621 67.86583935 21.55226326 71.4743576 C21.55645455 73.19825957 21.56884489 74.92216276 21.58978081 76.64594269 C21.77601544 93.30945787 21.77601544 93.30945787 16 100 C12.3375397 103.508944 8.59282727 105.28545844 3.5 105.3125 C2.345 105.209375 1.19 105.10625 0 105 C0 104.67 0 104.34 0 104 C1.65 104 3.3 104 5 104 C5.28875 103.278125 5.5775 102.55625 5.875 101.8125 C6.54912833 100.12717917 7.26281852 98.45576281 8.05215454 96.82122803 C9.26542262 93.20997907 9.29517294 89.81326508 9.29052734 86.04785156 C9.29724457 85.26178528 9.30396179 84.47571899 9.31088257 83.66583252 C9.32983772 81.07403186 9.33378582 78.48249062 9.3359375 75.890625 C9.3423683 74.08087052 9.34909687 72.27111707 9.35610962 70.46136475 C9.368077 66.66855461 9.37179111 62.8758355 9.37060547 59.08300781 C9.37040258 54.2399421 9.39767639 49.39746514 9.43214989 44.55453873 C9.45446977 40.81570799 9.45844142 37.07701765 9.45738602 33.33812714 C9.4597354 31.55366746 9.46852138 29.76920352 9.48405075 27.98480988 C10.0045297 14.80819826 10.0045297 14.80819826 5 3 C2.43530507 1.34939366 2.43530507 1.34939366 0 1 C0 0.67 0 0.34 0 0 Z " fill="#E09F73" transform="translate(201,130)"/>
<path d="M0 0 C2.35352451 1.56901634 2.87641182 2.6733741 3.875 5.3125 C4.07199522 9.5478972 2.25773241 12.5145413 -0.45828247 15.72232056 C-2.27000632 17.63274185 -4.12458834 19.48806689 -6.00390625 21.33203125 C-7.02254005 22.3478553 -7.02254005 22.3478553 -8.06175232 23.38420105 C-9.49135745 24.80710932 -10.92454325 26.2264281 -12.36108398 27.64233398 C-14.56565801 29.81561318 -16.75925158 31.9995129 -18.95117188 34.18554688 C-20.34312639 35.56833636 -21.73568364 36.95051944 -23.12890625 38.33203125 C-24.11643639 39.31318657 -24.11643639 39.31318657 -25.12391663 40.31416321 C-25.7347258 40.91536484 -26.34553497 41.51656647 -26.97485352 42.13598633 C-27.51207535 42.66638016 -28.04929718 43.19677399 -28.60279846 43.74324036 C-30.93261375 45.83887062 -32.16332998 46.01512315 -35.375 46.3125 C-39 46 -39 46 -41.375 44.3125 C-43.21921807 41.68803583 -43.92169023 40.21070053 -44 37 C-41.61036025 31.98058377 -37.67583654 28.40406351 -33.77734375 24.546875 C-33.0760585 23.84604797 -32.37477325 23.14522095 -31.65223694 22.42315674 C-30.17441565 20.94834791 -28.69417331 19.47596159 -27.21166992 18.00585938 C-24.93673607 15.74924222 -22.66996628 13.48466485 -20.40429688 11.21875 C-18.96661798 9.78598441 -17.52848268 8.35367662 -16.08984375 6.921875 C-15.40961655 6.24276062 -14.72938934 5.56364624 -14.02854919 4.86395264 C-13.08230431 3.92727753 -13.08230431 3.92727753 -12.11694336 2.97167969 C-11.56195663 2.42050476 -11.00696991 1.86932983 -10.43516541 1.30145264 C-7.03200263 -1.78464124 -4.30529363 -0.90637761 0 0 Z " fill="#000000" transform="translate(419,66)"/>
<path d="M0 0 C5.34185924 1.51804722 8.08903335 4.5298134 11.90380859 8.44433594 C13.01739243 9.55642426 13.01739243 9.55642426 14.1534729 10.690979 C15.71533848 12.25751485 17.26984781 13.83141521 18.81738281 15.41210938 C21.18821322 17.83021019 23.58465103 20.22048129 25.98583984 22.60839844 C27.50175506 24.13546524 29.01613213 25.66406083 30.52880859 27.19433594 C31.24539642 27.90910095 31.96198425 28.62386597 32.70028687 29.36029053 C33.35832306 30.03739075 34.01635925 30.71449097 34.69433594 31.41210938 C35.56534439 32.29694 35.56534439 32.29694 36.45394897 33.199646 C38.1341325 35.52212105 38.5617948 37.24128264 38.81787109 40.08496094 C36.54076266 45.72351515 36.54076266 45.72351515 33.81787109 47.08496094 C30.54334082 47.60888578 28.00948847 47.89200451 25.15966797 45.96191406 C19.04997068 40.38468201 13.09525315 34.65189542 7.21582031 28.83300781 C6.02839496 27.6622607 4.8356141 26.49692198 3.63769531 25.33691406 C1.88592483 23.64002061 0.15128856 21.92714796 -1.58056641 20.20996094 C-2.11386566 19.69933105 -2.64716492 19.18870117 -3.19662476 18.66259766 C-6.75212091 15.08661228 -8.31453193 12.04770394 -9.18212891 7.08496094 C-7.27119721 2.55907007 -5.11191112 0.13648497 0 0 Z " fill="#000000" transform="translate(98.18212890625,64.9150390625)"/>
<path d="M0 0 C1.00784546 -0.01268417 2.01569092 -0.02536835 3.05407715 -0.03843689 C4.13644653 -0.03550125 5.21881592 -0.03256561 6.33398438 -0.02954102 C8.00926208 -0.03740379 8.00926208 -0.03740379 9.71838379 -0.04542542 C12.07868621 -0.05184623 14.43902062 -0.05050789 16.79931641 -0.04199219 C20.41431496 -0.03347887 24.02773556 -0.06225046 27.64257812 -0.09399414 C29.9355464 -0.09560611 32.22851748 -0.0950287 34.52148438 -0.09204102 C35.60385376 -0.10327499 36.68622314 -0.11450897 37.8013916 -0.12608337 C38.80923706 -0.11670242 39.81708252 -0.10732147 40.85546875 -0.09765625 C41.74053101 -0.09749008 42.62559326 -0.09732391 43.53747559 -0.09715271 C46.73610146 0.57355655 47.93731376 1.85843887 49.92773438 4.40405273 C50.3969212 8.15754735 50.45909819 10.44253727 48.61523438 13.77905273 C45.77277084 16.51623985 42.99926543 16.53215448 39.24438477 16.54931641 C37.82259666 16.55888618 37.82259666 16.55888618 36.37208557 16.56864929 C34.83922157 16.57031853 34.83922157 16.57031853 33.27539062 16.57202148 C32.22371201 16.57534988 31.17203339 16.57867828 30.08848572 16.58210754 C27.86343829 16.58717199 25.63838326 16.58951602 23.41333008 16.58935547 C20.00719715 16.59154185 16.60138811 16.60970253 13.1953125 16.62866211 C11.03450632 16.63159612 8.87369859 16.63358087 6.71289062 16.63452148 C5.18306297 16.64529976 5.18306297 16.64529976 3.62232971 16.65629578 C2.19581337 16.65168083 2.19581337 16.65168083 0.74047852 16.64697266 C-0.09430527 16.64839767 -0.92908905 16.64982269 -1.78916931 16.65129089 C-4.31660031 16.37759355 -5.91289077 15.72579695 -8.07226562 14.40405273 C-10.15385582 11.72772248 -10.06814153 10.28651606 -9.94726562 6.84155273 C-9.07226562 3.40405273 -9.07226562 3.40405273 -7.33459473 1.71446228 C-4.66664592 0.16910552 -3.06842557 0.01873163 0 0 Z " fill="#000000" transform="translate(438.072265625,223.595947265625)"/>
<path d="M0 0 C1.00461777 -0.01583633 2.00923553 -0.03167267 3.04429626 -0.04798889 C4.12352859 -0.04302902 5.20276093 -0.03806915 6.31469727 -0.03295898 C7.98641747 -0.04225685 7.98641747 -0.04225685 9.69190979 -0.05174255 C12.04801561 -0.05884413 14.40417157 -0.05566091 16.76025391 -0.04296875 C20.36462872 -0.02911605 23.96640165 -0.06315701 27.57055664 -0.10131836 C29.86027082 -0.10226967 32.14998824 -0.10041012 34.43969727 -0.09545898 C35.51690536 -0.10871719 36.59411346 -0.1219754 37.70396423 -0.13563538 C45.14107481 -0.04314389 45.14107481 -0.04314389 49.16259766 2.84619141 C50.94360352 5.53344727 50.94360352 5.53344727 50.94360352 9.15844727 C49.99816593 12.34929913 49.57988904 13.63532169 46.94360352 15.53344727 C44.55583715 16.72733045 43.05518068 16.67273607 40.38964844 16.69458008 C39.44494186 16.70418762 38.50023529 16.71379517 37.52690125 16.72369385 C36.50296768 16.72794373 35.47903412 16.7321936 34.42407227 16.73657227 C33.37335037 16.74227234 32.32262848 16.74797241 31.24006653 16.75384521 C29.01324473 16.76330378 26.78640887 16.76983259 24.55957031 16.77368164 C21.155431 16.78337797 17.75189767 16.81438996 14.34790039 16.84594727 C12.18579461 16.85247813 10.0236845 16.85772827 7.86157227 16.86157227 C6.33478096 16.88009247 6.33478096 16.88009247 4.77714539 16.89898682 C-4.1455784 16.87092246 -4.1455784 16.87092246 -8.05639648 13.53344727 C-9.60226524 10.44170975 -9.3499917 7.93915174 -9.05639648 4.53344727 C-6.29239809 0.97486834 -4.46512299 0.03137865 0 0 Z " fill="#000000" transform="translate(33.056396484375,223.466552734375)"/>
<path d="M0 0 C0.66 -0.0103125 1.32 -0.020625 2 -0.03125 C5.15272778 0.80619332 6.07479043 1.81244093 8 4.5 C8.61885772 8.21129374 8.56000584 11.89718571 8.53125 15.65234375 C8.5350769 16.74462784 8.53890381 17.83691193 8.54284668 18.96229553 C8.54556758 21.27134116 8.53819404 23.58041752 8.52148438 25.8894043 C8.50009924 29.42111115 8.5212709 32.9507788 8.546875 36.48242188 C8.54423135 38.72656699 8.53910562 40.97071083 8.53125 43.21484375 C8.53934692 44.27017807 8.54744385 45.32551239 8.55578613 46.41282654 C8.46234528 53.73289488 8.46234528 53.73289488 6.09179688 57.66601562 C3.8321539 59.64715919 2.96152413 60.16083186 0 60.0625 C-0.66 60.06378906 -1.32 60.06507812 -2 60.06640625 C-4.88399656 59.24964941 -6.09294267 57.78126775 -8 55.5 C-8.50793457 53.10974121 -8.50793457 53.10974121 -8.51757812 50.42773438 C-8.53018677 49.41988892 -8.54279541 48.41204346 -8.55578613 47.37365723 C-8.54768921 46.29128784 -8.53959229 45.20891846 -8.53125 44.09375 C-8.5350769 42.97689819 -8.53890381 41.86004639 -8.54284668 40.70935059 C-8.54556756 38.34903054 -8.5381942 35.98868043 -8.52148438 33.62841797 C-8.50007884 30.01331425 -8.52128178 26.40019807 -8.546875 22.78515625 C-8.54423176 20.49218311 -8.53910686 18.1992112 -8.53125 15.90625 C-8.53934692 14.82388062 -8.54744385 13.74151123 -8.55578613 12.62634277 C-8.54317749 11.61849731 -8.53056885 10.61065186 -8.51757812 9.57226562 C-8.51439575 8.68720337 -8.51121338 7.80214111 -8.50793457 6.89025879 C-7.55780184 2.41908625 -4.53281235 -0.07082519 0 0 Z " fill="#000000" transform="translate(256,-0.5)"/>
<path d="M0 0 C6.72991476 0.66128129 13.30068449 1.71274696 19.9375 3 C20.88173828 3.17789063 21.82597656 3.35578125 22.79882812 3.5390625 C29.74212398 4.87106199 29.74212398 4.87106199 32 6 C31.63015313 12.16411455 30.29761357 14.80005946 26 19 C20.75763248 21.57288724 15.73113566 21.66582311 10 21 C5.58494108 18.99315504 2.96130867 16.40956892 0.6796875 12.08203125 C-0.6094002 8.13327411 -0.29681196 4.09765397 0 0 Z " fill="#EFAE81" transform="translate(285,222)"/>
<path d="M0 0 C3.3 0 6.6 0 10 0 C10 16.17 10 32.34 10 49 C6.7 49 3.4 49 0 49 C0 32.83 0 16.66 0 0 Z " fill="#D8D1D7" transform="translate(316,448)"/>
<path d="M0 0 C5.23549964 5.54347021 9.1713832 15.47145201 9.5 23.0625 C8.92904589 26.41685537 8.65656032 27.84154474 6 30 C3.29339876 30.88496091 0.82791402 31.43422864 -2 31 C-6.23739623 27.87943688 -7.87119035 23.46988604 -9.8125 18.75 C-10.13669922 18.02425781 -10.46089844 17.29851563 -10.79492188 16.55078125 C-13.00974825 11.22950676 -13.30988735 7.63928027 -12 2 C-8.23358607 -1.65563705 -4.87306051 -1.5062187 0 0 Z " fill="#000000" transform="translate(189,41)"/>
<path d="M0 0 C3 2 3 2 3.91796875 5.5078125 C4.39529821 10.85631935 2.46382944 15.07272562 0.3125 19.875 C-0.21633789 21.15503906 -0.21633789 21.15503906 -0.75585938 22.4609375 C-3.42011051 28.617452 -3.42011051 28.617452 -5.91333008 30.26220703 C-9.21138355 31.42831415 -11.66220856 30.84961964 -15 30 C-16.9375 28.375 -16.9375 28.375 -18 26 C-18.51421476 19.99578649 -17.09687753 15.67007587 -14.8125 10.25 C-14.52052734 9.49589844 -14.22855469 8.74179687 -13.92773438 7.96484375 C-12.47444426 4.44569393 -11.48031276 2.38292216 -8.45703125 -0.02734375 C-5.22416144 -1.30712846 -3.31349806 -0.93642336 0 0 Z " fill="#000000" transform="translate(332,41)"/>
<path d="M0 0 C3.32274404 2.45594125 4.77618008 3.9256644 5.625 8 C4.77974657 12.05721645 3.12555485 13.30843407 0 16 C-2.50471198 17.26747774 -4.83384521 18.32866633 -7.4375 19.3125 C-8.08009766 19.57611328 -8.72269531 19.83972656 -9.38476562 20.11132812 C-13.38129405 21.67342299 -16.71925083 22.4756388 -21 22 C-24.32274404 19.54405875 -25.77618008 18.0743356 -26.625 14 C-25.77974657 9.94278355 -24.12555485 8.69156593 -21 6 C-18.49528802 4.73252226 -16.16615479 3.67133367 -13.5625 2.6875 C-12.59860352 2.29208008 -12.59860352 2.29208008 -11.61523438 1.88867188 C-7.61870595 0.32657701 -4.28074917 -0.4756388 0 0 Z " fill="#000000" transform="translate(442,152)"/>
<path d="M0 0 C15.88011581 4.54040295 15.88011581 4.54040295 19.74609375 9.78515625 C20.39950912 14.19571002 20.25927659 16.07575645 17.62109375 19.72265625 C14.11404506 22.23858248 12.99218091 22.20434023 8.74609375 21.78515625 C5.76022713 20.90254385 2.92439065 19.74675287 0.05859375 18.53515625 C-0.70001953 18.23480469 -1.45863281 17.93445313 -2.24023438 17.625 C-9.20291106 14.73668752 -9.20291106 14.73668752 -11.25390625 10.78515625 C-11.93624666 6.77640635 -11.56973955 5.26400029 -9.31640625 1.84765625 C-5.90091793 -0.45257058 -4.03337888 -0.70057002 0 0 Z " fill="#000000" transform="translate(76.25390625,152.21484375)"/>
<path d="M0 0 C4.62930592 -0.37034447 8.02682024 -0.48658988 12.25 1.625 C16.09534416 4.94597905 19.35914184 8.07742553 21 13 C21.08315752 15.06498892 21.10735878 17.1325789 21.09765625 19.19921875 C21.09443359 20.40771484 21.09121094 21.61621094 21.08789062 22.86132812 C21.07951172 24.12396484 21.07113281 25.38660156 21.0625 26.6875 C21.05798828 27.96173828 21.05347656 29.23597656 21.04882812 30.54882812 C21.03702873 33.69926564 21.02056597 36.84960949 21 40 C17.37 40 13.74 40 10 40 C9.98541748 39.19369141 9.97083496 38.38738281 9.95581055 37.55664062 C9.88091538 33.87063378 9.7843904 30.18549163 9.6875 26.5 C9.66494141 25.2315625 9.64238281 23.963125 9.61914062 22.65625 C9.49348101 11.40908449 9.49348101 11.40908449 4 2 C2.68252676 1.30251417 1.35085807 0.63040043 0 0 Z " fill="#E1A073" transform="translate(249,115)"/>
<path d="M0 0 C3.63 1.32 7.26 2.64 11 4 C11.08156437 6.85475306 11.14076372 9.70713565 11.1875 12.5625 C11.21263672 13.36236328 11.23777344 14.16222656 11.26367188 14.98632812 C11.34758424 21.83917126 10.16717591 26.49941241 5.5625 31.8125 C1.5910956 35.20272327 -0.74865415 36.29174144 -6 36 C-5.72285156 35.45730469 -5.44570312 34.91460937 -5.16015625 34.35546875 C-4.61681641 33.28232422 -4.61681641 33.28232422 -4.0625 32.1875 C-3.52302734 31.12595703 -3.52302734 31.12595703 -2.97265625 30.04296875 C-1.20876057 26.33807944 -0.82782936 23.29748335 -0.68359375 19.23828125 C-0.64169922 18.12001953 -0.59980469 17.00175781 -0.55664062 15.84960938 C-0.51732422 14.68236328 -0.47800781 13.51511719 -0.4375 12.3125 C-0.37272461 10.54422852 -0.37272461 10.54422852 -0.30664062 8.74023438 C-0.20048906 5.82696374 -0.09973371 2.9134974 0 0 Z " fill="#E3A174" transform="translate(259,214)"/>
<path d="M0 0 C3.3 0.66 6.6 1.32 10 2 C9.63015313 8.16411455 8.29761357 10.80005946 4 15 C0.57507696 16.88370767 -2.12059131 17.2216805 -6 17 C-5.38125 16.05125 -4.7625 15.1025 -4.125 14.125 C-1.51328956 9.61470572 -0.83990853 5.10944354 0 0 Z " fill="#E3A174" transform="translate(307,226)"/>
</svg>
