<?xml version="1.0" encoding="UTF-8"?>
<svg version="1.1" xmlns="http://www.w3.org/2000/svg" width="512" height="512">
<path d="M0 0 C3.06398293 2.00861103 5.9858684 4.12816093 8.8359375 6.42578125 C9.43809082 6.90571533 10.04024414 7.38564941 10.66064453 7.88012695 C20.04935582 15.42570763 29.32575785 23.18797633 37.703125 31.85546875 C39.5645641 33.71690785 41.5159381 35.41110495 43.5234375 37.11328125 C46.83636647 39.97036147 49.68234212 43.01018536 52.50390625 46.34765625 C54.78793465 48.99184082 57.18746297 51.50999491 59.5859375 54.05078125 C71.34161504 66.74226455 81.19860174 81.04132627 90.4609375 95.61328125 C90.83557129 96.19577637 91.21020508 96.77827148 91.59619141 97.37841797 C102.02294351 113.78428367 109.12312451 132.72096414 113.4609375 151.61328125 C113.80898438 153.11568359 113.80898438 153.11568359 114.1640625 154.6484375 C120.94251696 189.07330263 112.57527641 223.41607819 96.37353516 253.89404297 C95.55851847 255.42944894 94.76414663 256.97577259 93.97265625 258.5234375 C78.00221552 289.06971709 52.55195001 317.40066249 26.4609375 339.61328125 C25.39769254 340.53951011 24.33526247 341.46667485 23.2734375 342.39453125 C17.58011538 347.35369152 11.83587982 352.26011285 5.8984375 356.92578125 C4.50431641 358.03373047 4.50431641 358.03373047 3.08203125 359.1640625 C0.4609375 360.61328125 0.4609375 360.61328125 -2.0078125 360.61328125 C-5.30970325 359.30883058 -7.68979712 357.50418843 -10.4765625 355.30078125 C-11.32081787 354.6341748 -11.32081787 354.6341748 -12.18212891 353.95410156 C-30.48910161 339.37529655 -48.3777781 323.47409041 -63.5390625 305.61328125 C-64.33699219 304.70449219 -65.13492188 303.79570312 -65.95703125 302.859375 C-77.62469705 289.47859102 -87.80629392 275.06324178 -96.5390625 259.61328125 C-96.87744141 259.03078613 -97.21582031 258.44829102 -97.56445312 257.84814453 C-106.43145859 242.55128855 -112.63035273 225.84055764 -116.5390625 208.61328125 C-116.75175781 207.73542969 -116.96445313 206.85757813 -117.18359375 205.953125 C-125.81991551 165.75384316 -111.87180841 124.45425809 -90.53393555 90.62329102 C-80.8266279 75.61974993 -69.46007796 61.67253725 -57.3046875 48.6015625 C-54.61138893 45.70522775 -51.98418262 42.75238448 -49.3515625 39.80078125 C-46.00176913 36.11495845 -42.58854192 32.73924694 -38.77734375 29.5390625 C-36.4756305 27.55870537 -34.26691636 25.49328647 -32.05834961 23.41015625 C-25.4149458 17.16032603 -18.51334188 11.32682964 -11.20019531 5.87158203 C-10.02605182 4.98217351 -8.87618441 4.06028143 -7.74511719 3.11669922 C-3.23028333 -0.491997 -3.23028333 -0.491997 0 0 Z " fill="#009986" transform="translate(257.5390625,151.38671875)"/>
<path d="M0 0 C0 119.13 0 238.26 0 361 C-4.61535703 359.15385719 -7.50044748 357.13970578 -11.125 353.9375 C-12.28695908 352.9300646 -13.44973094 351.92356593 -14.61328125 350.91796875 C-15.18771973 350.41958496 -15.7621582 349.92120117 -16.35400391 349.40771484 C-18.62746276 347.46337137 -20.97014157 345.61042084 -23.3125 343.75 C-37.19066451 332.44862919 -50.41975439 319.64215269 -62 306 C-62.79792969 305.09121094 -63.59585938 304.18242187 -64.41796875 303.24609375 C-76.08563455 289.86530977 -86.26723142 275.44996053 -95 260 C-95.33837891 259.41750488 -95.67675781 258.83500977 -96.02539062 258.23486328 C-104.89239609 242.9380073 -111.09129023 226.22727639 -115 209 C-115.21269531 208.12214844 -115.42539063 207.24429688 -115.64453125 206.33984375 C-124.28085301 166.14056191 -110.33274591 124.84097684 -88.99487305 91.01000977 C-79.2875654 76.00646868 -67.92101546 62.059256 -55.765625 48.98828125 C-53.07232643 46.0919465 -50.44512012 43.13910323 -47.8125 40.1875 C-44.46270663 36.5016772 -41.04947942 33.12596569 -37.23828125 29.92578125 C-34.936568 27.94542412 -32.72785386 25.88000522 -30.51928711 23.796875 C-5.22383996 0 -5.22383996 0 0 0 Z " fill="#00CC75" transform="translate(256,151)"/>
<path d="M0 0 C0.82419434 0.20399414 1.64838867 0.40798828 2.49755859 0.61816406 C14.5205156 3.6387424 25.87695934 7.52799531 37 13 C37.63099609 13.30663574 38.26199219 13.61327148 38.91210938 13.92919922 C51.79086973 20.26027178 63.28902933 28.12659236 73.78125 37.9375 C75.75737093 39.77445749 77.78954621 41.47811165 79.875 43.1875 C105.9609001 66.06525513 123.02454871 102.1175879 128 136 C128.185625 137.258125 128.37125 138.51625 128.5625 139.8125 C129.11798659 144.3789829 129.11074268 148.90627256 129.0625 153.5 C129.041875 156.305 129.02125 159.11 129 162 C118.77 162 108.54 162 98 162 C97.773125 158.596875 97.54625 155.19375 97.3125 151.6875 C94.43192816 115.52575961 77.25837555 82.79678238 50 59 C30.58274399 42.8165685 5.23758926 31.58595273 -20 29 C-21.23105469 28.86722656 -22.46210938 28.73445313 -23.73046875 28.59765625 C-59.06172154 25.36720048 -94.73909591 36.80717248 -122.04589844 59.33154297 C-148.06998296 81.55150719 -166.36422179 113.53586955 -169.16650391 148.05078125 C-169.51149812 152.69955288 -169.75910968 157.34278709 -170 162 C-180.23 162 -190.46 162 -201 162 C-201.61109125 136.33416746 -196.37023887 112.11248555 -185 89 C-184.69336426 88.36900391 -184.38672852 87.73800781 -184.07080078 87.08789062 C-177.73972822 74.20913027 -169.87340764 62.71097067 -160.0625 52.21875 C-158.22554251 50.24262907 -156.52188835 48.21045379 -154.8125 46.125 C-118.68577798 4.93223191 -52.71754464 -13.68241617 0 0 Z " fill="#FFDE54" transform="translate(292,3)"/>
<path d="M0 0 C5.00330601 2.859032 9.01892484 5.46517926 13.25 9.1875 C14.38591038 10.17020601 15.5226423 11.15196312 16.66015625 12.1328125 C17.22105957 12.61782227 17.78196289 13.10283203 18.35986328 13.60253906 C20.75755009 15.64546245 23.22453526 17.59911534 25.6875 19.5625 C30.31623602 23.32334802 34.49477599 27.38942222 38.65625 31.65625 C40.7607024 33.7607024 42.91698929 35.70379863 45.1875 37.625 C48.46162702 40.43605328 51.25953001 43.44200051 54.04296875 46.734375 C56.32699715 49.37855957 58.72652547 51.89671366 61.125 54.4375 C76.47079543 71.00489101 94.52496685 92.98613056 101.60131836 114.70678711 C101.86512802 115.51224472 102.12893768 116.31770233 102.40074158 117.14756775 C102.6973745 118.06452171 102.6973745 118.06452171 103 119 C89.72115064 132.30217502 76.43946542 145.60151212 63.15436649 158.89744568 C56.98640022 165.07057562 50.8193773 171.24464258 44.65454102 177.42089844 C39.2833748 182.80200934 33.91047292 188.18137999 28.53544992 193.55863857 C25.68758193 196.40781404 22.84061085 199.25787328 19.99571419 202.11001587 C17.32130744 204.79117944 14.64459699 207.47002066 11.96605492 210.14705276 C10.98032387 211.13306029 9.99545785 212.11993343 9.0114975 213.10770798 C7.67414804 214.44998937 6.33345838 215.78894043 4.99256897 217.12768555 C4.24130769 217.87986862 3.49004641 218.6320517 2.71601963 219.4070282 C1 221 1 221 0 221 C0 148.07 0 75.14 0 0 Z " fill="#00CB75" transform="translate(256,151)"/>
<path d="M0 0 C0 72.93 0 145.86 0 221 C-7.875 214.25 -7.875 214.25 -11.48631287 210.63394165 C-12.71238503 209.40993149 -12.71238503 209.40993149 -13.96322632 208.16119385 C-14.83573029 207.2850946 -15.70823425 206.40899536 -16.60717773 205.50634766 C-17.55379596 204.55944681 -18.50063551 203.61276719 -19.44767761 202.66629028 C-21.99901164 200.11524132 -24.5472664 197.56113695 -27.09495044 195.0064435 C-29.76503319 192.33007869 -32.43797774 189.65657504 -35.11061096 186.98275757 C-40.16270611 181.92756335 -45.21224829 176.86982708 -50.26086241 171.81115663 C-56.01225297 166.04856058 -61.76650792 160.28882838 -67.52099693 154.52932668 C-79.35050567 142.6893858 -91.17643916 130.84588062 -103 119 C-100.84792197 111.29539913 -100.84792197 111.29539913 -99.00390625 107.94140625 C-98.615979 107.2340332 -98.22805176 106.52666016 -97.82836914 105.79785156 C-97.41063232 105.06018555 -96.99289551 104.32251953 -96.5625 103.5625 C-96.12220459 102.7797168 -95.68190918 101.99693359 -95.22827148 101.19042969 C-83.57128019 80.80765316 -68.52287682 60.86770526 -51.5703125 44.5703125 C-49.79397233 42.79397233 -48.18696946 40.91585411 -46.5625 39 C-43.70454723 35.69411203 -40.67594591 32.85080039 -37.34375 30.03125 C-35.00958817 28.00830975 -32.75962156 25.90918045 -30.51269531 23.7902832 C-5.21784356 0 -5.21784356 0 0 0 Z " fill="#A4E787" transform="translate(256,151)"/>
<path d="M0 0 C1.1034375 0.350625 2.206875 0.70125 3.34375 1.0625 C30.5421571 10.56873937 51.67817839 30.59010284 64.25 56.3125 C70.75210887 71.05544323 73 84.73531684 73 101 C62.77 101 52.54 101 42 101 C41.773125 98.48375 41.54625 95.9675 41.3125 93.375 C39.22682101 74.15048059 30.1743288 56.39930456 15.375 43.8125 C-1.8057981 30.88043095 -21.63163737 25.05479777 -43.12207031 27.96655273 C-61.94573103 30.88988992 -79.57650734 40.85639168 -91.08984375 56.15234375 C-100.71145006 70.49621082 -104.54963515 83.59562177 -106 101 C-116.23 101 -126.46 101 -137 101 C-137 83.60838608 -137 83.60838608 -135.3125 77.375 C-135.13098389 76.66609619 -134.94946777 75.95719238 -134.76245117 75.22680664 C-127.26267853 46.94422453 -110.05635527 23.79556124 -84.73779297 8.984375 C-59.7729728 -5.1569786 -27.37492961 -9.20572854 0 0 Z " fill="#FFB654" transform="translate(288,64)"/>
<path d="M0 0 C0.02465622 4.25414623 0.04283899 8.50825498 0.05493164 12.76245117 C0.05997101 14.21070073 0.06680253 15.65894517 0.07543945 17.10717773 C0.08752247 19.18474588 0.09323211 21.26224697 0.09765625 23.33984375 C0.10289307 24.59144287 0.10812988 25.84304199 0.11352539 27.13256836 C0 30 0 30 -1 31 C-2.40920108 31.1675563 -3.82550199 31.27615871 -5.2421875 31.359375 C-43.54872943 33.97818221 -77.60401892 49.9097987 -103 79 C-123.5322024 103.63501207 -132.36955633 133.47808911 -134 165 C-144.23 165 -154.46 165 -165 165 C-165.61109125 139.33416746 -160.37023887 115.11248555 -149 92 C-148.69336426 91.36900391 -148.38672852 90.73800781 -148.07080078 90.08789062 C-141.73972822 77.20913027 -133.87340764 65.71097067 -124.0625 55.21875 C-122.22554251 53.24262907 -120.52188835 51.21045379 -118.8125 49.125 C-90.17859128 16.47576155 -42.81455223 -1.92424954 0 0 Z " fill="#FFF68E" transform="translate(256,0)"/>
<path d="M0 0 C0.68835938 0.00451172 1.37671875 0.00902344 2.0859375 0.01367188 C3.76566335 0.02533664 5.44534375 0.04326729 7.125 0.0625 C7.14965622 4.31664623 7.16783899 8.57075498 7.17993164 12.82495117 C7.18497101 14.27320073 7.19180253 15.72144517 7.20043945 17.16967773 C7.21252247 19.24724588 7.21823211 21.32474697 7.22265625 23.40234375 C7.22789307 24.65394287 7.23312988 25.90554199 7.23852539 27.19506836 C7.125 30.0625 7.125 30.0625 6.125 31.0625 C4.40461289 31.27622583 2.6831869 31.48374861 0.95825195 31.65698242 C-18.95530421 33.68028492 -36.92478168 42.27496275 -50.0625 57.6875 C-61.07992513 72.32461305 -65.35116447 86.77647359 -66.875 105.0625 C-77.105 105.0625 -87.335 105.0625 -97.875 105.0625 C-97.875 87.67088608 -97.875 87.67088608 -96.1875 81.4375 C-96.00598389 80.72859619 -95.82446777 80.01969238 -95.63745117 79.28930664 C-88.13767853 51.00672453 -70.93135527 27.85806124 -45.61279297 13.046875 C-31.88360191 5.26995756 -15.87336146 -0.19995513 0 0 Z " fill="#FFDE54" transform="translate(248.875,59.9375)"/>
</svg>
