<?xml version="1.0" encoding="UTF-8"?>
<svg version="1.1" xmlns="http://www.w3.org/2000/svg" width="512" height="512">
<path d="M0 0 C0.85948242 -0.0103125 1.71896484 -0.020625 2.60449219 -0.03125 C14.57918614 0.13448971 25.16222097 4.51009712 33.9375 12.6875 C48.77859675 28.54128335 51.42801049 49.94874978 51.5 70.6875 C51.50328308 71.45784576 51.50656616 72.22819153 51.50994873 73.0218811 C51.53387107 90.46149284 49.67940187 107.54228349 45.1875 124.4375 C45.86039062 124.53933594 46.53328125 124.64117187 47.2265625 124.74609375 C50.86453701 125.5955944 54.16244438 126.98835923 57.5625 128.5 C58.26294434 128.81090576 58.96338867 129.12181152 59.68505859 129.44213867 C83.22442386 140.04886142 108.51269497 155.03094005 118.4765625 180.21484375 C122.89434569 194.02648459 121.65233181 207.47442639 115.1875 220.4375 C113.0910869 223.98763022 110.76217421 227.22050665 108.1875 230.4375 C107.60355469 231.18515625 107.01960938 231.9328125 106.41796875 232.703125 C87.18681513 255.86148262 52.95870279 270.49374852 24.1875 276.4375 C24.47415527 277.50556885 24.47415527 277.50556885 24.76660156 278.59521484 C32.23975482 306.71171743 37.95269562 335.07460821 35.5625 364.3125 C35.50562012 365.08311768 35.44874023 365.85373535 35.39013672 366.64770508 C34.79687502 372.40234352 33.28927819 377.75920912 31.62744141 383.27783203 C31.39330032 384.06408463 31.15915924 384.85033722 30.91792297 385.66041565 C30.34380572 387.58691425 29.76602188 389.51231951 29.1875 391.4375 C14.5140597 391.64833455 -0.15917846 391.80673659 -14.83382893 391.90380955 C-21.64860674 391.95009371 -28.46244006 392.0131191 -35.27661133 392.11645508 C-41.85775213 392.21620906 -48.43817278 392.26812046 -55.02010155 392.29139519 C-57.52593578 392.30797252 -60.03171886 392.34034542 -62.53713417 392.38907051 C-84.63748131 392.80162277 -84.63748131 392.80162277 -91.70776367 387.07397461 C-93.12060063 385.56913861 -94.49620793 384.02747323 -95.8125 382.4375 C-97.01842811 381.38931643 -98.24429874 380.36301099 -99.5 379.375 C-100.263125 378.735625 -101.02625 378.09625 -101.8125 377.4375 C-105.74546726 378.77844139 -108.23937609 380.46823855 -111.25 383.3125 C-118.28355054 389.93083199 -122.75234642 392.03209258 -132.31591797 391.89160156 C-133.88268028 391.89247772 -133.88268028 391.89247772 -135.48109436 391.89337158 C-138.92263384 391.89059193 -142.3632999 391.85950425 -145.8046875 391.828125 C-148.19507372 391.82066222 -150.58546607 391.81496946 -152.9758606 391.81097412 C-159.2592872 391.79572088 -165.54234242 391.75644107 -171.82562256 391.7121582 C-178.2404681 391.67119922 -184.65537381 391.65296172 -191.0703125 391.6328125 C-203.65119987 391.58994707 -216.23183016 391.52247071 -228.8125 391.4375 C-229.45785387 390.19282385 -230.09782405 388.9453556 -230.7355957 387.69677734 C-231.09257034 387.0024057 -231.44954498 386.30803406 -231.81733704 385.59262085 C-233.38596791 382.19560023 -234.20919987 378.70642374 -235 375.0625 C-235.25088379 373.93581909 -235.25088379 373.93581909 -235.50683594 372.78637695 C-236.68882918 367.32880037 -237.62889977 362.02965709 -237.8125 356.4375 C-237.83828125 355.79635254 -237.8640625 355.15520508 -237.890625 354.49462891 C-238.73320228 330.83400574 -234.71980667 308.00422823 -229.31567383 285.04931641 C-228.68638386 282.22617827 -228.68638386 282.22617827 -228.8125 278.4375 C-229.53614746 278.20675781 -230.25979492 277.97601563 -231.00537109 277.73828125 C-245.64765469 273.04086771 -259.99433142 268.21597778 -273.8125 261.4375 C-274.87404297 260.92799805 -274.87404297 260.92799805 -275.95703125 260.40820312 C-296.56900005 250.43646687 -316.53640141 236.28861345 -326.0078125 214.71484375 C-326.72689307 212.623925 -327.33225943 210.59429471 -327.8125 208.4375 C-328.08320313 207.26767578 -328.08320313 207.26767578 -328.359375 206.07421875 C-330.60242972 193.0219607 -327.64246194 180.63792982 -320.8125 169.4375 C-318.32654784 165.93262753 -315.64949973 162.66305692 -312.8125 159.4375 C-312.21824219 158.75945312 -311.62398438 158.08140625 -311.01171875 157.3828125 C-295.54595022 140.89040837 -272.05581484 129.27276218 -250.8125 122.4375 C-249.8225 122.4375 -248.8325 122.4375 -247.8125 122.4375 C-248.00585938 121.74527344 -248.19921875 121.05304688 -248.3984375 120.33984375 C-256.25644995 90.81394549 -258.57600397 52.81091983 -242.72265625 25.37890625 C-235.76335077 14.66242971 -226.95796553 8.28356408 -214.8125 4.4375 C-190.12761708 -0.38403146 -166.24367752 10.23721714 -146.02294922 23.62207031 C-130.69738828 34.0432862 -116.75823242 46.19754639 -103.8125 59.4375 C-100.81867156 58.09880947 -98.79194329 56.63971044 -96.52734375 54.27734375 C-95.92003418 53.65303467 -95.31272461 53.02872559 -94.68701172 52.38549805 C-93.72819092 51.39030151 -93.72819092 51.39030151 -92.75 50.375 C-86.74910767 44.26619879 -80.59553564 38.67849301 -73.8125 33.4375 C-72.84441406 32.65246094 -71.87632812 31.86742187 -70.87890625 31.05859375 C-50.72911821 14.85642811 -26.42425951 0.26061263 0 0 Z " fill="#596698" transform="translate(347.8125,120.5625)"/>
<path d="M0 0 C1.71627594 -0.02926826 1.71627594 -0.02926826 3.46722412 -0.05912781 C5.88441734 -0.08643357 8.30192771 -0.09269834 10.71923828 -0.0793457 C14.40033659 -0.07424857 18.06700393 -0.18076703 21.74609375 -0.29492188 C39.83539886 -0.53497224 39.83539886 -0.53497224 44.78222656 3.79223633 C47.09334808 6.43145272 48.73306553 9.31878982 50.26916504 12.46054077 C51.69864279 15.27566476 53.55686752 17.77615474 55.375 20.3515625 C56.73139043 22.41309794 58.08018116 24.47965088 59.421875 26.55078125 C59.78082855 27.10287262 60.1397821 27.65496399 60.50961304 28.2237854 C72.29055323 46.36827584 82.9987304 65.08903575 92.74169922 84.40380859 C93.71326744 86.32936459 94.69171102 88.25146376 95.67626953 90.17041016 C97.13240178 93.016767 98.56214189 95.87486203 99.984375 98.73828125 C100.42362305 99.59252686 100.86287109 100.44677246 101.31542969 101.3269043 C103.78782406 106.40831466 104.95382776 109.6344298 103.171875 115.23828125 C99.59824842 122.79697865 95.16086581 129.91015097 90.91894531 137.10546875 C88.99746949 140.55102182 87.43034417 144.03646739 86.02294922 147.71875 C83.32576861 152.49900794 80.87942808 156.41082252 75.40252686 158.08462524 C71.92438346 158.62537697 68.49289705 158.93198923 64.98046875 159.1640625 C63.01025002 159.32566109 63.01025002 159.32566109 61.00022888 159.49052429 C45.69361402 160.67481042 30.34516529 160.65318103 15.00323486 160.56085205 C11.96371061 160.5473605 8.92433127 160.55270213 5.88479042 160.55772591 C-38.23065254 160.61246545 -38.23065254 160.61246545 -48.828125 157.23828125 C-50.31689453 155.39086914 -50.31689453 155.39086914 -51.7109375 152.9609375 C-52.23389404 152.06294434 -52.75685059 151.16495117 -53.2956543 150.23974609 C-53.84261963 149.2698877 -54.38958496 148.3000293 -54.953125 147.30078125 C-55.80547729 145.82279053 -55.80547729 145.82279053 -56.67504883 144.31494141 C-58.40836358 141.29796857 -60.12142207 138.27037597 -61.828125 135.23828125 C-62.59406982 133.88210693 -62.59406982 133.88210693 -63.37548828 132.49853516 C-69.14521768 122.26079539 -69.14521768 122.26079539 -71.828125 117.23828125 C-72.199375 116.56804932 -72.570625 115.89781738 -72.953125 115.20727539 C-74.69257636 111.29302449 -73.33950828 107.59219605 -71.89990234 103.78076172 C-70.66267184 100.88272074 -69.35506311 98.02802894 -68.015625 95.17578125 C-67.28073853 93.59446411 -67.28073853 93.59446411 -66.53100586 91.98120117 C-61.85428905 82.05421495 -56.70360094 72.4259327 -51.30908203 62.87353516 C-49.8870762 60.34318056 -48.49347616 57.79912415 -47.10546875 55.25 C-41.07074509 44.29083037 -34.39588461 33.82414453 -27.453125 23.42578125 C-27.02056396 22.77762451 -26.58800293 22.12946777 -26.14233398 21.46166992 C-20.73319426 13.37622394 -20.73319426 13.37622394 -19.01220703 10.96888733 C-17.76729372 9.20483828 -17.76729372 9.20483828 -16.62646484 7.09153748 C-12.35408625 0.12760892 -7.7912665 -0.00361217 0 0 Z " fill="#D0ECF0" transform="translate(230.828125,236.76171875)"/>
<path d="M0 0 C12.75665597 13.48560773 15.57774156 31.13322544 15.4375 49 C15.43145752 50.23516357 15.42541504 51.47032715 15.41918945 52.74291992 C15.07470169 84.53809662 15.07470169 84.53809662 9.1875 96.3125 C4.52874024 95.83428294 0.2995392 95.15916119 -4.18579102 93.75146484 C-25.39541879 87.11359378 -48.3435937 84.28852193 -70.3671875 81.85546875 C-71.6962915 81.70476929 -71.6962915 81.70476929 -73.05224609 81.55102539 C-75.86946959 81.27319911 -75.86946959 81.27319911 -78.93603516 81.27514648 C-86.70314853 81.07877676 -86.70314853 81.07877676 -89.81689453 78.92797852 C-91.56006419 77.04659637 -92.99831991 75.12227094 -94.4375 73 C-95.51419474 71.53930924 -96.59233676 70.07968425 -97.671875 68.62109375 C-98.19330078 67.89390137 -98.71472656 67.16670898 -99.25195312 66.41748047 C-100.72215142 64.43436881 -102.25965365 62.5745539 -103.890625 60.72265625 C-104.36419434 60.18487549 -104.83776367 59.64709473 -105.32568359 59.09301758 C-106.60968235 57.64995766 -107.89465367 56.20776327 -109.1796875 54.765625 C-110.8125 52.3125 -110.8125 52.3125 -110.79296875 50.22265625 C-109.58055605 47.86062513 -108.16598524 46.3409956 -106.25 44.5 C-105.15365234 43.44619141 -105.15365234 43.44619141 -104.03515625 42.37109375 C-101.45313206 39.97965834 -98.84902542 37.62897128 -96.17578125 35.33984375 C-94.36445346 33.78599396 -92.5751484 32.21558184 -90.79296875 30.62890625 C-67.98944883 10.47594918 -31.08519738 -18.65111843 0 0 Z " fill="#D0ECF0" transform="translate(367.8125,142.6875)"/>
<path d="M0 0 C6.283213 22.5353226 11.1128609 44.27267049 11.25 67.75 C11.2641394 69.58026733 11.2641394 69.58026733 11.27856445 71.44750977 C11.24171872 81.69688064 10.38354672 91.50755425 6.5 101.0625 C6.0771875 102.12597656 5.654375 103.18945312 5.21875 104.28515625 C4 107 4 107 2 110 C-0.66537476 110.41459656 -0.66537476 110.41459656 -4.09521484 110.4675293 C-6.01894424 110.50592171 -6.01894424 110.50592171 -7.98153687 110.54508972 C-9.39132576 110.55632341 -10.80112785 110.56599241 -12.2109375 110.57421875 C-13.65906933 110.58894561 -15.10719961 110.60382521 -16.55532837 110.61885071 C-19.60024465 110.64588848 -22.64491614 110.6593979 -25.68994141 110.66577148 C-29.5617891 110.6765636 -33.43098055 110.73799522 -37.30205345 110.8124876 C-40.29989886 110.86129744 -43.2971292 110.87331323 -46.29533768 110.87583351 C-47.72016855 110.88299533 -49.14500371 110.90320559 -50.56943893 110.93753624 C-61.37776513 111.17781536 -67.63821231 108.78766859 -76 102 C-77.21837158 101.11177971 -78.43921776 100.22692865 -79.6640625 99.34765625 C-86.38333604 94.16193722 -92.79342777 88.80027292 -99 83 C-95.41258223 78.73388157 -91.72116591 74.59343972 -87.9375 70.5 C-72.69179296 53.92766737 -59.07248353 36.42666747 -45.97265625 18.12109375 C-45.23136475 17.10414429 -45.23136475 17.10414429 -44.47509766 16.06665039 C-43.46709409 14.65441104 -42.49392649 13.21682351 -41.55224609 11.75952148 C-39.03236984 8.0142029 -37.74454489 6.27596718 -33.40625 4.66796875 C-31.47265625 4.43013672 -31.47265625 4.43013672 -29.5 4.1875 C-28.08430857 3.98929991 -26.66894707 3.78873049 -25.25390625 3.5859375 C-24.19067139 3.44816895 -24.19067139 3.44816895 -23.10595703 3.30761719 C-18.74441185 2.67052619 -14.47221069 1.55471919 -10.18359375 0.55078125 C-6.73428494 -0.04597034 -3.49379901 -0.09252179 0 0 Z " fill="#D0ECF0" transform="translate(356,402)"/>
<path d="M0 0 C7.54236918 4.72924451 14.1910098 10.26204473 20.8125 16.1875 C22.20748494 17.39681268 23.60319931 18.60528503 25 19.8125 C37.82321307 31.10784088 37.82321307 31.10784088 41.8125 35.1875 C39.82535897 40.04231162 36.04854766 43.69618506 32.58032227 47.53613281 C29.92569208 50.52641479 27.84029716 53.13449694 25.96875 56.703125 C23.90995366 60.57740538 22.42610801 62.6458714 18.8125 65.1875 C11.2499708 67.06521226 3.26613199 66.81504234 -4.47949219 67.02148438 C-10.41598887 67.28727432 -16.24977347 68.0727893 -22.125 68.9375 C-23.27000977 69.10499756 -24.41501953 69.27249512 -25.59472656 69.44506836 C-41.57253725 71.89537177 -57.49527491 75.18909233 -73.04077148 79.63452148 C-75.1875 80.1875 -75.1875 80.1875 -77.1875 80.1875 C-82.35490906 52.0072546 -87.01271761 19.73110851 -71.1875 -5.8125 C-53.40604053 -29.8215674 -19.6605148 -12.0033363 0 0 Z " fill="#D0ECF0" transform="translate(192.1875,157.8125)"/>
<path d="M0 0 C5.55043144 -0.14848288 10.47272773 0.53138629 15.8737793 1.74902344 C19.32385232 2.5087187 22.65207135 3.0951679 26.1796875 3.33984375 C32.02352195 3.84247265 36.48523575 4.41824903 40.73828125 8.859375 C42.94639399 12.02070949 44.7967156 15.37996385 46.67041016 18.74658203 C49.09166101 22.85017098 51.96349224 26.62424247 54.8125 30.4375 C55.40675781 31.23953857 56.00101562 32.04157715 56.61328125 32.86791992 C62.50655007 40.7742439 68.67549461 48.43608766 75 56 C75.51836426 56.62277832 76.03672852 57.24555664 76.57080078 57.88720703 C83.04163113 65.63963086 89.70968756 73.00000974 97 80 C95.43213968 84.44051715 91.89286581 86.83075505 88.3125 89.625 C87.6512915 90.14698975 86.99008301 90.66897949 86.30883789 91.20678711 C79.47448736 96.52974908 72.37411361 101.45478612 65 106 C64.20674316 106.52561523 63.41348633 107.05123047 62.59619141 107.59277344 C57.16973449 109.71620166 51.90160145 109.52791997 46.12109375 109.57421875 C44.87626724 109.5889473 43.63144073 109.60367584 42.34889221 109.61885071 C39.72232178 109.6427609 37.09566251 109.65821018 34.46899414 109.66577148 C31.77854156 109.67450195 29.09045217 109.70943262 26.40063477 109.76831055 C22.5150489 109.84743365 18.63239865 109.87358217 14.74609375 109.88671875 C13.54391708 109.91859787 12.34174042 109.95047699 11.10313416 109.98332214 C2.9974563 109.91770106 2.9974563 109.91770106 0.15597534 107.30342102 C-1.17970878 105.23255599 -2.13412788 103.30377406 -3 101 C-3.41932549 99.91706665 -3.41932549 99.91706665 -3.84712219 98.81225586 C-4.57020483 96.83059413 -5.17159247 94.84080829 -5.75 92.8125 C-5.95753906 92.12736328 -6.16507813 91.44222656 -6.37890625 90.73632812 C-12.18378057 71.28063644 -10.38977753 46.6928754 -6 27 C-5.75878418 25.87787109 -5.51756836 24.75574219 -5.26904297 23.59960938 C-3.57452669 15.71861683 -1.81530883 7.85400721 0 0 Z " fill="#D0ECF0" transform="translate(136,403)"/>
<path d="M0 0 C2.28031283 6.0821654 4.41380338 12.19744723 6.41015625 18.37890625 C12.67348041 37.76918444 19.41612638 56.81055656 28.50390625 75.1015625 C28.88522705 75.875 29.26654785 76.6484375 29.65942383 77.4453125 C30.35385196 78.83323603 31.06671845 80.21219527 31.8034668 81.578125 C34.77974125 87.44793457 34.02483191 91.8344449 32.09326172 97.80078125 C30.96932995 100.95242498 29.77919663 104.07054791 28.5625 107.1875 C28.15451172 108.25419922 27.74652344 109.32089844 27.32617188 110.41992188 C25.5853774 114.96075444 23.81217075 119.48717941 22 124 C-3.40764885 120.68955715 -33.12119056 106.20069305 -52 89 C-52.81210937 88.28070313 -53.62421875 87.56140625 -54.4609375 86.8203125 C-61.56511865 80.18816997 -67.51066213 72.0295267 -68.203125 62.08203125 C-68.39747197 48.52633039 -64.75583449 41.28918985 -55.625 31.4375 C-54.325625 30.2309375 -54.325625 30.2309375 -53 29 C-52.4121875 28.41863281 -51.824375 27.83726562 -51.21875 27.23828125 C-40.06674239 16.64803522 -15.74981282 0 0 0 Z " fill="#D0ECF0" transform="translate(104,259)"/>
<path d="M0 0 C19.93591772 3.02291267 43.5248636 18.94873601 56 34 C62.56263471 43.67710542 65.00975052 51.30738168 64 63 C60.5532643 77.90658305 47.07034934 89.27154097 34.72192383 97.2097168 C19.96499727 106.35216665 -4.53096863 121 -22 121 C-22.29245605 120.20303711 -22.58491211 119.40607422 -22.88623047 118.58496094 C-23.97650053 115.6173159 -25.06884994 112.65044694 -26.16259766 109.68408203 C-26.63478215 108.40216101 -27.10614625 107.11993748 -27.57666016 105.83740234 C-28.25465524 103.98975823 -28.93588546 102.14330227 -29.6171875 100.296875 C-30.02565918 99.18666992 -30.43413086 98.07646484 -30.85498047 96.93261719 C-31.9060219 94.07919307 -31.9060219 94.07919307 -33.15527344 91.8046875 C-34.61812871 88.67941983 -33.77282149 86.29289159 -33 83 C-31.71266112 79.82820984 -30.1737659 76.80096338 -28.625 73.75 C-18.20171573 52.46282457 -10.17541995 30.43236585 -2.97045898 7.89306641 C-2.07243085 5.21592593 -1.0778871 2.60917831 0 0 Z " fill="#D0ECF0" transform="translate(388,261)"/>
<path d="M0 0 C10.95608126 5.64463578 17.64577112 13.6784579 21.9296875 25.1171875 C25.23311522 36.09823688 23.15122134 46.35392251 18.05078125 56.34375 C12.05713237 66.66394012 3.44718284 72.3704703 -7.81640625 76.125 C-20.93580043 77.33067382 -31.30226749 76.40328068 -42.06640625 68.4375 C-50.69829375 61.10445451 -56.08803462 51.55736357 -57.19921875 40.21875 C-57.72969116 28.03229966 -54.43185411 18.66724792 -46.81640625 9.125 C-35.09485569 -3.54694655 -15.66378493 -6.86631668 0 0 Z " fill="#67BDE1" transform="translate(260.81640625,280.875)"/>
<path d="M0 0 C-3.05752673 5.70738322 -6.67327332 10.67931264 -10.6875 15.75 C-11.62287598 16.9402478 -11.62287598 16.9402478 -12.57714844 18.15454102 C-14.37861248 20.44131929 -16.1875058 22.72195894 -18 25 C-18.45133301 25.56895996 -18.90266602 26.13791992 -19.36767578 26.72412109 C-24.23650643 32.8423869 -29.35794784 38.68095028 -34.65234375 44.43359375 C-36.70324098 46.67558956 -38.70477533 48.94791029 -40.6875 51.25 C-43.95237054 55.01237462 -47.43023917 58.5278922 -51 62 C-53.95583107 60.67789665 -55.93870379 59.27958084 -58.13671875 56.91015625 C-58.70922363 56.2965625 -59.28172852 55.68296875 -59.87158203 55.05078125 C-60.47083496 54.39464844 -61.07008789 53.73851562 -61.6875 53.0625 C-62.31253418 52.38445312 -62.93756836 51.70640625 -63.58154297 51.0078125 C-68.61257452 45.51043953 -73.36933342 39.83831883 -78 34 C-78.92957571 32.86082397 -79.86065547 31.72287416 -80.79296875 30.5859375 C-86.35823841 23.76616407 -91.67030634 16.81535077 -96.75 9.625 C-97.2756958 8.8810498 -97.8013916 8.13709961 -98.34301758 7.37060547 C-102 2.13476464 -102 2.13476464 -102 1 C-95.51492073 0.89349322 -89.08300485 0.96491697 -82.61108398 1.35839844 C-57.64568382 2.85565126 -32.79994914 2.14800933 -7.88964844 0.18359375 C-5.24934081 0.01584186 -2.64456138 -0.03413911 0 0 Z " fill="#CFEBF0" transform="translate(297,411)"/>
<path d="M0 0 C26.03483698 -0.37439478 54.45551249 6.71270896 79 15 C73.22011263 40.36249085 62.59467531 64.35072478 52 88 C51.34 88 50.68 88 50 88 C49.64921387 87.27748047 49.29842773 86.55496094 48.93701172 85.81054688 C40.62962527 68.77058219 31.80052796 52.24171832 22 36 C21.0204376 34.35700671 20.04125181 32.7137888 19.0625 31.0703125 C14.11399807 22.81761128 8.93357644 14.78754146 3.35083008 6.94726562 C0 2.20338002 0 2.20338002 0 0 Z " fill="#CFEBF0" transform="translate(294,240)"/>
<path d="M0 0 C1.25683594 0.01353516 1.25683594 0.01353516 2.5390625 0.02734375 C3.14492187 0.03894531 3.75078125 0.05054688 4.375 0.0625 C4.02050781 0.61292969 3.66601562 1.16335937 3.30078125 1.73046875 C1.31372855 4.83373507 -0.65848444 7.94619781 -2.625 11.0625 C-3.07568848 11.77631836 -3.52637695 12.49013672 -3.99072266 13.22558594 C-18.36991238 36.06565752 -31.58669571 59.28453451 -43.35083008 83.56420898 C-44.625 86.0625 -44.625 86.0625 -46.625 89.0625 C-51.17761777 80.38237645 -55.00241471 71.5201095 -58.5 62.375 C-58.75657379 61.70862518 -59.01314758 61.04225037 -59.27749634 60.35568237 C-62.86318365 51.02389886 -66.23881985 41.63990094 -69.3125 32.125 C-69.63911621 31.12057861 -69.96573242 30.11615723 -70.30224609 29.08129883 C-71.98503832 23.71825742 -73.1289962 18.6640362 -73.625 13.0625 C-23.21653832 -0.33166483 -23.21653832 -0.33166483 0 0 Z " fill="#CFEBF0" transform="translate(193.625,239.9375)"/>
<path d="M0 0 C2.45647318 2.25465767 4.05012526 4.55845486 5.69921875 7.44921875 C6.18583984 8.29677734 6.67246094 9.14433594 7.17382812 10.01757812 C7.67333984 10.89865234 8.17285156 11.77972656 8.6875 12.6875 C9.19861328 13.58017578 9.70972656 14.47285156 10.23632812 15.39257812 C11.49518858 17.59264265 12.74955596 19.79514447 14 22 C9.82440074 23.26154688 6.42149903 22.48906169 2.25 21.5625 C1.55261719 21.41490234 0.85523438 21.26730469 0.13671875 21.11523438 C-1.5772021 20.75131967 -3.28884581 20.37670932 -5 20 C-6.02826931 16.86332092 -5.99386675 15.16815258 -4.78515625 12.109375 C-4.37426758 11.04589844 -4.37426758 11.04589844 -3.95507812 9.9609375 C-3.66052734 9.23132813 -3.36597656 8.50171875 -3.0625 7.75 C-2.77181641 7.00492187 -2.48113281 6.25984375 -2.18164062 5.4921875 C-1.46426278 3.65758186 -0.73342561 1.82824935 0 0 Z " fill="#CAE5EB" transform="translate(148,368)"/>
<path d="M0 0 C2.47251438 3.00385701 3.87685277 5.84424833 5.1875 9.5 C5.53167969 10.4384375 5.87585938 11.376875 6.23046875 12.34375 C7 15 7 15 7 19 C4.60612843 19.67449966 2.21030779 20.33976641 -0.1875 21 C-0.86103516 21.19078125 -1.53457031 21.3815625 -2.22851562 21.578125 C-5.90555156 22.5825836 -9.1850182 23.23704741 -13 23 C-12.22076172 21.64068359 -12.22076172 21.64068359 -11.42578125 20.25390625 C-7.57315925 13.52660709 -3.73751649 6.79221747 0 0 Z " fill="#CAE6EC" transform="translate(343,367)"/>
<path d="M0 0 C3.65535513 2.7463176 6.49307672 5.59286805 9.3125 9.1875 C10.00988281 10.06792969 10.70726562 10.94835937 11.42578125 11.85546875 C13 14 13 14 13 15 C4.75 15 -3.5 15 -12 15 C-9.5925314 10.98755234 -7.43148624 8.07770243 -4.3125 4.6875 C-3.50425781 3.80449219 -2.69601563 2.92148438 -1.86328125 2.01171875 C-1.24839844 1.34785156 -0.63351563 0.68398437 0 0 Z " fill="#CEEAEF" transform="translate(245,206)"/>
</svg>
