<?xml version="1.0" encoding="UTF-8"?>
<svg version="1.1" xmlns="http://www.w3.org/2000/svg" width="512" height="512">
<path d="M0 0 C1.16166687 -0.01073296 1.16166687 -0.01073296 2.34680176 -0.02168274 C4.90367847 -0.03857506 7.45880303 -0.01916575 10.015625 0.00219727 C11.79394679 0.00136861 13.5722685 -0.00109065 15.35058594 -0.00511169 C19.07640659 -0.00797004 22.8016262 0.00673473 26.52734375 0.03417969 C31.30264824 0.06826284 36.07687796 0.0622448 40.85223389 0.04351711 C44.52401686 0.03294738 48.19554984 0.04188463 51.86730957 0.05690193 C53.62796283 0.06208443 55.38864218 0.06160111 57.14929199 0.05535698 C59.61051548 0.04990495 62.0702017 0.07027749 64.53125 0.09765625 C65.6223407 0.08786743 65.6223407 0.08786743 66.73547363 0.07788086 C70.09504865 0.1414147 71.95496075 0.39861552 74.67672729 2.43547058 C76.95945252 5.58987547 77.59403583 8.9380346 78.3359375 12.68579102 C78.50310272 13.4649588 78.67026794 14.24412659 78.84249878 15.04690552 C79.37267212 17.53056492 79.88238048 20.01787323 80.390625 22.50610352 C80.90998199 24.98618988 81.43357132 27.4653207 81.96017456 29.94387817 C82.28585281 31.48323335 82.60669584 33.02362217 82.92190552 34.56515503 C83.3438035 36.59394509 83.80118553 38.61171088 84.265625 40.63110352 C84.49258057 41.72052246 84.71953613 42.80994141 84.95336914 43.93237305 C86.77093035 47.67029335 89.38161664 48.66377766 93.06640625 50.13110352 C93.73979538 50.41590576 94.41318451 50.70070801 95.10697937 50.99414062 C96.52906499 51.58934952 97.95573629 52.17370429 99.38647461 52.74780273 C101.57253778 53.6288517 103.73787691 54.55061027 105.90429688 55.47875977 C107.2906284 56.05288786 108.67796914 56.62458632 110.06640625 57.19360352 C110.71241287 57.46946289 111.35841949 57.74532227 112.02400208 58.02954102 C115.03594866 59.21238835 116.82981363 59.74600172 119.99926758 58.91040039 C120.74716553 58.48823242 121.49506348 58.06606445 122.265625 57.63110352 C123.15580322 57.14287109 123.15580322 57.14287109 124.06396484 56.64477539 C124.88695068 56.12753906 124.88695068 56.12753906 125.7265625 55.59985352 C126.355625 55.20588379 126.9846875 54.81191406 127.6328125 54.40600586 C128.29539062 53.98528809 128.95796875 53.56457031 129.640625 53.13110352 C130.33671875 52.69620605 131.0328125 52.26130859 131.75 51.81323242 C135.35511076 49.54458307 138.8943004 47.21503024 142.3671875 44.74829102 C143.35066162 44.05896484 143.35066162 44.05896484 144.35400391 43.35571289 C145.59443001 42.47996889 146.82415085 41.58878406 148.04052734 40.67993164 C151.65535652 38.13839876 154.73906625 36.71188885 159.13597107 37.08354187 C167.101169 39.13149756 174.4377893 49.65714013 180.07421875 55.30688477 C181.091575 56.3235659 182.10907953 57.34009868 183.12672424 58.35649109 C185.24195158 60.47025525 187.35538734 62.58578967 189.4675293 64.70263672 C192.17657072 67.41741872 194.89013698 70.12762687 197.60502529 72.83656025 C199.69913745 74.92706671 201.79087191 77.01993913 203.88188362 79.11354637 C204.88231056 80.11464029 205.88348059 81.11499217 206.88540459 82.11458778 C208.27815092 83.50480277 209.6673633 84.89855547 211.05639648 86.29248047 C211.84723129 87.08411087 212.6380661 87.87574127 213.4528656 88.69136047 C215.80939591 91.21296553 216.22188114 92.25810476 216.62890625 95.72875977 C216.15395233 100.83068413 214.21180702 103.84327458 211.453125 108.06860352 C210.96553711 108.84486084 210.47794922 109.62111816 209.97558594 110.42089844 C207.43840253 114.41943781 204.79847026 118.32912029 202.05078125 122.18579102 C201.54200439 122.90323486 201.03322754 123.62067871 200.5090332 124.35986328 C199.5320407 125.72305292 198.54015036 127.07571798 197.53198242 128.41601562 C194.92490679 131.82468313 194.92490679 131.82468313 194.51049805 135.92260742 C196.91333026 144.54110745 200.01377554 152.942966 203.66796875 161.10766602 C204.18351318 162.2763623 204.69905762 163.44505859 205.23022461 164.64916992 C207.92975886 168.60408313 209.92826636 169.41460772 214.390625 171.06860352 C216.48835643 171.48101568 216.48835643 171.48101568 218.4140625 171.37719727 C224.78569487 171.5519699 230.83401869 173.18163809 237.015625 174.63110352 C238.15918457 174.87014404 239.30274414 175.10918457 240.48095703 175.35546875 C241.55974121 175.59080322 242.63852539 175.8261377 243.75 176.06860352 C244.71647461 176.27356445 245.68294922 176.47852539 246.67871094 176.68969727 C249.88925583 177.85804958 251.17039963 178.92048232 253.265625 181.63110352 C253.65540464 184.3166398 253.80345273 186.59113089 253.76733398 189.27368164 C253.77543846 190.42071815 253.77543846 190.42071815 253.78370667 191.59092712 C253.79619983 194.11513133 253.77969993 196.63819623 253.76171875 199.16235352 C253.76187373 200.91825419 253.76336246 202.67415521 253.76612854 204.43005371 C253.76751279 208.10871517 253.7549503 211.78698686 253.73217773 215.46557617 C253.7037929 220.18020529 253.70653001 224.89418679 253.71926785 229.60886383 C253.72622388 233.23428882 253.71843663 236.8595642 253.70601082 240.48497009 C253.70149558 242.22329637 253.70116016 243.9616387 253.70507622 245.69996643 C253.70798774 248.12982079 253.69148514 250.5587837 253.66967773 252.98852539 C253.67643021 254.06558998 253.67643021 254.06558998 253.68331909 255.16441345 C253.63747076 258.24007425 253.42729532 260.34449477 251.90289307 263.04695129 C249.62883025 265.24723953 247.64292511 265.62501578 244.56640625 266.29907227 C243.43912109 266.55237305 242.31183594 266.80567383 241.15039062 267.06665039 C239.97154297 267.31479492 238.79269531 267.56293945 237.578125 267.81860352 C236.41861328 268.07834961 235.25910156 268.3380957 234.06445312 268.60571289 C228.14526917 269.90800066 222.2953919 271.01400037 216.265625 271.63110352 C216.16121094 272.31946289 216.05679687 273.00782227 215.94921875 273.71704102 C213.27368401 285.1224634 205.56009521 296.93093599 195.71337891 303.27563477 C193.24758325 304.75936877 190.76903072 306.21190748 188.265625 307.63110352 C188.90886719 307.64568604 189.55210937 307.66026855 190.21484375 307.67529297 C231.71835436 308.72250173 231.71835436 308.72250173 247.4921875 323.63110352 C258.49164831 336.03578179 260.87408773 348.9059884 260.65625 364.89282227 C260.65035395 366.35102729 260.64628245 367.80924083 260.64404297 369.26745605 C260.62324408 374.61796935 260.56739954 379.9683003 260.515625 385.31860352 C260.433125 397.30172852 260.350625 409.28485352 260.265625 421.63110352 C226.935625 421.63110352 193.605625 421.63110352 159.265625 421.63110352 C159.265625 443.08110352 159.265625 464.53110352 159.265625 486.63110352 C74.785625 486.63110352 -9.694375 486.63110352 -96.734375 486.63110352 C-96.734375 465.18110352 -96.734375 443.73110352 -96.734375 421.63110352 C-130.064375 421.63110352 -163.394375 421.63110352 -197.734375 421.63110352 C-197.816875 409.64797852 -197.899375 397.66485352 -197.984375 385.31860352 C-198.02079102 381.55542725 -198.05720703 377.79225098 -198.09472656 373.91503906 C-198.11279297 369.26745605 -198.11279297 369.26745605 -198.1161499 367.08161926 C-198.1222334 365.57705431 -198.13617767 364.07250705 -198.15667725 362.56806946 C-198.35334127 347.35519732 -195.11614833 335.50471472 -185.06640625 323.66625977 C-168.79885672 307.8296387 -146.91681724 308.26820839 -125.734375 307.63110352 C-126.44722656 307.20700195 -127.16007812 306.78290039 -127.89453125 306.34594727 C-139.18264406 299.43330752 -146.25926955 291.8076608 -151.734375 279.63110352 C-151.87053223 278.9351709 -152.00668945 278.23923828 -152.14697266 277.5222168 C-152.67478533 275.04983113 -153.13757977 273.61013995 -154.734375 271.63110352 C-159.2200998 269.80503183 -163.84099345 269.12571565 -168.609375 268.38110352 C-171.15063063 267.95116299 -173.6898392 267.50889953 -176.2265625 267.05297852 C-177.35433105 266.87347656 -178.48209961 266.69397461 -179.64404297 266.5090332 C-183.15995576 265.51020065 -185.09297359 264.12592659 -187.734375 261.63110352 C-189.21382506 258.67220339 -188.89899871 255.6602947 -188.91137695 252.41503906 C-188.92123375 251.30011078 -188.92123375 251.30011078 -188.93128967 250.16265869 C-188.951034 247.69771223 -188.96268783 245.23282673 -188.97265625 242.76782227 C-188.97673178 241.92638987 -188.9808073 241.08495747 -188.98500633 240.21802711 C-189.00587207 235.76433176 -189.0201715 231.31066727 -189.02954102 226.85693359 C-189.04060569 222.25666952 -189.07500452 217.65688914 -189.11471272 213.05679607 C-189.14085854 209.51973064 -189.14923103 205.98278079 -189.15282249 202.44562721 C-189.15769386 200.7499547 -189.16932355 199.05428753 -189.18786049 197.35870934 C-189.21220923 194.98386703 -189.21129527 192.61028048 -189.2043457 190.23535156 C-189.21715576 189.53646317 -189.22996582 188.83757477 -189.24316406 188.11750793 C-189.20615377 184.64304965 -188.78398719 182.71083157 -186.9329834 179.73622131 C-183.89930095 176.83153901 -180.71122044 176.21156802 -176.71484375 175.42797852 C-175.93804764 175.25985657 -175.16125153 175.09173462 -174.36091614 174.91851807 C-171.88474702 174.38750999 -169.40383005 173.88429044 -166.921875 173.38110352 C-165.26459984 173.02869164 -163.60769317 172.67454213 -161.95117188 172.31860352 C-155.23008477 170.89018465 -148.54803554 169.53727953 -141.734375 168.63110352 C-141.33734375 167.3768457 -140.9403125 166.12258789 -140.53125 164.83032227 C-139.32092071 161.19292677 -137.94905652 157.67325642 -136.4375 154.15063477 C-136.03660156 153.21413086 -135.63570312 152.27762695 -135.22265625 151.31274414 C-134.39040961 149.3843998 -133.54910339 147.4599426 -132.69921875 145.53930664 C-132.30347656 144.60666992 -131.90773438 143.6740332 -131.5 142.71313477 C-130.95520996 141.46367065 -130.95520996 141.46367065 -130.39941406 140.18896484 C-129.29415201 135.93792573 -130.09800783 132.83235094 -132.12963867 128.99731445 C-132.71463135 128.12880859 -133.29962402 127.26030273 -133.90234375 126.36547852 C-134.87204102 124.90561523 -134.87204102 124.90561523 -135.86132812 123.41625977 C-136.54130859 122.4146582 -137.22128906 121.41305664 -137.921875 120.38110352 C-145.82600736 108.58274009 -145.82600736 108.58274009 -149.203125 103.12329102 C-149.68587891 102.34324707 -150.16863281 101.56320313 -150.66601562 100.75952148 C-151.734375 98.63110352 -151.734375 98.63110352 -152.046875 95.00610352 C-148.65593312 86.28653868 -139.78884182 79.53705515 -133.27734375 73.04125977 C-132.28308288 72.04632373 -131.28897037 71.05123943 -130.29499817 70.05601501 C-128.2283122 67.9878662 -126.15985707 65.92150836 -124.09008789 63.85644531 C-121.43583936 61.20793836 -118.78616665 58.55490571 -116.13776684 55.9005518 C-114.09358351 53.8527627 -112.04703428 51.80735151 -109.99975014 49.76266289 C-109.02098495 48.78456461 -108.04296159 47.80572342 -107.06569481 46.82612801 C-105.70661295 45.46451458 -104.343993 44.1064354 -102.98120117 42.74853516 C-102.20733566 41.97546524 -101.43347015 41.20239532 -100.63615417 40.40589905 C-97.59342107 37.56633219 -95.16995861 37.20301616 -91.00830078 37.26489258 C-86.62553778 37.97072729 -83.27856727 40.5451672 -79.671875 43.00610352 C-78.84768066 43.54178955 -78.02348633 44.07747559 -77.17431641 44.62939453 C-73.19274991 47.23266736 -69.29996365 49.92455713 -65.48046875 52.76000977 C-64.82377197 53.2345459 -64.1670752 53.70908203 -63.49047852 54.19799805 C-62.27099577 55.08653486 -61.07037666 56.00179706 -59.89428711 56.94702148 C-57.58191876 58.62671285 -55.6469094 59.74062554 -52.74291992 59.39208984 C-50.31762922 58.62567496 -48.05683697 57.66903175 -45.734375 56.63110352 C-44.76628906 56.23479736 -43.79820312 55.83849121 -42.80078125 55.43017578 C-38.51621573 53.67584704 -34.26100267 51.85451507 -30.00195312 50.03930664 C-28.96619141 49.60166992 -27.93042969 49.1640332 -26.86328125 48.71313477 C-25.92556885 48.31328369 -24.98785645 47.91343262 -24.02172852 47.50146484 C-21.734375 46.63110352 -21.734375 46.63110352 -19.734375 46.63110352 C-19.6000708 45.47247803 -19.4657666 44.31385254 -19.32739258 43.12011719 C-18.52864529 36.74859643 -17.1945899 30.48559903 -15.88793945 24.203125 C-15.57638371 22.69267532 -15.27107382 21.1809243 -14.97192383 19.66796875 C-14.53543988 17.46120707 -14.08039605 15.25899608 -13.62109375 13.05688477 C-13.49175949 12.38595291 -13.36242523 11.71502106 -13.22917175 11.02375793 C-11.46556697 2.83301594 -8.27807901 -0.13306266 0 0 Z M-33.734375 150.63110352 C-34.64574219 151.45094727 -35.55710938 152.27079102 -36.49609375 153.11547852 C-55.51265514 171.04462148 -65.73507677 195.68731864 -66.9140625 221.65063477 C-66.65763121 227.33114522 -65.27469279 232.44363423 -63.70703125 237.88110352 C-62.81282695 241.32863816 -62.43990594 244.33762722 -62.296875 247.88110352 C-61.90432797 254.47410931 -59.61995358 259.75016892 -56.734375 265.63110352 C-56.30125 266.53602539 -55.868125 267.44094727 -55.421875 268.37329102 C-43.78900958 291.17635107 -23.73502912 308.02001119 0.36865234 316.35864258 C7.0271061 318.4715877 13.22512928 319.84608048 20.265625 319.63110352 C17.45498393 317.75734281 14.76679042 316.47061989 11.703125 315.06860352 C-1.17938811 308.67402273 -10.65310114 297.69296187 -17.046875 285.00610352 C-17.47548828 284.18625977 -17.90410156 283.36641602 -18.34570312 282.52172852 C-20.12012188 279.07808275 -21.66035666 275.87302375 -22.796875 272.15844727 C-23.48050332 269.56195072 -23.48050332 269.56195072 -25.43359375 268.48657227 C-26.08972656 268.26614258 -26.74585938 268.04571289 -27.421875 267.81860352 C-33.71066337 265.03373171 -37.21364737 259.95827124 -40.0234375 253.81079102 C-43.26149167 245.2613962 -45.59497716 235.70762389 -42.796875 226.69360352 C-40.47892199 223.25179449 -39.89901602 223.06578639 -36.046875 222.19360352 C-34.61059149 221.99700197 -33.17321079 221.80806136 -31.734375 221.63110352 C-31.89164063 220.36395508 -32.04890625 219.09680664 -32.2109375 217.79125977 C-34.28967721 198.85697402 -33.59078364 180.42180576 -21.734375 164.63110352 C-9.72715549 149.92390594 5.0122318 139.23756543 24.265625 136.63110352 C43.40372732 135.41301132 59.80353289 141.03508781 74.265625 153.63110352 C74.843125 154.14672852 75.420625 154.66235352 76.015625 155.19360352 C79.3235144 158.13394965 82.47944344 160.34069349 86.390625 162.44360352 C92.27587371 165.84755254 95.10832255 170.36028417 96.87109375 176.86547852 C98.58910535 188.90856976 97.22206513 201.02130184 94.921875 212.87329102 C94.3904992 215.91605007 94.12121662 218.56242548 94.265625 221.63110352 C94.88050781 221.69426758 95.49539063 221.75743164 96.12890625 221.82250977 C98.66676548 222.20703389 100.87768485 222.68270175 103.265625 223.63110352 C107.25345614 229.55242853 106.97260945 235.74781211 105.7265625 242.59204102 C103.63613653 251.71181146 100.50549636 260.32207276 93.265625 266.63110352 C92.09 267.02297852 90.914375 267.41485352 89.703125 267.81860352 C84.94516067 270.32734834 84.44865867 273.27200305 82.62890625 278.17407227 C78.47392887 288.71033297 72.3256729 297.68872055 64.265625 305.63110352 C63.42257812 306.48961914 63.42257812 306.48961914 62.5625 307.36547852 C58.25142828 311.42541984 53.2642758 313.81955771 47.9375 316.33422852 C45.13687947 317.61892889 45.13687947 317.61892889 42.265625 319.63110352 C63.33316388 320.3768571 84.89721409 306.91714447 99.82421875 293.06469727 C108.02894536 284.88622578 113.97970008 275.84517241 119.265625 265.63110352 C119.77351562 264.6655957 120.28140625 263.70008789 120.8046875 262.70532227 C124.01476305 255.91910992 124.96499843 249.51789502 125.5925293 242.12866211 C125.95118027 237.99522059 126.47910419 234.41919912 127.953125 230.50610352 C133.1065925 215.12458061 125.8109478 194.30863126 119.1796875 180.35375977 C114.29943348 170.6057652 107.77525006 162.46842131 100.265625 154.63110352 C99.68039062 153.99430664 99.09515625 153.35750977 98.4921875 152.70141602 C89.73004494 143.44563162 78.69861936 137.88508136 67.265625 132.63110352 C66.34007812 132.20571289 65.41453125 131.78032227 64.4609375 131.34204102 C31.92267171 118.06318488 -8.37738626 127.10480367 -33.734375 150.63110352 Z " fill="#E9E7E7" transform="translate(224.734375,12.368896484375)"/>
<path d="M0 0 C1.16166687 -0.01073296 1.16166687 -0.01073296 2.34680176 -0.02168274 C4.90367847 -0.03857506 7.45880303 -0.01916575 10.015625 0.00219727 C11.79394679 0.00136861 13.5722685 -0.00109065 15.35058594 -0.00511169 C19.07640659 -0.00797004 22.8016262 0.00673473 26.52734375 0.03417969 C31.30264824 0.06826284 36.07687796 0.0622448 40.85223389 0.04351711 C44.52401686 0.03294738 48.19554984 0.04188463 51.86730957 0.05690193 C53.62796283 0.06208443 55.38864218 0.06160111 57.14929199 0.05535698 C59.61051548 0.04990495 62.0702017 0.07027749 64.53125 0.09765625 C65.6223407 0.08786743 65.6223407 0.08786743 66.73547363 0.07788086 C70.09504865 0.1414147 71.95496075 0.39861552 74.67672729 2.43547058 C76.95945252 5.58987547 77.59403583 8.9380346 78.3359375 12.68579102 C78.50310272 13.4649588 78.67026794 14.24412659 78.84249878 15.04690552 C79.37267212 17.53056492 79.88238048 20.01787323 80.390625 22.50610352 C80.90998199 24.98618988 81.43357132 27.4653207 81.96017456 29.94387817 C82.28585281 31.48323335 82.60669584 33.02362217 82.92190552 34.56515503 C83.3438035 36.59394509 83.80118553 38.61171088 84.265625 40.63110352 C84.49258057 41.72052246 84.71953613 42.80994141 84.95336914 43.93237305 C86.77093035 47.67029335 89.38161664 48.66377766 93.06640625 50.13110352 C93.73979538 50.41590576 94.41318451 50.70070801 95.10697937 50.99414062 C96.52906499 51.58934952 97.95573629 52.17370429 99.38647461 52.74780273 C101.57253778 53.6288517 103.73787691 54.55061027 105.90429688 55.47875977 C107.2906284 56.05288786 108.67796914 56.62458632 110.06640625 57.19360352 C110.71241287 57.46946289 111.35841949 57.74532227 112.02400208 58.02954102 C115.03594866 59.21238835 116.82981363 59.74600172 119.99926758 58.91040039 C120.74716553 58.48823242 121.49506348 58.06606445 122.265625 57.63110352 C123.15580322 57.14287109 123.15580322 57.14287109 124.06396484 56.64477539 C124.88695068 56.12753906 124.88695068 56.12753906 125.7265625 55.59985352 C126.355625 55.20588379 126.9846875 54.81191406 127.6328125 54.40600586 C128.29539062 53.98528809 128.95796875 53.56457031 129.640625 53.13110352 C130.33671875 52.69620605 131.0328125 52.26130859 131.75 51.81323242 C135.35511076 49.54458307 138.8943004 47.21503024 142.3671875 44.74829102 C143.35066162 44.05896484 143.35066162 44.05896484 144.35400391 43.35571289 C145.59443001 42.47996889 146.82415085 41.58878406 148.04052734 40.67993164 C151.65535652 38.13839876 154.73906625 36.71188885 159.13597107 37.08354187 C167.101169 39.13149756 174.4377893 49.65714013 180.07421875 55.30688477 C181.091575 56.3235659 182.10907953 57.34009868 183.12672424 58.35649109 C185.24195158 60.47025525 187.35538734 62.58578967 189.4675293 64.70263672 C192.17657072 67.41741872 194.89013698 70.12762687 197.60502529 72.83656025 C199.69913745 74.92706671 201.79087191 77.01993913 203.88188362 79.11354637 C204.88231056 80.11464029 205.88348059 81.11499217 206.88540459 82.11458778 C208.27815092 83.50480277 209.6673633 84.89855547 211.05639648 86.29248047 C211.84723129 87.08411087 212.6380661 87.87574127 213.4528656 88.69136047 C215.80939591 91.21296553 216.22188114 92.25810476 216.62890625 95.72875977 C216.15395233 100.83068413 214.21180702 103.84327458 211.453125 108.06860352 C210.96553711 108.84486084 210.47794922 109.62111816 209.97558594 110.42089844 C207.43840253 114.41943781 204.79847026 118.32912029 202.05078125 122.18579102 C201.54200439 122.90323486 201.03322754 123.62067871 200.5090332 124.35986328 C199.5320407 125.72305292 198.54015036 127.07571798 197.53198242 128.41601562 C194.92490679 131.82468313 194.92490679 131.82468313 194.51049805 135.92260742 C196.91333026 144.54110745 200.01377554 152.942966 203.66796875 161.10766602 C204.18351318 162.2763623 204.69905762 163.44505859 205.23022461 164.64916992 C207.92975886 168.60408313 209.92826636 169.41460772 214.390625 171.06860352 C216.48835643 171.48101568 216.48835643 171.48101568 218.4140625 171.37719727 C224.78569487 171.5519699 230.83401869 173.18163809 237.015625 174.63110352 C238.15918457 174.87014404 239.30274414 175.10918457 240.48095703 175.35546875 C241.55974121 175.59080322 242.63852539 175.8261377 243.75 176.06860352 C244.71647461 176.27356445 245.68294922 176.47852539 246.67871094 176.68969727 C249.88925583 177.85804958 251.17039963 178.92048232 253.265625 181.63110352 C253.65540464 184.3166398 253.80345273 186.59113089 253.76733398 189.27368164 C253.77543846 190.42071815 253.77543846 190.42071815 253.78370667 191.59092712 C253.79619983 194.11513133 253.77969993 196.63819623 253.76171875 199.16235352 C253.76187373 200.91825419 253.76336246 202.67415521 253.76612854 204.43005371 C253.76751279 208.10871517 253.7549503 211.78698686 253.73217773 215.46557617 C253.7037929 220.18020529 253.70653001 224.89418679 253.71926785 229.60886383 C253.72622388 233.23428882 253.71843663 236.8595642 253.70601082 240.48497009 C253.70149558 242.22329637 253.70116016 243.9616387 253.70507622 245.69996643 C253.70798774 248.12982079 253.69148514 250.5587837 253.66967773 252.98852539 C253.67643021 254.06558998 253.67643021 254.06558998 253.68331909 255.16441345 C253.63747076 258.24007425 253.42729532 260.34449477 251.90289307 263.04695129 C249.62883025 265.24723953 247.64292511 265.62501578 244.56640625 266.29907227 C243.43912109 266.55237305 242.31183594 266.80567383 241.15039062 267.06665039 C239.97154297 267.31479492 238.79269531 267.56293945 237.578125 267.81860352 C236.41861328 268.07834961 235.25910156 268.3380957 234.06445312 268.60571289 C228.14526917 269.90800066 222.2953919 271.01400037 216.265625 271.63110352 C216.39839844 270.99043945 216.53117187 270.34977539 216.66796875 269.68969727 C216.84457031 268.82473633 217.02117187 267.95977539 217.203125 267.06860352 C217.46416016 265.79823242 217.46416016 265.79823242 217.73046875 264.50219727 C220.84710056 247.78158137 220.14173823 232.5593241 210.3046875 218.20141602 C202.14152427 207.91145163 191.40844514 201.2169314 178.265625 199.63110352 C165.43869629 198.45515095 153.61270075 201.95938468 143.265625 209.63110352 C137.41448292 214.50362148 133.5594382 219.79010687 130.265625 226.63110352 C129.605625 226.30110352 128.945625 225.97110352 128.265625 225.63110352 C128.05105079 223.27691787 127.94524272 220.99014772 127.890625 218.63110352 C126.63946518 191.29048793 114.2349325 168.67243828 94.515625 150.00610352 C79.11306751 136.52886571 57.88588974 127.47952228 37.265625 126.63110352 C36.36972656 126.59114258 35.47382813 126.55118164 34.55078125 126.51000977 C9.33882817 125.94679925 -15.17825455 134.45059451 -33.734375 151.63110352 C-34.99121094 152.7506543 -34.99121094 152.7506543 -36.2734375 153.89282227 C-56.74847398 173.06835952 -63.96774566 198.58366143 -66.734375 225.63110352 C-67.30285156 224.91051758 -67.87132812 224.18993164 -68.45703125 223.44750977 C-70.63282338 220.75669309 -72.8688686 218.15100411 -75.171875 215.56860352 C-75.91308594 214.73200195 -76.65429688 213.89540039 -77.41796875 213.03344727 C-86.41313552 203.70456436 -97.99142959 199.61997858 -110.859375 199.25610352 C-123.78685324 199.64325456 -135.18388065 205.38108688 -144.47265625 214.17407227 C-153.41692897 223.89073468 -156.25183828 234.53091669 -156.046875 247.44360352 C-156.05009766 248.44713867 -156.05332031 249.45067383 -156.05664062 250.48461914 C-156.0057075 257.693972 -155.10757983 264.55913794 -153.734375 271.63110352 C-157.77662897 270.86842851 -161.81466865 270.08660927 -165.84985352 269.28735352 C-167.22123848 269.01847351 -168.59363975 268.75472161 -169.96704102 268.49633789 C-171.94811195 268.1226865 -173.92530336 267.72865054 -175.90234375 267.33422852 C-177.68547974 266.98859863 -177.68547974 266.98859863 -179.50463867 266.63598633 C-183.0399408 265.53603141 -185.05845271 264.16048793 -187.734375 261.63110352 C-189.21382506 258.67220339 -188.89899871 255.6602947 -188.91137695 252.41503906 C-188.92123375 251.30011078 -188.92123375 251.30011078 -188.93128967 250.16265869 C-188.951034 247.69771223 -188.96268783 245.23282673 -188.97265625 242.76782227 C-188.97673178 241.92638987 -188.9808073 241.08495747 -188.98500633 240.21802711 C-189.00587207 235.76433176 -189.0201715 231.31066727 -189.02954102 226.85693359 C-189.04060569 222.25666952 -189.07500452 217.65688914 -189.11471272 213.05679607 C-189.14085854 209.51973064 -189.14923103 205.98278079 -189.15282249 202.44562721 C-189.15769386 200.7499547 -189.16932355 199.05428753 -189.18786049 197.35870934 C-189.21220923 194.98386703 -189.21129527 192.61028048 -189.2043457 190.23535156 C-189.21715576 189.53646317 -189.22996582 188.83757477 -189.24316406 188.11750793 C-189.20615377 184.64304965 -188.78398719 182.71083157 -186.9329834 179.73622131 C-183.89930095 176.83153901 -180.71122044 176.21156802 -176.71484375 175.42797852 C-175.93804764 175.25985657 -175.16125153 175.09173462 -174.36091614 174.91851807 C-171.88474702 174.38750999 -169.40383005 173.88429044 -166.921875 173.38110352 C-165.26459984 173.02869164 -163.60769317 172.67454213 -161.95117188 172.31860352 C-155.23008477 170.89018465 -148.54803554 169.53727953 -141.734375 168.63110352 C-141.33734375 167.3768457 -140.9403125 166.12258789 -140.53125 164.83032227 C-139.32092071 161.19292677 -137.94905652 157.67325642 -136.4375 154.15063477 C-136.03660156 153.21413086 -135.63570312 152.27762695 -135.22265625 151.31274414 C-134.39040961 149.3843998 -133.54910339 147.4599426 -132.69921875 145.53930664 C-132.30347656 144.60666992 -131.90773437 143.6740332 -131.5 142.71313477 C-131.13680664 141.88015869 -130.77361328 141.04718262 -130.39941406 140.18896484 C-129.29415201 135.93792573 -130.09800783 132.83235094 -132.12963867 128.99731445 C-132.71463135 128.12880859 -133.29962402 127.26030273 -133.90234375 126.36547852 C-134.87204102 124.90561523 -134.87204102 124.90561523 -135.86132812 123.41625977 C-136.54130859 122.4146582 -137.22128906 121.41305664 -137.921875 120.38110352 C-145.82600736 108.58274009 -145.82600736 108.58274009 -149.203125 103.12329102 C-149.68587891 102.34324707 -150.16863281 101.56320313 -150.66601562 100.75952148 C-151.734375 98.63110352 -151.734375 98.63110352 -152.046875 95.00610352 C-148.65593312 86.28653868 -139.78884182 79.53705515 -133.27734375 73.04125977 C-132.28308288 72.04632373 -131.28897037 71.05123943 -130.29499817 70.05601501 C-128.2283122 67.9878662 -126.15985707 65.92150836 -124.09008789 63.85644531 C-121.43583936 61.20793836 -118.78616665 58.55490571 -116.13776684 55.9005518 C-114.09358351 53.8527627 -112.04703428 51.80735151 -109.99975014 49.76266289 C-109.02098495 48.78456461 -108.04296159 47.80572342 -107.06569481 46.82612801 C-105.70661295 45.46451458 -104.343993 44.1064354 -102.98120117 42.74853516 C-102.20733566 41.97546524 -101.43347015 41.20239532 -100.63615417 40.40589905 C-97.59342107 37.56633219 -95.16995861 37.20301616 -91.00830078 37.26489258 C-86.62553778 37.97072729 -83.27856727 40.5451672 -79.671875 43.00610352 C-78.84768066 43.54178955 -78.02348633 44.07747559 -77.17431641 44.62939453 C-73.19274991 47.23266736 -69.29996365 49.92455713 -65.48046875 52.76000977 C-64.82377197 53.2345459 -64.1670752 53.70908203 -63.49047852 54.19799805 C-62.27099577 55.08653486 -61.07037666 56.00179706 -59.89428711 56.94702148 C-57.58191876 58.62671285 -55.6469094 59.74062554 -52.74291992 59.39208984 C-50.31762922 58.62567496 -48.05683697 57.66903175 -45.734375 56.63110352 C-44.76628906 56.23479736 -43.79820312 55.83849121 -42.80078125 55.43017578 C-38.51621573 53.67584704 -34.26100267 51.85451507 -30.00195312 50.03930664 C-28.96619141 49.60166992 -27.93042969 49.1640332 -26.86328125 48.71313477 C-25.92556885 48.31328369 -24.98785645 47.91343262 -24.02172852 47.50146484 C-21.734375 46.63110352 -21.734375 46.63110352 -19.734375 46.63110352 C-19.6000708 45.47247803 -19.4657666 44.31385254 -19.32739258 43.12011719 C-18.52864529 36.74859643 -17.1945899 30.48559903 -15.88793945 24.203125 C-15.57638371 22.69267532 -15.27107382 21.1809243 -14.97192383 19.66796875 C-14.53543988 17.46120707 -14.08039605 15.25899608 -13.62109375 13.05688477 C-13.49175949 12.38595291 -13.36242523 11.71502106 -13.22917175 11.02375793 C-11.46556697 2.83301594 -8.27807901 -0.13306266 0 0 Z " fill="#484867" transform="translate(224.734375,12.368896484375)"/>
<path d="M0 0 C2.80629905 2.14879605 5.47749623 4.40833927 8.11328125 6.76171875 C11.40465437 9.68738374 14.52658411 11.87158684 18.42578125 13.94921875 C24.51116372 17.46501137 28.12158179 22.71530404 29.99609375 29.484375 C32.04163044 44.60828991 29.36546309 59.40189562 26.36328125 74.19921875 C27.45898438 74.1528125 28.5546875 74.10640625 29.68359375 74.05859375 C33.36328125 74.19921875 33.36328125 74.19921875 36.23828125 76.44921875 C39.95439766 81.25831058 39.85338128 86.30926655 39.36328125 92.19921875 C37.3776015 103.31026498 33.71783774 112.39430414 25.36328125 120.19921875 C22.67920768 121.81998625 21.56483316 122.19921875 18.36328125 122.19921875 C18.28851563 123.00101563 18.21375 123.8028125 18.13671875 124.62890625 C15.23718303 138.01363175 6.11569377 149.97682865 -3.63671875 159.19921875 C-4.24 159.80894531 -4.84328125 160.41867187 -5.46484375 161.046875 C-10.55974469 165.88208438 -18.51502274 171.19921875 -25.63671875 171.19921875 C-24.46109375 172.31296875 -24.46109375 172.31296875 -23.26171875 173.44921875 C-18.64650997 178.28419938 -18.198692 181.88525635 -18.3125 188.43359375 C-18.80062454 192.59735485 -20.13995128 194.84641671 -22.63671875 198.19921875 C-23.62671875 198.85921875 -24.61671875 199.51921875 -25.63671875 200.19921875 C-25.02806095 205.57619083 -24.39935626 210.95062131 -23.76171875 216.32421875 C-23.66011444 217.18348969 -23.55851013 218.04276062 -23.4538269 218.92807007 C-21.84254294 232.4387022 -19.98267356 245.90584751 -18.0078125 259.3671875 C-17.77559918 260.95636907 -17.54346225 262.54556179 -17.31140137 264.13476562 C-16.2605597 271.32118702 -15.20225975 278.50624489 -14.11641216 285.68746853 C-13.66079549 288.71711349 -13.21532937 291.74819344 -12.77220345 294.77968788 C-12.5610573 296.20759291 -12.34535864 297.63483286 -12.12490654 299.0613308 C-11.82119167 301.02913543 -11.53432406 302.99951824 -11.24829102 304.9699707 C-11.08128189 306.08096634 -10.91427277 307.19196198 -10.74220276 308.33662415 C-10.5782874 312.7849119 -12.0360384 314.54021383 -14.97509766 317.76464844 C-15.93270753 318.72194406 -16.89574824 319.67382849 -17.86328125 320.62109375 C-18.37096039 321.12594299 -18.87863953 321.63079224 -19.40170288 322.15093994 C-21.01705717 323.75513971 -22.63924084 325.35222731 -24.26171875 326.94921875 C-25.36113573 328.03859982 -26.46009934 329.12843865 -27.55859375 330.21875 C-30.24607895 332.8842376 -32.93970896 335.54337018 -35.63671875 338.19921875 C-45.97865655 333.26374717 -56.51315673 325.98089856 -61.82849121 315.51702881 C-66.63291468 301.73905106 -59.85339016 282.59543947 -56.96972656 268.890625 C-55.02999413 259.47969722 -53.85618625 249.97941892 -52.68222046 240.44830322 C-52.2261376 236.78681047 -51.735474 233.1304432 -51.24143982 229.47390747 C-50.90738259 226.97701579 -50.58827666 224.47856322 -50.27099609 221.97949219 C-49.85689995 218.75212571 -49.37655659 215.54388128 -48.85009766 212.33300781 C-48.73310013 211.55800934 -48.6161026 210.78301086 -48.49555969 209.98452759 C-48.27652432 208.53450296 -48.03658364 207.08741127 -47.77140808 205.64511108 C-47.39523403 203.4424301 -47.39523403 203.4424301 -47.63671875 200.19921875 C-49.90779979 197.31256184 -49.90779979 197.31256184 -52.63671875 195.19921875 C-55.63206739 190.62927596 -55.14469574 185.46654944 -54.63671875 180.19921875 C-53.29016616 176.90016489 -52.47207368 175.70043171 -49.44921875 173.88671875 C-48.85109375 173.65984375 -48.25296875 173.43296875 -47.63671875 173.19921875 C-47.63671875 172.53921875 -47.63671875 171.87921875 -47.63671875 171.19921875 C-48.51070313 171.09222656 -49.3846875 170.98523438 -50.28515625 170.875 C-63.28076841 168.25467261 -74.3214035 156.56253133 -81.44921875 145.88671875 C-91.63671875 128.69844905 -91.63671875 128.69844905 -91.63671875 122.19921875 C-92.31734375 122.15796875 -92.99796875 122.11671875 -93.69921875 122.07421875 C-99.63595778 120.3058284 -103.35911511 116.09516726 -106.38671875 110.82421875 C-110.98461628 101.82504431 -114.86500791 91.31326478 -112.0703125 81.13671875 C-110.70847648 77.71430361 -109.74992508 76.27468964 -106.63671875 74.19921875 C-104.30472487 74.12016811 -101.96839253 74.11123106 -99.63671875 74.19921875 C-99.95769531 72.93207031 -100.27867187 71.66492188 -100.609375 70.359375 C-104.27041015 53.75987197 -102.11485897 36.67164496 -93.88671875 21.82421875 C-83.38785329 5.80671888 -68.22972482 -5.95722505 -49.63671875 -10.80078125 C-31.79604339 -14.35470064 -14.88512587 -10.16598967 0 0 Z " fill="#FEDCAA" transform="translate(292.63671875,159.80078125)"/>
<path d="M0 0 C11.20193262 8.5743188 18.31174058 19.04968337 21 33 C23.05226444 51.7242683 18.16123953 72.22296139 6.609375 87.22265625 C1.41261329 93.29371592 -4.10184283 97.07857132 -11 101 C-10.35675781 101.01458252 -9.71351563 101.02916504 -9.05078125 101.04418945 C32.45272936 102.09139822 32.45272936 102.09139822 48.2265625 117 C59.22602331 129.40467827 61.60846273 142.27488489 61.390625 158.26171875 C61.38472895 159.71992377 61.38065745 161.17813732 61.37841797 162.63635254 C61.35761908 167.98686583 61.30177454 173.33719678 61.25 178.6875 C61.1675 190.670625 61.085 202.65375 61 215 C27.67 215 -5.66 215 -40 215 C-40.33 201.8 -40.66 188.6 -41 175 C-46.38085513 153.47657949 -53.69862949 137.75648329 -72.72583008 125.953125 C-78.25040141 122.69545203 -83.96544507 120.14457594 -90 118 C-90.60711823 117.75488174 -91.21423645 117.50976349 -91.8397522 117.25721741 C-98.26976866 114.82748539 -104.20846005 114.52908343 -111.03515625 114.48828125 C-112.15442001 114.47033005 -113.27368378 114.45237885 -114.42686462 114.43388367 C-117.97203906 114.38006824 -121.51708109 114.34597689 -125.0625 114.3125 C-127.47853394 114.2793016 -129.89455046 114.24480963 -132.31054688 114.20898438 C-138.20691243 114.12435842 -144.10329574 114.0558877 -150 114 C-149.505 113.01 -149.505 113.01 -149 112 C-146.65057633 111.21988249 -144.32125974 110.53237847 -141.9375 109.875 C-117.20757543 102.58176801 -96.3912999 86.97523026 -83.80175781 64.30493164 C-82.85257326 62.54476799 -81.92591185 60.77251647 -81 59 C-80.49082031 58.03320312 -79.98164063 57.06640625 -79.45703125 56.0703125 C-76.24496115 49.26938989 -75.31360617 42.86276678 -74.67089844 35.46240234 C-74.1790754 29.9181074 -73.11224577 25.18460325 -71 20 C-70.34 20 -69.68 20 -69 20 C-68.88914062 19.41863281 -68.77828125 18.83726562 -68.6640625 18.23828125 C-67.46290119 14.18966106 -64.65068299 11.21955103 -62 8 C-61.51789063 7.39671875 -61.03578125 6.7934375 -60.5390625 6.171875 C-45.58903629 -10.67536266 -18.05102964 -12.7119927 0 0 Z " fill="#7DA8FE" transform="translate(424,219)"/>
<path d="M0 0 C5.79057051 5.06385004 10.99420499 10.37646453 15 17 C15 17.66 15 18.32 15 19 C15.66 19 16.32 19 17 19 C21.13570612 34.15784383 21.13570612 34.15784383 21.4375 41.25 C21.83004703 47.8430058 24.11442142 53.1190654 27 59 C27.433125 59.90492188 27.86625 60.80984375 28.3125 61.7421875 C39.69182102 84.04824292 59.41255922 100.91201261 83.21582031 108.72753906 C87.43965332 109.98662034 91.69585509 111.04770011 96 112 C96 112.66 96 113.32 96 114 C95.40912598 114.00142502 94.81825195 114.00285004 94.20947266 114.00431824 C87.97806214 114.02422845 81.7476034 114.07894878 75.51660156 114.15258789 C73.20091618 114.17557755 70.88512905 114.19011819 68.56933594 114.19555664 C43.38530479 114.2662983 23.75005051 119.30263288 4.88671875 136.98046875 C-15.61106622 158.19468116 -13.29454596 186.78183837 -14 215 C-47.33 215 -80.66 215 -115 215 C-115.0825 203.016875 -115.165 191.03375 -115.25 178.6875 C-115.28641602 174.92432373 -115.32283203 171.16114746 -115.36035156 167.28393555 C-115.37841797 162.63635254 -115.37841797 162.63635254 -115.3817749 160.45051575 C-115.3878584 158.9459508 -115.40180267 157.44140353 -115.42230225 155.93696594 C-115.61896627 140.72409381 -112.38177333 128.87361121 -102.33203125 117.03515625 C-86.06448172 101.19853519 -64.18244224 101.63710488 -43 101 C-43.71285156 100.57589844 -44.42570312 100.15179688 -45.16015625 99.71484375 C-58.65186078 91.45276359 -67.37897046 80.4410602 -71.8515625 65.07421875 C-75.42033046 49.44734086 -77.44467083 30.30902557 -69 16 C-61.68197443 4.5078579 -51.11008532 -3.46928708 -38 -7.375 C-25.19277934 -9.94173637 -10.83288885 -7.37308249 0 0 Z " fill="#7DA8FE" transform="translate(142,219)"/>
<path d="M0 0 C11.20193262 8.5743188 18.31174058 19.04968337 21 33 C23.05226444 51.7242683 18.16123953 72.22296139 6.609375 87.22265625 C-0.10321181 95.06456191 -8.38731526 101.88653799 -19 103 C-32.55161311 103.98333701 -43.37228885 101.71189984 -54 93 C-66.18829984 81.38732829 -71.62549387 65.89473487 -73.640625 49.51171875 C-73.86366592 47.00931715 -73.86366592 47.00931715 -75 45 C-75.77904278 36.64027174 -74.79342133 27.58684265 -71 20 C-70.34 20 -69.68 20 -69 20 C-68.83371094 19.12794922 -68.83371094 19.12794922 -68.6640625 18.23828125 C-67.46290119 14.18966106 -64.65068299 11.21955103 -62 8 C-61.51789063 7.39671875 -61.03578125 6.7934375 -60.5390625 6.171875 C-45.58903629 -10.67536266 -18.05102964 -12.7119927 0 0 Z " fill="#FEDCAA" transform="translate(424,219)"/>
<path d="M0 0 C5.79057051 5.06385004 10.99420499 10.37646453 15 17 C15 17.66 15 18.32 15 19 C15.66 19 16.32 19 17 19 C17.68225335 21.45489377 18.34572602 23.91263104 19 26.375 C19.19078125 27.05433594 19.3815625 27.73367187 19.578125 28.43359375 C22.05594863 37.90241976 21.06300894 46.45559111 18.8125 55.875 C18.58473877 56.84026611 18.35697754 57.80553223 18.12231445 58.80004883 C14.26280285 74.59863561 7.36770485 89.45118975 -7.03515625 98.2421875 C-13.79077226 101.80873622 -20.20929877 103.27098784 -27.875 103.1875 C-29.19242188 103.18105469 -30.50984375 103.17460937 -31.8671875 103.16796875 C-35 103 -35 103 -36 102 C-37.9490625 101.690625 -37.9490625 101.690625 -39.9375 101.375 C-49.60383219 99.27295633 -57.4262678 91.89705143 -63 84 C-73.53370341 67.05489443 -77.11482499 46.53401481 -73.60888672 26.79833984 C-70.82056112 15.87111792 -63.08533458 6.4476568 -54 0 C-36.92879804 -9.99851775 -17.06850812 -11.61717064 0 0 Z " fill="#FEDCAA" transform="translate(142,219)"/>
<path d="M0 0 C2.80629905 2.14879605 5.47749623 4.40833927 8.11328125 6.76171875 C11.40465437 9.68738374 14.52658411 11.87158684 18.42578125 13.94921875 C24.51116372 17.46501137 28.12158179 22.71530404 29.99609375 29.484375 C32.04163044 44.60828991 29.36546309 59.40189562 26.36328125 74.19921875 C21.77707435 74.19921875 21.77707435 74.19921875 19.11328125 71.57421875 C11.16904575 63.11745193 6.43819058 52.24461674 3.36328125 41.19921875 C2.67363281 41.59753906 1.98398437 41.99585938 1.2734375 42.40625 C-4.5769846 45.70463612 -10.17732611 48.3727698 -16.63671875 50.19921875 C-17.68021484 50.52398193 -18.72371094 50.84874512 -19.79882812 51.18334961 C-23.67722924 52.20994166 -27.31782754 52.71172332 -31.30859375 53.09375 C-32.78393919 53.24248588 -34.25919681 53.39209484 -35.734375 53.54248047 C-36.49508301 53.61851501 -37.25579102 53.69454956 -38.03955078 53.77288818 C-69.33721135 56.94371105 -69.33721135 56.94371105 -95.63671875 73.19921875 C-96.13171875 74.18921875 -96.13171875 74.18921875 -96.63671875 75.19921875 C-97.62671875 74.86921875 -98.61671875 74.53921875 -99.63671875 74.19921875 C-104.98541376 61.5204924 -102.88685205 43.11642114 -98.11328125 30.61328125 C-90.59448228 13.22854501 -76.03320079 -1.03173094 -58.41015625 -8.09375 C-37.9765835 -15.11620614 -17.82414056 -12.17322785 0 0 Z " fill="#7D6459" transform="translate(292.63671875,159.80078125)"/>
<path d="M0 0 C1.32161133 -0.0299707 1.32161133 -0.0299707 2.66992188 -0.06054688 C8.26956256 -0.05635239 11.71476823 0.56604557 16.0625 4.4375 C19.16987069 8.84709251 18.667257 14.27884992 18.0625 19.4375 C16.59892414 23.50378957 14.70417523 26.00971651 11.0625 28.4375 C11.6711578 33.81447208 12.29986249 39.18890256 12.9375 44.5625 C13.03910431 45.42177094 13.14070862 46.28104187 13.24539185 47.16635132 C14.85667581 60.67698345 16.71654519 74.14412876 18.69140625 87.60546875 C18.92361957 89.19465032 19.1557565 90.78384304 19.38781738 92.37304688 C20.43865905 99.55946827 21.496959 106.74452614 22.58280659 113.92574978 C23.03842326 116.95539474 23.48388938 119.98647469 23.9270153 123.01796913 C24.13816145 124.44587416 24.35386011 125.87311411 24.57431221 127.29961205 C24.87802708 129.26741668 25.16489469 131.23779949 25.45092773 133.20825195 C25.61793686 134.31924759 25.78494598 135.43024323 25.95701599 136.5749054 C26.12093135 141.02319315 24.66318035 142.77849508 21.72412109 146.00292969 C20.76651122 146.96022531 19.80347051 147.91210974 18.8359375 148.859375 C18.32825836 149.36422424 17.82057922 149.86907349 17.29751587 150.38922119 C15.68216158 151.99342096 14.05997791 153.59050856 12.4375 155.1875 C11.33808302 156.27688107 10.23911941 157.3667199 9.140625 158.45703125 C6.4531398 161.12251885 3.75950979 163.78165143 1.0625 166.4375 C-9.2794378 161.50202842 -19.81393798 154.21917981 -25.12927246 143.75531006 C-29.93369593 129.97733231 -23.15417141 110.83372072 -20.27050781 97.12890625 C-18.33077538 87.71797847 -17.1569675 78.21770017 -15.98300171 68.68658447 C-15.52691885 65.02509172 -15.03625525 61.36872445 -14.54222107 57.71218872 C-14.20816384 55.21529704 -13.88905791 52.71684447 -13.57177734 50.21777344 C-13.1576812 46.99040696 -12.67733784 43.78216253 -12.15087891 40.57128906 C-12.03388138 39.79629059 -11.91688385 39.02129211 -11.79634094 38.22280884 C-11.57730557 36.77278421 -11.33736489 35.32569252 -11.07218933 33.88339233 C-10.69601528 31.68071135 -10.69601528 31.68071135 -10.9375 28.4375 C-13.20858104 25.55084309 -13.20858104 25.55084309 -15.9375 23.4375 C-18.93503273 18.86422499 -18.4387208 13.70814993 -17.9375 8.4375 C-14.66231288 0.16334307 -7.85453778 -0.06292783 0 0 Z " fill="#AD1F1F" transform="translate(255.9375,331.5625)"/>
<path d="M0 0 C1.53380162 1.31839463 3.05486994 2.65175544 4.5625 4 C5.37847656 4.68578125 6.19445312 5.3715625 7.03515625 6.078125 C25.9296568 22.31513011 37.81427943 43.98387425 43.5625 68 C43.94728516 69.26457031 43.94728516 69.26457031 44.33984375 70.5546875 C44.92381902 73.01846638 45.15292805 74.5313599 44.5625 77 C42.55004038 79.52552625 40.35135047 81.57620403 37.93359375 83.71484375 C34.52564945 86.99927112 32.56045927 90.75308155 30.5625 95 C29.9025 94.67 29.2425 94.34 28.5625 94 C28.34792579 91.64581436 28.24211772 89.35904421 28.1875 87 C26.93634018 59.65938442 14.5318075 37.04133477 -5.1875 18.375 C-20.59005749 4.89776219 -41.81723526 -4.15158124 -62.4375 -5 C-63.33339844 -5.03996094 -64.22929687 -5.07992187 -65.15234375 -5.12109375 C-90.36429683 -5.68430427 -114.88137955 2.819491 -133.4375 20 C-134.69433594 21.11955078 -134.69433594 21.11955078 -135.9765625 22.26171875 C-156.45159898 41.43725601 -163.67087066 66.95255792 -166.4375 94 C-167.00210938 93.28199219 -167.56671875 92.56398438 -168.1484375 91.82421875 C-170.37737266 89.07418441 -172.68792123 86.43724342 -175.0625 83.8125 C-176.22652344 82.52279297 -176.22652344 82.52279297 -177.4140625 81.20703125 C-178.72536852 79.77674573 -180.06541397 78.37208603 -181.4375 77 C-181.10028339 51.03432128 -164.19463384 25.46904779 -146.4375 8 C-107.02806427 -28.26354463 -42.88325376 -33.68919153 0 0 Z " fill="#3D3D54" transform="translate(324.4375,144)"/>
<path d="M0 0 C6.96636558 4.86350548 12.8276252 11.68068359 18.80859375 17.67578125 C19.82595 18.69246239 20.84345453 19.70899517 21.86109924 20.72538757 C23.97632658 22.83915173 26.08976234 24.95468616 28.2019043 27.0715332 C30.91094572 29.78631521 33.62451198 32.49652335 36.33940029 35.20545673 C38.43351245 37.29596319 40.52524691 39.38883561 42.61625862 41.48244286 C43.61668556 42.48353677 44.61785559 43.48388866 45.61977959 44.48348427 C47.01252592 45.87369926 48.4017383 47.26745196 49.79077148 48.66137695 C50.58160629 49.45300735 51.3724411 50.24463776 52.1872406 51.06025696 C54.54377091 53.58186201 54.95625614 54.62700124 55.36328125 58.09765625 C54.88832733 63.19958062 52.94618202 66.21217106 50.1875 70.4375 C49.69991211 71.21375732 49.21232422 71.99001465 48.70996094 72.78979492 C46.17277753 76.78833429 43.53284526 80.69801677 40.78515625 84.5546875 C40.27637939 85.27213135 39.76760254 85.9895752 39.2434082 86.72875977 C38.2664157 88.09194941 37.27452536 89.44461447 36.26635742 90.78491211 C33.65928179 94.19357962 33.65928179 94.19357962 33.24487305 98.29150391 C35.64770526 106.91000393 38.74815054 115.31186249 42.40234375 123.4765625 C42.91788818 124.64525879 43.43343262 125.81395508 43.96459961 127.01806641 C46.66413386 130.97297961 48.66264136 131.7835042 53.125 133.4375 C55.22273143 133.84991217 55.22273143 133.84991217 57.1484375 133.74609375 C63.52006987 133.92086639 69.56839369 135.55053457 75.75 137 C76.89355957 137.23904053 78.03711914 137.47808105 79.21533203 137.72436523 C80.29411621 137.95969971 81.37290039 138.19503418 82.484375 138.4375 C83.93408691 138.74494141 83.93408691 138.74494141 85.41308594 139.05859375 C88.62363083 140.22694606 89.90477463 141.28937881 92 144 C92.38977964 146.68553629 92.53782773 148.96002738 92.50170898 151.64257812 C92.50981346 152.78961464 92.50981346 152.78961464 92.51808167 153.95982361 C92.53057483 156.48402782 92.51407493 159.00709271 92.49609375 161.53125 C92.49624873 163.28715067 92.49773746 165.04305169 92.50050354 166.7989502 C92.50188779 170.47761165 92.4893253 174.15588334 92.46655273 177.83447266 C92.4381679 182.54910178 92.44090501 187.26308327 92.45364285 191.97776031 C92.46059888 195.60318531 92.45281163 199.22846069 92.44038582 202.85386658 C92.43587058 204.59219285 92.43553516 206.33053519 92.43945122 208.06886292 C92.44236274 210.49871727 92.42586014 212.92768018 92.40405273 215.35742188 C92.40855438 216.07546494 92.41305603 216.793508 92.41769409 217.53330994 C92.37184576 220.60897074 92.16167032 222.71339125 90.63726807 225.41584778 C88.36320525 227.61613601 86.37730011 227.99391227 83.30078125 228.66796875 C82.17349609 228.92126953 81.04621094 229.17457031 79.88476562 229.43554688 C78.70591797 229.68369141 77.52707031 229.93183594 76.3125 230.1875 C75.15298828 230.44724609 73.99347656 230.70699219 72.79882812 230.97460938 C66.87964417 232.27689715 61.0297669 233.38289685 55 234 C55.33 232.35 55.66 230.7 56 229 C56.83144531 228.82984375 57.66289062 228.6596875 58.51953125 228.484375 C59.60621094 228.24203125 60.69289063 227.9996875 61.8125 227.75 C62.89144531 227.51796875 63.97039062 227.2859375 65.08203125 227.046875 C68.5063245 225.81834677 69.24464515 225.13816526 71 222 C71.29476157 219.43215072 71.42057277 217.10744238 71.40405273 214.54101562 C71.41091599 213.79583176 71.41777924 213.05064789 71.42485046 212.28288269 C71.44312683 209.8238104 71.43928037 207.36537552 71.43359375 204.90625 C71.4381548 203.19518832 71.44346015 201.48412847 71.44947815 199.77307129 C71.4584106 196.18864495 71.45598424 192.60444139 71.44604492 189.02001953 C71.43454833 184.42636903 71.45477617 179.83348644 71.48396206 175.23993683 C71.50230556 171.70716467 71.50203545 168.17457723 71.49632454 164.64176941 C71.49617113 162.94808372 71.50223149 161.25438566 71.51461601 159.56074524 C71.52949184 157.19300084 71.51887608 154.82668404 71.50170898 152.45898438 C71.51137695 151.75964279 71.52104492 151.06030121 71.53100586 150.33976746 C71.4811708 147.05797728 71.20184046 145.27274563 69.22828674 142.605896 C66.96734207 140.97646387 65.56127083 140.33370665 62.84570312 139.84667969 C62.03806519 139.69261658 61.23042725 139.53855347 60.39831543 139.37982178 C59.53468384 139.22869934 58.67105225 139.0775769 57.78125 138.921875 C55.94379763 138.56228354 54.10656418 138.20157193 52.26953125 137.83984375 C49.38167354 137.28881592 46.49278847 136.74870481 43.59912109 136.22900391 C40.7988784 135.7194789 38.00965378 135.16749294 35.21875 134.609375 C33.92330261 134.39483673 33.92330261 134.39483673 32.60168457 134.17596436 C26.76195889 132.9708237 26.76195889 132.9708237 24.63313293 130.25845337 C23.58989854 128.20607472 22.77096165 126.16791643 22 124 C21.54197998 123.00468262 21.08395996 122.00936523 20.61206055 120.98388672 C19.28815927 117.95413377 17.98431227 114.9164446 16.6875 111.875 C16.22021484 110.81667969 15.75292969 109.75835937 15.27148438 108.66796875 C14.83513672 107.64058594 14.39878906 106.61320312 13.94921875 105.5546875 C13.35113403 104.16999268 13.35113403 104.16999268 12.7409668 102.75732422 C11.56627641 98.38600519 12.29770124 95.32570412 14.39526367 91.36621094 C14.98025635 90.49770508 15.56524902 89.62919922 16.16796875 88.734375 C16.81443359 87.76113281 17.46089844 86.78789062 18.12695312 85.78515625 C18.80693359 84.78355469 19.48691406 83.78195313 20.1875 82.75 C22.16988254 79.79093143 24.14689267 76.8287619 26.11083984 73.85742188 C27.34598384 71.98922269 28.59578929 70.13061326 29.86181641 68.28320312 C30.4191748 67.43177734 30.9765332 66.58035156 31.55078125 65.703125 C32.04876221 64.96223633 32.54674316 64.22134766 33.05981445 63.45800781 C34.40332902 59.94554232 33.82867485 57.64238593 33 54 C31.1486333 51.28989506 31.1486333 51.28989506 28.60375977 48.92260742 C28.14840851 48.46638 27.69305725 48.01015259 27.22390747 47.5401001 C25.72686051 46.04720701 24.20975646 44.576663 22.69140625 43.10546875 C21.64256727 42.06783337 20.59505481 41.02885559 19.54881287 39.98860168 C16.79910286 37.26172829 14.0318635 34.55334904 11.26049805 31.84851074 C8.44085256 29.09028528 5.63813926 26.3149727 2.83398438 23.54101562 C-2.09141622 18.6729687 -7.03126692 13.82008778 -11.98191833 8.97770691 C-13.32796356 7.65859134 -14.66735158 6.33264842 -16 5 C-10.91051694 1.20995943 -6.4499852 -1.73726799 0 0 Z " fill="#3D3D54" transform="translate(386,50)"/>
<path d="M0 0 C13.92701646 -0.79981393 25.27672533 0.10074592 38 6 C39.55654297 6.71929687 39.55654297 6.71929687 41.14453125 7.453125 C57.9644897 16.01601294 70.98601037 30.16052212 77.03941345 48.07626343 C80.60820796 60.55224011 80.51336741 72.63190115 80.390625 85.53125 C80.38314807 87.86250316 80.37746202 90.19376268 80.37347412 92.52502441 C80.35833214 98.60774639 80.31915087 104.69007541 80.2746582 110.77264404 C80.23345657 117.00071907 80.21541034 123.2288587 80.1953125 129.45703125 C80.15264385 141.63821968 80.08238959 153.81901541 80 166 C73.4 166 66.8 166 60 166 C59.98018066 162.84131348 59.96036133 159.68262695 59.93994141 156.42822266 C59.87291776 145.970768 59.79528 135.51341132 59.71247292 125.05607033 C59.66261024 118.71822914 59.61627938 112.38040381 59.578125 106.04248047 C59.54114547 99.92159107 59.49475132 93.80083768 59.44193649 87.68006516 C59.42345975 85.34942393 59.40832723 83.01875363 59.39665604 80.68806839 C59.37967832 77.41381264 59.3506158 74.13986385 59.31884766 70.86572266 C59.31668747 69.91049713 59.31452728 68.95527161 59.31230164 67.97109985 C59.09158049 50.06490992 52.18280698 34.30009864 39.875 21.3125 C28.69901472 10.60981464 15.04069494 4.24407146 0 1 C0 0.67 0 0.34 0 0 Z " fill="#DCD6D7" transform="translate(304,333)"/>
<path d="M0 0 C2.73080296 2.73080296 2.742765 5.58174366 3.3125 9.25 C6.1270734 25.3010171 11.86702508 40.84725946 25.66015625 50.640625 C28.92479721 52.53727785 32.27736705 53.92745733 35.8359375 55.17578125 C38 56 38 56 41 58 C39.27668457 58.01401855 39.27668457 58.01401855 37.51855469 58.02832031 C33.20177308 58.06859369 28.88567655 58.13445059 24.56933594 58.20751953 C22.71135345 58.23551476 20.85325661 58.25683445 18.99511719 58.27099609 C1.88532925 58.08888591 1.88532925 58.08888591 -13.44726562 64.82348633 C-24.27683478 72.76979324 -36.94630742 70.51392465 -49.75 69.9375 C-52.20040863 69.85405908 -54.65093312 69.77394998 -57.1015625 69.69726562 C-63.06958851 69.50330813 -69.03486479 69.268009 -75 69 C-74.505 68.01 -74.505 68.01 -74 67 C-71.65057633 66.21988249 -69.32125974 65.53237847 -66.9375 64.875 C-41.40863195 57.34614739 -20.6942341 41.11168416 -7.8984375 17.6953125 C-4.88196067 11.96677393 -2.40924031 6.00484896 0 0 Z " fill="#3D3D54" transform="translate(349,264)"/>
<path d="M0 0 C2.36124639 2.36124639 3.03813714 4.33109154 4.25 7.4375 C14.47993528 32.34516851 32.06640673 50.47010167 56.7109375 61.3046875 C62.95779826 63.88398118 69.40957537 65.54185656 76 67 C76 67.66 76 68.32 76 69 C68.61789831 69.29633457 61.23529944 69.5433228 53.8503418 69.75683594 C51.34085162 69.83512103 48.83168107 69.92449954 46.32299805 70.02539062 C42.70649748 70.16887408 39.09070621 70.27177913 35.47265625 70.3671875 C34.35979752 70.42002899 33.24693878 70.47287048 32.10035706 70.52731323 C24.22805685 70.67930676 20.09865298 68.83205461 14 64 C11.20124111 62.57723855 11.20124111 62.57723855 8.6875 61.6875 C7.88699219 61.38199219 7.08648437 61.07648438 6.26171875 60.76171875 C2.74959175 59.57887805 -0.41422677 58.87690004 -4.12597656 58.79467773 C-5.32676849 58.7647599 -5.32676849 58.7647599 -6.55181885 58.73423767 C-7.83327789 58.70916893 -7.83327789 58.70916893 -9.140625 58.68359375 C-10.46389801 58.6524221 -10.46389801 58.6524221 -11.81390381 58.62062073 C-14.62585831 58.55535133 -17.43790445 58.49634553 -20.25 58.4375 C-22.15886356 58.39429327 -24.06771793 58.35067829 -25.9765625 58.30664062 C-30.65094826 58.19969313 -35.32542602 58.09836215 -40 58 C-37.28545753 56.62642733 -34.56440124 55.40410698 -31.75 54.25 C-20.21118357 49.07547348 -12.07302277 39.9602793 -7.16015625 28.3359375 C-3.97483524 19.17679897 -1.4218598 9.59755368 0 0 Z " fill="#3D3D54" transform="translate(162,264)"/>
<path d="M0 0 C2.56682197 2.52439516 4.9746801 4.96744584 7.1875 7.8125 C10.89055164 10.69265128 13.10026885 10.10192298 17.62109375 9.859375 C20 10 20 10 23.0625 12.25 C26.51524937 17.15067652 26.48529372 22.16780945 26 28 C24.01432025 39.11104623 20.35455649 48.19508539 12 56 C9.31592643 57.6207675 8.20155191 58 5 58 C4.92523438 58.80179687 4.85046875 59.60359375 4.7734375 60.4296875 C1.87390178 73.814413 -7.24758748 85.7776099 -17 95 C-17.60328125 95.60972656 -18.2065625 96.21945312 -18.828125 96.84765625 C-23.92302594 101.68286563 -31.87830399 107 -39 107 C-39.33 107.66 -39.66 108.32 -40 109 C-45.61 108.67 -51.22 108.34 -57 108 C-54.05351148 106.52675574 -51.38330352 105.40533024 -48.3125 104.3125 C-42.71866502 102.08646582 -38.4928649 98.96188996 -34 95 C-33.33226562 94.42636719 -32.66453125 93.85273438 -31.9765625 93.26171875 C-14.21101337 76.86545107 -4.34701714 48.07991117 -1.9375 24.4375 C-1.85516113 23.66680176 -1.77282227 22.89610352 -1.68798828 22.10205078 C-0.92575426 14.74686984 -0.41376613 7.38245887 0 0 Z " fill="#F9CE95" transform="translate(306,224)"/>
<path d="M0 0 C21.11868569 0.518063 41.23294788 11.15279451 55.6875 26 C70.19365286 42.79119287 72.70885989 61.51830628 72.3125 82.875 C72.29238145 84.78188204 72.27414025 86.68878485 72.2578125 88.59570312 C72.21773536 93.21058626 72.13938096 97.82250658 72.0625 102.4375 C65.4625 102.4375 58.8625 102.4375 52.0625 102.4375 C52.03671875 99.735625 52.0109375 97.03375 51.984375 94.25 C51.94574535 91.57542369 51.90065354 88.90102678 51.85498047 86.2265625 C51.82709784 84.39592339 51.80572432 82.56517121 51.79150391 80.734375 C51.60864955 58.49928496 47.42940559 38.37925981 31.11328125 22.16015625 C22.75697814 14.40640532 12.69564306 9.34449061 2.0625 5.4375 C1.22976563 5.11910156 0.39703125 4.80070312 -0.4609375 4.47265625 C-2.28099851 3.77975583 -4.10828715 3.10586623 -5.9375 2.4375 C-3.9375 0.4375 -3.9375 0.4375 0 0 Z " fill="#5190EF" transform="translate(331.9375,331.5625)"/>
<path d="M0 0 C0 0.99 0 1.98 0 3 C-1.52367187 3.52787109 -1.52367187 3.52787109 -3.078125 4.06640625 C-23.69280331 11.37975071 -39.39373508 22.26259189 -49.25 42.3125 C-55.43736686 55.33030275 -55.51309 68.72042312 -55.6875 82.8125 C-55.72074751 84.68036135 -55.75524375 86.54820091 -55.79101562 88.41601562 C-55.87735901 92.94402315 -55.93813876 97.47133083 -56 102 C-62.6 102 -69.2 102 -76 102 C-76.09271107 96.4347605 -76.1720735 90.87228641 -76.21972656 85.30688477 C-76.2396265 83.42072383 -76.26675654 81.53462278 -76.30175781 79.64868164 C-76.70185057 57.50825425 -72.2710241 38.76528454 -56.55786133 22.36425781 C-45.74799944 11.56960443 -32.43781565 4.91235654 -17.625 1.5625 C-16.90054688 1.39854736 -16.17609375 1.23459473 -15.4296875 1.06567383 C-10.22087855 0.00288195 -5.31240313 -0.13097641 0 0 Z " fill="#5190EF" transform="translate(184,332)"/>
<path d="M0 0 C12.31830515 8.67486278 20.34096252 19.62865612 23.21875 34.5625 C25.27101444 53.2867683 20.37998953 73.78546139 8.828125 88.78515625 C2.15855415 96.57680899 -6.19643141 103.53981221 -16.78125 104.5625 C-21.78843079 104.70541648 -26.77410299 104.67985501 -31.78125 104.5625 C-31.78125 103.9025 -31.78125 103.2425 -31.78125 102.5625 C-31.23597656 102.42714844 -30.69070313 102.29179687 -30.12890625 102.15234375 C-19.12575671 99.01127371 -10.68857283 91.17934056 -4.93359375 81.43359375 C0.46700533 71.17130888 4.47851009 60.22127861 5.21875 48.5625 C5.31349609 47.13744141 5.31349609 47.13744141 5.41015625 45.68359375 C5.93956952 31.49190251 1.79624642 18.78788645 -7.8828125 8.28125 C-16.08335658 0.51536373 -24.6634045 -3.02134858 -35.78125 -4.4375 C-35.78125 -4.7675 -35.78125 -5.0975 -35.78125 -5.4375 C-23.64784815 -8.16806593 -10.68872356 -6.50617956 0 0 Z " fill="#F6CC95" transform="translate(421.78125,217.4375)"/>
<path d="M0 0 C9.50894558 4.13105851 17.10547393 12.30298821 22.41015625 21.07421875 C22.41015625 21.73421875 22.41015625 22.39421875 22.41015625 23.07421875 C23.07015625 23.07421875 23.73015625 23.07421875 24.41015625 23.07421875 C25.0924096 25.52911252 25.75588227 27.98684979 26.41015625 30.44921875 C26.6009375 31.12855469 26.79171875 31.80789062 26.98828125 32.5078125 C29.46610488 41.97663851 28.47316519 50.52980986 26.22265625 59.94921875 C25.99489502 60.91448486 25.76713379 61.87975098 25.5324707 62.87426758 C21.6729591 78.67285436 14.7778611 93.5254085 0.375 102.31640625 C-6.42075001 105.90414325 -12.81517293 107.33571735 -20.52734375 107.19921875 C-21.21119141 107.19019531 -21.89503906 107.18117188 -22.59960938 107.171875 C-24.26317662 107.14860833 -25.92656006 107.11275042 -27.58984375 107.07421875 C-26.22577087 104.346073 -24.94111757 104.35914393 -22.08984375 103.38671875 C-9.14292459 98.37441147 -1.88560576 88.29285542 3.796875 76.03125 C9.89412074 61.81863091 12.94160998 42.09732246 7.45703125 27.2734375 C1.40178901 14.55290997 -6.45993629 6.23960618 -19.27734375 0.19921875 C-23.12255958 -1.10670361 -26.55097718 -1.57149471 -30.58984375 -1.92578125 C-21.56919523 -7.26583498 -9.14837448 -3.27023341 0 0 Z " fill="#F6CC94" transform="translate(134.58984375,214.92578125)"/>
<path d="M0 0 C20.39207412 -0.82546627 36.5184978 4.96294447 51.75 18.5625 C55.04137312 21.48816499 58.16330286 23.67236809 62.0625 25.75 C68.14788247 29.26579262 71.75830054 34.51608529 73.6328125 41.28515625 C75.67834919 56.40907116 73.00218184 71.20267687 70 86 C66 86 66 86 64.1484375 84.57421875 C63.56320312 83.95160156 62.97796875 83.32898438 62.375 82.6875 C61.78460938 82.07261719 61.19421875 81.45773438 60.5859375 80.82421875 C57.7099602 77.51613649 56.7193046 75.27134741 56.2890625 70.984375 C56.18094238 69.98736572 56.07282227 68.99035645 55.96142578 67.96313477 C55.85040527 66.90280029 55.73938477 65.84246582 55.625 64.75 C53.18237319 43.64815638 48.76220029 29.4892531 32 16 C22.3064255 8.84708011 11.96809387 3.73939759 0 2 C0 1.34 0 0.68 0 0 Z " fill="#634F44" transform="translate(249,148)"/>
<path d="M0 0 C1.66621399 1.02644348 1.66621399 1.02644348 3 3 C3.28061299 5.84967638 3.37885291 8.47818223 3.34057617 11.3269043 C3.34101425 12.17590302 3.34145233 13.02490173 3.34190369 13.89962769 C3.33981235 16.70805801 3.31646514 19.51589261 3.29296875 22.32421875 C3.28737402 24.27048924 3.28310334 26.21676394 3.28010559 28.16304016 C3.26864713 33.2874415 3.23917129 38.41158805 3.20599365 43.53588867 C3.17531437 48.76412509 3.16160483 53.99240265 3.14648438 59.22070312 C3.1143026 69.48058074 3.0630941 79.74026919 3 90 C-1.95 90 -6.9 90 -12 90 C-12.06947729 78.8561156 -12.12279977 67.71228264 -12.15543652 56.56822586 C-12.17109967 51.39371344 -12.1923499 46.21934908 -12.22631836 41.04492188 C-12.25888849 36.05232028 -12.27684812 31.05986119 -12.28463173 26.06716156 C-12.29017945 24.16134141 -12.30101265 22.25552915 -12.31719017 20.34976959 C-12.33893326 17.68255185 -12.34196824 15.01592477 -12.34057617 12.34863281 C-12.351362 11.5588504 -12.36214783 10.76906799 -12.3732605 9.95535278 C-12.35503512 6.73313341 -12.21740301 4.40085663 -10.66621399 1.54071045 C-7.24357624 -1.62412539 -4.25204198 -1.0630105 0 0 Z " fill="#DDD7D7" transform="translate(191,409)"/>
<path d="M0 0 C2.24432982 1.87027485 3.69443202 3.38886404 5 6 C5.09312908 8.68529862 5.12578322 11.34444418 5.11352539 14.02978516 C5.11367142 14.85913071 5.11381744 15.68847626 5.1139679 16.54295349 C5.11326971 19.29168285 5.10548171 22.04034494 5.09765625 24.7890625 C5.09579174 26.69192467 5.09436799 28.59478732 5.09336853 30.49765015 C5.08954599 35.51181356 5.07971793 40.52594811 5.06866455 45.5401001 C5.05844479 50.65433359 5.0538697 55.76857174 5.04882812 60.8828125 C5.03809545 70.92188769 5.02102216 80.96094145 5 91 C0.05 91 -4.9 91 -10 91 C-10.11579195 79.72580217 -10.20466374 68.45174552 -10.25906086 57.17707443 C-10.2851674 51.94189214 -10.32058503 46.70711631 -10.37719727 41.47216797 C-10.43147891 36.42118581 -10.46141257 31.37059487 -10.47438622 26.31934357 C-10.48363299 24.39115488 -10.50168983 22.46298788 -10.52865028 20.53496552 C-10.56488987 17.83631434 -10.56994755 15.13928459 -10.56762695 12.44042969 C-10.58560333 11.64129654 -10.60357971 10.84216339 -10.62210083 10.01881409 C-10.58561673 6.10394952 -10.37012737 4.38897505 -7.62467957 1.50372314 C-4.67104978 -0.18846112 -3.33220052 -0.68352831 0 0 Z " fill="#DDD7D7" transform="translate(328,408)"/>
<path d="M0 0 C3.41637953 -0.11632513 6.83224897 -0.18728897 10.25 -0.25 C11.70212891 -0.30027344 11.70212891 -0.30027344 13.18359375 -0.3515625 C14.58544922 -0.37089844 14.58544922 -0.37089844 16.015625 -0.390625 C16.87446289 -0.41157227 17.73330078 -0.43251953 18.61816406 -0.45410156 C21.97200112 0.18531387 22.98380508 1.25054483 25 4 C25.86207548 6.73033024 26.51793707 9.26433314 27.0703125 12.0546875 C27.23747772 12.83385529 27.40464294 13.61302307 27.57687378 14.415802 C28.10704712 16.8994614 28.61675548 19.38676971 29.125 21.875 C29.64435699 24.35508637 30.16794632 26.83421718 30.69454956 29.31277466 C31.02022781 30.85212984 31.34107084 32.39251866 31.65628052 33.93405151 C32.07817556 35.96282741 32.53632429 37.98044989 33 40 C33.22333008 41.09086914 33.44666016 42.18173828 33.67675781 43.30566406 C35.53178379 47.08279814 38.23004403 48.00802536 41.9765625 49.4296875 C42.66181 49.7097464 43.3470575 49.9898053 44.05307007 50.27835083 C46.23592022 51.16493061 48.42957463 52.02010155 50.625 52.875 C52.11019343 53.47192604 53.59458045 54.07086269 55.078125 54.671875 C58.70981743 56.13804699 62.35150595 57.576182 66 59 C66 62 66 62 64.4375 63.75 C61.09330923 65.46496962 58.52406244 64.8366895 55 64 C51.74458144 62.9319014 48.58627344 61.66095609 45.41796875 60.359375 C44.52257889 59.99531555 43.62718903 59.6312561 42.70466614 59.25616455 C40.82290458 58.48710955 38.94293788 57.71364967 37.06469727 56.93603516 C34.1865292 55.74959982 31.29802966 54.59129109 28.40820312 53.43359375 C26.57742695 52.68138421 24.74732378 51.92753415 22.91796875 51.171875 C21.62115425 50.65750885 21.62115425 50.65750885 20.29814148 50.13275146 C14.42236135 47.65356439 14.42236135 47.65356439 12.55541992 44.76464844 C12.37213135 43.85231445 12.18884277 42.93998047 12 42 C11.70367676 40.71802734 11.40735352 39.43605469 11.10205078 38.11523438 C10.79608091 36.60882447 10.49404111 35.10161259 10.1953125 33.59375 C9.85603258 31.94649835 9.51617101 30.29936642 9.17578125 28.65234375 C8.64752226 26.07296568 8.12359882 23.49295692 7.60986328 20.91064453 C7.10939418 18.40639064 6.59120821 15.90632346 6.0703125 13.40625 C5.84820602 12.2544928 5.84820602 12.2544928 5.62161255 11.07946777 C4.63937532 6.44226088 3.34935916 3.53558038 0 0 Z " fill="#3D3D54" transform="translate(276,13)"/>
<path d="M0 0 C0.66 0 1.32 0 2 0 C2.4021875 0.90878906 2.4021875 0.90878906 2.8125 1.8359375 C8.83161349 14.70575253 16.63570671 23.41741479 30.0625 28.375 C31.70422382 28.92899734 33.34868471 29.47528299 35 30 C35 30.33 35 30.66 35 31 C33.27668457 31.01401855 33.27668457 31.01401855 31.51855469 31.02832031 C27.20177308 31.06859369 22.88567655 31.13445059 18.56933594 31.20751953 C16.71135345 31.23551476 14.85325661 31.25683445 12.99511719 31.27099609 C-4.11467075 31.08888591 -4.11467075 31.08888591 -19.44726562 37.82348633 C-30.27683478 45.76979324 -42.94630742 43.51392465 -55.75 42.9375 C-58.20040863 42.85405908 -60.65093312 42.77394998 -63.1015625 42.69726562 C-69.06958851 42.50330813 -75.03486479 42.268009 -81 42 C-81 41.67 -81 41.34 -81 41 C-79.72995117 41.01683838 -78.45990234 41.03367676 -77.15136719 41.05102539 C-72.38721447 41.10209878 -67.62465496 41.09315457 -62.86035156 41.06713867 C-60.8082292 41.06407821 -58.75601502 41.07676125 -56.70410156 41.10620117 C-40.67093201 41.40228714 -40.67093201 41.40228714 -27.31835938 33.37768555 C-26.17077148 32.2007312 -26.17077148 32.2007312 -25 31 C-23.7071065 29.86041464 -22.41300447 28.7221975 -21.1171875 27.5859375 C-20.02548219 26.52682283 -18.94455407 25.45647976 -17.875 24.375 C-17.29661377 23.79524414 -16.71822754 23.21548828 -16.12231445 22.61816406 C-9.71816215 15.98835764 -4.13070557 8.26141114 0 0 Z " fill="#4D4D6C" transform="translate(355,291)"/>
<path d="M0 0 C2.8792734 3.48577223 5.36356481 7.07842591 7.8125 10.875 C11.52200127 16.38520673 15.75887127 21.16747264 20.4375 25.875 C21.03344971 26.48069824 21.62939941 27.08639648 22.2434082 27.71044922 C24.10870886 29.54137917 26.04410237 31.26660245 28 33 C28.94262695 33.9741687 28.94262695 33.9741687 29.90429688 34.96801758 C38.4421691 42.57218097 49.88540241 40.99981049 60.625 40.9375 C62.69924109 40.95062401 64.7734649 40.96687134 66.84765625 40.98632812 C71.89895654 41.0269626 76.9486161 41.02510755 82 41 C82 41.33 82 41.66 82 42 C74.61789831 42.29633457 67.23529944 42.5433228 59.8503418 42.75683594 C57.34085162 42.83512103 54.83168107 42.92449954 52.32299805 43.02539062 C48.70649748 43.16887408 45.09070621 43.27177913 41.47265625 43.3671875 C40.35979752 43.42002899 39.24693878 43.47287048 38.10035706 43.52731323 C30.22805685 43.67930676 26.09865298 41.83205461 20 37 C17.20124111 35.57723855 17.20124111 35.57723855 14.6875 34.6875 C13.88699219 34.38199219 13.08648437 34.07648438 12.26171875 33.76171875 C8.74959175 32.57887805 5.58577323 31.87690004 1.87402344 31.79467773 C0.67323151 31.7647599 0.67323151 31.7647599 -0.55181885 31.73423767 C-1.83327789 31.70916893 -1.83327789 31.70916893 -3.140625 31.68359375 C-4.02280701 31.66281265 -4.90498901 31.64203156 -5.81390381 31.62062073 C-8.62585831 31.55535133 -11.43790445 31.49634553 -14.25 31.4375 C-16.15886356 31.39429327 -18.06771793 31.35067829 -19.9765625 31.30664062 C-24.65094826 31.19969313 -29.32542602 31.09836215 -34 31 C-31.28545753 29.62642733 -28.56440124 28.40410698 -25.75 27.25 C-13.47172388 21.74386636 -5.94204893 11.82696278 0 0 Z " fill="#4C4C6B" transform="translate(156,291)"/>
<path d="M0 0 C1.32161133 -0.0299707 1.32161133 -0.0299707 2.66992188 -0.06054688 C8.26956256 -0.05635239 11.71476823 0.56604557 16.0625 4.4375 C19.16987069 8.84709251 18.667257 14.27884992 18.0625 19.4375 C16.59892414 23.50378957 14.70417523 26.00971651 11.0625 28.4375 C7.45379699 28.92229151 3.82531268 28.85393159 0.1875 28.875 C-1.30330078 28.92430664 -1.30330078 28.92430664 -2.82421875 28.97460938 C-10.14074223 29.02847936 -10.14074223 29.02847936 -14.0078125 26.16015625 C-18.22718684 20.20690946 -18.62778827 15.69631259 -17.9375 8.4375 C-14.66231288 0.16334307 -7.85453778 -0.06292783 0 0 Z " fill="#D13030" transform="translate(255.9375,331.5625)"/>
<path d="M0 0 C0.66 0.33 1.32 0.66 2 1 C-1.96 4.96 -5.92 8.92 -10 13 C-10 8.41771462 -7.08388033 6.1816619 -4 3 C-1.625 1.0625 -1.625 1.0625 0 0 Z " fill="#8CA7E7" transform="translate(46,331)"/>
</svg>
