<?xml version="1.0" encoding="UTF-8"?>
<svg version="1.1" xmlns="http://www.w3.org/2000/svg" width="512" height="512">
<path d="M0 0 C15.18063422 15.68229311 21.27113677 33.09453878 21.13647461 54.81005859 C20.73039843 71.17785635 15.36218872 86.21702562 4.71875 98.80859375 C5.75773437 98.834375 6.79671875 98.86015625 7.8671875 98.88671875 C18.65827546 99.27410443 27.95423821 100.41591293 36.1875 108.10546875 C43.2531296 115.96417922 45.01904159 123.86895651 44.98617554 134.18830872 C44.99070665 135.23247458 44.99523776 136.27664044 44.99990618 137.35244769 C45.0125646 140.85065141 45.01092886 144.34869974 45.00927734 147.84692383 C45.01526167 150.35534363 45.022067 152.86376159 45.02963257 155.37217712 C45.04547314 161.47848731 45.05174137 167.58474059 45.05285732 173.6910694 C45.05380857 178.65605326 45.05792271 183.62102442 45.06425858 188.58600426 C45.0818665 202.67137812 45.09109815 216.75672155 45.08959763 230.8421065 C45.08951772 231.60102044 45.0894378 232.35993437 45.08935547 233.1418457 C45.08927371 233.90168928 45.08919195 234.66153286 45.08910771 235.444402 C45.08829493 247.75672595 45.10743166 260.06892753 45.1356322 272.38121609 C45.16437863 285.03194704 45.17817153 297.68261835 45.17644465 310.33338279 C45.17578136 317.43239396 45.18124699 324.53127685 45.20280075 331.63025856 C45.22294448 338.30747306 45.22232094 344.98437194 45.20776749 351.66161537 C45.20567586 354.11054378 45.21040124 356.55948905 45.2224884 359.00838852 C45.23793597 362.35521983 45.22863486 365.70111651 45.21322632 369.04792786 C45.22865701 370.49658956 45.22865701 370.49658956 45.24439943 371.97451717 C45.14636239 381.63122617 41.37870528 389.81258568 34.71875 396.80859375 C28.21096202 401.93673068 21.77057739 404.06122415 13.46743774 404.04910278 C12.40619141 404.05166606 12.40619141 404.05166606 11.32350576 404.05428112 C8.96507748 404.05756179 6.606937 404.04659602 4.24853516 404.03564453 C2.55309048 404.03508011 0.85764532 404.03539758 -0.83779907 404.03652954 C-5.43238154 404.03710284 -10.02685935 404.02535213 -14.62141752 404.01138163 C-19.42604255 403.99887056 -24.23067003 403.99770347 -29.03530884 403.99533081 C-38.12995253 403.98911715 -47.22454809 403.97270786 -56.31917059 403.95263183 C-66.67460777 403.9302693 -77.03004726 403.91927851 -87.38550258 403.90924096 C-108.68411191 403.88834155 -129.98267792 403.85316776 -151.28125 403.80859375 C-150.97832031 404.67137939 -150.67539062 405.53416504 -150.36328125 406.4230957 C-149.24139555 409.62543214 -148.12369006 412.82916399 -147.00878906 416.03393555 C-146.52543208 417.42058618 -146.04041689 418.80665996 -145.55371094 420.19213867 C-144.85435047 422.18388873 -144.16098282 424.1776383 -143.46875 426.171875 C-142.84033203 427.97072144 -142.84033203 427.97072144 -142.19921875 429.8059082 C-141.28125 432.80859375 -141.28125 432.80859375 -141.28125 435.80859375 C-139.9494873 435.77717285 -139.9494873 435.77717285 -138.59082031 435.74511719 C-135.28830545 435.67683698 -131.9865433 435.62674505 -128.68359375 435.58886719 C-127.25573879 435.56878393 -125.82796575 435.54151123 -124.40039062 435.50683594 C-122.34484632 435.45816706 -120.29039145 435.43559408 -118.234375 435.41796875 C-116.99848633 435.39702148 -115.76259766 435.37607422 -114.48925781 435.35449219 C-111.28125 435.80859375 -111.28125 435.80859375 -109.09637451 437.1963501 C-106.26908655 441.2652528 -106.85559742 445.23490358 -107.03125 450.05859375 C-107.04929687 450.99445313 -107.06734375 451.9303125 -107.0859375 452.89453125 C-107.13299327 455.2002639 -107.19871287 457.5039032 -107.28125 459.80859375 C-106.23777405 459.7997113 -105.1942981 459.79082886 -104.11920166 459.78167725 C-94.29012419 459.70062492 -84.46111443 459.64064447 -74.63177872 459.60134506 C-69.5782708 459.58046161 -64.52503245 459.55213004 -59.47167969 459.50683594 C-54.59577532 459.46340536 -49.7201304 459.43946235 -44.84404755 459.42908478 C-42.98286606 459.4216884 -41.12169892 459.40724509 -39.26062775 459.38567352 C-36.65553496 459.35667631 -34.05151702 459.35263616 -31.44628906 459.35449219 C-30.67520813 459.34011108 -29.9041272 459.32572998 -29.10968018 459.31091309 C-25.56779054 459.33825546 -23.65290277 459.52302047 -20.80413818 461.7119751 C-19.15461157 463.98294174 -18.73791756 465.03531763 -18.78125 467.80859375 C-18.7709375 468.46859375 -18.760625 469.12859375 -18.75 469.80859375 C-19.53075932 472.74792296 -20.9358575 473.90445446 -23.28125 475.80859375 C-26.08177185 476.30999041 -26.08177185 476.30999041 -29.38452148 476.31195831 C-30.64404129 476.3223893 -31.9035611 476.33282029 -33.20124817 476.34356737 C-34.60161566 476.33491886 -36.00198086 476.32589222 -37.40234375 476.31652832 C-38.88787956 476.32113569 -40.37341081 476.32748751 -41.8589325 476.3354373 C-45.94686276 476.35217647 -50.03442078 476.34386362 -54.1223526 476.33149242 C-58.52869727 476.32246292 -62.93497676 476.33640119 -67.34130859 476.34741211 C-75.97558461 476.36522443 -84.60972177 476.3613453 -93.2440033 476.34976155 C-100.25952293 476.34073815 -107.27500357 476.33949848 -114.29052734 476.34385681 C-115.28796054 476.34446974 -116.28539373 476.34508268 -117.31305218 476.34571418 C-119.33914313 476.34699305 -121.36523407 476.3482899 -123.391325 476.34960455 C-142.40235649 476.36101829 -161.41331091 476.34788419 -180.42432976 476.32640308 C-196.74646678 476.30853138 -213.06849003 476.31163527 -229.390625 476.33007812 C-248.33234024 476.35147081 -267.27398787 476.35991958 -286.2157135 476.34762907 C-288.23446654 476.34635484 -290.25321959 476.34509735 -292.27197266 476.34385681 C-293.26530955 476.34323971 -294.25864645 476.34262261 -295.28208447 476.34198681 C-302.29142564 476.3385291 -309.30072404 476.3443713 -316.31005859 476.35377502 C-324.84890112 476.36497861 -333.38759651 476.36198959 -341.92642212 476.34065205 C-346.28540142 476.33011946 -350.64413516 476.3260572 -355.00311279 476.33924866 C-358.99037948 476.35113297 -362.97717209 476.34467612 -366.96439552 476.32333845 C-368.40982403 476.31885547 -369.85529227 476.32117653 -371.30069542 476.3308416 C-373.25976254 476.34294058 -375.21894122 476.32818251 -377.17797852 476.31195831 C-378.81283958 476.3109842 -378.81283958 476.3109842 -380.48072815 476.30999041 C-383.94896843 475.68904753 -385.12678779 474.53930716 -387.28125 471.80859375 C-387.8125 469.80859375 -387.8125 469.80859375 -387.78125 467.80859375 C-387.7915625 467.14859375 -387.801875 466.48859375 -387.8125 465.80859375 C-387.01040632 462.78894697 -385.75826664 461.71190196 -383.28125 459.80859375 C-380.427215 459.43452051 -377.96558237 459.30134977 -375.11621094 459.35449219 C-374.2963269 459.35390808 -373.47644287 459.35332397 -372.63171387 459.35272217 C-369.92591789 459.35550545 -367.22122815 459.38660826 -364.515625 459.41796875 C-362.6380473 459.42543029 -360.76046181 459.43112363 -358.88287354 459.43511963 C-353.94415742 459.45038284 -349.0059128 459.48967062 -344.06738281 459.53393555 C-339.02675759 459.5748734 -333.98605609 459.59312747 -328.9453125 459.61328125 C-319.05708465 459.65616416 -309.16920655 459.72442387 -299.28125 459.80859375 C-299.30219727 459.22368164 -299.32314453 458.63876953 -299.34472656 458.03613281 C-299.42805115 455.3771291 -299.47995897 452.7184002 -299.53125 450.05859375 C-299.56476563 449.13820313 -299.59828125 448.2178125 -299.6328125 447.26953125 C-299.73154999 440.45664476 -299.73154999 440.45664476 -297.46612549 437.1963501 C-294.34536319 435.21415124 -292.00305295 435.35568184 -288.328125 435.41796875 C-287.66790344 435.42362854 -287.00768188 435.42928833 -286.32745361 435.43511963 C-284.22796737 435.45743145 -282.1302163 435.50761061 -280.03125 435.55859375 C-278.6041914 435.57866581 -277.17710592 435.59691536 -275.75 435.61328125 C-272.25985707 435.65727682 -268.77072301 435.72626499 -265.28125 435.80859375 C-265.03632813 434.57238281 -264.79140625 433.33617187 -264.5390625 432.0625 C-263.21923884 426.12329351 -261.19976269 420.46865136 -259.15625 414.74609375 C-258.78371094 413.68970703 -258.41117188 412.63332031 -258.02734375 411.54492188 C-257.11659623 408.96447058 -256.20115295 406.38579231 -255.28125 403.80859375 C-256.15939582 403.81228092 -257.03754164 403.81596809 -257.94229794 403.819767 C-279.32582306 403.90816795 -300.70931661 403.97432769 -322.09298611 404.01584244 C-332.4340465 404.03645314 -342.77498479 404.06454525 -353.1159668 404.11035156 C-362.13090713 404.15026496 -371.14575902 404.17603741 -380.16078526 404.18494773 C-384.9326285 404.19015484 -389.70421874 404.20236238 -394.47598076 404.23151398 C-398.97149185 404.25875423 -403.4666468 404.2670214 -407.96223259 404.26102448 C-409.60811806 404.26212087 -411.254016 404.27002342 -412.89982986 404.28541565 C-421.3689272 404.36070667 -428.82992982 404.40610924 -436.28125 399.80859375 C-437.09078125 399.339375 -437.9003125 398.87015625 -438.734375 398.38671875 C-445.35821301 393.49083848 -449.12236362 387.7663978 -451.28125 379.80859375 C-451.57349809 376.35054268 -451.55973102 372.90439594 -451.54867554 369.43560791 C-451.55320665 368.39214761 -451.55773776 367.34868732 -451.56240618 366.27360702 C-451.57506463 362.77773724 -451.57342885 359.28202297 -451.57177734 355.78613281 C-451.57776171 353.27933553 -451.58456704 350.77254008 -451.59213257 348.26574707 C-451.60797355 342.16311188 -451.61424141 336.06053363 -451.61535732 329.95787981 C-451.61630864 324.99528822 -451.62042311 320.03270934 -451.62675858 315.07012177 C-451.64436736 300.98981356 -451.65359812 286.90953581 -451.65209763 272.82921651 C-451.65201772 272.0705653 -451.6519378 271.31191408 -451.65185547 270.53027344 C-451.65177371 269.77069217 -451.65169195 269.0111109 -451.65160771 268.22851202 C-451.65079511 255.92333011 -451.66992698 243.6182707 -451.6981322 231.31312421 C-451.72688707 218.66803849 -451.74067104 206.02301245 -451.73894465 193.37789321 C-451.7382816 186.2827625 -451.74373629 179.18776019 -451.76530075 172.092659 C-451.78545809 165.41790372 -451.7848123 158.74346409 -451.77026749 152.06867981 C-451.76817736 149.621784 -451.77289233 147.17487126 -451.7849884 144.72800446 C-451.8004574 141.38152374 -451.79112071 138.03597525 -451.77572632 134.68951416 C-451.78601344 133.72665253 -451.79630057 132.7637909 -451.80689943 131.77175164 C-451.7164541 122.84325153 -449.1539071 114.94560539 -442.984375 108.33984375 C-436.49697494 102.50713544 -429.49193815 99.54689143 -420.72509766 99.58154297 C-418.80378525 99.58176956 -418.80378525 99.58176956 -416.84365845 99.58200073 C-415.46087485 99.59221166 -414.07809288 99.60264361 -412.6953125 99.61328125 C-411.26899413 99.6170154 -409.84267318 99.61986047 -408.41635132 99.62185669 C-404.67792573 99.62946156 -400.93965767 99.64908266 -397.20129395 99.67126465 C-393.38031138 99.69179118 -389.55930316 99.70087291 -385.73828125 99.7109375 C-378.25253267 99.73233183 -370.76691348 99.76642935 -363.28125 99.80859375 C-363.29013245 99.06579163 -363.29901489 98.3229895 -363.3081665 97.55767822 C-363.38834744 90.5540947 -363.44923186 83.5506704 -363.48849869 76.54675674 C-363.50936513 72.94601089 -363.53766421 69.34564459 -363.58300781 65.74511719 C-363.62650125 62.26971462 -363.65039421 58.79467687 -363.66075897 55.31902313 C-363.67173615 53.34913591 -363.702957 51.37939528 -363.73443604 49.409729 C-363.73488922 47.60831451 -363.73488922 47.60831451 -363.73535156 45.77050781 C-363.74423401 44.7134967 -363.75311646 43.6564856 -363.76226807 42.56744385 C-363.1532921 39.07469896 -362.098117 37.90932776 -359.28125 35.80859375 C-357.30859375 35.30065918 -357.30859375 35.30065918 -355.21875 35.29101562 C-354.43113281 35.27840698 -353.64351563 35.26579834 -352.83203125 35.25280762 C-351.99027344 35.26090454 -351.14851563 35.26900146 -350.28125 35.27734375 C-349.40855469 35.27351685 -348.53585937 35.26968994 -347.63671875 35.26574707 C-345.79425908 35.26302885 -343.95176076 35.27038381 -342.109375 35.28710938 C-339.29079066 35.30852127 -336.47475515 35.28730574 -333.65625 35.26171875 C-331.86457771 35.26436204 -330.07290701 35.26948706 -328.28125 35.27734375 C-327.43949219 35.26924683 -326.59773438 35.2611499 -325.73046875 35.25280762 C-324.94285156 35.26541626 -324.15523438 35.2780249 -323.34375 35.29101562 C-322.30927734 35.29578918 -322.30927734 35.29578918 -321.25390625 35.30065918 C-318.29319898 36.06300466 -317.11200271 37.39410088 -315.28125 39.80859375 C-314.80023193 42.56744385 -314.80023193 42.56744385 -314.82714844 45.77050781 C-314.82745056 46.97145081 -314.82775269 48.1723938 -314.82806396 49.409729 C-314.84870911 50.70151062 -314.86935425 51.99329224 -314.890625 53.32421875 C-314.89808929 54.66370804 -314.90378134 56.00320827 -314.90777588 57.3427124 C-314.92301787 60.86110811 -314.96228582 64.3788389 -315.0065918 67.89697266 C-315.04757636 71.48981736 -315.0657936 75.08276995 -315.0859375 78.67578125 C-315.12878255 85.72032341 -315.19701554 92.76441507 -315.28125 99.80859375 C-312.64125 99.80859375 -310.00125 99.80859375 -307.28125 99.80859375 C-307.28493717 99.21444798 -307.28862434 98.6203022 -307.29242325 98.00815201 C-307.38075112 83.55292212 -307.44694826 69.09771631 -307.48849869 54.64227676 C-307.50912618 47.65171875 -307.53725001 40.66134085 -307.58300781 33.67089844 C-307.62712654 26.92764553 -307.65037245 20.18461861 -307.66075897 13.44121552 C-307.66816302 10.86552735 -307.68262091 8.28984969 -307.70417023 5.71424103 C-307.73310884 2.1129777 -307.73720985 -1.48750673 -307.73535156 -5.08886719 C-307.74973267 -6.15917175 -307.76411377 -7.22947632 -307.77893066 -8.33221436 C-307.73874711 -15.50519993 -307.73874711 -15.50519993 -305.5067749 -18.85296631 C-303.15619486 -20.26661493 -301.93479306 -20.69645123 -299.21875 -20.70898438 C-298.03732422 -20.72789734 -298.03732422 -20.72789734 -296.83203125 -20.74719238 C-295.99027344 -20.73909546 -295.14851562 -20.73099854 -294.28125 -20.72265625 C-292.97220703 -20.72839661 -292.97220703 -20.72839661 -291.63671875 -20.73425293 C-289.79425908 -20.73697115 -287.95176076 -20.72961619 -286.109375 -20.71289062 C-283.29079066 -20.69147873 -280.47475515 -20.71269426 -277.65625 -20.73828125 C-275.86457771 -20.73563796 -274.07290701 -20.73051294 -272.28125 -20.72265625 C-271.43949219 -20.73075317 -270.59773437 -20.7388501 -269.73046875 -20.74719238 C-268.94285156 -20.73458374 -268.15523437 -20.7219751 -267.34375 -20.70898438 C-266.30927734 -20.70421082 -266.30927734 -20.70421082 -265.25390625 -20.69934082 C-262.07007772 -19.87954438 -261.12650867 -18.95913558 -259.28125 -16.19140625 C-258.69302638 -12.49284587 -258.77693043 -8.82631067 -258.82714844 -5.08886719 C-258.82656433 -3.9568689 -258.82598022 -2.82487061 -258.82537842 -1.65856934 C-258.82816687 2.08600443 -258.85929648 5.8297839 -258.890625 9.57421875 C-258.89808464 12.16924606 -258.90377888 14.76427901 -258.90777588 17.35931396 C-258.921492 23.49337691 -258.9530225 29.62711167 -258.99317384 35.76105094 C-259.0378975 42.74525097 -259.05988002 49.7294647 -259.07995558 56.7137723 C-259.12175565 71.07886603 -259.19210393 85.44371975 -259.28125 99.80859375 C-256.64125 99.80859375 -254.00125 99.80859375 -251.28125 99.80859375 C-251.29013245 98.7651178 -251.29901489 97.72164185 -251.3081665 96.64654541 C-251.38921883 86.81746794 -251.44919928 76.98845818 -251.48849869 67.15912247 C-251.50938214 62.10561455 -251.53771371 57.0523762 -251.58300781 51.99902344 C-251.62643839 47.12311907 -251.6503814 42.24747415 -251.66075897 37.3713913 C-251.66815535 35.51020981 -251.68259866 33.64904267 -251.70417023 31.7879715 C-251.73316744 29.18287871 -251.73720759 26.57886077 -251.73535156 23.97363281 C-251.74973267 23.20255188 -251.76411377 22.43147095 -251.77893066 21.63702393 C-251.75226937 18.18336076 -251.54193124 16.17262215 -249.5067749 13.33062744 C-247.13118619 11.7059653 -246.05429971 11.30410023 -243.21875 11.29101562 C-242.43113281 11.27840698 -241.64351562 11.26579834 -240.83203125 11.25280762 C-239.99027344 11.26090454 -239.14851562 11.26900146 -238.28125 11.27734375 C-237.40855469 11.27351685 -236.53585938 11.26968994 -235.63671875 11.26574707 C-233.79425908 11.26302885 -231.95176076 11.27038381 -230.109375 11.28710938 C-227.29079066 11.30852127 -224.47475515 11.28730574 -221.65625 11.26171875 C-219.86457771 11.26436204 -218.07290701 11.26948706 -216.28125 11.27734375 C-215.43949219 11.26924683 -214.59773437 11.2611499 -213.73046875 11.25280762 C-212.94285156 11.26541626 -212.15523437 11.2780249 -211.34375 11.29101562 C-210.30927734 11.29578918 -210.30927734 11.29578918 -209.25390625 11.30065918 C-206.20520669 12.08566158 -205.11099973 13.25343916 -203.28125 15.80859375 C-202.90710851 18.66314945 -202.77405695 21.1238137 -202.82714844 23.97363281 C-202.8266663 24.80673855 -202.82618416 25.63984428 -202.82568741 26.49819565 C-202.82866921 29.1906404 -202.85911011 31.8819726 -202.890625 34.57421875 C-202.89650735 36.23811307 -202.90058732 37.90201477 -202.90283203 39.56591797 C-202.92378954 45.73025623 -202.9796346 51.89443596 -203.03125 58.05859375 C-203.11375 71.83609375 -203.19625 85.61359375 -203.28125 99.80859375 C-155.76125 99.31359375 -155.76125 99.31359375 -107.28125 98.80859375 C-109.59125 95.50859375 -111.90125 92.20859375 -114.28125 88.80859375 C-123.96429267 71.40312449 -126.39295444 51.17674177 -121.78125 31.74609375 C-115.92076503 13.49078515 -103.94460261 -3.01043608 -86.7421875 -12.12890625 C-79.19540117 -15.91492921 -71.62684145 -18.71523617 -63.28125 -20.19140625 C-62.43820312 -20.34480469 -61.59515625 -20.49820312 -60.7265625 -20.65625 C-38.52864077 -23.65870446 -15.79250357 -15.59711062 0 0 Z " fill="#000000" transform="translate(459.28125,28.19140625)"/>
<path d="M0 0 C1.85733765 0.00018127 1.85733765 0.00018127 3.75219727 0.00036621 C5.05906494 0.00548218 6.36593262 0.01059814 7.71240234 0.01586914 C8.90953857 0.01687622 10.1066748 0.0178833 11.34008789 0.0189209 C15.82618157 0.02416597 20.31226164 0.03812715 24.79833984 0.05102539 C34.82208984 0.07165039 44.84583984 0.09227539 55.17333984 0.11352539 C55.17333984 21.23352539 55.17333984 42.35352539 55.17333984 64.11352539 C52.53333984 64.11352539 49.89333984 64.11352539 47.17333984 64.11352539 C47.16525299 63.48125534 47.15716614 62.84898529 47.14883423 62.19755554 C47.06289949 55.62775258 46.96340086 49.05825521 46.85595703 42.48876953 C46.81763031 40.03569666 46.78278402 37.58256688 46.75146484 35.12939453 C46.70589477 31.60697054 46.64788663 28.08493964 46.58740234 24.56274414 C46.57585114 23.46266525 46.56429993 22.36258636 46.55239868 21.22917175 C46.53252899 20.20834 46.5126593 19.18750824 46.4921875 18.13574219 C46.47886383 17.2363945 46.46554016 16.33704681 46.45181274 15.41044617 C46.31492011 12.83782643 46.31492011 12.83782643 44.17333984 10.11352539 C40.40733034 8.85818889 36.8534254 8.91236497 32.92724609 8.87524414 C32.11972397 8.86717239 31.31220184 8.85910065 30.48020935 8.8507843 C28.77304215 8.83696388 27.06584756 8.8262326 25.35864258 8.81835938 C22.74881895 8.80111117 20.14025109 8.75720483 17.53076172 8.71313477 C15.87126581 8.70301033 14.21175916 8.69449345 12.55224609 8.68774414 C11.77297256 8.67023605 10.99369904 8.65272797 10.19081116 8.63468933 C6.8416972 8.64809696 4.68905304 8.72685903 1.96601868 10.76850891 C-0.31238226 13.74890207 -0.32249336 15.3774731 -0.3125 19.10375977 C-0.31865326 20.31181274 -0.32480652 21.51986572 -0.33114624 22.76452637 C-0.31677521 24.06563354 -0.30240417 25.36674072 -0.28759766 26.70727539 C-0.2852119 28.05960921 -0.28430819 29.41194639 -0.28482056 30.76428223 C-0.28169585 33.59558936 -0.26515751 36.42638891 -0.23828125 39.25756836 C-0.20430145 42.8825216 -0.19665288 46.50691755 -0.19817162 50.13201141 C-0.19762714 52.92361752 -0.18664768 55.71510238 -0.17216873 58.50666809 C-0.16273 60.49193854 -0.15924927 62.47723443 -0.15585327 64.46252441 C-0.13671371 66.27460388 -0.13671371 66.27460388 -0.1171875 68.12329102 C-0.1095639 69.1860022 -0.10194031 70.24871338 -0.09408569 71.34362793 C0.17515457 74.13232169 0.64573927 75.78369129 2.17333984 78.11352539 C4.5132559 79.28348342 5.87712203 79.23983479 8.48439598 79.24215984 C9.39507753 79.24538429 10.30575907 79.24860874 11.24403703 79.25193089 C12.25102038 79.25038229 13.25800372 79.24883369 14.29550171 79.24723816 C15.89254234 79.25063649 15.89254234 79.25063649 17.52184641 79.25410348 C21.11320791 79.26046724 24.7045319 79.2596126 28.29589844 79.25878906 C30.86109974 79.26177908 33.4263006 79.26518123 35.99150085 79.26896667 C42.25041064 79.27690543 48.50930654 79.28002203 54.76822089 79.28057905 C59.85442997 79.2810537 64.94063593 79.28310588 70.02684402 79.28627968 C84.43786157 79.29508955 98.84887166 79.29969856 113.25989191 79.2989492 C114.42602813 79.29888927 114.42602813 79.29888927 115.61572266 79.29882812 C116.39409287 79.29878724 117.17246308 79.29874636 117.97442026 79.29870424 C130.59103005 79.29829773 143.20761001 79.30786764 155.82421117 79.32196649 C168.76971799 79.33631907 181.71521025 79.34323729 194.66072524 79.34237272 C201.93230106 79.34204035 209.20384561 79.34480484 216.47541428 79.35555077 C223.31253722 79.36558965 230.14959297 79.36533185 236.98671913 79.35803413 C239.50063104 79.3569845 242.014547 79.35937348 244.52845192 79.36539459 C247.95145048 79.37306404 251.37421745 79.36850322 254.79721069 79.36076355 C256.30099354 79.36847889 256.30099354 79.36847889 257.83515584 79.3763501 C259.20900141 79.36945191 259.20900141 79.36945191 260.61060143 79.36241436 C261.40085445 79.36263173 262.19110747 79.3628491 263.00530756 79.36307305 C265.49936529 79.07599879 267.07861085 78.49475881 269.17333984 77.11352539 C270.24204568 73.90740787 270.30657303 71.59151787 270.31860352 68.22094727 C270.32498337 67.00959106 270.33136322 65.79823486 270.3379364 64.5501709 C270.33904922 63.24076538 270.34016205 61.93135986 270.34130859 60.58227539 C270.34452197 59.22611455 270.34788611 57.86995406 270.35139465 56.51379395 C270.35738033 53.67251786 270.35923507 50.83127218 270.35864258 47.98999023 C270.35854084 44.34815334 270.37220718 40.70651091 270.38941479 37.06472015 C270.40052766 34.26461897 270.40256203 31.46456496 270.40203285 28.66444397 C270.40378767 26.66857461 270.41463048 24.67271996 270.42558289 22.67687988 C270.42250626 21.46552368 270.41942963 20.25416748 270.41625977 19.00610352 C270.41839729 17.40418152 270.41839729 17.40418152 270.420578 15.76989746 C270.36429334 12.88515084 270.36429334 12.88515084 268.17333984 10.11352539 C264.40733034 8.85818889 260.8534254 8.91236497 256.92724609 8.87524414 C255.71596291 8.86313652 255.71596291 8.86313652 254.48020935 8.8507843 C252.77304215 8.83696388 251.06584756 8.8262326 249.35864258 8.81835938 C246.74881895 8.80111117 244.14025109 8.75720483 241.53076172 8.71313477 C239.87126581 8.70301033 238.21175916 8.69449345 236.55224609 8.68774414 C235.77297256 8.67023605 234.99369904 8.65272797 234.19081116 8.63468933 C230.80745516 8.64823404 228.6896035 8.71327475 225.96977234 10.82191467 C223.8339821 13.54642551 223.66133516 14.82599848 223.62744141 18.24926758 C223.60772278 19.2700238 223.58800415 20.29078003 223.56768799 21.34246826 C223.56645935 22.43738586 223.56523071 23.53230347 223.56396484 24.66040039 C223.54742859 25.78673889 223.53089233 26.91307739 223.51385498 28.07354736 C223.46527854 31.67026164 223.44398175 35.26655281 223.42333984 38.86352539 C223.39518837 41.30234887 223.36526212 43.74115256 223.33349609 46.17993164 C223.25951691 52.15771917 223.20793091 58.13538722 223.17333984 64.11352539 C220.53333984 64.11352539 217.89333984 64.11352539 215.17333984 64.11352539 C215.17333984 42.99352539 215.17333984 21.87352539 215.17333984 0.11352539 C244.64008456 -0.08729295 244.64008456 -0.08729295 259.26071644 -0.13774395 C267.14833048 -0.16538396 275.03567833 -0.2003996 282.9230957 -0.26367188 C289.17081079 -0.31376636 295.41832443 -0.34582653 301.66623479 -0.35691708 C304.96955514 -0.3633924 308.27217066 -0.38112141 311.57533836 -0.41512489 C336.97625337 -0.66608119 336.97625337 -0.66608119 348.17333984 5.11352539 C362.94889359 9.76704296 381.48598387 8.28353792 395.37353516 1.56542969 C399.4486001 -0.19366685 403.12861187 -0.32132635 407.52099609 -0.28491211 C408.29591904 -0.28778229 409.07084198 -0.29065247 409.86924744 -0.29360962 C411.49706764 -0.29563915 413.12491284 -0.2901875 414.75268555 -0.27758789 C417.23265418 -0.26149528 419.71099885 -0.2774847 422.19091797 -0.29663086 C423.78011424 -0.29464866 425.36930951 -0.29080545 426.95849609 -0.28491211 C428.06028954 -0.29402115 428.06028954 -0.29402115 429.18434143 -0.30331421 C434.60571079 -0.22983409 438.79988251 0.8979227 442.81787109 4.64868164 C487.26460234 62.7713302 447.17333984 150.94417255 447.17333984 224.11352539 C294.05333984 224.11352539 140.93333984 224.11352539 -16.82666016 224.11352539 C-16.82666016 11.11352539 -16.82666016 11.11352539 -12.82666016 5.11352539 C-8.29540518 1.12170553 -5.99199387 -0.01232921 0 0 Z " fill="#BCDAFE" transform="translate(40.82666015625,143.886474609375)"/>
<path d="M0 0 C153.12 0 306.24 0 464 0 C464 22.7109375 464 22.7109375 459.5 27.64453125 C454.47255778 31.55912819 450.9486431 32.147376 444.76035595 32.13422108 C443.64100083 32.13774942 443.64100083 32.13774942 442.49903247 32.14134905 C439.97852248 32.14804828 437.45806393 32.14758055 434.93754578 32.14717102 C433.120195 32.15046906 431.30284496 32.1541945 429.48549587 32.1583125 C424.47576244 32.16834723 419.466041 32.17205165 414.45629895 32.17470181 C409.05945329 32.17860043 403.66261717 32.18817898 398.26577759 32.19691467 C385.22573172 32.21669023 372.18568506 32.22674607 359.14562795 32.23564246 C353.00932958 32.24002303 346.87303207 32.24539039 340.73673439 32.25063133 C320.34672442 32.26764368 299.956715 32.28213924 279.56669903 32.28938007 C274.27371406 32.29129005 268.98072909 32.29321038 263.68774414 32.29516602 C261.71435802 32.29589163 261.71435802 32.29589163 259.70110551 32.2966319 C238.37548218 32.30493739 217.04992584 32.33028304 195.72432532 32.36274669 C173.84490014 32.39578277 151.96550345 32.41382565 130.08605319 32.41702431 C117.79536232 32.41919247 105.50475315 32.42798584 93.21408653 32.45348549 C82.74989405 32.47514526 72.2858031 32.48326619 61.82159074 32.47351871 C56.48011936 32.46896046 51.13885768 32.47094857 45.79741478 32.49028015 C40.91013337 32.50781578 36.02321611 32.5069926 31.13593135 32.49138286 C29.3653967 32.48899214 27.59483745 32.49340557 25.82434054 32.50521151 C23.42150361 32.52024494 21.01997133 32.51071839 18.61716747 32.49498463 C17.92627076 32.50520683 17.23537404 32.51542904 16.52354106 32.52596101 C11.58592548 32.45516924 8.82236728 31.04994828 5 28 C-3.0277696 19.10436341 0 14.54358569 0 0 Z " fill="#56555B" transform="translate(24,384)"/>
<path d="M0 0 C4.54508856 3.31668625 8.61379109 6.8064865 11 12 C11.08499756 12.64211426 11.16999512 13.28422852 11.25756836 13.94580078 C12.35430072 16.98029802 14.15551175 17.62899581 16.94140625 19.1796875 C17.9876416 19.77144775 19.03387695 20.36320801 20.11181641 20.97290039 C21.81990479 21.9144397 21.81990479 21.9144397 23.5625 22.875 C24.74739178 23.54079731 25.9314642 24.20805471 27.11474609 24.87670898 C29.55155769 26.25281624 31.99130953 27.6234814 34.43310547 28.99072266 C39.7018789 31.9490566 44.91263566 35.00621239 50.125 38.0625 C52.08838056 39.20991114 54.0519228 40.35704567 56.015625 41.50390625 C56.99080078 42.07383301 57.96597656 42.64375977 58.97070312 43.23095703 C62.14056998 45.08208979 65.31224385 46.93009404 68.484375 48.77734375 C69.55413574 49.4005249 70.62389648 50.02370605 71.72607422 50.66577148 C73.75348142 51.84672282 75.78113153 53.02725727 77.80908203 54.20727539 C83.90149626 57.75774075 89.96254926 61.35685223 96 65 C96.29801514 64.37367676 96.59603027 63.74735352 96.90307617 63.10205078 C99.11679369 58.85987231 103.263758 56.03236011 107.3125 53.625 C114.43617482 51.96833144 121.5787979 52.36389761 128 56 C133.61456439 59.88700612 138.10958625 64.30723081 140 71 C141.26083331 78.99728557 139.65710629 85.4014976 135 92 C130.21143643 97.30970088 125.69772517 100.54398045 118.46484375 101.24609375 C112.08253244 101.53579977 107.1693844 100.90162839 102 97 C98.31265637 93.57974766 95.45854955 90.57164159 94.03125 85.6796875 C91.66737383 79.94998182 85.48604003 77.71596516 80.3125 74.9375 C79.13631027 74.2861378 77.96135885 73.63253498 76.78759766 72.97680664 C74.37421989 71.63028765 71.95624107 70.29265654 69.53466797 68.9609375 C64.25946515 66.04845337 59.06969347 62.99053298 53.875 59.9375 C51.91174948 58.78986638 49.94820685 57.64273231 47.984375 56.49609375 C47.00919922 55.92616699 46.03402344 55.35624023 45.02929688 54.76904297 C41.85943002 52.91791021 38.68775615 51.06990596 35.515625 49.22265625 C34.44586426 48.5994751 33.37610352 47.97629395 32.27392578 47.33422852 C30.24651858 46.15327718 28.21886847 44.97274273 26.19091797 43.79272461 C20.09850374 40.24225925 14.03745074 36.64314777 8 33 C7.72671875 33.60714844 7.4534375 34.21429688 7.171875 34.83984375 C4.53677208 39.69721681 -0.90145473 43.20606741 -6 45 C-13.63016249 45.88371939 -19.61543511 45.33757467 -26 41 C-27.26035034 39.97083048 -28.50417786 38.92108741 -29.73046875 37.8515625 C-30.34688232 37.31611816 -30.9632959 36.78067383 -31.59838867 36.22900391 C-32.06092041 35.82343262 -32.52345215 35.41786133 -33 35 C-33.44577393 35.35078613 -33.89154785 35.70157227 -34.35083008 36.06298828 C-43.68563006 43.39637104 -53.09761387 50.59763049 -62.67895508 57.60595703 C-68.67440009 62.00005845 -74.59813279 66.48115384 -80.5 71 C-88.22759712 76.91647519 -96.01548682 82.74156568 -103.87304688 88.484375 C-104.60587891 89.020625 -105.33871094 89.556875 -106.09375 90.109375 C-106.77308594 90.60630859 -107.45242187 91.10324219 -108.15234375 91.61523438 C-109.77160342 92.82882328 -111.34347459 94.10511619 -112.90625 95.390625 C-115 97 -115 97 -117 97 C-117 97.969375 -117 98.93875 -117 99.9375 C-117.79176965 105.57168691 -121.96604692 109.29912562 -126 113 C-132.36706958 116.91819666 -138.62665124 117.75738326 -146 117 C-153.06698273 115.09833919 -157.83851334 109.79286757 -162 104 C-162.19384277 103.2069043 -162.38768555 102.41380859 -162.58740234 101.59667969 C-164.77268968 97.57961849 -168.13056928 96.75646332 -172.265625 95.13671875 C-173.11518265 94.7871965 -173.9647403 94.43767426 -174.84004211 94.07756042 C-177.63692854 92.93099609 -180.44313644 91.80939097 -183.25 90.6875 C-185.18426315 89.89979029 -187.11776954 89.11021992 -189.05053711 88.31884766 C-193.03805687 86.687283 -197.02864181 85.06354214 -201.02099609 83.44384766 C-206.78118271 81.09890504 -212.51386661 78.69250606 -218.23828125 76.26171875 C-219.11811676 75.88836899 -219.99795227 75.51501923 -220.90444946 75.13035583 C-224.29058743 73.69235555 -227.67602519 72.25272543 -231.0604248 70.81063843 C-233.3735417 69.82620176 -235.68849829 68.8462207 -238.00390625 67.8671875 C-238.68834305 67.57434372 -239.37277985 67.28149994 -240.07795715 66.9797821 C-243.4221497 65.49162182 -243.4221497 65.49162182 -247 65 C-248.13170313 66.22795623 -249.20681006 67.50851257 -250.25 68.8125 C-254.70312316 74.05255761 -259.47722233 76.53080028 -266.296875 77.23828125 C-273.79829825 77.46523514 -278.63535903 76.0902199 -284.203125 70.9765625 C-290.44355535 64.39941829 -292.54134374 58.52055107 -292.30859375 49.484375 C-291.38586672 42.05583841 -286.6867952 36.56392481 -281 32 C-274.60388873 28.18693367 -267.73316587 27.85672322 -260.57421875 29.5859375 C-254.18637483 31.99103245 -249.88215066 36.4793397 -246 42 C-245.60554688 43.23133667 -245.60554688 43.23133667 -245.203125 44.48754883 C-243.6559369 47.71849703 -242.4023064 48.17510992 -239.12109375 49.515625 C-238.074375 49.95382568 -237.02765625 50.39202637 -235.94921875 50.84350586 C-234.21091797 51.53972046 -234.21091797 51.53972046 -232.4375 52.25 C-230.5723866 53.02261527 -228.70727852 53.79524344 -226.84231567 54.56822205 C-224.76576908 55.42509776 -222.68580102 56.2731882 -220.60498047 57.11962891 C-215.53968427 59.18283975 -210.49036972 61.28391884 -205.44140625 63.38671875 C-197.5399729 66.67550172 -189.6350535 69.95563046 -181.72279358 73.21829224 C-178.20506817 74.66973548 -174.69018962 76.12635946 -171.1875 77.61376953 C-170.1046875 78.07251465 -169.021875 78.53125977 -167.90625 79.00390625 C-166.99166016 79.39521729 -166.07707031 79.78652832 -165.13476562 80.18969727 C-163.06892446 81.11829006 -163.06892446 81.11829006 -161 81 C-159.91280319 79.78939166 -158.87945376 78.53009456 -157.875 77.25 C-153.64879933 72.34552021 -149.85723288 69.54858423 -143.36328125 68.625 C-132.86923493 68.15664647 -126.56454158 72.27210207 -119 79 C-118.33133911 78.4738208 -118.33133911 78.4738208 -117.64916992 77.93701172 C-108.31436994 70.60362896 -98.90238613 63.40236951 -89.32104492 56.39404297 C-83.32559991 51.99994155 -77.40186721 47.51884616 -71.5 43 C-63.77240288 37.08352481 -55.98451318 31.25843432 -48.12695312 25.515625 C-47.39412109 24.979375 -46.66128906 24.443125 -45.90625 23.890625 C-45.22691406 23.39369141 -44.54757812 22.89675781 -43.84765625 22.38476562 C-42.22839658 21.17117672 -40.65652541 19.89488381 -39.09375 18.609375 C-37 17 -37 17 -35 17 C-35.0309375 15.576875 -35.0309375 15.576875 -35.0625 14.125 C-34.21118911 8.07945888 -29.3177623 3.93036111 -25 0 C-17.89876649 -5.1449284 -7.34627473 -4.19576813 0 0 Z " fill="#020203" transform="translate(332,243)"/>
<path d="M0 0 C5.28 0 10.56 0 16 0 C16 60.72 16 121.44 16 184 C10.72 184 5.44 184 0 184 C0 123.28 0 62.56 0 0 Z " fill="#91CC04" transform="translate(168,24)"/>
<path d="M0 0 C6.08026616 43.46877101 6.08026616 43.46877101 -3.50097656 57.99609375 C-12.16667128 69.31832192 -23.90676238 80.34933084 -36 88 C-36.66 88 -37.32 88 -38 88 C-46.57686551 71.69220639 -51.50088761 56.34693042 -46.10546875 37.90625 C-40.06387197 22.02304149 -30.04804172 10.43169103 -14.52758789 3.30908203 C-9.40673491 1.05745582 -5.60476121 -0.12919383 0 0 Z " fill="#FDD843" transform="translate(400,25)"/>
<path d="M0 0 C-1.68895059 14.52683619 -8.18545684 26.27177445 -19.3125 35.875 C-24.54187842 39.91424402 -29.80522289 42.7368651 -36 45 C-36.83789062 45.31839844 -37.67578125 45.63679688 -38.5390625 45.96484375 C-52.45937639 50.52784694 -67.24741203 48.81174617 -80.24609375 42.3984375 C-82.86950116 40.98814715 -85.44769391 39.53445256 -88 38 C-69.90086312 -0.17336887 -38.06820634 -4.99024922 0 0 Z " fill="#82D6F2" transform="translate(463,88)"/>
<path d="M0 0 C23.1 0 46.2 0 70 0 C80 30 80 30 80 32 C50.3 32 20.6 32 -10 32 C-7.0595657 21.21840758 -3.53396221 10.60188662 0 0 Z " fill="#DEDEE0" transform="translate(221,432)"/>
<path d="M0 0 C5.28 0 10.56 0 16 0 C16 50.16 16 100.32 16 152 C10.72 152 5.44 152 0 152 C0 101.84 0 51.68 0 0 Z " fill="#FFDA44" transform="translate(224,56)"/>
<path d="M0 0 C0.74328552 -0.0049649 1.48657104 -0.00992981 2.25238037 -0.01504517 C4.71733519 -0.02967888 7.18222563 -0.03647125 9.6472168 -0.04199219 C11.35873924 -0.04774324 13.07026166 -0.05350098 14.78178406 -0.05926514 C18.37389425 -0.06977897 21.96598205 -0.07561893 25.55810547 -0.07910156 C30.15828111 -0.08458304 34.75816027 -0.10860192 39.35824299 -0.13707352 C42.89530803 -0.1557102 46.43230186 -0.16090607 49.96941185 -0.16243744 C51.66506761 -0.16546285 53.36072214 -0.17348764 55.05632973 -0.18662262 C57.43101057 -0.20370277 59.80496993 -0.20179818 62.1796875 -0.1953125 C63.2280201 -0.20913467 63.2280201 -0.20913467 64.29753113 -0.22323608 C68.62210182 -0.18628993 71.34078322 0.5172437 74.78393555 3.16113281 C76.18851292 5.97028755 76.03288712 8.04923816 75.78393555 11.16113281 C74.0040915 14.29704851 73.26085348 15.00216017 69.78393555 16.16113281 C67.65491099 16.1285705 65.52673079 16.02716807 63.40185547 15.89038086 C62.06328294 15.81235851 60.72461282 15.73599768 59.38586426 15.66105652 C58.31963081 15.60074784 58.31963081 15.60074784 57.2318573 15.53922081 C18.96332398 11.90775596 18.96332398 11.90775596 -14.76603699 25.85710144 C-20.34844116 31.3999623 -25.18956875 37.64773551 -29.36181641 44.30957031 C-31.21606445 47.16113281 -31.21606445 47.16113281 -33.21606445 48.16113281 C-36.38563143 48.43674733 -38.59160233 48.43117049 -41.52856445 47.16113281 C-43.60051675 44.70548565 -44.33545461 42.50266867 -44.54760742 39.29736328 C-44.13971268 36.66917549 -43.3954042 35.74237042 -41.59887695 33.79394531 C-40.96071045 33.10179932 -40.32254395 32.40965332 -39.66503906 31.6965332 C-34.77165445 26.63045812 -29.82369947 21.62182074 -24.83496094 16.6496582 C-22.88724643 14.70736017 -20.94500515 12.75970141 -19.00317383 10.81152344 C-17.76586462 9.57487406 -16.52824577 8.33853439 -15.2902832 7.10253906 C-14.71009933 6.52033096 -14.12991547 5.93812286 -13.53215027 5.33827209 C-8.81865646 0.65240323 -6.46823297 0.0102567 0 0 Z " fill="#020202" transform="translate(380.216064453125,159.8388671875)"/>
<path d="M0 0 C5.28 0 10.56 0 16 0 C16 42.24 16 84.48 16 128 C10.72 128 5.44 128 0 128 C0 85.76 0 43.52 0 0 Z " fill="#83D8F4" transform="translate(112,80)"/>
<path d="M0 0 C14.58487915 1.82310989 26.12316164 8.05610293 35.8125 19.1875 C42.62842537 28.01026875 45.7674896 35.90740639 47 47 C31.49 47 15.98 47 0 47 C0 31.49 0 15.98 0 0 Z " fill="#A92200" transform="translate(416,25)"/>
<path d="M0 0 C0.89978073 -0.00554901 1.79956146 -0.01109802 2.72660828 -0.01681519 C5.69523695 -0.02860769 8.66233789 -0.00434019 11.63085938 0.02148438 C13.69681733 0.02319565 15.76277745 0.02312963 17.82873535 0.0213623 C22.15638023 0.02301533 26.48350697 0.04171049 30.81103516 0.07324219 C36.35618814 0.11291946 41.90066248 0.11728726 47.44593048 0.10977936 C51.71134652 0.10670872 55.97661021 0.11883359 60.24198914 0.13591003 C62.28650456 0.1429376 64.33103725 0.14606486 66.37556458 0.1452179 C69.23376629 0.14701712 72.09115734 0.16840986 74.94921875 0.1953125 C75.79300583 0.1923819 76.63679291 0.18945129 77.50614929 0.18643188 C82.13766626 0.25363872 85.21429275 0.60693514 88.97460938 3.61523438 C90.37918674 6.42438911 90.22356095 8.50333972 89.97460938 11.61523438 C88.19476533 14.75115008 87.45152731 15.45626173 83.97460938 16.61523438 C81.03448576 16.73252673 78.1172141 16.79338326 75.17626953 16.80810547 C74.27678085 16.81628296 73.37729218 16.82446045 72.45054626 16.83288574 C69.4715949 16.85771496 66.49269104 16.8742475 63.51367188 16.88867188 C62.49663555 16.89399555 61.47959923 16.89931923 60.43174362 16.90480423 C55.05085758 16.93152225 49.66999466 16.95090339 44.2890625 16.96533203 C38.72807442 16.9819966 33.16767704 17.02679358 27.60691261 17.07770348 C23.33297023 17.11132992 19.05916907 17.12290427 14.78510666 17.12855911 C12.73495329 17.13528192 10.68480955 17.15053061 8.6347847 17.17444992 C5.76660934 17.20601182 2.90004116 17.20615198 0.03173828 17.19873047 C-0.81519089 17.2151358 -1.66212006 17.23154114 -2.53471375 17.2484436 C-6.85367877 17.20267959 -8.52616618 17.00263424 -12.05239868 14.26626587 C-14.02539062 11.61523438 -14.02539062 11.61523438 -14.65039062 8.61523438 C-12.95578746 0.48113918 -7.04520536 -0.11074154 0 0 Z " fill="#010101" transform="translate(54.025390625,231.384765625)"/>
<path d="M0 0 C52.8 0 105.6 0 160 0 C160 2.64 160 5.28 160 8 C107.2 8 54.4 8 0 8 C0 5.36 0 2.72 0 0 Z " fill="#57565C" transform="translate(176,480)"/>
<path d="M0 0 C1.34850966 0.00171254 2.69702264 0.00164396 4.04553223 -0.00012207 C6.86678071 0.00152842 9.68723193 0.02017387 12.50830078 0.05175781 C16.11646157 0.09143588 19.72357924 0.09580167 23.33191681 0.08829498 C26.11502564 0.08521887 28.89790191 0.09736833 31.68095398 0.11442566 C33.65564626 0.12483213 35.63038286 0.1253027 37.60510254 0.12561035 C38.80985229 0.14152222 40.01460205 0.15743408 41.25585938 0.17382812 C42.84207092 0.18645691 42.84207092 0.18645691 44.46032715 0.19934082 C47.76530306 0.65141216 49.6672448 1.63267651 52.34375 3.59375 C53.74832737 6.40290474 53.59270157 8.48185534 53.34375 11.59375 C51.56390595 14.7296657 50.82066793 15.43477736 47.34375 16.59375 C45.39238478 16.70738041 43.43743767 16.76295063 41.48291016 16.78662109 C39.67555893 16.81071548 39.67555893 16.81071548 37.83169556 16.83529663 C32.33115857 16.87971854 26.83075176 16.92123295 21.33007812 16.94384766 C18.4257869 16.95719436 15.52219708 16.98506326 12.61816406 17.02587891 C9.10681548 17.0752245 5.59610357 17.09997009 2.08442307 17.10707474 C0.10069895 17.11703493 -1.88285533 17.15127084 -3.86630249 17.18588257 C-13.88239165 17.16231412 -13.88239165 17.16231412 -16.97509766 14.24853516 C-19.06403107 10.94980411 -19.45425877 9.42419211 -18.65625 5.59375 C-14.24329514 -1.34527636 -7.53598437 -0.09557055 0 0 Z " fill="#010102" transform="translate(338.65625,343.40625)"/>
<path d="M0 0 C1.73618591 -0.00006042 1.73618591 -0.00006042 3.50744629 -0.00012207 C5.95179684 0.00523347 8.39614694 0.02281732 10.84033203 0.05175781 C14.58028833 0.09359939 18.31844293 0.09282635 22.05859375 0.0859375 C24.43490834 0.09643055 26.81121365 0.10936926 29.1875 0.125 C30.3053186 0.12520142 31.42313721 0.12540283 32.5748291 0.12561035 C34.14170471 0.14947815 34.14170471 0.14947815 35.74023438 0.17382812 C37.11326721 0.18645691 37.11326721 0.18645691 38.51403809 0.19934082 C41.66986243 0.68183117 43.55480977 1.67385991 46.09375 3.59375 C47.26555914 7.54860583 47.4985633 9.66267942 45.84375 13.46875 C44.09375 15.59375 44.09375 15.59375 41.09375 16.59375 C39.38186229 16.69623411 37.6663217 16.74219402 35.95141602 16.75488281 C34.90345352 16.76449036 33.85549103 16.7740979 32.77577209 16.78399658 C31.64449387 16.78824646 30.51321564 16.79249634 29.34765625 16.796875 C28.18499741 16.80257507 27.02233856 16.80827515 25.82444763 16.81414795 C23.36401276 16.8235985 20.90356524 16.83013215 18.44311523 16.83398438 C14.67474403 16.84370231 10.90691532 16.87473101 7.13867188 16.90625 C4.75000324 16.9127788 2.36133071 16.91802975 -0.02734375 16.921875 C-1.15659775 16.9342218 -2.28585175 16.9465686 -3.44932556 16.95928955 C-4.50044022 16.95628845 -5.55155487 16.95328735 -6.63452148 16.95019531 C-8.01993385 16.95566376 -8.01993385 16.95566376 -9.43333435 16.96124268 C-12.37918338 16.52346877 -13.74027355 15.60206635 -15.90625 13.59375 C-16.69140625 11.7265625 -16.69140625 11.7265625 -16.96875 9.71875 C-17.08347656 9.06132812 -17.19820312 8.40390625 -17.31640625 7.7265625 C-16.80554703 5.07009458 -15.68096573 3.52957478 -13.73875427 1.67184448 C-9.65179109 -0.73258782 -4.59754977 -0.06743316 0 0 Z " fill="#000000" transform="translate(56.90625,391.40625)"/>
<path d="M0 0 C5.28 0 10.56 0 16 0 C16 13.2 16 26.4 16 40 C10.72 40 5.44 40 0 40 C0 26.8 0 13.6 0 0 Z " fill="#FF9811" transform="translate(280,168)"/>
<path d="M0 0 C5.28 0 10.56 0 16 0 C16 13.2 16 26.4 16 40 C10.72 40 5.44 40 0 40 C0 26.8 0 13.6 0 0 Z " fill="#AB2300" transform="translate(56,168)"/>
<path d="M0 0 C1.26972656 0.00257813 2.53945313 0.00515625 3.84765625 0.0078125 C5.16636719 0.03617187 6.48507812 0.06453125 7.84375 0.09375 C9.16246094 0.09117187 10.48117187 0.08859375 11.83984375 0.0859375 C22.77449158 0.19694915 22.77449158 0.19694915 27.34375 3.59375 C28.74832737 6.40290474 28.59270157 8.48185534 28.34375 11.59375 C26.56390595 14.7296657 25.82066793 15.43477736 22.34375 16.59375 C18.23251683 16.86499388 14.12143728 16.90688817 10.00195312 16.94384766 C8.64989001 16.96040751 7.29791446 16.98769924 5.94628906 17.02587891 C3.98816461 17.08082871 2.0291272 17.099416 0.0703125 17.1171875 C-1.09935059 17.13700684 -2.26901367 17.15682617 -3.47412109 17.17724609 C-7.60762496 16.41929963 -9.07026796 14.83412437 -11.65625 11.59375 C-12.28125 8.59375 -12.28125 8.59375 -11.65625 5.59375 C-8.02251354 1.05742951 -5.77097589 -0.03536531 0 0 Z " fill="#020303" transform="translate(363.65625,319.40625)"/>
<path d="M0 0 C2.64 0 5.28 0 8 0 C8 21.12 8 42.24 8 64 C5.36 64 2.72 64 0 64 C0 42.88 0 21.76 0 0 Z " fill="#BDDBFF" transform="translate(200,144)"/>
<path d="M0 0 C2.64 0 5.28 0 8 0 C8 21.12 8 42.24 8 64 C5.36 64 2.72 64 0 64 C0 42.88 0 21.76 0 0 Z " fill="#BDDBFF" transform="translate(144,144)"/>
<path d="M0 0 C4.64963504 2.29927007 4.64963504 2.29927007 6 5 C6.29123466 8.34919863 6.36462337 10.35756835 4.6875 13.3125 C1.52592843 16.47407157 -2.11841691 16.24837396 -6.375 16.375 C-10.79028114 16.3356218 -12.53327074 16.29941123 -16.3125 13.875 C-18.32483711 10.44657382 -18.81252952 8.9001417 -18 5 C-14.0594899 -1.71346165 -6.95616502 -1.03309382 0 0 Z " fill="#050506" transform="translate(170,232)"/>
<path d="M0 0 C2.84375 1.3203125 2.84375 1.3203125 5 3 C6.17180914 6.95485583 6.4048133 9.06892942 4.75 12.875 C3 15 3 15 0 16 C-2.14253254 16.14525644 -4.29024833 16.22075253 -6.4375 16.25 C-7.57058594 16.27578125 -8.70367187 16.3015625 -9.87109375 16.328125 C-13.30052858 15.96848389 -14.63200456 15.46852355 -17 13 C-18.12435586 10.32615871 -18.28538575 7.87624065 -18 5 C-14.31820319 -1.79716335 -6.83778768 -1.01551302 0 0 Z " fill="#020202" transform="translate(130,392)"/>
<path d="M0 0 C4.0743356 0.84881992 5.54405875 2.30225596 8 5.625 C8.625 8.625 8.625 8.625 8 11.625 C5.54405875 14.94774404 4.0743356 16.40118008 0 17.25 C-4.0743356 16.40118008 -5.54405875 14.94774404 -8 11.625 C-8.625 8.625 -8.625 8.625 -8 5.625 C-5.54405875 2.30225596 -4.0743356 0.84881992 0 0 Z " fill="#7DCEE9" transform="translate(64,287.375)"/>
<path d="M0 0 C2.66589042 0.54323805 3.75768995 0.96351964 5.875 2.75 C7.21538506 5.84964046 7.42167869 7.71409302 6.875 11.0625 C4.41905875 14.38524404 2.9493356 15.83868008 -1.125 16.6875 C-5.1993356 15.83868008 -6.66905875 14.38524404 -9.125 11.0625 C-9.75 8.0625 -9.75 8.0625 -9.125 5.0625 C-6.50620524 1.2161452 -4.62486834 -0.35838463 0 0 Z " fill="#8AC303" transform="translate(193.125,327.9375)"/>
<path d="M0 0 C1.8046875 0.640625 1.8046875 0.640625 3.8046875 2.328125 C5.14507256 5.42776546 5.35136619 7.29221802 4.8046875 10.640625 C2.31384502 14.01058835 0.91879885 15.45872927 -3.2578125 16.140625 C-6.62408491 15.56764246 -7.98534714 15.2598432 -10.1953125 12.640625 C-11.16586381 9.90651093 -11.50945273 7.52959322 -11.1953125 4.640625 C-8.1181485 -0.22327939 -5.38557002 -1.09743691 0 0 Z " fill="#F49110" transform="translate(451.1953125,312.359375)"/>
<path d="M0 0 C2.0625 1.5625 2.0625 1.5625 3 4 C3.17821261 6.85140177 2.92914963 9.292848 2 12 C-0.93837168 14.85194898 -2.53597436 15 -6.625 15 C-10 14 -10 14 -12 11.875 C-13.30782688 8.11499772 -13.06090617 5.81926223 -12 2 C-8.81688665 -2.07438508 -4.54417813 -1.38635943 0 0 Z " fill="#A42100" transform="translate(325,257)"/>
</svg>
