<?xml version="1.0" encoding="UTF-8"?>
<svg version="1.1" xmlns="http://www.w3.org/2000/svg" width="512" height="512">
<path d="M0 0 C15.46896549 16.02053314 21.67720901 34.80998673 21.46875 56.79589844 C20.84909142 78.12893616 11.6997314 95.54516496 -3.375 110.375 C-4.34566406 111.28378906 -4.34566406 111.28378906 -5.3359375 112.2109375 C-10.35797945 117.61022204 -10.12881149 124.34598232 -10.0625 131.375 C-10.0315625 134.654375 -10.0315625 134.654375 -10 138 C-5.38 138.66 -0.76 139.32 4 140 C4.66 137.36 5.32 134.72 6 132 C13.74094086 132.56626259 21.27033631 133.64540921 28.89379883 135.08544922 C30.02693512 135.29535492 31.16007141 135.50526062 32.32754517 135.7215271 C36.03839426 136.4105611 39.74776491 137.10718699 43.45703125 137.8046875 C46.05006965 138.28950475 48.64314375 138.77413106 51.23625183 139.25857544 C56.65426684 140.27175171 62.07135942 141.28975935 67.48803711 142.31005859 C73.73779567 143.48715566 79.98946131 144.65369846 86.24211675 145.81529987 C92.28084163 146.93765316 98.31764129 148.07004968 104.35376549 149.20630264 C106.91326951 149.68680582 109.47331856 150.16441518 112.03391457 150.63906479 C115.60868086 151.30270232 119.18110612 151.97777049 122.75317383 152.65576172 C123.80835709 152.84912109 124.86354034 153.04248047 125.95069885 153.24169922 C133.90884279 154.77164447 139.25519319 156.87339535 145.0715332 162.71508789 C145.53897446 163.18048477 146.00641571 163.64588165 146.48802185 164.12538147 C148.01628946 165.65066437 149.53359929 167.18635278 151.05078125 168.72265625 C152.11539706 169.79033279 153.18060736 170.85741683 154.24638367 171.92393494 C156.4707068 174.152846 158.69004638 176.38655826 160.90551758 178.62426758 C163.74793739 181.49507176 166.59905842 184.35703204 169.45347309 187.21590519 C171.64923239 189.41581511 173.84214613 191.61854169 176.03401756 193.82232475 C177.08495666 194.8789654 178.13636837 195.9351362 179.18825722 196.99083138 C180.65329686 198.4627276 182.11489437 199.93795212 183.57543945 201.41430664 C184.40783646 202.25353165 185.24023346 203.09275665 186.09785461 203.95741272 C189.12358901 207.20654743 189.18342409 209.53383001 189.42578125 213.9296875 C188.79802074 216.982101 187.38329135 218.0228246 185 220 C181.87133789 221.08081055 181.87133789 221.08081055 178.22265625 221.88671875 C177.57429306 222.0340596 176.92592987 222.18140045 176.25791931 222.33320618 C174.19558057 222.79844538 172.12943029 223.243157 170.0625 223.6875 C168.67743609 223.99671378 167.29266626 224.30724798 165.90820312 224.61914062 C160.61651345 225.80441708 155.31769331 226.93646134 150 228 C149.67 238.56 149.34 249.12 149 260 C146.36 260 143.72 260 141 260 C141.33 264.62 141.66 269.24 142 274 C142.33 273.67 142.66 273.34 143 273 C149.63560451 272.06868709 149.63560451 272.06868709 152.88671875 274.2878418 C153.50160156 274.85672119 154.11648438 275.42560059 154.75 276.01171875 C155.44101807 276.64706543 156.13203613 277.28241211 156.84399414 277.93701172 C160.41682932 281.35570238 163.95060444 284.80610642 167.4375 288.3125 C168.15615234 289.02728516 168.87480469 289.74207031 169.61523438 290.47851562 C170.63907227 291.50428711 170.63907227 291.50428711 171.68359375 292.55078125 C172.29775146 293.16606689 172.91190918 293.78135254 173.54467773 294.4152832 C176.13792284 297.23909699 176.55941461 299.94037571 176.56640625 303.7578125 C175.40664723 308.34885854 171.44300285 310.9873725 168 314 C168.99 317.63 169.98 321.26 171 325 C171.88042969 324.95359375 172.76085937 324.9071875 173.66796875 324.859375 C174.82941406 324.82328125 175.99085938 324.7871875 177.1875 324.75 C178.33605469 324.70359375 179.48460937 324.6571875 180.66796875 324.609375 C184.82134371 325.09628883 186.15945727 325.94337748 189 329 C189.50768623 332.04381844 189.70264543 334.52039894 189.6640625 337.5625 C189.66884613 338.39080322 189.67362976 339.21910645 189.67855835 340.07250977 C189.68195533 341.82082014 189.67276682 343.5691942 189.65185547 345.31738281 C189.62508332 347.99167664 189.65160615 350.66177402 189.68359375 353.3359375 C189.68028961 355.03646759 189.67388328 356.73699506 189.6640625 358.4375 C189.67418365 359.23551025 189.68430481 360.03352051 189.69473267 360.85571289 C189.6123331 364.76413776 189.36993379 366.60192538 186.66674805 369.51074219 C183.29203031 371.39536896 181.02743233 371.40514878 177.1875 371.25 C176.02605469 371.21390625 174.86460937 371.1778125 173.66796875 371.140625 C172.78753906 371.09421875 171.90710938 371.0478125 171 371 C169.515 376.445 169.515 376.445 168 382 C169.32 383.155 170.64 384.31 172 385.5 C176.62714295 390.18487913 176.62714295 390.18487913 176.9375 394 C176.45093932 397.4218341 175.26868425 399.18505819 172.9609375 401.72265625 C172.32953857 402.41762207 171.69813965 403.11258789 171.04760742 403.82861328 C167.65443593 407.42690436 164.19435765 410.95014295 160.6875 414.4375 C159.97271484 415.15615234 159.25792969 415.87480469 158.52148438 416.61523438 C157.49571289 417.63907227 157.49571289 417.63907227 156.44921875 418.68359375 C155.83393311 419.29775146 155.21864746 419.91190918 154.5847168 420.54467773 C151.76090301 423.13792284 149.05962429 423.55941461 145.2421875 423.56640625 C140.65114146 422.40664723 138.0126275 418.44300285 135 415 C131.37 415.99 127.74 416.98 124 418 C124.04640625 418.88042969 124.0928125 419.76085937 124.140625 420.66796875 C124.17671875 421.82941406 124.2128125 422.99085938 124.25 424.1875 C124.29640625 425.33605469 124.3428125 426.48460937 124.390625 427.66796875 C123.90371117 431.82134371 123.05662252 433.15945727 120 436 C116.95618156 436.50768623 114.47960106 436.70264543 111.4375 436.6640625 C110.19504517 436.67123795 110.19504517 436.67123795 108.92749023 436.67855835 C107.17917986 436.68195533 105.4308058 436.67276682 103.68261719 436.65185547 C101.00832336 436.62508332 98.33822598 436.65160615 95.6640625 436.68359375 C93.96353241 436.68028961 92.26300494 436.67388328 90.5625 436.6640625 C89.76448975 436.67418365 88.96647949 436.68430481 88.14428711 436.69473267 C84.23586224 436.6123331 82.39807462 436.36993379 79.48925781 433.66674805 C77.60463104 430.29203031 77.59485122 428.02743233 77.75 424.1875 C77.78609375 423.02605469 77.8221875 421.86460937 77.859375 420.66796875 C77.90578125 419.78753906 77.9521875 418.90710938 78 418 C72.555 416.515 72.555 416.515 67 415 C65.845 416.32 64.69 417.64 63.5 419 C58.81512087 423.62714295 58.81512087 423.62714295 55 423.9375 C48.22179871 423.11312417 44.02124919 417.11020174 39.6640625 412.3828125 C38.76034912 411.42689209 38.76034912 411.42689209 37.83837891 410.45166016 C36.62841913 409.16714243 35.43966062 407.86226305 34.27490234 406.53662109 C31.16991902 403.116932 31.16991902 403.116932 26.921875 401.80053711 C24.50669776 402.05316458 24.50669776 402.05316458 21 403 C20.236875 403.10441406 19.47375 403.20882813 18.6875 403.31640625 C18.130625 403.39761719 17.57375 403.47882813 17 403.5625 C16.01 403.706875 15.02 403.85125 14 404 C14.33 406.64 14.66 409.28 15 412 C8.10509587 414.39360955 1.17033442 416.34203923 -5.90234375 418.13671875 C-7.02008682 418.42102249 -8.1378299 418.70532623 -9.28944397 418.99824524 C-11.64126751 419.59433985 -13.99360827 420.18839718 -16.34643555 420.78051758 C-19.92588928 421.68456752 -23.50092583 422.60486242 -27.07617188 423.52539062 C-29.37214066 424.10517809 -31.66835685 424.68398691 -33.96484375 425.26171875 C-35.02243393 425.53666672 -36.08002411 425.81161469 -37.16966248 426.09489441 C-38.18093704 426.34548111 -39.19221161 426.59606781 -40.23413086 426.85424805 C-41.54576454 427.18709053 -41.54576454 427.18709053 -42.88389587 427.5266571 C-53.85908937 429.19381252 -63.71972472 426.42009469 -74.29785156 423.7331543 C-76.14153875 423.27398501 -77.98547914 422.81583135 -79.82965088 422.35861206 C-84.81551986 421.11924434 -89.79759973 419.86524246 -94.77901936 418.60812736 C-100.00065543 417.29263757 -105.22535682 415.98942957 -110.449646 414.68452454 C-119.21750284 412.49253357 -127.98299844 410.29130094 -136.74707031 408.08422852 C-146.87472579 405.53385237 -157.00563392 402.99675268 -167.13846612 400.46702832 C-176.89730264 398.03047269 -186.65411012 395.58589193 -196.40990448 393.13718605 C-200.55748984 392.09620603 -204.70570541 391.05779343 -208.85443878 390.02139854 C-213.73823142 388.80089016 -218.62018637 387.57328334 -223.50081635 386.34019089 C-225.29085427 385.88910382 -227.08149401 385.44039719 -228.87277222 384.99426079 C-231.31973185 384.38438152 -233.76434245 383.76583978 -236.20855713 383.14506531 C-237.26935718 382.88386124 -237.26935718 382.88386124 -238.35158753 382.61738032 C-242.53992624 381.54158768 -246.25276923 380.16920833 -250 378 C-251.3528092 375.29438159 -251.14027126 373.17133888 -251.15821838 370.14083862 C-251.1680072 368.89279449 -251.17779602 367.64475037 -251.18788147 366.35888672 C-251.19378604 364.9682621 -251.19959646 363.57763708 -251.20532227 362.18701172 C-251.21489823 360.72860433 -251.22490814 359.27019974 -251.23532104 357.8117981 C-251.26240672 353.84511871 -251.28339641 349.87842739 -251.30332303 345.91170645 C-251.32516003 341.76900641 -251.35255988 337.62634334 -251.37937927 333.4836731 C-251.42933713 325.63558155 -251.47426446 317.78746952 -251.51740164 309.93933785 C-251.56674761 301.00594251 -251.62167551 292.07258426 -251.67708123 283.13922477 C-251.79094875 264.75951759 -251.89777738 246.37977544 -252 228 C-253.03930664 227.77860352 -254.07861328 227.55720703 -255.14941406 227.32910156 C-259.01425792 226.50167255 -262.87459283 225.65466555 -266.73388672 224.80175781 C-268.40297284 224.43574436 -270.07322593 224.07501011 -271.74462891 223.71972656 C-274.15074703 223.20729926 -276.55199153 222.6758616 -278.953125 222.140625 C-279.69806213 221.98627991 -280.44299927 221.83193481 -281.21051025 221.6729126 C-285.56762886 220.67844961 -288.32122545 219.65380092 -291 216 C-291.60738768 212.6869763 -291.84331106 211.13270772 -291 208 C-289.74397278 206.18940735 -289.74397278 206.18940735 -288.06567383 204.36450195 C-287.42884674 203.66853912 -286.79201965 202.97257629 -286.13589478 202.25552368 C-279.39968459 195.14202644 -272.54135592 188.15220093 -265.6496582 181.18969727 C-263.67070903 179.18839538 -261.70201371 177.17776568 -259.74145508 175.15844727 C-256.89307033 172.22495238 -254.01620845 169.3209418 -251.13671875 166.41796875 C-250.26971848 165.51797653 -249.4027182 164.61798431 -248.50944519 163.6907196 C-247.25313042 162.43845329 -247.25313042 162.43845329 -245.97143555 161.16088867 C-245.25086472 160.42778976 -244.53029388 159.69469086 -243.78788757 158.93937683 C-236.76207522 154.05191371 -227.37522276 153.16006373 -219.11206055 151.63989258 C-217.96771042 151.42487595 -216.82336029 151.20985931 -215.64433289 150.98832703 C-211.89278905 150.28495187 -208.13982735 149.5895046 -204.38671875 148.89453125 C-201.76733419 148.40592278 -199.1480157 147.91697081 -196.52876282 147.42765808 C-191.0549652 146.40598849 -185.58035221 145.38878399 -180.10522461 144.37426758 C-173.78286106 143.20270399 -167.46186528 142.02397402 -161.14154214 140.84145623 C-155.04262606 139.70053804 -148.94277203 138.56471302 -142.8424778 137.43118858 C-140.25345017 136.94962203 -137.66466123 136.46677037 -135.07611656 135.98261452 C-131.46519989 135.30798504 -127.85325481 134.63916582 -124.2409668 133.97192383 C-123.17126648 133.77092072 -122.10156616 133.5699176 -120.99945068 133.36282349 C-120.01415878 133.18204758 -119.02886688 133.00127167 -118.01371765 132.8150177 C-117.16114223 132.65667859 -116.3085668 132.49833948 -115.43015575 132.33520222 C-112.92261013 131.98932527 -110.52798858 131.94110962 -108 132 C-107.34 134.64 -106.68 137.28 -106 140 C-101.05 139.67 -96.1 139.34 -91 139 C-91.22878942 135.62234562 -91.48217493 132.24959589 -91.75 128.875 C-91.811875 127.92367187 -91.87375 126.97234375 -91.9375 125.9921875 C-92.60925558 117.93112054 -95.09589605 113.50204213 -101.125 108.0625 C-114.97698768 94.46195104 -123.1004659 76.50957854 -123.38061523 57.08129883 C-123.34047993 34.16403746 -117.27748421 15.50804348 -101 -1 C-72.44681209 -28.45498838 -28.07629778 -26.32413655 0 0 Z " fill="#010101" transform="translate(307,60)"/>
<path d="M0 0 C15.46896549 16.02053314 21.67720901 34.80998673 21.46875 56.79589844 C20.84909142 78.12893616 11.6997314 95.54516496 -3.375 110.375 C-4.02210938 110.98085937 -4.66921875 111.58671875 -5.3359375 112.2109375 C-10.35797945 117.61022204 -10.12881149 124.34598232 -10.0625 131.375 C-10.0315625 134.654375 -10.0315625 134.654375 -10 138 C-5.38 138.99 -0.76 139.98 4 141 C4 143.31 4 145.62 4 148 C5.04607422 148.12955078 5.04607422 148.12955078 6.11328125 148.26171875 C19.16283562 149.99847263 32.06909491 152.55294657 45 155 C46.90363145 155.35814936 48.80727624 155.71622786 50.7109375 156.07421875 C62.49121256 158.29736143 74.24904929 160.62709051 86 163 C83.44969581 165.55030419 81.97496153 165.5132501 78.4296875 166.04296875 C77.2449585 166.22577393 76.06022949 166.4085791 74.83959961 166.59692383 C74.19747528 166.69244537 73.55535095 166.78796692 72.89376831 166.88638306 C69.36243566 167.4131122 65.83578597 167.96977132 62.30859375 168.5234375 C61.17820427 168.70000633 61.17820427 168.70000633 60.02497864 168.88014221 C51.31032607 170.24972095 42.62430295 171.77766953 33.9375 173.3125 C31.42448527 173.75585506 28.91144893 174.19908742 26.39840698 174.64228821 C24.6675257 174.94755072 22.93667067 175.25296208 21.20584106 175.55851746 C14.37824628 176.76205898 7.54709818 177.94432243 0.71484375 179.12109375 C-1.36125394 179.47936913 -3.43734447 179.83768597 -5.51342773 180.19604492 C-8.53254939 180.71714818 -11.55179355 181.23745862 -14.57156372 181.75479126 C-17.37368174 182.23499708 -20.17529654 182.7179745 -22.9765625 183.203125 C-23.85499313 183.35508835 -24.73342377 183.5070517 -25.63847351 183.66362 C-30.73975879 184.56020806 -35.78491036 185.58867057 -40.8359375 186.734375 C-50.35346772 188.79501536 -57.99822863 187.65565478 -67.49865723 185.894104 C-70.47547463 185.34236998 -73.45511868 184.806613 -76.43457031 184.26931763 C-78.05580995 183.97672887 -79.67690048 183.68331281 -81.29785156 183.38912964 C-90.31218617 181.75456031 -99.33827935 180.18886882 -108.3651123 178.62506104 C-111.259546 178.12334531 -114.15373449 177.62023792 -117.04785156 177.11669922 C-126.24855504 175.51628113 -135.4501157 173.9210417 -144.65368652 172.33718872 C-148.87790967 171.60993025 -153.10175273 170.88047847 -157.32556152 170.15081787 C-159.33944988 169.80356099 -161.35352564 169.45738902 -163.36779785 169.11236572 C-166.17015087 168.63229984 -168.97184692 168.14855505 -171.7734375 167.6640625 C-173.00164719 167.45517395 -173.00164719 167.45517395 -174.25466919 167.24206543 C-179.2387214 166.3755671 -184.10554039 165.28103457 -189 164 C-185.09249442 161.61048051 -180.7637827 161.05495534 -176.328125 160.265625 C-175.46508255 160.10692932 -174.6020401 159.94823364 -173.71284485 159.784729 C-170.89290436 159.26745427 -168.07150833 158.75864685 -165.25 158.25 C-163.3084026 157.89578346 -161.36691552 157.54096169 -159.42553711 157.18554688 C-156.47859096 156.64617283 -153.5315624 156.10729882 -150.58409119 155.57080078 C-144.44310796 154.45234552 -138.30730862 153.30976978 -132.17578125 152.140625 C-131.43163971 151.99908997 -130.68749817 151.85755493 -129.92080688 151.71173096 C-127.12171621 151.17914037 -124.32267136 150.64640573 -121.52478027 150.10754395 C-119.64343972 149.74555537 -117.76119433 149.38827884 -115.87890625 149.03125 C-114.8329126 148.83080078 -113.78691895 148.63035156 -112.70922852 148.42382812 C-110 148 -110 148 -106 148 C-106 145.69 -106 143.38 -106 141 C-104.62705778 140.65828994 -103.25149882 140.32708883 -101.875 140 C-101.10929687 139.814375 -100.34359375 139.62875 -99.5546875 139.4375 C-96.66526648 138.9426756 -93.92602801 138.93215008 -91 139 C-91.2213875 135.62249067 -91.48221252 132.24912228 -91.75 128.875 C-91.811875 127.92367187 -91.87375 126.97234375 -91.9375 125.9921875 C-92.60925558 117.93112054 -95.09589605 113.50204213 -101.125 108.0625 C-114.97698768 94.46195104 -123.1004659 76.50957854 -123.38061523 57.08129883 C-123.34047993 34.16403746 -117.27748421 15.50804348 -101 -1 C-72.44681209 -28.45498838 -28.07629778 -26.32413655 0 0 Z " fill="#010101" transform="translate(307,60)"/>
<path d="M0 0 C0.33 0 0.66 0 1 0 C1 63.36 1 126.72 1 192 C-11 189 -23 186 -35 183 C-35.98886703 182.75278702 -35.98886703 182.75278702 -36.99771118 182.50057983 C-38.33867869 182.16533285 -39.67964138 181.83006656 -41.02059937 181.49478149 C-44.23709179 180.69057318 -47.45367119 179.886718 -50.67041016 179.08349609 C-57.71957178 177.32281467 -64.76722621 175.55629578 -71.81341553 173.78375244 C-76.20711196 172.67891652 -80.60133294 171.57617493 -84.99560547 170.47363281 C-87.23084787 169.91231923 -89.46587771 169.3501584 -91.70068359 168.78710938 C-105.13193996 165.40404112 -118.58202691 162.14861105 -132.08551025 159.06600952 C-139.81666502 157.29373142 -147.48305342 155.37775768 -155.125 153.25 C-157.23160279 152.67126297 -159.33836957 152.0931225 -161.4453125 151.515625 C-162.76813232 151.14872559 -162.76813232 151.14872559 -164.11767578 150.77441406 C-167.73293506 149.80307725 -171.36829713 148.90792572 -175 148 C-175 103.45 -175 58.9 -175 13 C-169.19375071 13.64513881 -163.96142258 14.32637895 -158.328125 15.56640625 C-157.6205455 15.7207312 -156.912966 15.87505615 -156.1839447 16.03405762 C-153.87168317 16.53932325 -151.56087242 17.0509224 -149.25 17.5625 C-147.60858533 17.92227535 -145.96706297 18.28155968 -144.32543945 18.64038086 C-140.91592883 19.38599272 -137.5068895 20.13370847 -134.09814453 20.8828125 C-126.90057147 22.46255489 -119.69667831 24.0129038 -112.49316406 25.5652771 C-100.59411001 28.13134137 -88.69760481 30.70950629 -76.80432129 33.30218506 C-75.44541517 33.59840867 -74.08644799 33.8943523 -72.72741699 34.19000244 C-63.87549476 36.11721293 -55.05573456 38.13199513 -46.27734375 40.37109375 C-42.63937211 41.06920273 -39.68980481 41.44789538 -36 41 C-33.27376571 38.88905952 -33.27376571 38.88905952 -31 36 C-30.14921875 35.10023438 -29.2984375 34.20046875 -28.421875 33.2734375 C-23.20650024 27.61582336 -18.17838981 21.88137433 -13.34375 15.890625 C-10.59632589 12.50213526 -7.80753648 9.15122894 -5 5.8125 C-4.51853516 5.23508057 -4.03707031 4.65766113 -3.54101562 4.06274414 C-2.38319747 2.68919255 -1.19454679 1.34173202 0 0 Z " fill="#6586B2" transform="translate(247,278)"/>
<path d="M0 0 C0.75792847 -0.00099701 1.51585693 -0.00199402 2.29675293 -0.00302124 C3.89374316 0.00164436 5.49075022 0.02100948 7.08740234 0.05419922 C9.52445675 0.10143084 11.95713473 0.09531272 14.39453125 0.08203125 C15.95054677 0.0931857 17.50654396 0.10740608 19.0625 0.125 C19.78659058 0.12317719 20.51068115 0.12135437 21.25671387 0.11947632 C26.10402649 0.25453612 28.62518342 1.28263284 32.03125 4.7265625 C33.47332941 7.61072133 33.12519887 10.14377778 33.09375 13.3515625 C33.08472656 14.54007812 33.07570313 15.72859375 33.06640625 16.953125 C33.05480469 17.86835938 33.04320312 18.78359375 33.03125 19.7265625 C34.42537109 19.94119141 34.42537109 19.94119141 35.84765625 20.16015625 C39.03125 20.7265625 39.03125 20.7265625 41.96875 21.7890625 C45.07471709 22.08648868 45.07471709 22.08648868 46.68359375 20.0078125 C47.25207031 19.275625 47.82054687 18.5434375 48.40625 17.7890625 C51.48419432 13.94670563 51.48419432 13.94670563 53.97265625 12.9453125 C57.13053819 12.69812018 59.2913408 13.19442933 61.88134766 15.05712891 C62.50058105 15.62093262 63.11981445 16.18473633 63.7578125 16.765625 C64.79941528 17.71272339 64.79941528 17.71272339 65.86206055 18.67895508 C69.45821142 22.07354342 72.98179311 25.53260725 76.46875 29.0390625 C77.54672852 30.11124023 77.54672852 30.11124023 78.64648438 31.20507812 C79.32904297 31.88892578 80.01160156 32.57277344 80.71484375 33.27734375 C81.32900146 33.89262939 81.94315918 34.50791504 82.57592773 35.1418457 C85.16917284 37.96565949 85.59066461 40.66693821 85.59765625 44.484375 C84.43789723 49.07542104 80.47425285 51.713935 77.03125 54.7265625 C78.02125 58.3565625 79.01125 61.9865625 80.03125 65.7265625 C80.91167969 65.68015625 81.79210937 65.63375 82.69921875 65.5859375 C83.86066406 65.54984375 85.02210938 65.51375 86.21875 65.4765625 C87.36730469 65.43015625 88.51585937 65.38375 89.69921875 65.3359375 C93.85259371 65.82285133 95.19070727 66.66993998 98.03125 69.7265625 C98.53893623 72.77038094 98.73389543 75.24696144 98.6953125 78.2890625 C98.70009613 79.11736572 98.70487976 79.94566895 98.70980835 80.79907227 C98.71320533 82.54738264 98.70401682 84.2957567 98.68310547 86.04394531 C98.65633332 88.71823914 98.68285615 91.38833652 98.71484375 94.0625 C98.71153961 95.76303009 98.70513328 97.46355756 98.6953125 99.1640625 C98.70543365 99.96207275 98.71555481 100.76008301 98.72598267 101.58227539 C98.6435831 105.49070026 98.40118379 107.32848788 95.69799805 110.23730469 C92.32328031 112.12193146 90.05868233 112.13171128 86.21875 111.9765625 C85.05730469 111.94046875 83.89585937 111.904375 82.69921875 111.8671875 C81.81878906 111.82078125 80.93835938 111.774375 80.03125 111.7265625 C79.04125 115.3565625 78.05125 118.9865625 77.03125 122.7265625 C79.01125 124.4590625 79.01125 124.4590625 81.03125 126.2265625 C85.65839295 130.91144163 85.65839295 130.91144163 85.96875 134.7265625 C85.48218932 138.1483966 84.29993425 139.91162069 81.9921875 142.44921875 C81.04508911 143.49166748 81.04508911 143.49166748 80.07885742 144.55517578 C76.68568593 148.15346686 73.22560765 151.67670545 69.71875 155.1640625 C68.64657227 156.24204102 68.64657227 156.24204102 67.55273438 157.34179688 C66.86888672 158.02435547 66.18503906 158.70691406 65.48046875 159.41015625 C64.55754028 160.33139282 64.55754028 160.33139282 63.6159668 161.27124023 C60.79215301 163.86448534 58.09087429 164.28597711 54.2734375 164.29296875 C49.68239146 163.13320973 47.0438775 159.16956535 44.03125 155.7265625 C40.40125 156.7165625 36.77125 157.7065625 33.03125 158.7265625 C33.07765625 159.60699219 33.1240625 160.48742187 33.171875 161.39453125 C33.20796875 162.55597656 33.2440625 163.71742188 33.28125 164.9140625 C33.32765625 166.06261719 33.3740625 167.21117187 33.421875 168.39453125 C32.93496117 172.54790621 32.08787252 173.88601977 29.03125 176.7265625 C25.98743156 177.23424873 23.51085106 177.42920793 20.46875 177.390625 C19.22629517 177.39780045 19.22629517 177.39780045 17.95874023 177.40512085 C16.21042986 177.40851783 14.4620558 177.39932932 12.71386719 177.37841797 C10.03957336 177.35164582 7.36947598 177.37816865 4.6953125 177.41015625 C2.99478241 177.40685211 1.29425494 177.40044578 -0.40625 177.390625 C-1.20426025 177.40074615 -2.00227051 177.41086731 -2.82446289 177.42129517 C-6.73288776 177.3388956 -8.57067538 177.09649629 -11.47949219 174.39331055 C-13.36411896 171.01859281 -13.37389878 168.75399483 -13.21875 164.9140625 C-13.18265625 163.75261719 -13.1465625 162.59117187 -13.109375 161.39453125 C-13.06296875 160.51410156 -13.0165625 159.63367188 -12.96875 158.7265625 C-16.59875 157.7365625 -20.22875 156.7465625 -23.96875 155.7265625 C-25.70125 157.7065625 -25.70125 157.7065625 -27.46875 159.7265625 C-32.15362913 164.35370545 -32.15362913 164.35370545 -35.96875 164.6640625 C-41.33288429 164.01166779 -44.34016847 160.4313501 -47.96875 156.7265625 C-49.13732529 155.58908997 -50.30808287 154.45385708 -51.48046875 153.3203125 C-52.74874847 152.08211315 -54.01566518 150.84251622 -55.28125 149.6015625 C-55.89242676 149.0039209 -56.50360352 148.4062793 -57.13330078 147.79052734 C-61.02862661 143.89952126 -64.3149911 140.40103074 -65.65625 134.9140625 C-64.83732397 131.11722362 -63.71593219 130.3053792 -60.90625 127.7265625 C-58.7037758 125.75561176 -58.7037758 125.75561176 -56.96875 123.7265625 C-56.71545216 120.57945948 -56.71545216 120.57945948 -57.96875 117.7265625 C-58.32433212 115.73039806 -58.66064933 113.73060469 -58.96875 111.7265625 C-59.84917969 111.77296875 -60.72960937 111.819375 -61.63671875 111.8671875 C-62.79816406 111.90328125 -63.95960938 111.939375 -65.15625 111.9765625 C-66.87908203 112.04617188 -66.87908203 112.04617188 -68.63671875 112.1171875 C-72.60854862 111.6515568 -74.15646485 110.50285863 -76.96875 107.7265625 C-79.31021714 103.04362823 -78.32260451 96.09846484 -78.3737793 90.89672852 C-78.39535897 89.24677601 -78.42946239 87.59693799 -78.47631836 85.94750977 C-78.54337452 83.56474891 -78.57078246 81.18435289 -78.58984375 78.80078125 C-78.61767441 78.06727951 -78.64550507 77.33377777 -78.67417908 76.57804871 C-78.66274472 73.71835876 -78.52568812 71.42528122 -76.70373535 69.13951111 C-73.10509807 65.99775443 -70.3119895 65.07133715 -65.59375 64.9140625 C-64.00433594 64.84251953 -64.00433594 64.84251953 -62.3828125 64.76953125 C-61.58617187 64.75535156 -60.78953125 64.74117188 -59.96875 64.7265625 C-59.453125 63.6746875 -58.9375 62.6228125 -58.40625 61.5390625 C-58.11621094 60.94738281 -57.82617188 60.35570312 -57.52734375 59.74609375 C-56.77332272 57.02001774 -57.09441317 55.408141 -57.96875 52.7265625 C-59.7092169 50.64290495 -61.59797941 48.84756713 -63.5703125 46.984375 C-64.96875 44.7265625 -64.96875 44.7265625 -64.86132812 41.44042969 C-63.794325 37.00080947 -62.28332596 35.26794365 -59.0859375 32.046875 C-58.34719894 31.29952591 -58.34719894 31.29952591 -57.59353638 30.53707886 C-56.55344213 29.49292118 -55.50580976 28.4562238 -54.45117188 27.42675781 C-52.84779895 25.85553028 -51.27898884 24.25482991 -49.7109375 22.6484375 C-48.69202225 21.63348745 -47.67124713 20.6204004 -46.6484375 19.609375 C-45.72788574 18.69559082 -44.80733398 17.78180664 -43.85888672 16.84033203 C-40.44987338 14.34706987 -38.1582099 13.86351364 -33.96875 13.7265625 C-31.7109375 15.125 -31.7109375 15.125 -29.84375 17.1015625 C-26.97252023 20.09193043 -25.17429436 21.41723451 -20.96875 21.7265625 C-18.94204015 21.23296352 -18.94204015 21.23296352 -17.15625 20.2890625 C-16.104375 19.7734375 -15.0525 19.2578125 -13.96875 18.7265625 C-13.95457031 17.92992187 -13.94039063 17.13328125 -13.92578125 16.3125 C-13.87808594 15.25289063 -13.83039063 14.19328125 -13.78125 13.1015625 C-13.74644531 12.05742187 -13.71164062 11.01328125 -13.67578125 9.9375 C-11.94284976 2.06750173 -7.59616723 -0.19323213 0 0 Z " fill="#506071" transform="translate(397.96875,319.2734375)"/>
<path d="M0 0 C7.38863659 7.38863659 14.15954297 15.14272262 20.734375 23.2578125 C23.72430876 26.87666336 26.82910241 30.37443999 30.0078125 33.828125 C31.17792402 35.10377599 32.32863 36.39866591 33.4296875 37.734375 C34.71385991 39.31807617 34.71385991 39.31807617 37 41 C41.62594819 41.27417391 45.73745797 40.80434 50.2421875 39.78515625 C51.45116699 39.51590332 52.66014648 39.24665039 53.90576172 38.96923828 C55.22884362 38.66700304 56.55192296 38.36475656 57.875 38.0625 C59.28513819 37.74642529 60.69546274 37.431181 62.10595703 37.11669922 C65.14296958 36.43886115 68.17915629 35.75747765 71.21484375 35.07373047 C78.57597909 33.41853157 85.94591085 31.80323831 93.31558228 30.18655396 C95.88720523 29.62232209 98.45862096 29.05715242 101.0300293 28.49194336 C118.0955317 24.74446377 135.17801561 21.07587088 152.26733398 17.43862915 C155.9157523 16.66178493 159.5625453 15.87895551 163.20556641 15.07714844 C164.4641748 14.80161133 165.7227832 14.52607422 167.01953125 14.2421875 C168.65498901 13.88036377 168.65498901 13.88036377 170.32348633 13.51123047 C173 13 173 13 176 13 C176 22.57 176 32.14 176 42 C178.64 42 181.28 42 184 42 C184.13548815 44.73083902 184.23429855 47.45491807 184.3125 50.1875 C184.3753418 51.34088867 184.3753418 51.34088867 184.43945312 52.51757812 C184.53228446 56.84351847 184.38654278 58.49452098 181.6640625 62.0546875 C179 64 179 64 176.0625 63.9375 C173.02373177 63.00726483 170.01305871 62.0099404 167 61 C166.98582031 60.11957031 166.97164062 59.23914063 166.95703125 58.33203125 C166.88548828 56.58986328 166.88548828 56.58986328 166.8125 54.8125 C166.77769531 53.66394531 166.74289062 52.51539063 166.70703125 51.33203125 C165.79265771 47.02285651 164.44144898 45.7163799 161 43 C158.12804074 42.50011875 155.8596734 42.29608377 152.99609375 42.3359375 C152.23579361 42.33115387 151.47549347 42.32637024 150.69215393 42.32144165 C149.09105347 42.3180509 147.48988301 42.32719579 145.88891602 42.34814453 C143.44065069 42.37496548 140.9969531 42.34835648 138.54882812 42.31640625 C136.98957324 42.31970978 135.43032119 42.32611485 133.87109375 42.3359375 C132.77721596 42.32075577 132.77721596 42.32075577 131.66123962 42.30526733 C127.88606833 42.39221892 126.30206466 42.71207924 123.52856445 45.35571289 C121.69987038 48.51919884 121.65839432 50.43949527 121.75 54.0625 C121.48192432 59.50443631 121.48192432 59.50443631 119.34375 61.703125 C116.20940323 63.36386097 114.04751786 64.08269878 110.4765625 63.80078125 C106.7952896 62.6104643 104.86649609 60.15993101 102.2578125 57.3984375 C99.97447392 55.69398321 99.97447392 55.69398321 96.70019531 56.12109375 C92.35514145 57.15317305 90.68631173 58.54105395 87.5390625 61.6640625 C87.06302582 62.13435883 86.58698914 62.60465515 86.0965271 63.08920288 C85.09944807 64.08221999 84.10982141 65.08277107 83.12744141 66.09033203 C81.62860251 67.62132022 80.10040664 69.11761858 78.56640625 70.61328125 C77.59702886 71.58662386 76.62951458 72.56182628 75.6640625 73.5390625 C74.79217285 74.41771973 73.9202832 75.29637695 73.02197266 76.20166016 C70.59714848 79.55753249 70.15069203 81.89364227 70 86 C71.31529271 88.33911208 71.31529271 88.33911208 73.375 90.125 C76.3744814 93.00498015 77.66766387 94.79040898 78 99 C77.46801308 102.2971497 76.40556172 104.6606464 74 107 C70.90876064 107.66365591 68.13028053 107.75171379 64.97265625 107.671875 C61.05921635 108.10384471 59.70986213 109.15701789 57 112 C56.49019559 114.82700975 56.2967403 117.046848 56.3359375 119.87109375 C56.33115387 120.63043716 56.32637024 121.38978058 56.32144165 122.1721344 C56.3180457 123.77501501 56.32722723 125.37796517 56.34814453 126.98071289 C56.37488386 129.42687514 56.34841253 131.86843461 56.31640625 134.31445312 C56.31971114 135.87501008 56.32611901 137.43556418 56.3359375 138.99609375 C56.32581635 139.72332138 56.31569519 140.45054901 56.30526733 141.19981384 C56.39476382 145.103376 56.88734411 146.85727346 59.33325195 149.95605469 C62.64042369 152.49085665 64.68361201 152.68738218 68.8125 152.8125 C69.97394531 152.86019531 71.13539063 152.90789062 72.33203125 152.95703125 C73.21246094 152.97121094 74.09289062 152.98539063 75 153 C76.53139514 156.48673583 77.93806796 159.73039325 78.125 163.5625 C76.88975207 166.23887052 75.58197901 167.44526595 73.4375 169.4375 C70.4517509 172.22152437 70.4517509 172.22152437 69.4375 176.1875 C69.96549441 178.82747207 70.75454478 180.64523244 72 183 C70.10787298 183.53414112 68.21108364 184.05178329 66.3125 184.5625 C64.72888672 184.99755859 64.72888672 184.99755859 63.11328125 185.44140625 C59.99304618 186.00124767 58.02306766 185.84690764 55 185 C54.67 183.02 54.34 181.04 54 179 C53.02947189 179.24429749 53.02947189 179.24429749 52.03933716 179.49353027 C45.32462078 181.18324349 38.60908873 182.86968437 31.89306641 184.55419922 C29.3843905 185.1838876 26.8759261 185.81441925 24.36767578 186.44580078 C20.7691036 187.35148647 17.16978973 188.25416894 13.5703125 189.15625 C11.87964157 189.5827887 11.87964157 189.5827887 10.15481567 190.01794434 C9.11388763 190.27821411 8.07295959 190.53848389 7.00048828 190.80664062 C6.08115509 191.03758423 5.1618219 191.26852783 4.21463013 191.50646973 C2 192 2 192 0 192 C0 128.64 0 65.28 0 0 Z " fill="#6586B2" transform="translate(264,278)"/>
<path d="M0 0 C0.75792847 -0.00099701 1.51585693 -0.00199402 2.29675293 -0.00302124 C3.89374316 0.00164436 5.49075022 0.02100948 7.08740234 0.05419922 C9.52445675 0.10143084 11.95713473 0.09531272 14.39453125 0.08203125 C15.95054677 0.0931857 17.50654396 0.10740608 19.0625 0.125 C19.78659058 0.12317719 20.51068115 0.12135437 21.25671387 0.11947632 C26.10402649 0.25453612 28.62518342 1.28263284 32.03125 4.7265625 C33.47332941 7.61072133 33.12519887 10.14377778 33.09375 13.3515625 C33.08472656 14.54007812 33.07570313 15.72859375 33.06640625 16.953125 C33.05480469 17.86835938 33.04320312 18.78359375 33.03125 19.7265625 C34.42537109 19.94119141 34.42537109 19.94119141 35.84765625 20.16015625 C39.03125 20.7265625 39.03125 20.7265625 41.96875 21.7890625 C45.07471709 22.08648868 45.07471709 22.08648868 46.68359375 20.0078125 C47.25207031 19.275625 47.82054687 18.5434375 48.40625 17.7890625 C51.48419432 13.94670563 51.48419432 13.94670563 53.97265625 12.9453125 C57.13053819 12.69812018 59.2913408 13.19442933 61.88134766 15.05712891 C62.50058105 15.62093262 63.11981445 16.18473633 63.7578125 16.765625 C64.79941528 17.71272339 64.79941528 17.71272339 65.86206055 18.67895508 C69.45821142 22.07354342 72.98179311 25.53260725 76.46875 29.0390625 C77.54672852 30.11124023 77.54672852 30.11124023 78.64648438 31.20507812 C79.32904297 31.88892578 80.01160156 32.57277344 80.71484375 33.27734375 C81.32900146 33.89262939 81.94315918 34.50791504 82.57592773 35.1418457 C85.16917284 37.96565949 85.59066461 40.66693821 85.59765625 44.484375 C84.43789723 49.07542104 80.47425285 51.713935 77.03125 54.7265625 C78.02125 58.3565625 79.01125 61.9865625 80.03125 65.7265625 C80.91167969 65.68015625 81.79210937 65.63375 82.69921875 65.5859375 C83.86066406 65.54984375 85.02210938 65.51375 86.21875 65.4765625 C87.36730469 65.43015625 88.51585937 65.38375 89.69921875 65.3359375 C93.85259371 65.82285133 95.19070727 66.66993998 98.03125 69.7265625 C98.53893623 72.77038094 98.73389543 75.24696144 98.6953125 78.2890625 C98.70009613 79.11736572 98.70487976 79.94566895 98.70980835 80.79907227 C98.71320533 82.54738264 98.70401682 84.2957567 98.68310547 86.04394531 C98.65633332 88.71823914 98.68285615 91.38833652 98.71484375 94.0625 C98.71153961 95.76303009 98.70513328 97.46355756 98.6953125 99.1640625 C98.70543365 99.96207275 98.71555481 100.76008301 98.72598267 101.58227539 C98.6435831 105.49070026 98.40118379 107.32848788 95.69799805 110.23730469 C92.32328031 112.12193146 90.05868233 112.13171128 86.21875 111.9765625 C85.05730469 111.94046875 83.89585937 111.904375 82.69921875 111.8671875 C81.81878906 111.82078125 80.93835938 111.774375 80.03125 111.7265625 C79.04125 115.3565625 78.05125 118.9865625 77.03125 122.7265625 C79.01125 124.4590625 79.01125 124.4590625 81.03125 126.2265625 C85.65839295 130.91144163 85.65839295 130.91144163 85.96875 134.7265625 C85.48218932 138.1483966 84.29993425 139.91162069 81.9921875 142.44921875 C81.04508911 143.49166748 81.04508911 143.49166748 80.07885742 144.55517578 C76.68568593 148.15346686 73.22560765 151.67670545 69.71875 155.1640625 C68.64657227 156.24204102 68.64657227 156.24204102 67.55273438 157.34179688 C66.86888672 158.02435547 66.18503906 158.70691406 65.48046875 159.41015625 C64.55754028 160.33139282 64.55754028 160.33139282 63.6159668 161.27124023 C60.79215301 163.86448534 58.09087429 164.28597711 54.2734375 164.29296875 C49.68239146 163.13320973 47.0438775 159.16956535 44.03125 155.7265625 C40.40125 156.7165625 36.77125 157.7065625 33.03125 158.7265625 C33.07765625 159.60699219 33.1240625 160.48742187 33.171875 161.39453125 C33.20796875 162.55597656 33.2440625 163.71742188 33.28125 164.9140625 C33.32765625 166.06261719 33.3740625 167.21117187 33.421875 168.39453125 C32.93496117 172.54790621 32.08787252 173.88601977 29.03125 176.7265625 C25.98743156 177.23424873 23.51085106 177.42920793 20.46875 177.390625 C19.22629517 177.39780045 19.22629517 177.39780045 17.95874023 177.40512085 C16.21042986 177.40851783 14.4620558 177.39932932 12.71386719 177.37841797 C10.03957336 177.35164582 7.36947598 177.37816865 4.6953125 177.41015625 C2.99478241 177.40685211 1.29425494 177.40044578 -0.40625 177.390625 C-1.20426025 177.40074615 -2.00227051 177.41086731 -2.82446289 177.42129517 C-6.73288776 177.3388956 -8.57067538 177.09649629 -11.47949219 174.39331055 C-13.36411896 171.01859281 -13.37389878 168.75399483 -13.21875 164.9140625 C-13.18265625 163.75261719 -13.1465625 162.59117187 -13.109375 161.39453125 C-13.06296875 160.51410156 -13.0165625 159.63367188 -12.96875 158.7265625 C-16.59875 157.7365625 -20.22875 156.7465625 -23.96875 155.7265625 C-25.70125 157.7065625 -25.70125 157.7065625 -27.46875 159.7265625 C-32.15362913 164.35370545 -32.15362913 164.35370545 -35.96875 164.6640625 C-41.33288429 164.01166779 -44.34016847 160.4313501 -47.96875 156.7265625 C-49.13732529 155.58908997 -50.30808287 154.45385708 -51.48046875 153.3203125 C-52.74874847 152.08211315 -54.01566518 150.84251622 -55.28125 149.6015625 C-55.89242676 149.0039209 -56.50360352 148.4062793 -57.13330078 147.79052734 C-61.02862661 143.89952126 -64.3149911 140.40103074 -65.65625 134.9140625 C-64.83732397 131.11722362 -63.71593219 130.3053792 -60.90625 127.7265625 C-58.7037758 125.75561176 -58.7037758 125.75561176 -56.96875 123.7265625 C-56.71545216 120.57945948 -56.71545216 120.57945948 -57.96875 117.7265625 C-58.32433212 115.73039806 -58.66064933 113.73060469 -58.96875 111.7265625 C-59.84917969 111.77296875 -60.72960937 111.819375 -61.63671875 111.8671875 C-62.79816406 111.90328125 -63.95960938 111.939375 -65.15625 111.9765625 C-66.87908203 112.04617188 -66.87908203 112.04617188 -68.63671875 112.1171875 C-72.60854862 111.6515568 -74.15646485 110.50285863 -76.96875 107.7265625 C-79.31021714 103.04362823 -78.32260451 96.09846484 -78.3737793 90.89672852 C-78.39535897 89.24677601 -78.42946239 87.59693799 -78.47631836 85.94750977 C-78.54337452 83.56474891 -78.57078246 81.18435289 -78.58984375 78.80078125 C-78.61767441 78.06727951 -78.64550507 77.33377777 -78.67417908 76.57804871 C-78.66274472 73.71835876 -78.52568812 71.42528122 -76.70373535 69.13951111 C-73.10509807 65.99775443 -70.3119895 65.07133715 -65.59375 64.9140625 C-64.00433594 64.84251953 -64.00433594 64.84251953 -62.3828125 64.76953125 C-61.58617187 64.75535156 -60.78953125 64.74117188 -59.96875 64.7265625 C-59.453125 63.6746875 -58.9375 62.6228125 -58.40625 61.5390625 C-58.11621094 60.94738281 -57.82617188 60.35570312 -57.52734375 59.74609375 C-56.77332272 57.02001774 -57.09441317 55.408141 -57.96875 52.7265625 C-59.7092169 50.64290495 -61.59797941 48.84756713 -63.5703125 46.984375 C-64.96875 44.7265625 -64.96875 44.7265625 -64.86132812 41.44042969 C-63.794325 37.00080947 -62.28332596 35.26794365 -59.0859375 32.046875 C-58.34719894 31.29952591 -58.34719894 31.29952591 -57.59353638 30.53707886 C-56.55344213 29.49292118 -55.50580976 28.4562238 -54.45117188 27.42675781 C-52.84779895 25.85553028 -51.27898884 24.25482991 -49.7109375 22.6484375 C-48.69202225 21.63348745 -47.67124713 20.6204004 -46.6484375 19.609375 C-45.72788574 18.69559082 -44.80733398 17.78180664 -43.85888672 16.84033203 C-40.44987338 14.34706987 -38.1582099 13.86351364 -33.96875 13.7265625 C-31.7109375 15.125 -31.7109375 15.125 -29.84375 17.1015625 C-26.97252023 20.09193043 -25.17429436 21.41723451 -20.96875 21.7265625 C-18.94204015 21.23296352 -18.94204015 21.23296352 -17.15625 20.2890625 C-16.104375 19.7734375 -15.0525 19.2578125 -13.96875 18.7265625 C-13.95457031 17.92992187 -13.94039063 17.13328125 -13.92578125 16.3125 C-13.87808594 15.25289063 -13.83039063 14.19328125 -13.78125 13.1015625 C-13.74644531 12.05742187 -13.71164062 11.01328125 -13.67578125 9.9375 C-11.94284976 2.06750173 -7.59616723 -0.19323213 0 0 Z M3.03125 16.7265625 C2.804375 18.2734375 2.5775 19.8203125 2.34375 21.4140625 C1.61780868 26.36366239 -0.12289172 28.54235726 -3.96875 31.7265625 C-6.49109686 33.21296402 -9.09014105 34.39223997 -11.78125 35.5390625 C-12.45478516 35.85037109 -13.12832031 36.16167969 -13.82226562 36.48242188 C-18.75413133 38.62978924 -22.59267696 39.19874669 -27.96875 38.7265625 C-31.21875 36.7265625 -31.21875 36.7265625 -33.96875 34.7265625 C-37.85689492 34.31113388 -37.85689492 34.31113388 -39.890625 36.2578125 C-40.49390625 36.9075 -41.0971875 37.5571875 -41.71875 38.2265625 C-42.33234375 38.87625 -42.9459375 39.5259375 -43.578125 40.1953125 C-44.03703125 40.700625 -44.4959375 41.2059375 -44.96875 41.7265625 C-43.88109415 43.97753721 -42.81326453 45.94185008 -41.34375 47.9765625 C-39.19395527 52.27615196 -39.31055498 56.45581407 -40.62744141 60.99902344 C-41.53299326 63.37063511 -42.53610175 65.66896633 -43.59375 67.9765625 C-43.92503906 68.76546875 -44.25632812 69.554375 -44.59765625 70.3671875 C-46.8442882 75.38607851 -48.88066383 78.18251941 -53.96875 80.7265625 C-56.3046875 81.3359375 -56.3046875 81.3359375 -58.34375 81.4765625 C-59.54 81.5590625 -60.73625 81.6415625 -61.96875 81.7265625 C-61.96875 86.3465625 -61.96875 90.9665625 -61.96875 95.7265625 C-60.421875 95.9534375 -58.875 96.1803125 -57.28125 96.4140625 C-52.34314901 97.13831731 -50.16359072 98.91064895 -46.96875 102.7265625 C-45.203125 105.953125 -45.203125 105.953125 -43.71875 109.3515625 C-43.21859375 110.47820312 -42.7184375 111.60484375 -42.203125 112.765625 C-40.23970314 117.47535212 -39.22302111 121.62267778 -39.96875 126.7265625 C-41.96875 129.9765625 -41.96875 129.9765625 -43.96875 132.7265625 C-44.38417862 136.61470742 -44.38417862 136.61470742 -42.4375 138.6484375 C-41.7878125 139.25171875 -41.138125 139.855 -40.46875 140.4765625 C-39.8190625 141.09015625 -39.169375 141.70375 -38.5 142.3359375 C-37.74203125 143.02429688 -37.74203125 143.02429688 -36.96875 143.7265625 C-34.71245103 142.63403879 -32.71483279 141.54813419 -30.65625 140.1015625 C-26.72019846 138.08776869 -23.16050994 138.11438216 -18.88842773 139.30761719 C-16.67205449 140.10733689 -14.51084571 140.98940947 -12.34375 141.9140625 C-11.60640625 142.20603516 -10.8690625 142.49800781 -10.109375 142.79882812 C-5.49063101 144.72330479 -2.14725698 146.72176433 1.03125 150.7265625 C2.18715037 154.06745596 2.51417603 157.20105813 3.03125 160.7265625 C7.65125 160.7265625 12.27125 160.7265625 17.03125 160.7265625 C17.258125 159.1796875 17.485 157.6328125 17.71875 156.0390625 C18.44300481 151.10096151 20.21533645 148.92140322 24.03125 145.7265625 C27.2578125 143.9609375 27.2578125 143.9609375 30.65625 142.4765625 C31.78289062 141.97640625 32.90953125 141.47625 34.0703125 140.9609375 C38.78003962 138.99751564 42.92736528 137.98083361 48.03125 138.7265625 C51.28125 140.7265625 51.28125 140.7265625 54.03125 142.7265625 C57.91939492 143.14199112 57.91939492 143.14199112 59.953125 141.1953125 C60.55640625 140.545625 61.1596875 139.8959375 61.78125 139.2265625 C62.39484375 138.576875 63.0084375 137.9271875 63.640625 137.2578125 C64.09953125 136.7525 64.5584375 136.2471875 65.03125 135.7265625 C63.94359415 133.47558779 62.87576453 131.51127492 61.40625 129.4765625 C59.35054892 125.36516034 59.41267081 121.15348084 60.53466797 116.75146484 C61.21342178 114.81039751 61.97153214 112.92905299 62.78125 111.0390625 C63.03390625 110.40162109 63.2865625 109.76417969 63.546875 109.10742188 C65.4426073 104.51501038 67.67517582 100.40947263 71.78125 97.4765625 C75.15693998 96.35133251 78.49247192 96.08044031 82.03125 95.7265625 C82.03125 91.1065625 82.03125 86.4865625 82.03125 81.7265625 C80.484375 81.4996875 78.9375 81.2728125 77.34375 81.0390625 C72.39199931 80.31280573 70.19704044 78.59643296 67.03125 74.7265625 C65.52797448 72.01800529 64.35824597 69.22923002 63.21875 66.3515625 C62.90744141 65.62195313 62.59613281 64.89234375 62.27539062 64.140625 C60.40405915 59.53427059 59.51316664 55.7763148 60.03125 50.7265625 C61.30879554 48.6904743 62.63824818 46.68547131 64.03125 44.7265625 C64.44667862 40.83841758 64.44667862 40.83841758 62.5 38.8046875 C61.8503125 38.20140625 61.200625 37.598125 60.53125 36.9765625 C59.55671875 36.05617188 59.55671875 36.05617188 58.5625 35.1171875 C58.0571875 34.65828125 57.551875 34.199375 57.03125 33.7265625 C54.78027529 34.81421835 52.81596242 35.88204797 50.78125 37.3515625 C46.66984784 39.40726358 42.45816834 39.34514169 38.05615234 38.22314453 C36.11508501 37.54439072 34.23374049 36.78628036 32.34375 35.9765625 C31.70630859 35.72390625 31.06886719 35.47125 30.41210938 35.2109375 C25.81969788 33.3152052 21.71416013 31.08263668 18.78125 26.9765625 C17.65602001 23.60087252 17.38512781 20.26534058 17.03125 16.7265625 C12.41125 16.7265625 7.79125 16.7265625 3.03125 16.7265625 Z " fill="#010101" transform="translate(397.96875,319.2734375)"/>
<path d="M0 0 C4.82561171 0.89628866 7.42047831 4.30591075 10.72802734 7.76171875 C11.45200714 8.49418823 12.17598694 9.22665771 12.92190552 9.98132324 C15.22851845 12.32149269 17.51338989 14.6816617 19.79833984 17.04296875 C21.35945116 18.63417611 22.9219359 20.22403727 24.48583984 21.8125 C28.31440739 25.70718193 32.12533573 29.61848878 35.92333984 33.54296875 C34.92333984 35.54296875 34.92333984 35.54296875 33.01025391 36.19384766 C32.16172852 36.38382324 31.31320312 36.57379883 30.43896484 36.76953125 C29.46088867 36.99237793 28.4828125 37.21522461 27.47509766 37.44482422 C26.38551758 37.68346191 25.2959375 37.92209961 24.17333984 38.16796875 C23.02446289 38.42594238 21.87558594 38.68391602 20.69189453 38.94970703 C16.77140852 39.82523059 12.84781365 40.68555554 8.92333984 41.54296875 C7.50795745 41.85343444 6.09259313 42.16398254 4.67724609 42.47460938 C-9.42215301 45.56502153 -23.53304651 48.60118072 -37.66259766 51.55078125 C-38.45105576 51.71542374 -39.23951385 51.88006622 -40.05186462 52.04969788 C-40.83952713 52.21416916 -41.62718964 52.37864044 -42.4387207 52.5480957 C-44.02637731 52.87967158 -45.61402381 53.21129586 -47.20166016 53.54296875 C-47.98594391 53.70679047 -48.77022766 53.87061218 -49.57827759 54.03939819 C-61.25222889 56.48223861 -72.89177126 59.05331948 -84.51416016 61.73046875 C-85.24026489 61.89764404 -85.96636963 62.06481934 -86.71447754 62.23706055 C-89.53318549 62.88622523 -92.35181546 63.53572773 -95.17037964 64.18551636 C-101.59166164 65.6645544 -108.01765538 67.12030928 -114.45166016 68.54296875 C-115.83309204 68.85463989 -115.83309204 68.85463989 -117.24243164 69.17260742 C-126.14776144 71.12451904 -126.14776144 71.12451904 -129.07666016 70.54296875 C-131.21728516 68.48828125 -131.21728516 68.48828125 -133.32666016 65.66796875 C-136.29504579 61.82479397 -139.28909281 58.11791087 -142.57666016 54.54296875 C-146.52501378 50.2094099 -150.24290762 45.72538621 -153.92431641 41.1640625 C-156.47699999 38.05544057 -159.14388928 35.06601363 -161.86181641 32.1015625 C-163.07666016 30.54296875 -163.07666016 30.54296875 -163.07666016 28.54296875 C-148.58889191 25.88703596 -134.08995199 23.30541719 -119.57666016 20.79296875 C-117.58055018 20.44670814 -115.58445683 20.10035159 -113.58837891 19.75390625 C-109.4634424 19.03804477 -105.33843645 18.32258554 -101.21337891 17.60742188 C-93.39647096 16.25190655 -85.58027381 14.89231318 -77.76416016 13.53222656 C-73.98308222 12.87433067 -70.20182279 12.21749277 -66.42041016 11.56152344 C-57.41994875 9.99946469 -48.42095522 8.42990962 -39.42578125 6.83764648 C-35.1687457 6.08450813 -30.91106119 5.33507675 -26.65332031 4.5859375 C-24.62011411 4.22711742 -22.58722893 3.86647302 -20.5546875 3.50390625 C-17.73988464 3.00191512 -14.92404569 2.50617038 -12.10791016 2.01171875 C-11.27884155 1.86214722 -10.44977295 1.71257568 -9.59558105 1.55847168 C-6.40150743 1.00265532 -3.19304963 0.56350915 0 0 Z " fill="#7398CA" transform="translate(435.07666015625,232.45703125)"/>
<path d="M0 0 C1.45630485 0.22148489 2.91357278 0.43674948 4.37182617 0.64501953 C5.84610288 0.88755561 7.31980342 1.13361479 8.79296875 1.3828125 C9.60391998 1.51753967 10.41487122 1.65226685 11.25039673 1.79107666 C13.89671873 2.23209374 16.54213465 2.67828312 19.1875 3.125 C21.07185759 3.4409247 22.95621634 3.75684255 24.84057617 4.07275391 C37.62393269 6.22387864 50.38639205 8.48022621 63.14044189 10.79806519 C80.47045214 13.94536729 97.8346772 16.88468569 115.2043457 19.80419922 C128.82316337 22.09698174 142.41901459 24.49265002 156 27 C154.1273338 30.9981047 151.51876665 34.07804864 148.625 37.375 C147.53900915 38.62755792 146.45307323 39.88016345 145.3671875 41.1328125 C144.5313916 42.0923584 144.5313916 42.0923584 143.67871094 43.07128906 C141.5358235 45.53330343 139.40165394 48.00261949 137.27539062 50.47900391 C136.26184821 51.65573833 135.24233014 52.82735321 134.21679688 53.99365234 C131.90337573 56.64741624 129.87187815 59.19930065 127.9609375 62.171875 C126.12056478 65.00683212 124.68097177 66.9464361 122 69 C119.10595703 69.08276367 119.10595703 69.08276367 115.7578125 68.48046875 C114.5104834 68.26052246 113.2631543 68.04057617 111.97802734 67.81396484 C105.93481965 66.60264512 99.92698279 65.25722461 93.93151855 63.83078003 C90.10372759 62.92138249 86.27088279 62.03392434 82.4375 61.1484375 C81.65236023 60.96701706 80.86722046 60.78559662 80.05828857 60.59867859 C71.98233661 58.74533199 63.87126028 57.07870257 55.75 55.4375 C43.79566785 53.01748667 31.89285174 50.42868074 20.00341797 47.70385742 C7.7257349 44.90449551 -4.59388035 42.31509478 -16.92285156 39.75219727 C-25.64136023 37.93708367 -34.33335654 36.05157044 -43 34 C-41.68698559 31.12187731 -40.25839361 28.97774512 -38.0859375 26.68432617 C-37.49772217 26.06075729 -36.90950684 25.43718842 -36.3034668 24.79472351 C-33.59731112 21.98572518 -30.88478347 19.18357784 -28.15380859 16.39868164 C-26.72038879 14.92707848 -25.29870716 13.4439479 -23.88916016 11.94946289 C-21.84825741 9.78664042 -19.77326094 7.66245757 -17.6875 5.54296875 C-17.0672998 4.87226852 -16.44709961 4.2015683 -15.80810547 3.51054382 C-10.58456853 -1.66509869 -6.970345 -1.49943221 0 0 Z " fill="#7499CB" transform="translate(84,234)"/>
<path d="M0 0 C13.67809499 8.76658392 22.7020004 21.84541294 27.0078125 37.44921875 C29.94842552 53.77148214 26.62854434 70.1700795 17.4375 84 C14.05274113 88.61692987 10.12467204 92.54144955 5.95703125 96.453125 C3.4541511 98.81589599 3.4541511 98.81589599 1.96484375 102.1484375 C-0.375 104.875 -0.375 104.875 -2.5612793 105.3515625 C-5.27306289 105.46655342 -7.91500403 105.39802499 -10.625 105.25 C-12.02878906 105.20939453 -12.02878906 105.20939453 -13.4609375 105.16796875 C-15.7679724 105.09734523 -18.07030769 104.99880579 -20.375 104.875 C-20.38917969 103.56144531 -20.40335937 102.24789062 -20.41796875 100.89453125 C-20.46487988 99.15881949 -20.51312721 97.42314348 -20.5625 95.6875 C-20.56830078 94.82318359 -20.57410156 93.95886719 -20.58007812 93.06835938 C-20.71955975 89.02339214 -20.85285933 86.59415457 -23.26953125 83.265625 C-24.29433594 82.47671875 -25.31914062 81.6878125 -26.375 80.875 C-27.13321045 80.27776123 -27.8914209 79.68052246 -28.67260742 79.06518555 C-31.38297579 76.94787673 -34.12400253 74.87669411 -36.875 72.8125 C-38.73995798 71.40544435 -40.60455299 69.99790745 -42.46875 68.58984375 C-43.70141602 67.66353149 -43.70141602 67.66353149 -44.95898438 66.71850586 C-45.75626953 66.11014893 -46.55355469 65.50179199 -47.375 64.875 C-48.28967041 64.19010498 -49.20434082 63.50520996 -50.14672852 62.79956055 C-52.375 60.875 -52.375 60.875 -52.93359375 58.3671875 C-52.89363281 57.50351563 -52.85367188 56.63984375 -52.8125 55.75 C-52.79058594 54.88117188 -52.76867187 54.01234375 -52.74609375 53.1171875 C-52.375 50.875 -52.375 50.875 -50.375 48.875 C-46.79028385 49.1811945 -44.93091056 50.91134183 -42.375 53.3125 C-37.2765636 58.08232624 -33.83938317 59.30021434 -26.89453125 59.1171875 C-20.04186008 58.45848112 -15.93424852 54.87734272 -11.26953125 50.203125 C-9.375 48.875 -9.375 48.875 -7.19921875 49.109375 C-5.375 49.875 -5.375 49.875 -4.375 50.875 C-3.50410655 54.41476049 -3.40766233 57.35112707 -4.375 60.875 C-7.66113518 64.44370094 -11.3578355 67.17515243 -15.375 69.875 C-14.16200388 73.15689138 -12.83998519 75.88251987 -10.75 78.6875 C-9.96625 79.739375 -9.1825 80.79125 -8.375 81.875 C-1.51784507 79.44616874 5.31942178 74.67852564 9.25 68.4375 C12.18719924 61.3685468 12.04585206 51.40601209 9.77734375 44.171875 C7.04769075 39.32327102 2.81490716 35.84046222 -2.375 33.875 C-8.33245144 32.80474243 -13.29998198 33.64682094 -18.56640625 36.58203125 C-20.48732462 37.95530119 -21.969631 39.44871934 -23.5625 41.1875 C-24.490625 42.074375 -25.41875 42.96125 -26.375 43.875 C-30.47385684 43.67698759 -32.48965293 42.23558859 -35.375 39.4375 C-40.66094265 34.64281596 -44.67250282 33.32328132 -51.8125 33.50390625 C-57.56215981 34.33655516 -61.792586 37.66956074 -65.375 42.125 C-67.76549904 46.37117456 -67.86744982 50.60952716 -67.9375 55.375 C-67.95973633 56.44282715 -67.95973633 56.44282715 -67.98242188 57.53222656 C-67.85841233 63.95414952 -66.17004017 69.14526621 -61.50463867 73.70166016 C-59.28740912 75.53540582 -57.01623254 77.2478773 -54.6875 78.9375 C-53.14192708 80.09505208 -51.59635417 81.25260417 -50.05078125 82.41015625 C-47.66091424 84.19694205 -45.26577254 85.95007117 -42.80639648 87.64038086 C-36.58863314 92.07078991 -36.58863314 92.07078991 -35.49609375 96.18359375 C-35.60050781 97.21613281 -35.70492187 98.24867188 -35.8125 99.3125 C-35.89371094 100.36308594 -35.97492188 101.41367188 -36.05859375 102.49609375 C-36.16300781 103.28113281 -36.26742187 104.06617188 -36.375 104.875 C-54.13508798 106.34558053 -54.13508798 106.34558053 -58.9453125 103.1875 C-60.5625 100.9375 -60.5625 100.9375 -61.9453125 98.4375 C-63.57839848 95.5104388 -65.47475026 93.69838501 -67.9375 91.4375 C-75.01537963 84.5040669 -79.22679485 76.19853064 -82.375 66.875 C-82.601875 66.2046875 -82.82875 65.534375 -83.0625 64.84375 C-87.09883697 50.26808871 -84.34191829 35.44072863 -77.6875 22.1875 C-69.34812654 7.82872915 -56.57303173 -1.12909306 -40.9765625 -6.23828125 C-27.38582805 -9.58437314 -12.17965291 -6.5966622 0 0 Z " fill="#FCE08D" transform="translate(284.375,63.125)"/>
<path d="M0 0 C7.8809893 6.25945832 14.02889121 16.67832767 15.890625 26.58984375 C16.77532629 41.05130713 14.26407641 52.75298408 5.140625 64.27734375 C-2.22134966 72.39054031 -13.44760297 78.03411474 -24.39453125 78.828125 C-38.426011 79.10382109 -49.43613826 75.14771223 -60.14453125 65.81640625 C-69.5453102 56.0230673 -72.62631081 43.82152965 -72.38671875 30.703125 C-72.13115379 25.15571236 -70.57471394 20.54356219 -68.109375 15.58984375 C-67.68527344 14.72746094 -67.26117188 13.86507813 -66.82421875 12.9765625 C-60.47147447 1.31511827 -50.59795354 -5.00956243 -38.109375 -9.05859375 C-24.16551175 -11.50966346 -11.57180897 -7.73596859 0 0 Z " fill="#020202" transform="translate(436.109375,373.41015625)"/>
<path d="M0 0 C7.425 1.485 7.425 1.485 15 3 C15 5.31 15 7.62 15 10 C15.69738281 10.08636719 16.39476562 10.17273438 17.11328125 10.26171875 C30.16283562 11.99847263 43.06909491 14.55294657 56 17 C57.90363145 17.35814936 59.80727624 17.71622786 61.7109375 18.07421875 C73.49121256 20.29736143 85.24904929 22.62709051 97 25 C94.44969581 27.55030419 92.97496153 27.5132501 89.4296875 28.04296875 C88.2449585 28.22577393 87.06022949 28.4085791 85.83959961 28.59692383 C85.19747528 28.69244537 84.55535095 28.78796692 83.89376831 28.88638306 C80.36243566 29.4131122 76.83578597 29.96977132 73.30859375 30.5234375 C72.55500076 30.64115005 71.80140778 30.75886261 71.02497864 30.88014221 C62.31032607 32.24972095 53.62430295 33.77766953 44.9375 35.3125 C42.42448527 35.75585506 39.91144893 36.19908742 37.39840698 36.64228821 C35.6675257 36.94755072 33.93667067 37.25296208 32.20584106 37.55851746 C25.37824628 38.76205898 18.54709818 39.94432243 11.71484375 41.12109375 C9.63874606 41.47936913 7.56265553 41.83768597 5.48657227 42.19604492 C2.46745061 42.71714818 -0.55179355 43.23745862 -3.57156372 43.75479126 C-6.37368174 44.23499708 -9.17529654 44.7179745 -11.9765625 45.203125 C-12.85499313 45.35508835 -13.73342377 45.5070517 -14.63847351 45.66362 C-19.73975879 46.56020806 -24.78491036 47.58867057 -29.8359375 48.734375 C-39.35346772 50.79501536 -46.99822863 49.65565478 -56.49865723 47.894104 C-59.47547463 47.34236998 -62.45511868 46.806613 -65.43457031 46.26931763 C-67.05580995 45.97672887 -68.67690048 45.68331281 -70.29785156 45.38912964 C-79.31218617 43.75456031 -88.33827935 42.18886882 -97.3651123 40.62506104 C-100.259546 40.12334531 -103.15373449 39.62023792 -106.04785156 39.11669922 C-115.24855504 37.51628113 -124.4501157 35.9210417 -133.65368652 34.33718872 C-137.87790967 33.60993025 -142.10175273 32.88047847 -146.32556152 32.15081787 C-148.33944988 31.80356099 -150.35352564 31.45738902 -152.36779785 31.11236572 C-155.17015087 30.63229984 -157.97184692 30.14855505 -160.7734375 29.6640625 C-161.59224396 29.52480347 -162.41105042 29.38554443 -163.25466919 29.24206543 C-168.2387214 28.3755671 -173.10554039 27.28103457 -178 26 C-174.09249442 23.61048051 -169.7637827 23.05495534 -165.328125 22.265625 C-164.46508255 22.10692932 -163.6020401 21.94823364 -162.71284485 21.784729 C-159.89290436 21.26745427 -157.07150833 20.75864685 -154.25 20.25 C-152.3084026 19.89578346 -150.36691552 19.54096169 -148.42553711 19.18554688 C-145.47859096 18.64617283 -142.5315624 18.10729882 -139.58409119 17.57080078 C-133.44310796 16.45234552 -127.30730862 15.30976978 -121.17578125 14.140625 C-120.05956894 13.92832245 -120.05956894 13.92832245 -118.92080688 13.71173096 C-116.12171621 13.17914037 -113.32267136 12.64640573 -110.52478027 12.10754395 C-108.64343972 11.74555537 -106.76119433 11.38827884 -104.87890625 11.03125 C-103.30991577 10.73057617 -103.30991577 10.73057617 -101.70922852 10.42382812 C-99 10 -99 10 -95 10 C-95 7.69 -95 5.38 -95 3 C-89.92523206 1.73694665 -85.27203646 0.72963916 -80 1 C-79.88785156 1.87398437 -79.88785156 1.87398437 -79.7734375 2.765625 C-78.08824741 13.27328086 -74.24977765 22.18696139 -65.5390625 28.59765625 C-57.23186026 33.18578795 -50.1409545 33.51918479 -40.75 33.5 C-38.88021484 33.54253906 -38.88021484 33.54253906 -36.97265625 33.5859375 C-26.85655797 33.60707877 -19.22511754 31.19312739 -10.625 25.9375 C-3.92715273 18.44228996 -1.28841766 9.79197419 0 0 Z " fill="#C8D7EC" transform="translate(296,198)"/>
<path d="M0 0 C7.01935268 4.78867756 11.26998759 10.64875826 13 19 C14.16082502 27.93394442 11.93851955 34.53759103 7 42 C2.28207597 47.60534308 -4.42424618 51.41149987 -11.703125 52.34765625 C-20.44109237 52.62834515 -27.04699736 50.9301849 -33.8125 45.3125 C-40.18563207 39.27303976 -43.07313081 32.54317632 -43.3125 23.8125 C-43.19529602 14.99876049 -39.64524988 9.00309774 -33.7265625 2.65625 C-24.3803179 -6.3093783 -10.81386177 -6.07943472 0 0 Z " fill="#E3E3E3" transform="translate(423,384)"/>
<path d="M0 0 C3.15204981 1.39347376 5.26171773 3.02485079 7.671875 5.4765625 C8.66767578 6.48203125 8.66767578 6.48203125 9.68359375 7.5078125 C10.36550781 8.20648438 11.04742187 8.90515625 11.75 9.625 C12.44738281 10.33140625 13.14476562 11.0378125 13.86328125 11.765625 C15.58012488 13.50598703 17.29211832 15.25084981 19 17 C18.15356901 18.04796218 17.29723808 19.08792692 16.4375 20.125 C15.96183594 20.70507812 15.48617187 21.28515625 14.99609375 21.8828125 C12.22540048 24.82159088 9.06660344 27.37148276 6 30 C0.39 24.39 -5.22 18.78 -11 13 C-9.07859132 9.15718264 -7.4073184 7.19568073 -4.375 4.25 C-3.55773437 3.45078125 -2.74046875 2.6515625 -1.8984375 1.828125 C-0.95871094 0.92320313 -0.95871094 0.92320313 0 0 Z " fill="#000000" transform="translate(187,32)"/>
<path d="M0 0 C7 6 7 6 13 13 C7.39 18.61 1.78 24.22 -4 30 C-11 24 -11 24 -17 17 C-11.39 11.39 -5.78 5.78 0 0 Z " fill="#000000" transform="translate(323,32)"/>
<path d="M0 0 C15.84 0 31.68 0 48 0 C48 2.64 48 5.28 48 8 C32.16 8 16.32 8 0 8 C0 5.36 0 2.72 0 0 Z " fill="#495766" transform="translate(232,184)"/>
<path d="M0 0 C7.92 0 15.84 0 24 0 C24 5.28 24 10.56 24 16 C16.08 16 8.16 16 0 16 C0 10.72 0 5.44 0 0 Z " fill="#000000" transform="translate(336,104)"/>
<path d="M0 0 C7.92 0 15.84 0 24 0 C24 5.28 24 10.56 24 16 C16.08 16 8.16 16 0 16 C0 10.72 0 5.44 0 0 Z " fill="#000000" transform="translate(152,104)"/>
<path d="M0 0 C5.28 0 10.56 0 16 0 C16 7.92 16 15.84 16 24 C10.72 24 5.44 24 0 24 C0 16.08 0 8.16 0 0 Z " fill="#000000" transform="translate(248,8)"/>
<path d="M0 0 C13.86 0 27.72 0 42 0 C39.73175906 4.53648189 37.6758514 6.36108334 33 8 C28.84197761 8.61389705 24.75998966 8.64964762 20.5625 8.625 C18.9218457 8.67333984 18.9218457 8.67333984 17.24804688 8.72265625 C10.53784437 8.73073596 6.49185735 7.8362957 1.30834961 3.48583984 C0 2 0 2 0 0 Z " fill="#475564" transform="translate(235,208)"/>
</svg>
