<?xml version="1.0" encoding="UTF-8"?>
<svg version="1.1" xmlns="http://www.w3.org/2000/svg" width="512" height="512">
<path d="M0 0 C1.52268997 0.00031723 1.52268997 0.00031723 3.07614136 0.00064087 C19.30228792 0.03433058 34.8349224 0.98575471 50.75 4.375 C51.67377441 4.56223633 52.59754883 4.74947266 53.54931641 4.94238281 C87.69343258 11.95904413 120.47325042 25.93514079 148.75 46.375 C149.42337402 46.86049316 150.09674805 47.34598633 150.79052734 47.84619141 C160.81720281 55.1435492 170.10232037 63.00590114 178.984375 71.65625 C180.70818268 73.33429287 182.44698174 74.99557203 184.1875 76.65625 C191.27476553 83.4950575 197.53106838 90.71577047 203.42041016 98.60546875 C204.72178981 100.33745549 206.05078164 102.04459047 207.38671875 103.75 C220.43568666 120.65673646 230.71980341 139.62472535 238.75 159.375 C239.0598584 160.12458984 239.3697168 160.87417969 239.68896484 161.64648438 C250.26749817 187.54895596 256.80595821 216.11794438 256.953125 244.16796875 C256.96013931 245.06850983 256.96715363 245.9690509 256.97438049 246.8968811 C256.99177902 249.78547226 256.9982324 252.67385837 257 255.5625 C257.00101212 257.04355728 257.00101212 257.04355728 257.00204468 258.55453491 C256.98629657 273.04588264 256.53341075 287.11520251 253.75 301.375 C253.58902832 302.27202637 253.42805664 303.16905273 253.26220703 304.09326172 C242.43962011 363.90338904 208.38185543 421.41745829 159.75 458.375 C159.20972168 458.79168945 158.66944336 459.20837891 158.11279297 459.63769531 C148.1177884 467.3209873 137.65790964 474.06342968 126.75 480.375 C126.07275879 480.76929199 125.39551758 481.16358398 124.69775391 481.56982422 C101.7791244 494.75211173 76.20427437 503.35760918 50.375 508.6875 C49.66432373 508.83493652 48.95364746 508.98237305 48.22143555 509.13427734 C32.53093036 512.12879595 16.80631174 512.78336894 0.875 512.75 C-0.1083432 512.74945618 -1.0916864 512.74891235 -2.10482788 512.74835205 C-18.45527676 512.70695138 -34.19914842 511.72856409 -50.25 508.375 C-51.77512207 508.06151611 -51.77512207 508.06151611 -53.33105469 507.74169922 C-94.78040653 498.93321709 -133.08120444 479.87809239 -165.25 452.375 C-166.02214844 451.715 -166.79429687 451.055 -167.58984375 450.375 C-179.40437864 439.99550845 -190.65432574 428.84755573 -200.25 416.375 C-201.02214844 415.41980469 -201.79429687 414.46460938 -202.58984375 413.48046875 C-229.51369868 379.66614857 -246.97755713 338.07793487 -253.25 295.375 C-253.42732666 294.17037109 -253.60465332 292.96574219 -253.78735352 291.72460938 C-255.38632494 280.0673269 -255.60840972 268.50313934 -255.5625 256.75 C-255.55976578 255.29566559 -255.55976578 255.29566559 -255.55697632 253.81195068 C-255.51163492 239.48259034 -255.10197455 225.46260582 -252.25 211.375 C-251.97663818 209.99828125 -251.97663818 209.99828125 -251.69775391 208.59375 C-250.38622443 202.1423836 -248.88864963 195.75070123 -247.25 189.375 C-247.05680176 188.62025391 -246.86360352 187.86550781 -246.66455078 187.08789062 C-243.53437972 175.12799501 -239.11346003 163.7284491 -234.25 152.375 C-233.93691895 151.6428125 -233.62383789 150.910625 -233.30126953 150.15625 C-217.48984489 113.72887041 -190.95250124 79.38400721 -159.25 55.375 C-158.07613786 54.45008753 -156.90301321 53.52423862 -155.73046875 52.59765625 C-145.44838351 44.57347459 -134.57589649 37.8207068 -123.25 31.375 C-122.17347168 30.75431641 -122.17347168 30.75431641 -121.07519531 30.12109375 C-95.16224623 15.28571619 -66.5497808 7.18018157 -37.25 2.375 C-36.1451123 2.18663574 -35.04022461 1.99827148 -33.90185547 1.80419922 C-22.61492736 0.0690608 -11.39866126 -0.02191002 0 0 Z " fill="#F1F1F1" transform="translate(255.25,-0.375)"/>
<path d="M0 0 C12.80277748 6.40138874 25.43385512 13.14573916 38 20 C38 71.81 38 123.62 38 177 C28.76 182.28 19.52 187.56 10 193 C4.09950085 196.41563712 -1.79945694 199.83310111 -7.68554688 203.2734375 C-8.71615234 203.8715625 -9.74675781 204.4696875 -10.80859375 205.0859375 C-12.13588501 205.8601001 -12.13588501 205.8601001 -13.48999023 206.64990234 C-18.32921566 209.25285114 -18.32921566 209.25285114 -21 210 C-23.17456055 209.27172852 -23.17456055 209.27172852 -25.38671875 207.87890625 C-26.65201416 207.10450195 -26.65201416 207.10450195 -27.94287109 206.31445312 C-28.84859863 205.73630859 -29.75432617 205.15816406 -30.6875 204.5625 C-32.65117664 203.35357095 -34.61607483 202.14662439 -36.58203125 200.94140625 C-38.13784912 199.97871826 -38.13784912 199.97871826 -39.72509766 198.99658203 C-45.37626865 195.55128038 -51.12926946 192.28403402 -56.875 189 C-59.01916577 187.77246788 -61.1624413 186.54337903 -63.3046875 185.3125 C-64.21202637 184.79300781 -65.11936523 184.27351562 -66.05419922 183.73828125 C-67.02631348 183.16464844 -67.99842773 182.59101563 -69 182 C-69.69526794 181.74301834 -70.39053589 181.48603668 -71.10687256 181.2212677 C-73.69227133 180.08371447 -75.17263043 179.17295992 -77 177 C-78.15167113 171.89085754 -77.93105773 166.83509209 -77.78125 161.63671875 C-77.76631962 160.1193185 -77.75493634 158.60187956 -77.74694824 157.08442688 C-77.71647437 153.10001201 -77.63796038 149.11794908 -77.54931641 145.13446045 C-77.46731754 141.06587545 -77.4309073 136.99690839 -77.390625 132.92773438 C-77.30495453 124.9507463 -77.16851311 116.97566609 -77 109 C-76.51887756 108.73438263 -76.03775513 108.46876526 -75.54205322 108.19509888 C-65.88209685 102.85750465 -56.26325557 97.47069627 -46.75 91.875 C-44.70838004 90.68351371 -42.66671358 89.4921071 -40.625 88.30078125 C-37.23701154 86.31896695 -33.86085791 84.32040936 -30.5 82.29296875 C-29.85321289 81.90834473 -29.20642578 81.5237207 -28.54003906 81.12744141 C-26.89149751 80.14668059 -25.25008214 79.15396766 -23.609375 78.16015625 C-21 77 -21 77 -19.08203125 77.0625 C-15.9169919 78.48765843 -12.927453 80.18327004 -9.9375 81.9375 C-9.31294922 82.29779297 -8.68839844 82.65808594 -8.04492188 83.02929688 C-5.30710791 84.61588491 -2.63364041 86.24423972 0 88 C0 58.96 0 29.92 0 0 Z " fill="#333333" transform="translate(347,100)"/>
<path d="M0 0 C1.95870085 0.96625542 3.87973692 2.01055509 5.76953125 3.10546875 C6.89504395 3.75314209 8.02055664 4.40081543 9.18017578 5.06811523 C10.39104667 5.77441201 11.6018193 6.48087726 12.8125 7.1875 C14.05679141 7.90691543 15.30142437 8.62574041 16.54638672 9.34399414 C20.36987603 11.55305365 24.18529544 13.77581652 28 16 C29.20908601 16.70388106 30.41823183 17.40765938 31.62744141 18.11132812 C37.76237792 21.68236616 43.89234886 25.261725 50.01416016 28.85522461 C51.32127574 29.60873641 52.6505316 30.3252658 54 31 C54.30202876 39.72717189 54.53257939 48.45253137 54.67355824 57.18379974 C54.74124797 61.23900132 54.83291459 65.29061459 54.98071289 69.34375 C55.12262976 73.2603887 55.19981365 77.17359356 55.23340416 81.09260559 C55.25731553 82.58256643 55.30402408 84.07235115 55.37449074 85.56083679 C55.58831239 90.26732625 55.53684707 94.47925764 54 99 C50.06980742 102.74184477 45.95639365 104.76469444 41 107 C39.71959333 107.72556773 38.44696116 108.46556237 37.19189453 109.23413086 C36.18239746 109.80526611 35.17290039 110.37640137 34.1328125 110.96484375 C32.41408936 111.94155029 32.41408936 111.94155029 30.66064453 112.93798828 C28.86809377 113.95241713 27.07494416 114.96578061 25.28167725 115.97894287 C16.57922549 120.88556373 16.57922549 120.88556373 8.0625 126.10546875 C7.37784668 126.54060791 6.69319336 126.97574707 5.98779297 127.42407227 C4.27483383 128.52840333 2.57797011 129.65759585 0.8828125 130.7890625 C-2 132 -2 132 -4.9296875 131.47265625 C-8.49042009 129.76477306 -11.88133331 127.86539059 -15.25 125.8125 C-16.74529907 124.91664099 -18.24145286 124.02220767 -19.73828125 123.12890625 C-20.56408691 122.63535645 -21.38989258 122.14180664 -22.24072266 121.63330078 C-28.70161498 117.80890071 -35.22692187 114.09401583 -41.73730469 110.35473633 C-43.31946777 109.44437622 -43.31946777 109.44437622 -44.93359375 108.515625 C-45.86228271 107.98227539 -46.79097168 107.44892578 -47.74780273 106.89941406 C-48.82102783 106.27260742 -49.89425293 105.64580078 -51 105 C-51.84800171 104.66628387 -52.69600342 104.33256775 -53.56970215 103.98873901 C-56.61809122 102.61100661 -58.67550477 101.42023272 -61 99 C-62.41594188 93.85437082 -62.1673696 88.81683297 -61.9765625 83.5390625 C-61.95789435 82.02310869 -61.94366768 80.50709424 -61.9336853 78.99105835 C-61.89562935 75.01425499 -61.79753255 71.04114616 -61.68664551 67.0657959 C-61.58405971 63.00400786 -61.53861645 58.94161829 -61.48828125 54.87890625 C-61.38125976 46.91758135 -61.21076449 38.95925107 -61 31 C-60.311409 30.61582916 -59.62281799 30.23165833 -58.9133606 29.83584595 C-40.81436714 19.74523228 -40.81436714 19.74523228 -22.875 9.375 C-20.05396966 7.71974643 -17.23304509 6.06461237 -14.40527344 4.42089844 C-12.90322566 3.53357423 -11.41407064 2.62358984 -9.94628906 1.68066406 C-6.08719694 -0.74867287 -4.34534252 -1.28867373 0 0 Z " fill="#6DA75D" transform="translate(189,178)"/>
<path d="M0 0 C1.72606725 0.86329455 3.42599705 1.7797004 5.10546875 2.73046875 C6.08966797 3.28669922 7.07386719 3.84292969 8.08789062 4.41601562 C9.62219727 5.29290039 9.62219727 5.29290039 11.1875 6.1875 C12.19103516 6.75275391 13.19457031 7.31800781 14.22851562 7.90039062 C17.17027672 9.5712803 20.08671303 11.28004698 23 13 C24.30638428 13.73404053 24.30638428 13.73404053 25.63916016 14.48291016 C30.34081762 17.29590829 33.0220655 19.48968762 34.54589844 24.84472656 C34.69575195 25.5559668 34.84560547 26.26720703 35 27 C35.15758789 27.74475586 35.31517578 28.48951172 35.47753906 29.25683594 C35.92120895 31.62406787 36.28558537 33.99069032 36.625 36.375 C36.74979736 37.21208496 36.87459473 38.04916992 37.00317383 38.91162109 C38.07114344 46.19819277 39.0536163 53.39743258 39.01953125 60.7734375 C39.01671143 61.56927246 39.0138916 62.36510742 39.01098633 63.18505859 C39.00736084 63.78398926 39.00373535 64.38291992 39 65 C35.52281278 67.00345661 32.04293033 69.00218349 28.5625 71 C27.56927734 71.57234375 26.57605469 72.1446875 25.55273438 72.734375 C24.60849609 73.27578125 23.66425781 73.8171875 22.69140625 74.375 C21.81685791 74.87773437 20.94230957 75.38046875 20.04125977 75.8984375 C18 77 18 77 17 77 C17 69.08 17 61.16 17 53 C15.35 52.34 13.7 51.68 12 51 C9.03145528 49.22711912 6.07706271 47.44502765 3.171875 45.5703125 C-0.41978846 43.37667188 -0.41978846 43.37667188 -4.48828125 43.5078125 C-5.31714844 44.00023437 -6.14601563 44.49265625 -7 45 C-8.72283203 45.96292969 -8.72283203 45.96292969 -10.48046875 46.9453125 C-12.35519714 48.04106236 -14.22389032 49.14657293 -16.09179688 50.25390625 C-20.79435668 53 -20.79435668 53 -23 53 C-24.09275179 60.98714643 -24.85737536 69.31629071 -22 77 C-16.92288192 82.78931056 -9.2603357 85.47440336 -2.33837891 88.46972656 C3.30906842 91.05844968 8.55831083 94.29940395 13.875 97.5 C15.80800418 98.63863416 17.7428182 99.7742031 19.6796875 100.90625 C20.57010742 101.42703125 21.46052734 101.9478125 22.37792969 102.484375 C26.22382045 104.70740013 30.1052456 106.86397252 34 109 C34 109.66 34 110.32 34 111 C33.26475098 111.42297363 32.52950195 111.84594727 31.77197266 112.28173828 C28.99453344 113.88012946 26.21757435 115.47935093 23.44091797 117.07910156 C22.24839573 117.7659482 21.05569303 118.45248165 19.86279297 119.13867188 C18.12938559 120.13585493 16.39672209 121.1343307 14.6640625 122.1328125 C13.53516602 122.77895508 12.40626953 123.42509766 11.24316406 124.09082031 C9.16482175 125.31429494 7.11115513 126.58131709 5.09277344 127.90136719 C4.22426758 128.46758789 3.35576172 129.03380859 2.4609375 129.6171875 C1.71376465 130.12620605 0.9665918 130.63522461 0.19677734 131.15966797 C-2 132 -2 132 -4.44995117 131.33325195 C-7.08808491 129.95394622 -9.68859623 128.5485552 -12.26171875 127.05078125 C-13.286604 126.45668457 -14.31148926 125.86258789 -15.36743164 125.25048828 C-16.4630542 124.61095215 -17.55867676 123.97141602 -18.6875 123.3125 C-20.41778638 122.30769051 -22.14807654 121.30288747 -23.87858582 120.29846191 C-25.07709928 119.60254096 -26.27534826 118.90616431 -27.4733429 118.20935059 C-31.79526713 115.69584147 -36.12571782 113.19752988 -40.4609375 110.70703125 C-41.66317292 110.01587889 -42.86540283 109.32471693 -44.06762695 108.63354492 C-46.3728255 107.30838672 -48.6787773 105.98456785 -50.98510742 104.66137695 C-52.02256104 104.06413818 -53.06001465 103.46689941 -54.12890625 102.8515625 C-55.04744385 102.32385254 -55.96598145 101.79614258 -56.91235352 101.25244141 C-59 100 -59 100 -60 99 C-60.0942174 96.88318683 -60.11742761 94.76319242 -60.11352539 92.64428711 C-60.11367142 91.98089828 -60.11381744 91.31750946 -60.1139679 90.63401794 C-60.11326881 88.43176044 -60.10547665 86.22958655 -60.09765625 84.02734375 C-60.09579206 82.50419664 -60.09436816 80.98104893 -60.09336853 79.457901 C-60.08954346 75.44162349 -60.07971328 71.42538192 -60.06866455 67.40911865 C-60.05845019 63.31376634 -60.05387086 59.21840824 -60.04882812 55.12304688 C-60.038091 47.08201472 -60.02101472 39.04101183 -60 31 C-59.51887756 30.73438263 -59.03775513 30.46876526 -58.54205322 30.19509888 C-48.88209685 24.85750465 -39.26325557 19.47069627 -29.75 13.875 C-27.70838004 12.68351371 -25.66671358 11.4921071 -23.625 10.30078125 C-20.23701154 8.31896695 -16.86085791 6.32040936 -13.5 4.29296875 C-12.85321289 3.90834473 -12.20642578 3.5237207 -11.54003906 3.12744141 C-9.89149751 2.14668059 -8.25008214 1.15396766 -6.609375 0.16015625 C-3.57769644 -1.18776071 -3.03616726 -1.04655114 0 0 Z " fill="#343434" transform="translate(473,178)"/>
<path d="M0 0 C3.06121744 1.18905061 5.73867231 2.53869086 8.56933594 4.19604492 C9.59099854 4.7901416 10.61266113 5.38423828 11.6652832 5.99633789 C12.75252686 6.63587402 13.83977051 7.27541016 14.95996094 7.93432617 C16.68347992 8.93920952 18.40700494 9.94408267 20.13087463 10.94836426 C21.32405297 11.6439814 22.5167867 12.34036171 23.70909119 13.03747559 C28.01789307 15.55668213 32.33875316 18.05414745 36.66699219 20.53979492 C37.56685349 21.05690285 37.56685349 21.05690285 38.4848938 21.5844574 C41.38778749 23.25246721 44.29126257 24.91945253 47.1953125 26.58544922 C48.23268555 27.18268799 49.27005859 27.77992676 50.33886719 28.39526367 C51.25740479 28.92297363 52.17594238 29.45068359 53.12231445 29.99438477 C55.20996094 31.24682617 55.20996094 31.24682617 56.20996094 32.24682617 C56.30512305 34.98571037 56.33550688 37.69930558 56.32348633 40.43847656 C56.32363235 41.2969368 56.32377838 42.15539703 56.32392883 43.03987122 C56.32322941 45.89143355 56.31543564 48.74293143 56.30761719 51.59448242 C56.30575311 53.56603459 56.30432916 55.53758722 56.30332947 57.50914001 C56.29950345 62.70908884 56.28967246 67.90900992 56.27862549 73.10894775 C56.26841316 78.41076278 56.26383223 83.71258228 56.25878906 89.0144043 C56.24805026 99.42522381 56.23097284 109.83602269 56.20996094 120.24682617 C48.42425327 116.00560624 40.65208115 111.7417258 32.89941406 107.44042969 C31.67228854 106.75999585 30.44473742 106.08032909 29.21679688 105.40136719 C27.41933749 104.4074751 25.62310432 103.41140066 23.82714844 102.41479492 C22.77124512 101.82980225 21.7153418 101.24480957 20.62744141 100.64208984 C18.20996094 99.24682617 18.20996094 99.24682617 17.20996094 98.24682617 C17.11700278 96.80392831 17.09249581 95.35652833 17.09643555 93.91064453 C17.09651108 92.98976547 17.09658661 92.06888641 17.09666443 91.12010193 C17.10182571 90.11906937 17.106987 89.1180368 17.11230469 88.08666992 C17.11371964 87.0670668 17.11513458 86.04746368 17.11659241 84.9969635 C17.12220997 81.7260551 17.13476544 78.45521404 17.14746094 75.18432617 C17.15247368 72.97273862 17.15703697 70.76114999 17.16113281 68.54956055 C17.1721851 63.1152926 17.18894031 57.6810642 17.20996094 52.24682617 C15.81777344 51.80741699 15.81777344 51.80741699 14.39746094 51.35913086 C9.87310211 49.78031814 6.1897391 47.1449086 2.20996094 44.51245117 C-0.7235867 42.94812818 -0.7235867 42.94812818 -3.77441406 43.81713867 C-6.98809566 45.34072347 -10.00444665 47.01843683 -13.04003906 48.87182617 C-18.57779416 52.24682617 -18.57779416 52.24682617 -20.79003906 52.24682617 C-20.79003906 67.42682617 -20.79003906 82.60682617 -20.79003906 98.24682617 C-24.21378906 100.22682617 -27.63753906 102.20682617 -31.16503906 104.24682617 C-32.24317871 104.87331055 -33.32131836 105.49979492 -34.43212891 106.14526367 C-35.27984863 106.6325293 -36.12756836 107.11979492 -37.00097656 107.62182617 C-37.87028809 108.12456055 -38.73959961 108.62729492 -39.63525391 109.14526367 C-41.79003906 110.24682617 -41.79003906 110.24682617 -43.79003906 110.24682617 C-44.54927169 103.63354207 -44.95832889 97.10905528 -44.99316406 90.45385742 C-45.00008774 89.55290848 -45.00701141 88.65195953 -45.0141449 87.72370911 C-45.03131744 84.83553658 -45.0377306 81.94754733 -45.04003906 79.05932617 C-45.04137848 78.07494568 -45.0427179 77.09056519 -45.0440979 76.07635498 C-45.04004166 62.35368954 -44.74915012 48.95949095 -42.18261719 35.4362793 C-41.79549397 33.27724882 -41.52279449 31.12883313 -41.27441406 28.94995117 C-41.00371094 27.0550293 -41.00371094 27.0550293 -40.72753906 25.12182617 C-40.5921875 24.08799805 -40.45683594 23.05416992 -40.31738281 21.98901367 C-38.20699836 18.20003698 -35.61318689 17.35682584 -31.73364258 15.60864258 C-26.37486825 13.12948166 -21.36956185 9.99723057 -16.29003906 6.99682617 C-14.15489328 5.74115711 -12.01949013 4.48592555 -9.88378906 3.23120117 C-8.95244141 2.68173828 -8.02109375 2.13227539 -7.06152344 1.56616211 C-2.98004303 -0.80446559 -2.98004303 -0.80446559 0 0 Z " fill="#353535" transform="translate(44.7900390625,177.753173828125)"/>
<path d="M0 0 C2.2980957 1.0847168 2.2980957 1.0847168 4.67578125 2.44921875 C5.57474121 2.96097656 6.47370117 3.47273438 7.39990234 4 C8.36105957 4.556875 9.3222168 5.11375 10.3125 5.6875 C11.81611084 6.54794922 11.81611084 6.54794922 13.35009766 7.42578125 C21.87475874 12.31591743 30.36555731 17.2661671 38.84106445 22.2409668 C39.77781006 22.79051025 40.71455566 23.34005371 41.6796875 23.90625 C42.49163574 24.38384766 43.30358398 24.86144531 44.14013672 25.35351562 C48.06805154 27.61490008 52.03349497 29.80718846 56 32 C56.20881011 40.89250116 56.3685793 49.78415515 56.46630955 58.67857552 C56.51322417 62.80906051 56.5768137 66.93786511 56.67895508 71.06738281 C56.77696954 75.05514811 56.83060074 79.04130101 56.85389519 83.03017807 C56.87048706 84.54941067 56.90289203 86.0685578 56.95157051 87.58710098 C57.31704625 99.46394169 57.31704625 99.46394169 54.11460876 103.19891357 C51.80309319 104.76829592 49.56903008 105.91331287 47 107 C46.0917749 107.54527344 45.1835498 108.09054687 44.24780273 108.65234375 C43.10226929 109.28849609 43.10226929 109.28849609 41.93359375 109.9375 C41.04720215 110.4334668 40.16081055 110.92943359 39.24755859 111.44042969 C38.32023926 111.95508789 37.39291992 112.46974609 36.4375 113 C30.0328009 116.57721004 23.65280337 120.18455855 17.33984375 123.921875 C16.25840088 124.56125 15.17695801 125.200625 14.06274414 125.859375 C11.97380789 127.09830602 9.8882183 128.34290122 7.80639648 129.59375 C6.85708252 130.15578125 5.90776855 130.7178125 4.9296875 131.296875 C4.09679199 131.79541992 3.26389648 132.29396484 2.40576172 132.80761719 C-0.15613754 134.07738743 -2.14988271 134.75598896 -5 135 C-7.04882812 134.2590332 -7.04882812 134.2590332 -9.03125 133.05078125 C-10.12373047 132.39625977 -10.12373047 132.39625977 -11.23828125 131.72851562 C-11.98464844 131.26123047 -12.73101562 130.79394531 -13.5 130.3125 C-14.24636719 129.86455078 -14.99273437 129.41660156 -15.76171875 128.95507812 C-19.7334249 126.54042138 -23.44509449 124.01179495 -27 121 C-23.77108328 119.03114834 -21.56200477 118.01080778 -17.75 117.9375 C-13.32587643 119.19100168 -10.16197272 121.27675094 -6.4296875 123.91796875 C-4.05887338 125.29619905 -4.05887338 125.29619905 -1.72412109 124.27661133 C1.28091953 122.86835202 4.13709559 121.3085241 7.015625 119.65625 C7.58473602 119.3305603 8.15384705 119.00487061 8.74020386 118.66931152 C10.57861814 117.61600354 12.41429792 116.55802638 14.25 115.5 C15.51272512 114.77580979 16.7755838 114.05185242 18.03857422 113.328125 C25.8021216 108.87316954 33.5420505 104.37866967 41.20019531 99.74414062 C45.78573571 97 45.78573571 97 48 97 C48 77.2 48 57.4 48 37 C46.35 36.34 44.7 35.68 43 35 C41.40285527 34.167704 39.82117292 33.30524723 38.25390625 32.41796875 C37.34431152 31.90371338 36.4347168 31.38945801 35.49755859 30.85961914 C34.52898926 30.30781982 33.56041992 29.75602051 32.5625 29.1875 C31.55783691 28.62087646 30.55317383 28.05425293 29.51806641 27.47045898 C24.21089629 24.46184882 18.95998157 21.38581971 13.76953125 18.1796875 C12.77945068 17.57358643 11.78937012 16.96748535 10.76928711 16.34301758 C8.86843465 15.17364457 6.97688835 13.9889804 5.09594727 12.7878418 C3.80708618 11.9976062 3.80708618 11.9976062 2.4921875 11.19140625 C1.36852783 10.48286499 1.36852783 10.48286499 0.22216797 9.76000977 C-2.04417692 8.74688332 -2.04417692 8.74688332 -4.55688477 9.74487305 C-5.36311279 10.15906494 -6.16934082 10.57325684 -7 11 C-7.60690674 11.30454102 -8.21381348 11.60908203 -8.83911133 11.92285156 C-9.4142749 12.2422168 -9.98943848 12.56158203 -10.58203125 12.890625 C-11.25532471 13.26380859 -11.92861816 13.63699219 -12.62231445 14.02148438 C-13.7064563 14.62959961 -13.7064563 14.62959961 -14.8125 15.25 C-15.57715576 15.67603516 -16.34181152 16.10207031 -17.12963867 16.54101562 C-25.13430272 21.02673641 -33.04499868 25.67486919 -40.9387207 30.35253906 C-42.40184692 31.21443848 -42.40184692 31.21443848 -43.89453125 32.09375 C-44.75925049 32.60615234 -45.62396973 33.11855469 -46.51489258 33.64648438 C-49 35 -49 35 -54 37 C-54 56.8 -54 76.6 -54 97 C-52.35 97.66 -50.7 98.32 -49 99 C-47.55216191 99.85778558 -46.11441925 100.73284939 -44.6875 101.625 C-40.12500246 104.19188092 -37.18997436 104.80534085 -32 104 C-28.89287917 100.93954972 -28.61394883 98.48329239 -28.56762695 94.22167969 C-28.54783279 93.0607782 -28.52803864 91.89987671 -28.50764465 90.70379639 C-28.50125473 89.45576233 -28.49486481 88.20772827 -28.48828125 86.921875 C-28.47033005 85.64016418 -28.45237885 84.35845337 -28.43388367 83.03790283 C-28.38643432 79.63823544 -28.35659272 76.23863418 -28.33044434 72.83874512 C-28.30061287 69.36632224 -28.25409154 65.8941271 -28.20898438 62.421875 C-28.12300937 55.61471319 -28.05563848 48.80747551 -28 42 C-25.36 42 -22.72 42 -20 42 C-19.90708114 49.96284098 -19.83612505 57.92545323 -19.79275131 65.88870335 C-19.77192786 69.58688652 -19.74370776 73.28469719 -19.69824219 76.98266602 C-19.65459489 80.55533924 -19.63082351 84.12765548 -19.62049103 87.70057487 C-19.61313326 89.05968783 -19.59876528 90.41878253 -19.57707977 91.77774239 C-19.37513694 104.96423551 -19.37513694 104.96423551 -24 111 C-26.60577034 113.58675012 -29.4173894 114.82648126 -33.06640625 115.2265625 C-39.94486382 114.90663424 -45.21042575 111.40941595 -51 108 C-54.63 106.02 -58.26 104.04 -62 102 C-62 78.9 -62 55.8 -62 32 C-54.41 27.71 -46.82 23.42 -39 19 C-34.72150659 16.53208828 -30.44797715 14.06064758 -26.1875 11.5625 C-24.75180664 10.72428711 -24.75180664 10.72428711 -23.28710938 9.86914062 C-22.34029297 9.31548828 -21.39347656 8.76183594 -20.41796875 8.19140625 C-19.5161084 7.66691895 -18.61424805 7.14243164 -17.68505859 6.60205078 C-15.85450664 5.50984475 -14.0452462 4.38133857 -12.25634766 3.22216797 C-11.38413574 2.66287598 -10.51192383 2.10358398 -9.61328125 1.52734375 C-8.84411377 1.0180835 -8.07494629 0.50882324 -7.2824707 -0.01586914 C-4.3513676 -1.27967025 -3.00990384 -0.9749318 0 0 Z " fill="#69A163" transform="translate(257,300)"/>
<path d="M0 0 C4.00162756 0.59021189 6.85292779 1.84556671 10.33203125 3.88671875 C11.36714844 4.48919434 12.40226563 5.09166992 13.46875 5.71240234 C14.5721875 6.36418457 15.675625 7.0159668 16.8125 7.6875 C18.54890844 8.7014701 20.28531815 9.71543803 22.02182007 10.72924805 C23.81637789 11.7786517 25.6089162 12.8314257 27.40087891 13.88525391 C32.02800205 16.60597664 36.66592917 19.30805591 41.3034668 22.01098633 C43.40611088 23.23711385 45.50786251 24.46477331 47.60864258 25.6940918 C48.55247803 26.24621338 49.49631348 26.79833496 50.46875 27.3671875 C51.29826172 27.85300293 52.12777344 28.33881836 52.98242188 28.83935547 C54.30046576 29.59758159 55.6399569 30.31997845 57 31 C57 52.78 57 74.56 57 97 C54.0457678 94.0457678 52.44775715 91.52080462 50.41796875 87.8984375 C49.912976 87.00458847 49.912976 87.00458847 49.39778137 86.09268188 C48.32300588 84.18937959 47.2546855 82.28256693 46.1875 80.375 C42.10901927 73.09794946 38.04097924 65.88626274 33.32543945 58.99511719 C31.17388419 55.75648952 29.34538704 52.35677621 27.5 48.9375 C23.41150033 41.46987693 19.17760438 34.09621783 14.875 26.75 C14.2773584 25.72890137 13.6797168 24.70780273 13.06396484 23.65576172 C11.90664808 21.6785057 10.74926141 19.70129061 9.59179688 17.72412109 C7.42236783 14.01146936 5.26600569 10.29160885 3.125 6.5625 C2.50882813 5.49128906 1.89265625 4.42007813 1.2578125 3.31640625 C0 1 0 1 0 0 Z " fill="#639D57" transform="translate(186,178)"/>
<path d="M0 0 C2.76568019 3.4808165 4.84671467 6.52846082 5.3125 11 C5.209375 11.66 5.10625 12.32 5 13 C2.03 13 -0.94 13 -4 13 C-4.61875 11.6078125 -4.61875 11.6078125 -5.25 10.1875 C-7.03007975 6.94521188 -7.85489513 5.79265674 -11 4 C-18.11635264 3.19388454 -25.278386 3.43938514 -32 6 C-32.16687448 8.41645782 -32.16687448 8.41645782 -32 11 C-27.04890842 15.95109158 -17.76825164 15.83251398 -11.11523438 16.59179688 C-5.19897421 17.40701081 -0.65919899 19.19191246 4 23 C7.00707775 27.32267427 7.63986542 30.78966726 7 36 C5.4901415 40.27793242 3.40734167 43.04740077 -0.5 45.375 C-6.66362038 48.23668089 -12.09434259 48.24650631 -18.8125 48.3125 C-19.78509766 48.34150391 -20.75769531 48.37050781 -21.75976562 48.40039062 C-29.78501378 48.47102585 -33.98520101 46.88372077 -39.875 41.25 C-42.50541006 37.2270199 -42.7546498 34.74343722 -43 30 C-40.03 30 -37.06 30 -34 30 C-33.7525 30.94875 -33.505 31.8975 -33.25 32.875 C-32.31046252 35.98642787 -32.31046252 35.98642787 -30.3125 37.3125 C-23.23716878 39.41597685 -13.74084035 40.60692902 -6.68359375 38.21484375 C-4.56979462 36.97783241 -4.56979462 36.97783241 -4.25 33.375 C-4.1675 32.26125 -4.085 31.1475 -4 30 C-11.02796544 27.10322736 -17.92499998 25.78112676 -25.3984375 24.5390625 C-30.38064019 23.66069729 -34.6498496 22.74457438 -39 20 C-42.12308677 15.31536985 -41.57371499 10.48297234 -41 5 C-38.55399189 -0.47905816 -35.26689623 -2.548169 -30 -5 C-20.00961787 -7.6641019 -8.06870424 -6.81357247 0 0 Z " fill="#6AA264" transform="translate(286,346)"/>
<path d="M0 0 C0.78246094 0.495 1.56492187 0.99 2.37109375 1.5 C3.54134386 2.13970029 4.7133718 2.7761541 5.88671875 3.41015625 C7.13343422 4.12425593 8.37819689 4.84177454 9.62109375 5.5625 C10.25789063 5.92666016 10.8946875 6.29082031 11.55078125 6.66601562 C16.23035127 9.35925752 16.23035127 9.35925752 17.37109375 10.5 C18.742879 17.89453414 19.51063983 26.22136096 17.37109375 33.5 C13.35052298 38.7584282 6.69797695 41.89030319 0.37109375 43.5 C-4.54032218 43.50757935 -8.79575625 40.35672203 -12.94140625 37.9375 C-13.68197266 37.51275391 -14.42253906 37.08800781 -15.18554688 36.65039062 C-17.00358743 35.60648347 -18.81674373 34.55407808 -20.62890625 33.5 C-21.74317394 25.94488409 -22.84142503 17.92448983 -20.62890625 10.5 C-16.43118652 5.01974499 -7.16863046 -1.36342452 0 0 Z " fill="#F0F0F0" transform="translate(328.62890625,221.5)"/>
<path d="M0 0 C3.17440814 2.92629249 5.2534503 5.84345489 7.36328125 9.6015625 C7.9960498 10.71974365 8.62881836 11.8379248 9.28076172 12.98999023 C9.95811383 14.20160089 10.63535742 15.41327223 11.3125 16.625 C12.37362841 18.50776796 13.43692947 20.38929829 14.50030518 22.27079773 C15.23053202 23.56325752 15.9599756 24.85616013 16.68865967 26.14949036 C19.20034926 30.60355555 21.74604565 35.03658913 24.31640625 39.45703125 C24.66047012 40.04937561 25.004534 40.64171997 25.35902405 41.25201416 C27.00327065 44.0816376 28.65073927 46.90932751 30.30200195 49.73486328 C30.89070068 50.74919434 31.47939941 51.76352539 32.0859375 52.80859375 C32.6020459 53.69345459 33.1181543 54.57831543 33.64990234 55.48999023 C34.96903825 57.94243802 36.02084683 60.39545256 37 63 C33.51383846 62.32313971 30.82250989 60.93012425 27.73828125 59.19140625 C26.70960938 58.61382568 25.6809375 58.03624512 24.62109375 57.44116211 C22.98333984 56.51122437 22.98333984 56.51122437 21.3125 55.5625 C20.19359375 54.93158447 19.0746875 54.30066895 17.921875 53.65063477 C10.06495234 49.20743676 2.26582972 44.67303663 -5.49609375 40.06640625 C-9.61736534 37.62429463 -13.79450876 35.29390431 -18 33 C-17.47842695 28.30063116 -16.22988117 25.24056771 -13.69140625 21.26953125 C-12.69463867 19.69461914 -12.69463867 19.69461914 -11.67773438 18.08789062 C-10.97970703 17.00701172 -10.28167969 15.92613281 -9.5625 14.8125 C-8.86833984 13.72001953 -8.17417969 12.62753906 -7.45898438 11.50195312 C-5.00467129 7.64585425 -2.53550067 3.803251 0 0 Z " fill="#3C883A" transform="translate(147,245)"/>
<path d="M0 0 C2.87049437 2.87049437 4.49296503 5.31315132 6.50390625 8.8046875 C7.16197266 9.94550781 7.82003906 11.08632812 8.49804688 12.26171875 C8.83698975 12.8551709 9.17593262 13.44862305 9.52514648 14.06005859 C10.55691234 15.86522389 11.59716995 17.66528196 12.63867188 19.46484375 C16.40944829 26.02947315 16.40944829 26.02947315 18 29 C18.46027588 29.83764893 18.92055176 30.67529785 19.39477539 31.53833008 C20 34 20 34 18.91357422 36.64379883 C18.3001416 37.57216553 17.68670898 38.50053223 17.0546875 39.45703125 C16.38953125 40.48763672 15.724375 41.51824219 15.0390625 42.58007812 C14.32492188 43.64677734 13.61078125 44.71347656 12.875 45.8125 C11.4941844 47.92107755 10.11650632 50.03171352 8.7421875 52.14453125 C8.09088867 53.14307129 7.43958984 54.14161133 6.76855469 55.17041016 C4.57327532 58.68273592 2.74720347 62.24758632 1 66 C0.67 66 0.34 66 0 66 C0 44.22 0 22.44 0 0 Z " fill="#54A244" transform="translate(128,211)"/>
<path d="M0 0 C0.33 0 0.66 0 1 0 C1 21.12 1 42.24 1 64 C-3.35291863 59.64708137 -6.10945919 54.38003675 -9.17211914 49.08544922 C-10.31018318 47.12898289 -11.47211548 45.18802176 -12.63476562 43.24609375 C-13.3582985 42.00088641 -14.08035501 40.75481979 -14.80078125 39.5078125 C-15.46247314 38.38004395 -16.12416504 37.25227539 -16.8059082 36.09033203 C-18 33 -18 33 -17.4309082 30.5065918 C-16.9587085 29.6794165 -16.48650879 28.85224121 -16 28 C-15.44038574 26.96447998 -14.88077148 25.92895996 -14.30419922 24.86206055 C-13.64100932 23.70171289 -12.97434077 22.54334835 -12.3046875 21.38671875 C-11.77622726 20.46509697 -11.77622726 20.46509697 -11.23709106 19.52485657 C-10.1194353 17.57730491 -8.99729638 15.63238041 -7.875 13.6875 C-7.11298289 12.36149954 -6.351261 11.03532938 -5.58984375 9.70898438 C-3.72997479 6.4706854 -1.8660782 3.23472577 0 0 Z " fill="#3B8739" transform="translate(242,211)"/>
<path d="M0 0 C2.42058944 1.23489421 4.68502877 2.56471784 7 4 C8.36307529 16.28450567 8.36307529 16.28450567 5.171875 20.30078125 C1.87095073 22.59066083 -0.4277996 24.16255776 -4.53125 23.73828125 C-8.7050711 22.49009741 -12.09940352 21.39093541 -15 18 C-16.25853854 13.42295655 -16.25454591 9.57708758 -15 5 C-11.05671584 0.21232951 -6.00460669 -2.3496287 0 0 Z " fill="#67A161" transform="translate(474,232)"/>
</svg>
