<?xml version="1.0" encoding="UTF-8"?>
<svg version="1.1" xmlns="http://www.w3.org/2000/svg" width="512" height="512">
<path d="M0 0 C0.76897614 0.30231537 1.53795227 0.60463074 2.33023071 0.91610718 C4.88240218 1.92062296 7.43135158 2.93307399 9.98046875 3.9453125 C12.70998736 5.02159105 15.44034806 6.09571501 18.17073059 7.1697998 C20.10262639 7.92994934 22.03425102 8.69078837 23.96562195 9.45227051 C35.82574855 14.12599081 47.71655701 18.72043926 59.60546875 23.3203125 C63.70861414 24.90813005 67.81143147 26.4967915 71.9140625 28.0859375 C72.80421051 28.4301474 73.69435852 28.7743573 74.61148071 29.1289978 C80.48101981 31.40258384 86.3228725 33.732274 92.16796875 36.0703125 C92.16796875 76.3303125 92.16796875 116.5903125 92.16796875 158.0703125 C75.99796875 164.3403125 59.82796875 170.6103125 43.16796875 177.0703125 C26.92442235 183.40667617 26.92442235 183.40667617 10.68359375 189.75 C9.22759766 190.31428711 7.77160156 190.87857422 6.27148438 191.45996094 C3.61936881 192.49164907 0.98542575 193.55631599 -1.63867188 194.65722656 C-3.35086914 195.36057129 -3.35086914 195.36057129 -5.09765625 196.078125 C-6.55606934 196.69518311 -6.55606934 196.69518311 -8.04394531 197.32470703 C-14.5169525 199.05575466 -20.50582932 195.78927055 -26.44140625 193.37890625 C-27.38521149 193.00166412 -28.32901672 192.624422 -29.30142212 192.23574829 C-31.33643139 191.4219974 -33.37042615 190.60570575 -35.40350342 189.78713989 C-40.798832 187.61557116 -46.2020419 185.46382326 -51.60546875 183.3125 C-52.70593536 182.87404251 -53.80640198 182.43558502 -54.94021606 181.98384094 C-67.72535124 176.90138937 -80.58416806 172.01612076 -93.45214844 167.14819336 C-94.28177094 166.83417572 -95.11139343 166.52015808 -95.96615601 166.19662476 C-97.48413948 165.62251202 -99.00250823 165.04941613 -100.52139282 164.47769165 C-105.99045019 162.41253338 -111.40080692 160.24280223 -116.83203125 158.0703125 C-116.83203125 117.8103125 -116.83203125 77.5503125 -116.83203125 36.0703125 C-100.66203125 29.8003125 -84.49203125 23.5303125 -67.83203125 17.0703125 C-51.58848485 10.73394883 -51.58848485 10.73394883 -35.34765625 4.390625 C-33.16366211 3.54419434 -33.16366211 3.54419434 -30.93554688 2.68066406 C-28.28343131 1.64897593 -25.64948825 0.58430901 -23.02539062 -0.51660156 C-21.88392578 -0.98549805 -20.74246094 -1.45439453 -19.56640625 -1.9375 C-18.59413086 -2.34887207 -17.62185547 -2.76024414 -16.62011719 -3.18408203 C-10.70000774 -4.76727067 -5.47309991 -2.1921731 0 0 Z " fill="#BC6328" transform="translate(263.83203125,9.9296875)"/>
<path d="M0 0 C11.55 0 23.1 0 35 0 C35 5.61 35 11.22 35 17 C37.041875 17.309375 37.041875 17.309375 39.125 17.625 C48.28124106 19.4379879 56.7289838 23.80183269 65 28 C65.67546875 27.26652344 66.3509375 26.53304688 67.046875 25.77734375 C68.38492188 24.37162109 68.38492188 24.37162109 69.75 22.9375 C70.63171875 21.99777344 71.5134375 21.05804688 72.421875 20.08984375 C75 18 75 18 76.84741211 18.08496094 C81.48555173 20.05657796 84.82270289 24.30535062 88.32885742 27.82788086 C89.81119848 29.31119762 91.31360536 30.7718892 92.81835938 32.23242188 C93.75099609 33.16248047 94.68363281 34.09253906 95.64453125 35.05078125 C96.93387573 36.32949097 96.93387573 36.32949097 98.24926758 37.6340332 C100 40 100 40 99.90136719 42.16186523 C98.56392762 44.88927111 96.62221675 46.65759522 94.4375 48.75 C93.61121094 49.54921875 92.78492188 50.3484375 91.93359375 51.171875 C91.29550781 51.77515625 90.65742188 52.3784375 90 53 C90.54269531 54.11117187 91.08539063 55.22234375 91.64453125 56.3671875 C101 75.73579529 101 75.73579529 101 83 C106.61 83 112.22 83 118 83 C118 94.55 118 106.1 118 118 C112.39 118 106.78 118 101 118 C100.79375 119.36125 100.5875 120.7225 100.375 122.125 C98.5620121 131.28124106 94.19816731 139.7289838 90 148 C90.73347656 148.67546875 91.46695313 149.3509375 92.22265625 150.046875 C93.15980469 150.93890625 94.09695312 151.8309375 95.0625 152.75 C96.47208984 154.07257813 96.47208984 154.07257813 97.91015625 155.421875 C100 158 100 158 99.91503906 159.84741211 C97.94342204 164.48555173 93.69464938 167.82270289 90.17211914 171.32885742 C88.68880238 172.81119848 87.2281108 174.31360536 85.76757812 175.81835938 C84.83751953 176.75099609 83.90746094 177.68363281 82.94921875 178.64453125 C82.09674561 179.50409424 81.24427246 180.36365723 80.3659668 181.24926758 C78 183 78 183 75.83813477 182.90136719 C73.11072889 181.56392762 71.34240478 179.62221675 69.25 177.4375 C68.05117188 176.19806641 68.05117188 176.19806641 66.828125 174.93359375 C66.22484375 174.29550781 65.6215625 173.65742188 65 173 C63.88882813 173.54269531 62.77765625 174.08539063 61.6328125 174.64453125 C42.26420471 184 42.26420471 184 35 184 C35 189.61 35 195.22 35 201 C23.45 201 11.9 201 0 201 C0 195.39 0 189.78 0 184 C-1.36125 183.79375 -2.7225 183.5875 -4.125 183.375 C-13.28124106 181.5620121 -21.7289838 177.19816731 -30 173 C-30.67546875 173.73347656 -31.3509375 174.46695313 -32.046875 175.22265625 C-32.93890625 176.15980469 -33.8309375 177.09695313 -34.75 178.0625 C-35.63171875 179.00222656 -36.5134375 179.94195312 -37.421875 180.91015625 C-40 183 -40 183 -41.84741211 182.91503906 C-46.48555173 180.94342204 -49.82270289 176.69464938 -53.32885742 173.17211914 C-54.81119848 171.68880238 -56.31360536 170.2281108 -57.81835938 168.76757812 C-59.21731445 167.37249023 -59.21731445 167.37249023 -60.64453125 165.94921875 C-61.50409424 165.09674561 -62.36365723 164.24427246 -63.24926758 163.3659668 C-65 161 -65 161 -64.90136719 158.83813477 C-63.56392762 156.11072889 -61.62221675 154.34240478 -59.4375 152.25 C-58.19806641 151.05117188 -58.19806641 151.05117188 -56.93359375 149.828125 C-56.29550781 149.22484375 -55.65742187 148.6215625 -55 148 C-55.54269531 146.88882813 -56.08539063 145.77765625 -56.64453125 144.6328125 C-66 125.26420471 -66 125.26420471 -66 118 C-71.61 118 -77.22 118 -83 118 C-83 106.45 -83 94.9 -83 83 C-77.39 83 -71.78 83 -66 83 C-65.690625 80.958125 -65.690625 80.958125 -65.375 78.875 C-63.5620121 69.71875894 -59.19816731 61.2710162 -55 53 C-55.73347656 52.32453125 -56.46695313 51.6490625 -57.22265625 50.953125 C-58.15980469 50.06109375 -59.09695312 49.1690625 -60.0625 48.25 C-61.00222656 47.36828125 -61.94195312 46.4865625 -62.91015625 45.578125 C-65 43 -65 43 -64.91503906 41.15258789 C-62.94342204 36.51444827 -58.69464938 33.17729711 -55.17211914 29.67114258 C-53.68880238 28.18880152 -52.2281108 26.68639464 -50.76757812 25.18164062 C-49.83751953 24.24900391 -48.90746094 23.31636719 -47.94921875 22.35546875 C-47.09674561 21.49590576 -46.24427246 20.63634277 -45.3659668 19.75073242 C-43 18 -43 18 -40.83813477 18.09863281 C-38.11072889 19.43607238 -36.34240478 21.37778325 -34.25 23.5625 C-33.45078125 24.38878906 -32.6515625 25.21507812 -31.828125 26.06640625 C-31.22484375 26.70449219 -30.6215625 27.34257812 -30 28 C-28.88882813 27.45730469 -27.77765625 26.91460937 -26.6328125 26.35546875 C-7.26420471 17 -7.26420471 17 0 17 C0 11.39 0 5.78 0 0 Z " fill="#F9D808" transform="translate(89,246)"/>
<path d="M0 0 C12.5106792 2.50213584 24.10188636 8.39427859 36 13 C36 53.26 36 93.52 36 135 C19.83 141.27 3.66 147.54 -13 154 C-29.38975989 160.38588166 -29.38975989 160.38588166 -45.77734375 166.77734375 C-47.21577637 167.3379248 -48.65420898 167.89850586 -50.13623047 168.47607422 C-54.1369277 170.0434393 -58.10648971 171.683048 -62.05688477 173.37329102 C-64 174 -64 174 -68 174 C-68 134.4 -68 94.8 -68 54 C-70.97 53.505 -70.97 53.505 -74 53 C-76.25673532 52.22036048 -78.49339438 51.38107656 -80.7109375 50.49609375 C-81.63043686 50.13198143 -81.63043686 50.13198143 -82.56851196 49.76051331 C-84.50626774 48.99171749 -86.44062889 48.21476724 -88.375 47.4375 C-89.69639797 46.91156482 -91.01801067 46.3861688 -92.33984375 45.86132812 C-95.56240178 44.58044219 -98.7819703 43.29222716 -102 42 C-102 41.34 -102 40.68 -102 40 C-101.31752197 39.73598389 -100.63504395 39.47196777 -99.93188477 39.19995117 C-97.13851989 38.11922979 -94.34520883 37.03836943 -91.55194092 35.95739746 C-90.22012176 35.44199427 -88.88829389 34.9266136 -87.55645752 34.41125488 C-77.95884828 30.69720173 -68.36340393 26.9776009 -58.76953125 23.25390625 C-56.61971401 22.41966815 -54.46989302 21.58543969 -52.32006836 20.7512207 C-49.13381308 19.51481763 -45.94763762 18.2782113 -42.76174927 17.04086304 C-39.73462446 15.86519237 -36.70722582 14.69023036 -33.6796875 13.515625 C-32.70928024 13.13892166 -31.73887299 12.76221832 -30.73905945 12.37409973 C-25.79042945 10.45636997 -20.83632155 8.55468791 -15.87207031 6.67773438 C-14.4079924 6.12372955 -14.4079924 6.12372955 -12.91433716 5.55853271 C-11.05694304 4.85701481 -9.19864211 4.15789188 -7.33932495 3.46148682 C-6.51852448 3.15160828 -5.697724 2.84172974 -4.85205078 2.52246094 C-3.76816574 2.11589264 -3.76816574 2.11589264 -2.66238403 1.70111084 C-0.99544771 1.12103045 -0.99544771 1.12103045 0 0 Z " fill="#A15422" transform="translate(320,33)"/>
<path d="M0 0 C13.48290706 7.86075697 22.97896499 19.82559637 27 35 C28.75075142 51.36153482 26.64540745 66.38058839 16.15625 79.5703125 C7.69703679 89.10225202 -3.34293875 96.95828361 -16.40771484 98.23535156 C-33.85252081 99.13526918 -46.41599207 96.74031262 -60 85 C-69.49551577 76.00766541 -75.69672475 64.07685234 -76.46875 50.88671875 C-76.50295151 49.15395203 -76.51288757 47.4205563 -76.5 45.6875 C-76.49355469 44.77178223 -76.48710938 43.85606445 -76.48046875 42.91259766 C-76.0866933 28.22632793 -69.24084811 16.72222428 -58.75 6.6875 C-42.31590473 -7.18321819 -19.17872054 -9.35104481 0 0 Z " fill="#EFF3F5" transform="translate(131,300)"/>
<path d="M0 0 C1.06202637 0.01389771 1.06202637 0.01389771 2.14550781 0.02807617 C3.25007324 0.03713989 3.25007324 0.03713989 4.37695312 0.04638672 C10.81618956 0.1561918 17.22777865 0.56733369 23.64550781 1.09057617 C25.05558105 1.19547363 25.05558105 1.19547363 26.49414062 1.30249023 C35.11520627 2.08565617 35.11520627 2.08565617 38.89550781 5.27807617 C43.32355679 12.43745399 39.31509836 22.67211757 37.56347656 30.27026367 C37.26054688 31.5515918 36.95761719 32.83291992 36.64550781 34.15307617 C36.35503312 35.47076024 36.06466788 36.78846844 35.77441406 38.10620117 C35.47921875 39.3565918 35.18402344 40.60698242 34.87988281 41.89526367 C34.48881348 43.59078369 34.48881348 43.59078369 34.08984375 45.32055664 C32.64715585 48.89306712 31.13164543 50.24224477 27.89550781 52.27807617 C23.60980981 52.89031874 21.66916381 52.78263443 18.02050781 50.40307617 C15.77605082 48.15861918 14.9398976 47.2617538 14.79785156 44.11401367 C14.80945313 43.3019043 14.82105469 42.48979492 14.83300781 41.65307617 C14.84203125 40.83581055 14.85105469 40.01854492 14.86035156 39.17651367 C14.87195313 38.5500293 14.88355469 37.92354492 14.89550781 37.27807617 C9.05132637 42.26087033 3.815069 47.38904171 -1.10449219 53.27807617 C-1.8534375 54.12756836 -2.60238281 54.97706055 -3.37402344 55.85229492 C-26.94350302 83.05926899 -41.36804596 117.07131774 -46.96386719 152.46557617 C-47.14888794 153.6339502 -47.14888794 153.6339502 -47.33764648 154.82592773 C-47.64236642 156.86341758 -47.9083561 158.90659838 -48.17089844 160.94995117 C-49.31019797 165.01138715 -50.80812897 166.69326273 -54.10449219 169.27807617 C-56.90544662 170.17989862 -59.25603449 169.95573345 -62.10449219 169.27807617 C-65.10449219 167.52807617 -65.10449219 167.52807617 -67.10449219 164.27807617 C-73.28748787 133.03479711 -50.8094951 88.62016985 -34.16699219 63.46557617 C-23.45543761 47.72866712 -11.0435407 32.20147824 3.89550781 20.27807617 C3.29222656 20.18010742 2.68894531 20.08213867 2.06738281 19.98120117 C-1.60913614 19.29333634 -4.47708779 18.70157414 -7.60449219 16.59057617 C-9.66610522 13.41225608 -10.0382588 11.05337918 -10.10449219 7.27807617 C-7.67669918 2.07566258 -5.81610309 0.03687485 0 0 Z " fill="#4C5B7C" transform="translate(76.1044921875,91.721923828125)"/>
<path d="M0 0 C3.10546875 1.8984375 3.10546875 1.8984375 6.1875 4.375 C6.74429443 4.82053223 7.30108887 5.26606445 7.87475586 5.72509766 C13.82824525 10.55152324 19.46709182 15.70126018 25 21 C25.49886719 21.47163574 25.99773437 21.94327148 26.51171875 22.42919922 C56.4311653 50.8199851 75.15268057 88.18890382 84.47851562 128.02661133 C84.94307802 130.05603604 84.94307802 130.05603604 86 132 C86.78375 131.030625 87.5675 130.06125 88.375 129.0625 C89.91288705 127.16037654 90.79259913 126.10370043 93 125 C99.97142857 124.31428571 99.97142857 124.31428571 104 127 C106.48281851 130.72422776 106.69048209 133.68398944 106 138 C104.87129503 140.63270786 103.3211217 142.82635393 101.625 145.125 C101.17890381 145.75881592 100.73280762 146.39263184 100.27319336 147.0456543 C99.33749169 148.37031688 98.3935849 149.68921864 97.44189453 151.00244141 C96.00784208 152.98913581 94.60780149 154.99605018 93.21484375 157.01171875 C92.33170747 158.27932797 91.44762758 159.54628043 90.5625 160.8125 C90.15016113 161.40498535 89.73782227 161.9974707 89.31298828 162.60791016 C85.06868002 168.56394356 85.06868002 168.56394356 80.99975586 169.42163086 C76.44737696 169.63817267 73.71060605 169.27049718 70.19140625 166.25390625 C68.95989918 165.04532794 67.75077892 163.81360527 66.5625 162.5625 C65.26773595 161.27392632 63.9721611 159.98616683 62.67578125 158.69921875 C62.05268066 158.06677246 61.42958008 157.43432617 60.78759766 156.78271484 C58.36501759 154.36675204 55.82593739 152.12658803 53.25 149.875 C46.22259851 143.73199938 46.22259851 143.73199938 45.71484375 139.78125 C46.13459605 135.48062997 46.45510851 133.55818152 49.5625 130.375 C54.13461345 128.54615462 56.22389864 128.84449161 61 130 C63.2421875 131.55859375 63.2421875 131.55859375 65 133 C53.82235525 87.49808334 29.61276056 44.49185016 -9.85546875 17.62109375 C-12 16 -12 16 -14 13 C-14.66923077 6.08461538 -14.66923077 6.08461538 -12.1875 2.0625 C-8.21825196 -1.67993387 -5.09297936 -1.15089502 0 0 Z " fill="#4C5B7C" transform="translate(388,92)"/>
<path d="M0 0 C2.86124971 3.36617613 3.4034537 6.13175759 3.125 10.5 C2.06012123 13.49497154 1.16447414 14.92840446 -1.63671875 16.46875 C-3.35207554 17.22030592 -5.11208334 17.86801101 -6.875 18.5 C34.76324807 34.41055008 85.35844974 31.39120707 125.93896484 13.73510742 C130.91346193 11.65150907 134.72104292 11.02182469 140.125 11.5 C143.10217008 13.48478006 144.75326444 14.86831119 145.56640625 18.4375 C145.77485669 21.98788164 145.4936992 23.86125354 143.6796875 27.00390625 C140.11718935 30.48469573 136.32951468 31.78352147 131.6875 33.4375 C130.75446045 33.77813477 129.8214209 34.11876953 128.86010742 34.46972656 C81.16308288 51.56646804 31.26673925 52.54724642 -16.875 36.5 C-16.38 37.345625 -15.885 38.19125 -15.375 39.0625 C-13.67352132 42.96172198 -13.33924853 45.29052413 -13.875 49.5 C-15.67062405 52.25329021 -16.92754922 54.02627461 -19.875 55.5 C-23.74757171 55.86533695 -26.05731753 56.02236182 -29.38354492 53.89746094 C-32.30608055 51.08518266 -33.69352878 48.49138443 -35.42578125 44.828125 C-35.72945114 44.18687683 -36.03312103 43.54562866 -36.34599304 42.88494873 C-36.98161289 41.53306218 -37.61073105 40.17810153 -38.23364258 38.8203125 C-39.18268877 36.76044261 -40.16091756 34.71636576 -41.14257812 32.671875 C-41.75963018 31.34980518 -42.37492326 30.02691268 -42.98828125 28.703125 C-43.54298096 27.51364258 -44.09768066 26.32416016 -44.66918945 25.09863281 C-46.1475527 20.68659106 -46.46545242 18.12652666 -45.875 13.5 C-42.7427805 9.26956394 -39.56336301 7.65534295 -34.62109375 6.078125 C-33.43708984 5.69269531 -32.25308594 5.30726563 -31.03320312 4.91015625 C-29.80537109 4.52730469 -28.57753906 4.14445312 -27.3125 3.75 C-26.08080078 3.35167969 -24.84910156 2.95335937 -23.58007812 2.54296875 C-5.97515212 -3.11747067 -5.97515212 -3.11747067 0 0 Z " fill="#4C5B7C" transform="translate(201.875,450.5)"/>
<path d="M0 0 C1.31215356 0.52625526 2.62465119 1.05165347 3.9375 1.57617188 C7.12903038 2.8534169 10.3157382 4.14222324 13.5 5.4375 C13.17 6.4275 12.84 7.4175 12.5 8.4375 C9.73886191 9.71813868 7.05226483 10.80731132 4.19921875 11.84375 C3.34445953 12.1647467 2.48970032 12.48574341 1.60903931 12.81646729 C-1.19443431 13.86704704 -4.00342114 14.90201248 -6.8125 15.9375 C-8.75091212 16.66173517 -10.68881741 17.38732824 -12.6262207 18.11425781 C-15.53595383 19.20599645 -18.44589955 20.29709417 -21.35740662 21.38409424 C-29.00014751 24.23847224 -36.60318493 27.18090705 -44.1875 30.1875 C-58.92895876 36.01464146 -73.71380137 41.72465053 -88.5 47.4375 C-88.83 57.3375 -89.16 67.2375 -89.5 77.4375 C-95.0149005 76.21196656 -99.84116393 75.11146244 -105.06640625 73.2734375 C-106.09967041 72.9129834 -107.13293457 72.5525293 -108.19750977 72.18115234 C-109.47295654 71.72949707 -110.74840332 71.2778418 -112.0625 70.8125 C-116.166875 69.36875 -120.27125 67.925 -124.5 66.4375 C-124.5 55.5475 -124.5 44.6575 -124.5 33.4375 C-107.51358876 26.58814063 -90.44681083 19.95312865 -73.37207031 13.328125 C-65.98922153 10.46348299 -58.60765909 7.59553275 -51.2265625 4.72637939 C-48.9350733 3.83584607 -46.64333059 2.94596766 -44.3515625 2.05615234 C-43.63687805 1.77816803 -42.9221936 1.50018372 -42.18585205 1.21377563 C-40.80645353 0.67819374 -39.42622657 0.14473971 -38.04510498 -0.38638306 C-35.1807528 -1.49218511 -32.34810075 -2.63029514 -29.54394531 -3.88183594 C-18.66082631 -8.72107752 -10.39425699 -4.23250995 0 0 Z " fill="#E1E0E0" transform="translate(306.5,26.5625)"/>
<path d="M0 0 C3.31207066 3.08113729 6.14251319 6.49957866 9 10 C9.8146875 10.97839844 10.629375 11.95679688 11.46875 12.96484375 C13.66901652 15.62588037 15.85040562 18.29789943 18 21 C18.56976563 21.68449219 19.13953125 22.36898438 19.7265625 23.07421875 C21.38923518 25.58862866 21.45232995 27.93841528 21.59375 30.90234375 C19.68962207 37.62942729 10.55578503 42.05240222 5.1875 45.75 C4.22779297 46.43449219 3.26808594 47.11898437 2.27929688 47.82421875 C-3.23168991 51.62360213 -7.22375506 54.05323649 -14 54 C-16.96218928 52.77648704 -18.44338765 51.76865515 -20.3125 49.1875 C-21.22536701 46.28292315 -21.3155758 44.02952772 -21 41 C-19.48046875 38.8125 -19.48046875 38.8125 -18 37 C-32.13289051 37.06794659 -44.97640358 43.65598548 -56 52 C-56.65226562 52.46921875 -57.30453125 52.9384375 -57.9765625 53.421875 C-72.36553114 64.59139403 -78.89669003 81.97582575 -82.17578125 99.19921875 C-83.25664224 104.18347344 -83.74496445 106.16330963 -88 109 C-92.50611509 109.43607565 -94.9048259 109.55923784 -98.9375 107.5 C-101.78516507 104.04828476 -102.22264376 101.33500501 -102 97 C-98.78224608 72.44345692 -86.42151567 50.4143656 -67 35 C-63.44307586 32.45261462 -59.79204446 30.17963775 -56 28 C-55.11054688 27.47535156 -54.22109375 26.95070313 -53.3046875 26.41015625 C-41.54307807 19.9723951 -27.40708389 16.33141106 -14 16 C-14.32355469 15.236875 -14.64710938 14.47375 -14.98046875 13.6875 C-16.57288584 9.48986416 -16.57650858 6.4092432 -14.875 2.25 C-10.88879196 -2.53344964 -5.27466951 -3.13891376 0 0 Z " fill="#187FF2" transform="translate(422,256)"/>
<path d="M0 0 C3.11791992 1.12988281 3.11791992 1.12988281 6.23046875 2.703125 C7.36291016 3.27160156 8.49535156 3.84007812 9.66210938 4.42578125 C10.82548828 5.02777344 11.98886719 5.62976563 13.1875 6.25 C14.36248047 6.83652344 15.53746094 7.42304688 16.74804688 8.02734375 C26.55524272 13.01215489 26.55524272 13.01215489 30 17 C30.80077021 20.08710724 30.62666145 22.88332976 30 26 C28 29.0625 28 29.0625 25 31 C22.19282375 31.39435378 19.85768227 31.24217646 17 31 C29.40911209 47.76483578 46.29062544 57.89576968 67 61 C79.43707906 62.35065925 92.14105475 60.55358821 103.765625 55.890625 C107.01673126 54.5947295 109.53649942 54.62891065 113 55 C115.75329021 56.79562405 117.52627461 58.05254922 119 61 C119.2562883 64.18172543 118.99669237 66.96246136 118 70 C110.51547539 78.38602197 93.48740689 80.50096921 82.86572266 81.12548828 C55.18505093 82.28736419 31.77294029 73.17743908 10.9375 55.22265625 C5.55634375 50.12799674 1.33106481 43.98099427 -3 38 C-3.61875 38.969375 -4.2375 39.93875 -4.875 40.9375 C-7 44 -7 44 -9 45 C-15.94263424 45.68288206 -15.94263424 45.68288206 -20 43.0625 C-22.6623477 38.98578008 -22.57326466 35.68710906 -22 31 C-20.84928558 26.46245894 -19.32943397 22.09159566 -17.75 17.6875 C-17.15638672 15.93856445 -17.15638672 15.93856445 -16.55078125 14.15429688 C-13.26411985 4.79539384 -10.74115112 -0.66039375 0 0 Z " fill="#187FF2" transform="translate(336,375)"/>
<path d="M0 0 C5.03220109 1.23028346 8.59885387 5.12459475 12.30078125 8.5625 C13.55955078 9.68398438 13.55955078 9.68398438 14.84375 10.828125 C32.05579537 26.94607137 40.93703865 49.84358238 42.24169922 73.14453125 C42.65085585 89.88952005 38.53917105 105.54954338 31.30078125 120.5625 C32.35265625 120.48 33.40453125 120.3975 34.48828125 120.3125 C38.8696595 120.59980349 40.24923706 121.51095581 43.30078125 124.5625 C44.85102589 127.66298928 44.5907014 130.14144218 44.30078125 133.5625 C43.05078125 136.3125 43.05078125 136.3125 40.30078125 138.5625 C36.38133756 139.97273744 32.38068284 140.7538297 28.30078125 141.5625 C26.43486328 141.98208984 26.43486328 141.98208984 24.53125 142.41015625 C9.1317771 145.76465136 9.1317771 145.76465136 3.30078125 144.5625 C0.26813614 142.39632492 -1.31029959 141.00927926 -2.28515625 137.3828125 C-3.14025045 131.55849162 -3.33092956 125.66715441 -3.59521484 119.79150391 C-3.66220193 118.35584178 -3.73740803 116.92052764 -3.82275391 115.48583984 C-4.44072243 104.85415157 -4.44072243 104.85415157 -1.76171875 100.1875 C2.37548667 97.99224815 5.73316943 97.24830993 10.30078125 98.5625 C12.77570857 100.60305232 14.55701354 102.88188453 16.30078125 105.5625 C23.45886553 83.26942572 24.17078798 64.02045133 13.8046875 42.44921875 C8.54289007 32.7205717 1.21667365 24.66435106 -7.32421875 17.6875 C-9.86728946 15.53085071 -10.64339018 14.70647896 -11.88671875 11.5 C-11.65336065 7.84405643 -10.65928117 5.64259809 -8.69921875 2.5625 C-5.62098012 0.51034091 -3.6892436 -0.10791206 0 0 Z " fill="#187FF2" transform="translate(461.69921875,287.4375)"/>
<path d="M0 0 C1.01938156 0.39740639 1.01938156 0.39740639 2.05935669 0.80284119 C4.21100965 1.6430911 6.35941032 2.49132123 8.5078125 3.33984375 C9.97375017 3.91394329 11.43989409 4.48751645 12.90625 5.06054688 C16.48418538 6.46006853 20.05922793 7.86675165 23.6328125 9.27734375 C20.45968626 11.39276124 17.26499925 12.69154893 13.73046875 14.04296875 C13.03372543 14.31274033 12.33698212 14.5825119 11.61912537 14.86045837 C9.31245613 15.75274242 7.00387745 16.63997728 4.6953125 17.52734375 C3.07406868 18.15366443 1.4529772 18.78037955 -0.16796875 19.4074707 C-3.54480867 20.71347793 -6.92230301 22.01777112 -10.30029297 23.32080078 C-17.41022235 26.06461164 -24.51304204 28.8266443 -31.61541748 31.5899353 C-33.8621022 32.46286789 -36.10987138 33.33295367 -38.35791016 34.20239258 C-45.4656164 36.95487518 -52.55260767 39.74637486 -59.60546875 42.63671875 C-60.90087285 43.16293206 -62.19644181 43.68873973 -63.4921875 44.21411133 C-65.876737 45.18457119 -68.25609048 46.16794175 -70.62890625 47.16674805 C-71.68335938 47.59383057 -72.7378125 48.02091309 -73.82421875 48.4609375 C-74.73147705 48.83790771 -75.63873535 49.21487793 -76.57348633 49.60327148 C-82.66873503 51.07395065 -87.99031444 48.84731345 -93.61328125 46.5546875 C-94.26925797 46.28974991 -94.92523468 46.02481232 -95.60108948 45.75184631 C-97.67201658 44.91349216 -99.73833074 44.06439152 -101.8046875 43.21484375 C-103.21780675 42.64055649 -104.63121582 42.06698184 -106.04492188 41.49414062 C-109.48906458 40.09676 -112.92916013 38.68971398 -116.3671875 37.27734375 C-113.91780173 35.64441991 -111.97795083 34.62558254 -109.28686523 33.56005859 C-108.46015823 33.23088943 -107.63345123 32.90172028 -106.7816925 32.56257629 C-105.42989143 32.03080025 -105.42989143 32.03080025 -104.05078125 31.48828125 C-102.62870613 30.92454048 -102.62870613 30.92454048 -101.17790222 30.34941101 C-98.05503005 29.11313739 -94.92997542 27.8824964 -91.8046875 26.65234375 C-89.6430655 25.79874905 -87.48144441 24.94515202 -85.31982422 24.09155273 C-69.1742623 17.72712241 -52.97988336 11.49513041 -36.74780273 5.35498047 C-35.92350266 5.04292664 -35.09920258 4.7308728 -34.24992371 4.40936279 C-32.67726328 3.81500883 -31.10389592 3.22252118 -29.52973938 2.63214111 C-24.77705861 0.84298203 -20.09763766 -1.06205963 -15.48583984 -3.19360352 C-10.13958516 -4.52862701 -4.91990607 -1.95637798 0 0 Z " fill="#994F1F" transform="translate(263.3671875,9.72265625)"/>
</svg>
