<?xml version="1.0" encoding="UTF-8"?>
<svg version="1.1" xmlns="http://www.w3.org/2000/svg" width="512" height="512">
<path d="M0 0 C2.50324395 1.53373655 4.88248658 3.1599127 7.26269531 4.87695312 C19.69259526 13.74888715 31.1912977 15.93504343 46.17431641 18.07373047 C87.00324896 24.42566699 127.20904264 43.2582932 159.62988281 68.61132812 C160.50257813 69.28421875 161.37527344 69.95710938 162.27441406 70.65039062 C164.75858164 72.60080329 167.1977963 74.59638356 169.62988281 76.61132812 C170.62632812 77.42214844 171.62277344 78.23296875 172.64941406 79.06835938 C187.25856409 91.138486 201.02106829 104.62153503 212.62988281 119.61132812 C214.23066399 121.48921932 215.83504567 123.3640453 217.44238281 125.23632812 C232.11913807 142.84389054 244.34500217 162.70406136 255.62988281 182.61132812 C256.10087402 183.43826172 256.57186523 184.26519531 257.05712891 185.1171875 C271.22848383 210.1642334 283.19665745 236.41984773 294.43261719 262.89501953 C295.3808183 265.12658364 296.34111924 267.35306042 297.31567383 269.57324219 C298.1597072 271.52441278 298.96123555 273.49483536 299.70776367 275.48535156 C301.79775868 280.56499901 303.61851787 283.07785323 308.66503906 285.42382812 C310.6623419 286.18475309 312.67250482 286.91253035 314.69238281 287.61132812 C316.86772708 288.44160969 319.04088204 289.27764784 321.21191406 290.11914062 C322.29553223 290.53196289 323.37915039 290.94478516 324.49560547 291.37011719 C356.54009384 304.06011398 385.46276412 325.39263153 410.62988281 348.61132812 C412.07621094 349.90296875 412.07621094 349.90296875 413.55175781 351.22070312 C433.1546581 368.7755858 433.1546581 368.7755858 433.90332031 374.81835938 C433.93683594 375.67816406 433.97035156 376.53796875 434.00488281 377.42382812 C434.05386719 378.27589844 434.10285156 379.12796875 434.15332031 380.00585938 C433.35905705 383.95939367 431.83777324 385.17364901 428.62988281 387.61132812 C425.09928692 389.14467184 421.46156597 390.15245848 417.75488281 391.17382812 C416.06818481 391.65722656 416.06818481 391.65722656 414.34741211 392.15039062 C394.5577347 397.72125612 374.56994665 402.61288007 354.62988281 407.61132812 C362.6823589 417.29468544 370.52329045 426.31277762 380.62988281 433.92382812 C381.36609863 434.48360352 382.10231445 435.04337891 382.86083984 435.62011719 C387.63272617 439.21207966 392.50447316 442.5971 397.50488281 445.86132812 C410.66881449 454.49033319 424.64017302 465.47468289 433.62988281 478.61132812 C434.50655425 483.46856176 434.34416274 487.44467091 431.75488281 491.67382812 C428.15485138 494.95620973 425.1400433 495.25283918 420.36669922 495.19628906 C414.95931795 494.04052764 411.86505324 489.721068 408.31738281 485.73632812 C406.65760313 483.9758376 404.99224387 482.22059041 403.32128906 480.47070312 C402.11883545 479.20323242 402.11883545 479.20323242 400.89208984 477.91015625 C393.51839255 470.41709196 384.51449659 464.80474552 375.88378906 458.88476562 C365.78919248 451.83187822 356.5540808 444.08545849 347.62988281 435.61132812 C346.90027344 434.95777344 346.17066406 434.30421875 345.41894531 433.63085938 C335.96327108 424.86660796 327.06214396 411.45454424 326.06738281 398.29882812 C326.61249296 394.72532824 327.25055688 392.46351227 329.79907227 389.83520508 C332.06363126 388.321372 334.01535871 387.82455373 336.67285156 387.21679688 C337.74293457 386.96615479 338.81301758 386.7155127 339.91552734 386.45727539 C341.14126465 386.17811279 342.36700195 385.8989502 343.62988281 385.61132812 C345.04150926 385.27931709 346.45278945 384.9458313 347.86376953 384.61108398 C350.98727462 383.87046603 354.11158861 383.13346219 357.23681641 382.40014648 C371.7523711 378.99259633 386.25340341 375.57382037 400.62988281 371.61132812 C399.86546875 370.85078125 399.10105469 370.09023438 398.31347656 369.30664062 C396.89326973 367.88023202 395.47758222 366.44851061 394.10253906 364.97851562 C388.24962714 358.78512961 381.39190012 353.75436915 374.62988281 348.61132812 C374.03111328 348.15177734 373.43234375 347.69222656 372.81542969 347.21875 C363.502969 340.09507224 353.81703559 333.80502634 343.72119141 327.84863281 C341.85493239 326.74447677 340.00097567 325.62268065 338.14941406 324.49414062 C326.24981414 317.41409193 313.51232582 311.64648877 300.61425781 306.63085938 C299.84315674 306.32865479 299.07205566 306.0264502 298.27758789 305.71508789 C296.85671478 305.1662319 295.42973571 304.63279721 293.99584961 304.11889648 C286.04887862 301.06762108 283.01796253 295.04392598 279.69238281 287.73632812 C279.31960205 286.93461182 278.94682129 286.13289551 278.56274414 285.30688477 C274.54622273 276.58770291 270.74426064 267.77130173 266.91226196 258.96994019 C258.15015904 238.84834516 249.22580147 218.84810984 238.62988281 199.61132812 C238.18741211 198.79954102 237.74494141 197.98775391 237.2890625 197.15136719 C225.8141701 176.1828006 212.63665178 156.22429779 197.62988281 137.61132812 C197.17339355 137.04446289 196.7169043 136.47759766 196.24658203 135.89355469 C152.23025571 81.68752103 90.88216681 45.5878077 21.00488281 37.54882812 C19.91949219 37.45472656 18.83410156 37.360625 17.71582031 37.26367188 C11.96758401 36.04853838 7.40424088 32.52230112 2.64819336 29.2121582 C-12.51338393 18.70183381 -35.12044146 3.16692486 -54.37011719 5.61132812 C-55.76629827 6.81073634 -55.76629827 6.81073634 -55.93261719 10.23632812 C-55.75538958 22.6619527 -44.48420764 35.06366124 -37.37011719 44.61132812 C-16.50747076 72.74730863 -16.50747076 72.74730863 -13.37011719 88.61132812 C-7.16150248 117.36603008 2.7852128 144.45528312 19.84082031 168.67382812 C20.51516113 169.63482422 20.51516113 169.63482422 21.203125 170.61523438 C22.21797753 172.03505543 23.25793304 173.43707764 24.31445312 174.82617188 C27.22576549 178.81707459 29.63081889 182.18186919 29.19384766 187.36914062 C27.88185589 192.58530182 25.32609854 197.31851209 22.94238281 202.11132812 C13.00665134 222.88761872 7.99745219 242.86763712 8.19238281 265.92382812 C8.19509186 266.68180695 8.1978009 267.43978577 8.20059204 268.22073364 C8.30612175 287.7611894 10.63983773 306.5013946 22.39550781 322.77148438 C23.62988281 324.61132812 23.62988281 324.61132812 24.62988281 327.61132812 C26.4292086 328.67849516 26.4292086 328.67849516 28.62988281 329.61132812 C29.83644531 330.41570312 29.83644531 330.41570312 31.06738281 331.23632812 C33.91016968 332.76172596 35.46861552 332.72743477 38.62988281 332.61132812 C41.61148888 324.43635084 44.08449898 316.31502262 45.87988281 307.79882812 C46.04262695 307.03594482 46.20537109 306.27306152 46.37304688 305.48706055 C47.90072764 297.94677208 48.63634904 290.47001169 48.77050781 282.77929688 C48.79951172 281.30493164 48.79951172 281.30493164 48.82910156 279.80078125 C48.86328262 277.78015478 48.88120972 275.75919515 48.88378906 273.73828125 C49.06942651 266.33720944 49.06942651 266.33720944 52.05175781 262.47460938 C55.6583821 259.86800364 57.91130752 259.42098533 62.36425781 259.08789062 C65.95159465 259.91668914 68.30316349 261.86567042 70.62988281 264.61132812 C72.18713026 267.56128367 73.20556565 270.63813431 74.25488281 273.79882812 C89.57473369 316.57067477 114.40203811 361.42236138 151.67675781 388.99804688 C155.2624275 391.95981004 156.52704142 393.81430736 157.12988281 398.48632812 C156.96948445 403.25372396 154.9726782 405.3481231 151.62988281 408.61132812 C148.24507397 410.30373254 145.24724088 410.41908769 141.62988281 409.61132812 C135.43107674 406.1122886 130.16574555 401.44704309 125.28613281 396.30273438 C123.58854395 394.56911179 121.80518022 393.0399317 119.94238281 391.48632812 C97.40674473 371.8976581 81.8859302 345.42224168 67.62988281 319.61132812 C67.41074219 320.55492187 67.19160156 321.49851562 66.96582031 322.47070312 C64.16720721 334.0095073 60.7073539 346.3094317 50.62988281 353.61132812 C42.99908074 357.9583834 35.49373797 357.30510613 27.25488281 355.11132812 C11.85187773 350.00098532 2.74250713 338.28934074 -4.47412109 324.41064453 C-20.86176726 291.50139325 -18.45759999 246.80326612 -7.37011719 212.61132812 C-5.22526585 206.94672075 -2.76920472 201.44165826 -0.22558594 195.94726562 C1.31374368 192.4960864 2.54045899 189.44537444 2.62988281 185.61132812 C1.59626329 183.37393957 1.59626329 183.37393957 -0.18261719 181.36132812 C-5.77335705 173.93299448 -10.03738211 165.81452268 -14.37011719 157.61132812 C-14.89822998 156.62447021 -14.89822998 156.62447021 -15.43701172 155.61767578 C-24.73389165 138.00946694 -31.04766145 118.07574938 -35.05761719 98.61132812 C-38.14508847 83.791734 -45.39053038 72.55605607 -54.37011719 60.61132812 C-80.11120546 26.1756326 -80.11120546 26.1756326 -78.37011719 3.61132812 C-77.07760251 -3.52631661 -74.35025497 -8.24722623 -68.85839844 -12.95117188 C-45.8106409 -26.26604593 -20.22787886 -11.69614847 0 0 Z " fill="#3184D6" transform="translate(78.3701171875,17.388671875)"/>
<path d="M0 0 C7.24044998 4.35413772 11.80426754 10.50918596 15.04296875 18.25390625 C16.96629349 30.43496295 16.96629349 30.43496295 13.85546875 35.87890625 C10.71878259 38.57994155 8.85664846 39.6532089 4.73046875 40.19140625 C0.76059361 39.71502123 -1.28989661 38.28600199 -4.39453125 35.81640625 C-6.27953989 32.98889328 -6.81770782 31.53988571 -7.45703125 28.31640625 C-7.9815315 25.71557857 -8.552496 23.342512 -9.39453125 20.81640625 C-12.02293205 19.92898793 -12.02293205 19.92898793 -15.14453125 19.37890625 C-19.81294379 18.32421138 -23.0301139 17.41285238 -26.39453125 13.81640625 C-28.25308407 10.09930062 -27.97361564 5.86363344 -27.39453125 1.81640625 C-20.3259419 -7.54469857 -9.24724321 -4.57082332 0 0 Z " fill="#3C8AD9" transform="translate(123.39453125,78.18359375)"/>
</svg>
